# vtk DataFile Version 3.0
Hydrogen reservoir; coordinates in metres, z positive down
ASCII
DATASET RECTILINEAR_GRID
DIMENSIONS 22 22 6
X_COORDINATES 22 double
0 47.619047619 95.2380952381 142.857142857 190.476190476 238.095238095 285.714285714 333.333333333 380.952380952 428.571428571 476.19047619 523.80952381 571.428571429 619.047619048 666.666666667 714.285714286 761.904761905 809.523809524 857.142857143 904.761904762 952.380952381 1000
Y_COORDINATES 22 double
0 47.619047619 95.2380952381 142.857142857 190.476190476 238.095238095 285.714285714 333.333333333 380.952380952 428.571428571 476.19047619 523.80952381 571.428571429 619.047619048 666.666666667 714.285714286 761.904761905 809.523809524 857.142857143 904.761904762 952.380952381 1000
Z_COORDINATES 6 double
985 991 997 1003 1009 1015
CELL_DATA 2205
SCALARS pressure_bar double 1
LOOKUP_TABLE default
50.5336923297
50.5176386103
50.4866069477
50.4427203472
50.389151425
50.3300856048
50.2705345998
50.216026386
50.1720492249
50.1434222775
50.1334796432
50.1434222775
50.1720492249
50.216026386
50.2705345998
50.3300856048
50.389151425
50.4427203472
50.4866069477
50.5176386103
50.5336923297
50.5176386103
50.5005257912
50.4673704062
50.4203064567
50.3625848772
50.2985516385
50.2335377753
50.173562683
50.1248241943
50.0929102941
50.081788042
50.0929102941
50.1248241943
50.173562683
50.2335377753
50.2985516385
50.3625848772
50.4203064567
50.4673704062
50.5005257912
50.5176386103
50.4866069477
50.4673704062
50.4299408061
50.3764617927
50.3102692769
50.2359830537
50.159514173
50.0879183175
50.0288913173
49.9897748757
49.9760442586
49.9897748757
50.0288913173
50.0879183175
50.159514173
50.2359830537
50.3102692769
50.3764617927
50.4299408061
50.4673704062
50.4866069477
50.4427203472
50.4203064567
50.3764617927
50.3132430088
50.233981429
50.1435326165
50.0485710203
49.9577070545
49.881106611
49.8293363869
49.8109324652
49.8293363869
49.881106611
49.9577070545
50.0485710203
50.1435326165
50.233981429
50.3132430088
50.3764617927
50.4203064567
50.4427203472
50.389151425
50.3625848772
50.3102692769
50.233981429
50.1367631632
50.0234596136
49.9014009781
49.7810549249
49.676352367
49.6034319245
49.5769432355
49.6034319245
49.676352367
49.7810549249
49.9014009781
50.0234596136
50.1367631632
50.233981429
50.3102692769
50.3625848772
50.389151425
50.3300856048
50.2985516385
50.2359830537
50.1435326165
50.0234596136
49.8799215359
49.7201814545
49.5563786927
49.4073334399
49.2986192868
49.2575310565
49.2986192868
49.4073334399
49.5563786927
49.7201814545
49.8799215359
50.0234596136
50.1435326165
50.2359830537
50.2985516385
50.3300856048
50.2705345998
50.2335377753
50.159514173
50.0485710203
49.9014009781
49.7201814545
49.5103933375
49.284115228
49.0649006828
48.8930116078
48.8227998158
48.8930116078
49.0649006828
49.284115228
49.5103933375
49.7201814545
49.9014009781
50.0485710203
50.159514173
50.2335377753
50.2705345998
50.216026386
50.173562683
50.0879183175
49.9577070545
49.7810549249
49.5563786927
49.284115228
48.9712271843
48.6409554955
48.3510817329
48.2129826302
48.3510817329
48.6409554955
48.9712271843
49.284115228
49.5563786927
49.7810549249
49.9577070545
50.0879183175
50.173562683
50.216026386
50.1720492249
50.1248241943
50.0288913173
49.881106611
49.676352367
49.4073334399
49.0649006828
48.6409554955
48.1402828616
47.6194789093
47.288457525
47.6194789093
48.1402828616
48.6409554955
49.0649006828
49.4073334399
49.676352367
49.881106611
50.0288913173
50.1248241943
50.1720492249
50.1434222775
50.0929102941
49.9897748757
49.8293363869
49.6034319245
49.2986192868
48.8930116078
48.3510817329
47.6194789093
46.651951649
45.6504880802
46.651951649
47.6194789093
48.3510817329
48.8930116078
49.2986192868
49.6034319245
49.8293363869
49.9897748757
50.0929102941
50.1434222775
50.1334796432
50.081788042
49.9760442586
49.8109324652
49.5769432355
49.2575310565
48.8227998158
48.2129826302
47.288457525
45.6504880802
41.8816418149
45.6504880802
47.288457525
48.2129826302
48.8227998158
49.2575310565
49.5769432355
49.8109324652
49.9760442586
50.081788042
50.1334796432
50.1434222775
50.0929102941
49.9897748757
49.8293363869
49.6034319245
49.2986192868
48.8930116078
48.3510817329
47.6194789093
46.651951649
45.6504880802
46.651951649
47.6194789093
48.3510817329
48.8930116078
49.2986192868
49.6034319245
49.8293363869
49.9897748757
50.0929102941
50.1434222775
50.1720492249
50.1248241943
50.0288913173
49.881106611
49.676352367
49.4073334399
49.0649006828
48.6409554955
48.1402828616
47.6194789093
47.288457525
47.6194789093
48.1402828616
48.6409554955
49.0649006828
49.4073334399
49.676352367
49.881106611
50.0288913173
50.1248241943
50.1720492249
50.216026386
50.173562683
50.0879183175
49.9577070545
49.7810549249
49.5563786927
49.284115228
48.9712271843
48.6409554955
48.3510817329
48.2129826302
48.3510817329
48.6409554955
48.9712271843
49.284115228
49.5563786927
49.7810549249
49.9577070545
50.0879183175
50.173562683
50.216026386
50.2705345998
50.2335377753
50.159514173
50.0485710203
49.9014009781
49.7201814545
49.5103933375
49.284115228
49.0649006828
48.8930116078
48.8227998158
48.8930116078
49.0649006828
49.284115228
49.5103933375
49.7201814545
49.9014009781
50.0485710203
50.159514173
50.2335377753
50.2705345998
50.3300856048
50.2985516385
50.2359830537
50.1435326165
50.0234596136
49.8799215359
49.7201814545
49.5563786927
49.4073334399
49.2986192868
49.2575310565
49.2986192868
49.4073334399
49.5563786927
49.7201814545
49.8799215359
50.0234596136
50.1435326165
50.2359830537
50.2985516385
50.3300856048
50.389151425
50.3625848772
50.3102692769
50.233981429
50.1367631632
50.0234596136
49.9014009781
49.7810549249
49.676352367
49.6034319245
49.5769432355
49.6034319245
49.676352367
49.7810549249
49.9014009781
50.0234596136
50.1367631632
50.233981429
50.3102692769
50.3625848772
50.389151425
50.4427203472
50.4203064567
50.3764617927
50.3132430088
50.233981429
50.1435326165
50.0485710203
49.9577070545
49.881106611
49.8293363869
49.8109324652
49.8293363869
49.881106611
49.9577070545
50.0485710203
50.1435326165
50.233981429
50.3132430088
50.3764617927
50.4203064567
50.4427203472
50.4866069477
50.4673704062
50.4299408061
50.3764617927
50.3102692769
50.2359830537
50.159514173
50.0879183175
50.0288913173
49.9897748757
49.9760442586
49.9897748757
50.0288913173
50.0879183175
50.159514173
50.2359830537
50.3102692769
50.3764617927
50.4299408061
50.4673704062
50.4866069477
50.5176386103
50.5005257912
50.4673704062
50.4203064567
50.3625848772
50.2985516385
50.2335377753
50.173562683
50.1248241943
50.0929102941
50.081788042
50.0929102941
50.1248241943
50.173562683
50.2335377753
50.2985516385
50.3625848772
50.4203064567
50.4673704062
50.5005257912
50.5176386103
50.5336923297
50.5176386103
50.4866069477
50.4427203472
50.389151425
50.3300856048
50.2705345998
50.216026386
50.1720492249
50.1434222775
50.1334796432
50.1434222775
50.1720492249
50.216026386
50.2705345998
50.3300856048
50.389151425
50.4427203472
50.4866069477
50.5176386103
50.5336923297
50.5358171602
50.5197626766
50.4887294089
50.4448414324
50.3912703227
50.3322021065
50.2726485851
50.2181378515
50.174159207
50.1455311383
50.1355881042
50.1455311383
50.174159207
50.2181378515
50.2726485851
50.3322021065
50.3912703227
50.4448414324
50.4887294089
50.5197626766
50.5358171602
50.5197626766
50.5026488016
50.4694921074
50.4224265763
50.3647026843
50.3006667753
50.2356499647
50.1756726982
50.1269322803
50.0950170485
50.0838943398
50.0950170485
50.1269322803
50.1756726982
50.2356499647
50.3006667753
50.3647026843
50.4224265763
50.4694921074
50.5026488016
50.5197626766
50.4887294089
50.4694921074
50.4320612759
50.3785801536
50.3123848851
50.2380953355
50.1616236391
50.0900248759
50.0309954578
49.9918770428
49.9781458566
49.9918770428
50.0309954578
50.0900248759
50.1616236391
50.2380953355
50.3123848851
50.3785801536
50.4320612759
50.4694921074
50.4887294089
50.4448414324
50.4224265763
50.3785801536
50.3153587372
50.2360936324
50.1456414437
50.0506759708
49.9598080484
49.8832047252
49.8314324162
49.8130277203
49.8314324162
49.8832047252
49.9598080484
50.0506759708
50.1456414437
50.2360936324
50.3153587372
50.3785801536
50.4224265763
50.4448414324
50.3912703227
50.3647026843
50.3123848851
50.2360936324
50.138871719
50.0255635626
49.9034999
49.7831489234
49.6784421762
49.6055187037
49.5790289169
49.6055187037
49.6784421762
49.7831489234
49.9034999
50.0255635626
50.138871719
50.2360936324
50.3123848851
50.3647026843
50.3912703227
50.3322021065
50.3006667753
50.2380953355
50.1456414437
50.0255635626
49.8820195475
49.7222726521
49.5584635049
49.4094121515
49.3006935731
49.2596033382
49.3006935731
49.4094121515
49.5584635049
49.7222726521
49.8820195475
50.0255635626
50.1456414437
50.2380953355
50.3006667753
50.3322021065
50.2726485851
50.2356499647
50.1616236391
50.0506759708
49.9034999
49.7222726521
49.5124762421
49.2861889012
49.0669654285
48.895069343
48.8248547817
48.895069343
49.0669654285
49.2861889012
49.5124762421
49.7222726521
49.9034999
50.0506759708
50.1616236391
50.2356499647
50.2726485851
50.2181378515
50.1756726982
50.0900248759
49.9598080484
49.7831489234
49.5584635049
49.2861889012
48.9732877431
48.6430028956
48.3531173083
48.2150123662
48.3531173083
48.6430028956
48.9732877431
49.2861889012
49.5584635049
49.7831489234
49.9598080484
50.0900248759
50.1756726982
50.2181378515
50.174159207
50.1269322803
50.0309954578
49.8832047252
49.6784421762
49.4094121515
49.0669654285
48.6430028956
48.142309897
47.6214849762
47.2904506902
47.6214849762
48.142309897
48.6430028956
49.0669654285
49.4094121515
49.6784421762
49.8832047252
50.0309954578
50.1269322803
50.174159207
50.1455311383
50.0950170485
49.9918770428
49.8314324162
49.6055187037
49.3006935731
48.895069343
48.3531173083
47.6214849762
46.6539197811
45.6524205575
46.6539197811
47.6214849762
48.3531173083
48.895069343
49.3006935731
49.6055187037
49.8314324162
49.9918770428
50.0950170485
50.1455311383
50.1355881042
50.0838943398
49.9781458566
49.8130277203
49.5790289169
49.2596033382
48.8248547817
48.2150123662
47.2904506902
45.6524205575
41.8834682737
45.6524205575
47.2904506902
48.2150123662
48.8248547817
49.2596033382
49.5790289169
49.8130277203
49.9781458566
50.0838943398
50.1355881042
50.1455311383
50.0950170485
49.9918770428
49.8314324162
49.6055187037
49.3006935731
48.895069343
48.3531173083
47.6214849762
46.6539197811
45.6524205575
46.6539197811
47.6214849762
48.3531173083
48.895069343
49.3006935731
49.6055187037
49.8314324162
49.9918770428
50.0950170485
50.1455311383
50.174159207
50.1269322803
50.0309954578
49.8832047252
49.6784421762
49.4094121515
49.0669654285
48.6430028956
48.142309897
47.6214849762
47.2904506902
47.6214849762
48.142309897
48.6430028956
49.0669654285
49.4094121515
49.6784421762
49.8832047252
50.0309954578
50.1269322803
50.174159207
50.2181378515
50.1756726982
50.0900248759
49.9598080484
49.7831489234
49.5584635049
49.2861889012
48.9732877431
48.6430028956
48.3531173083
48.2150123662
48.3531173083
48.6430028956
48.9732877431
49.2861889012
49.5584635049
49.7831489234
49.9598080484
50.0900248759
50.1756726982
50.2181378515
50.2726485851
50.2356499647
50.1616236391
50.0506759708
49.9034999
49.7222726521
49.5124762421
49.2861889012
49.0669654285
48.895069343
48.8248547817
48.895069343
49.0669654285
49.2861889012
49.5124762421
49.7222726521
49.9034999
50.0506759708
50.1616236391
50.2356499647
50.2726485851
50.3322021065
50.3006667753
50.2380953355
50.1456414437
50.0255635626
49.8820195475
49.7222726521
49.5584635049
49.4094121515
49.3006935731
49.2596033382
49.3006935731
49.4094121515
49.5584635049
49.7222726521
49.8820195475
50.0255635626
50.1456414437
50.2380953355
50.3006667753
50.3322021065
50.3912703227
50.3647026843
50.3123848851
50.2360936324
50.138871719
50.0255635626
49.9034999
49.7831489234
49.6784421762
49.6055187037
49.5790289169
49.6055187037
49.6784421762
49.7831489234
49.9034999
50.0255635626
50.138871719
50.2360936324
50.3123848851
50.3647026843
50.3912703227
50.4448414324
50.4224265763
50.3785801536
50.3153587372
50.2360936324
50.1456414437
50.0506759708
49.9598080484
49.8832047252
49.8314324162
49.8130277203
49.8314324162
49.8832047252
49.9598080484
50.0506759708
50.1456414437
50.2360936324
50.3153587372
50.3785801536
50.4224265763
50.4448414324
50.4887294089
50.4694921074
50.4320612759
50.3785801536
50.3123848851
50.2380953355
50.1616236391
50.0900248759
50.0309954578
49.9918770428
49.9781458566
49.9918770428
50.0309954578
50.0900248759
50.1616236391
50.2380953355
50.3123848851
50.3785801536
50.4320612759
50.4694921074
50.4887294089
50.5197626766
50.5026488016
50.4694921074
50.4224265763
50.3647026843
50.3006667753
50.2356499647
50.1756726982
50.1269322803
50.0950170485
50.0838943398
50.0950170485
50.1269322803
50.1756726982
50.2356499647
50.3006667753
50.3647026843
50.4224265763
50.4694921074
50.5026488016
50.5197626766
50.5358171602
50.5197626766
50.4887294089
50.4448414324
50.3912703227
50.3322021065
50.2726485851
50.2181378515
50.174159207
50.1455311383
50.1355881042
50.1455311383
50.174159207
50.2181378515
50.2726485851
50.3322021065
50.3912703227
50.4448414324
50.4887294089
50.5197626766
50.5358171602
50.5379419048
50.5218865987
50.4908516
50.4469624097
50.3933891297
50.3343185227
50.2747624416
50.2202490833
50.176269076
50.147639911
50.137696481
50.147639911
50.176269076
50.2202490833
50.2747624416
50.3343185227
50.3933891297
50.4469624097
50.4908516
50.5218865987
50.5379419048
50.5218865987
50.5047715336
50.4716135472
50.4245465742
50.3668203927
50.3027817869
50.2377619286
50.1777825841
50.1290402706
50.0971236925
50.0860005268
50.0971236925
50.1290402706
50.1777825841
50.2377619286
50.3027817869
50.3668203927
50.4245465742
50.4716135472
50.5047715336
50.5218865987
50.4908516
50.4716135472
50.4341816004
50.3806984069
50.3145003632
50.2402073885
50.1637329873
50.0921313293
50.0330994922
49.9939789622
49.9802471984
49.9939789622
50.0330994922
50.0921313293
50.1637329873
50.2402073885
50.3145003632
50.3806984069
50.4341816004
50.4716135472
50.4908516
50.4469624097
50.4245465742
50.3806984069
50.3174743344
50.2382056085
50.1477501605
50.0527808177
49.9619088544
49.8853027543
49.8335283661
49.8151228902
49.8335283661
49.8853027543
49.9619088544
50.0527808177
50.1477501605
50.2382056085
50.3174743344
50.3806984069
50.4245465742
50.4469624097
50.3933891297
50.3668203927
50.3145003632
50.2382056085
50.1409801678
50.0276674215
49.9055987156
49.7852428307
49.6805320137
49.6076053956
49.5811145319
49.6076053956
49.6805320137
49.7852428307
49.9055987156
50.0276674215
50.1409801678
50.2382056085
50.3145003632
50.3668203927
50.3933891297
50.3343185227
50.3027817869
50.2402073885
50.1477501605
50.0276674215
49.8841174354
49.724363628
49.5605482173
49.4114907048
49.3027677904
49.2616757022
49.3027677904
49.4114907048
49.5605482173
49.724363628
49.8841174354
50.0276674215
50.1477501605
50.2402073885
50.3027817869
50.3343185227
50.2747624416
50.2377619286
50.1637329873
50.0527808177
49.9055987156
49.724363628
49.5145590402
49.2882624821
49.0690301051
48.8971270245
48.8269096278
48.8971270245
49.0690301051
49.2882624821
49.5145590402
49.724363628
49.9055987156
50.0527808177
50.1637329873
50.2377619286
50.2747624416
50.2202490833
50.1777825841
50.0921313293
49.9619088544
49.7852428307
49.5605482173
49.2882624821
48.9753481206
48.6450502398
48.3551528716
48.2170420309
48.3551528716
48.6450502398
48.9753481206
49.2882624821
49.5605482173
49.7852428307
49.9619088544
50.0921313293
50.1777825841
50.2202490833
50.176269076
50.1290402706
50.0330994922
49.8853027543
49.6805320137
49.4114907048
49.0690301051
48.6450502398
48.1443369806
47.6234913188
47.2924444591
47.6234913188
48.1443369806
48.6450502398
49.0690301051
49.4114907048
49.6805320137
49.8853027543
50.0330994922
50.1290402706
50.176269076
50.147639911
50.0971236925
49.9939789622
49.8335283661
49.6076053956
49.3027677904
48.8971270245
48.3551528716
47.6234913188
46.6558890461
45.6543560019
46.6558890461
47.6234913188
48.3551528716
48.8971270245
49.3027677904
49.6076053956
49.8335283661
49.9939789622
50.0971236925
50.147639911
50.137696481
50.0860005268
49.9802471984
49.8151228902
49.5811145319
49.2616757022
48.8269096278
48.2170420309
47.2924444591
45.6543560019
41.8853011261
45.6543560019
47.2924444591
48.2170420309
48.8269096278
49.2616757022
49.5811145319
49.8151228902
49.9802471984
50.0860005268
50.137696481
50.147639911
50.0971236925
49.9939789622
49.8335283661
49.6076053956
49.3027677904
48.8971270245
48.3551528716
47.6234913188
46.6558890461
45.6543560019
46.6558890461
47.6234913188
48.3551528716
48.8971270245
49.3027677904
49.6076053956
49.8335283661
49.9939789622
50.0971236925
50.147639911
50.176269076
50.1290402706
50.0330994922
49.8853027543
49.6805320137
49.4114907048
49.0690301051
48.6450502398
48.1443369806
47.6234913188
47.2924444591
47.6234913188
48.1443369806
48.6450502398
49.0690301051
49.4114907048
49.6805320137
49.8853027543
50.0330994922
50.1290402706
50.176269076
50.2202490833
50.1777825841
50.0921313293
49.9619088544
49.7852428307
49.5605482173
49.2882624821
48.9753481206
48.6450502398
48.3551528716
48.2170420309
48.3551528716
48.6450502398
48.9753481206
49.2882624821
49.5605482173
49.7852428307
49.9619088544
50.0921313293
50.1777825841
50.2202490833
50.2747624416
50.2377619286
50.1637329873
50.0527808177
49.9055987156
49.724363628
49.5145590402
49.2882624821
49.0690301051
48.8971270245
48.8269096278
48.8971270245
49.0690301051
49.2882624821
49.5145590402
49.724363628
49.9055987156
50.0527808177
50.1637329873
50.2377619286
50.2747624416
50.3343185227
50.3027817869
50.2402073885
50.1477501605
50.0276674215
49.8841174354
49.724363628
49.5605482173
49.4114907048
49.3027677904
49.2616757022
49.3027677904
49.4114907048
49.5605482173
49.724363628
49.8841174354
50.0276674215
50.1477501605
50.2402073885
50.3027817869
50.3343185227
50.3933891297
50.3668203927
50.3145003632
50.2382056085
50.1409801678
50.0276674215
49.9055987156
49.7852428307
49.6805320137
49.6076053956
49.5811145319
49.6076053956
49.6805320137
49.7852428307
49.9055987156
50.0276674215
50.1409801678
50.2382056085
50.3145003632
50.3668203927
50.3933891297
50.4469624097
50.4245465742
50.3806984069
50.3174743344
50.2382056085
50.1477501605
50.0527808177
49.9619088544
49.8853027543
49.8335283661
49.8151228902
49.8335283661
49.8853027543
49.9619088544
50.0527808177
50.1477501605
50.2382056085
50.3174743344
50.3806984069
50.4245465742
50.4469624097
50.4908516
50.4716135472
50.4341816004
50.3806984069
50.3145003632
50.2402073885
50.1637329873
50.0921313293
50.0330994922
49.9939789622
49.9802471984
49.9939789622
50.0330994922
50.0921313293
50.1637329873
50.2402073885
50.3145003632
50.3806984069
50.4341816004
50.4716135472
50.4908516
50.5218865987
50.5047715336
50.4716135472
50.4245465742
50.3668203927
50.3027817869
50.2377619286
50.1777825841
50.1290402706
50.0971236925
50.0860005268
50.0971236925
50.1290402706
50.1777825841
50.2377619286
50.3027817869
50.3668203927
50.4245465742
50.4716135472
50.5047715336
50.5218865987
50.5379419048
50.5218865987
50.4908516
50.4469624097
50.3933891297
50.3343185227
50.2747624416
50.2202490833
50.176269076
50.147639911
50.137696481
50.147639911
50.176269076
50.2202490833
50.2747624416
50.3343185227
50.3933891297
50.4469624097
50.4908516
50.5218865987
50.5379419048
50.5400667364
50.5240106074
50.4929738757
50.4490834726
50.395508025
50.3364350257
50.2768763842
50.2223603992
50.1783790324
50.1497487695
50.1398049438
50.1497487695
50.1783790324
50.2223603992
50.2768763842
50.3364350257
50.395508025
50.4490834726
50.4929738757
50.5240106074
50.5400667364
50.5240106074
50.5068943503
50.4737350734
50.4266666605
50.3689381879
50.3048968843
50.2398739754
50.1798925588
50.1311483482
50.09923042
50.0881067991
50.09923042
50.1311483482
50.1798925588
50.2398739754
50.3048968843
50.3689381879
50.4266666605
50.4737350734
50.5068943503
50.5240106074
50.4929738757
50.4737350734
50.4363020177
50.3828167461
50.3166159267
50.2423195235
50.1658424252
50.094237869
50.0352036119
49.9960809621
49.9823486232
49.9960809621
50.0352036119
50.094237869
50.1658424252
50.2423195235
50.3166159267
50.3828167461
50.4363020177
50.4737350734
50.4929738757
50.4490834726
50.4266666605
50.3828167461
50.3195900164
50.240317666
50.1498589679
50.0548857512
49.9640097409
49.8874008733
49.8356244066
49.8172181504
49.8356244066
49.8874008733
49.9640097409
50.0548857512
50.1498589679
50.240317666
50.3195900164
50.3828167461
50.4266666605
50.4490834726
50.395508025
50.3689381879
50.3166159267
50.240317666
50.1430887074
50.0297713673
49.9076976168
49.7873368306
49.6826219582
49.6096921729
49.5832002441
49.6096921729
49.6826219582
49.7873368306
49.9076976168
50.0297713673
50.1430887074
50.240317666
50.3166159267
50.3689381879
50.395508025
50.3364350257
50.3048968843
50.2423195235
50.1498589679
50.0297713673
49.8862154077
49.7264546816
49.5626330172
49.4135693285
49.3048421021
49.2637482796
49.3048421021
49.4135693285
49.5626330172
49.7264546816
49.8862154077
50.0297713673
50.1498589679
50.2423195235
50.3048968843
50.3364350257
50.2768763842
50.2398739754
50.1658424252
50.0548857512
49.9076976168
49.7264546816
49.5166419326
49.290336148
49.0710948647
48.8991847859
48.8289645101
48.8991847859
49.0710948647
49.290336148
49.5166419326
49.7264546816
49.9076976168
50.0548857512
50.1658424252
50.2398739754
50.2768763842
50.2223603992
50.1798925588
50.094237869
49.9640097409
49.7873368306
49.5626330172
49.290336148
48.9774085717
48.6470976719
48.3571885165
48.2190717534
48.3571885165
48.6470976719
48.9774085717
49.290336148
49.5626330172
49.7873368306
49.9640097409
50.094237869
50.1798925588
50.2223603992
50.1783790324
50.1311483482
50.0352036119
49.8874008733
49.6826219582
49.4135693285
49.0710948647
48.6470976719
48.1463641465
47.6254977261
47.2944382032
47.6254977261
48.1463641465
48.6470976719
49.0710948647
49.4135693285
49.6826219582
49.8874008733
50.0352036119
50.1311483482
50.1783790324
50.1497487695
50.09923042
49.9960809621
49.8356244066
49.6096921729
49.3048421021
48.8991847859
48.3571885165
47.6254977261
46.657858152
45.6562902007
46.657858152
47.6254977261
48.3571885165
48.8991847859
49.3048421021
49.6096921729
49.8356244066
49.9960809621
50.09923042
50.1497487695
50.1398049438
50.0881067991
49.9823486232
49.8172181504
49.5832002441
49.2637482796
48.8289645101
48.2190717534
47.2944382032
45.6562902007
41.8871195104
45.6562902007
47.2944382032
48.2190717534
48.8289645101
49.2637482796
49.5832002441
49.8172181504
49.9823486232
50.0881067991
50.1398049438
50.1497487695
50.09923042
49.9960809621
49.8356244066
49.6096921729
49.3048421021
48.8991847859
48.3571885165
47.6254977261
46.657858152
45.6562902007
46.657858152
47.6254977261
48.3571885165
48.8991847859
49.3048421021
49.6096921729
49.8356244066
49.9960809621
50.09923042
50.1497487695
50.1783790324
50.1311483482
50.0352036119
49.8874008733
49.6826219582
49.4135693285
49.0710948647
48.6470976719
48.1463641465
47.6254977261
47.2944382032
47.6254977261
48.1463641465
48.6470976719
49.0710948647
49.4135693285
49.6826219582
49.8874008733
50.0352036119
50.1311483482
50.1783790324
50.2223603992
50.1798925588
50.094237869
49.9640097409
49.7873368306
49.5626330172
49.290336148
48.9774085717
48.6470976719
48.3571885165
48.2190717534
48.3571885165
48.6470976719
48.9774085717
49.290336148
49.5626330172
49.7873368306
49.9640097409
50.094237869
50.1798925588
50.2223603992
50.2768763842
50.2398739754
50.1658424252
50.0548857512
49.9076976168
49.7264546816
49.5166419326
49.290336148
49.0710948647
48.8991847859
48.8289645101
48.8991847859
49.0710948647
49.290336148
49.5166419326
49.7264546816
49.9076976168
50.0548857512
50.1658424252
50.2398739754
50.2768763842
50.3364350257
50.3048968843
50.2423195235
50.1498589679
50.0297713673
49.8862154077
49.7264546816
49.5626330172
49.4135693285
49.3048421021
49.2637482796
49.3048421021
49.4135693285
49.5626330172
49.7264546816
49.8862154077
50.0297713673
50.1498589679
50.2423195235
50.3048968843
50.3364350257
50.395508025
50.3689381879
50.3166159267
50.240317666
50.1430887074
50.0297713673
49.9076976168
49.7873368306
49.6826219582
49.6096921729
49.5832002441
49.6096921729
49.6826219582
49.7873368306
49.9076976168
50.0297713673
50.1430887074
50.240317666
50.3166159267
50.3689381879
50.395508025
50.4490834726
50.4266666605
50.3828167461
50.3195900164
50.240317666
50.1498589679
50.0548857512
49.9640097409
49.8874008733
49.8356244066
49.8172181504
49.8356244066
49.8874008733
49.9640097409
50.0548857512
50.1498589679
50.240317666
50.3195900164
50.3828167461
50.4266666605
50.4490834726
50.4929738757
50.4737350734
50.4363020177
50.3828167461
50.3166159267
50.2423195235
50.1658424252
50.094237869
50.0352036119
49.9960809621
49.9823486232
49.9960809621
50.0352036119
50.094237869
50.1658424252
50.2423195235
50.3166159267
50.3828167461
50.4363020177
50.4737350734
50.4929738757
50.5240106074
50.5068943503
50.4737350734
50.4266666605
50.3689381879
50.3048968843
50.2398739754
50.1798925588
50.1311483482
50.09923042
50.0881067991
50.09923042
50.1311483482
50.1798925588
50.2398739754
50.3048968843
50.3689381879
50.4266666605
50.4737350734
50.5068943503
50.5240106074
50.5400667364
50.5240106074
50.4929738757
50.4490834726
50.395508025
50.3364350257
50.2768763842
50.2223603992
50.1783790324
50.1497487695
50.1398049438
50.1497487695
50.1783790324
50.2223603992
50.2768763842
50.3364350257
50.395508025
50.4490834726
50.4929738757
50.5240106074
50.5400667364
50.5421918274
50.5261349336
50.4950965928
50.4512048159
50.3976271861
50.3385517875
50.2789906281
50.224472119
50.1804892759
50.1518578885
50.1419136632
50.1518578885
50.1804892759
50.224472119
50.2789906281
50.3385517875
50.3976271861
50.4512048159
50.4950965928
50.5261349336
50.5421918274
50.5261349336
50.5090176169
50.475857034
50.428787044
50.3710562553
50.3070122795
50.2419864169
50.182002838
50.1332566947
50.1013374279
50.0902133537
50.1013374279
50.1332566947
50.182002838
50.2419864169
50.3070122795
50.3710562553
50.428787044
50.475857034
50.5090176169
50.5261349336
50.4950965928
50.475857034
50.4384227673
50.3849353617
50.3187317921
50.2444320549
50.1679521577
50.0963446862
50.0373080092
49.9981833759
49.9844504731
49.9981833759
50.0373080092
50.0963446862
50.1679521577
50.2444320549
50.3187317921
50.3849353617
50.4384227673
50.475857034
50.4950965928
50.4512048159
50.428787044
50.3849353617
50.321706001
50.2424301181
50.1519680632
50.0569909608
49.9661109808
49.8894992543
49.8377207031
49.8193136722
49.8377207031
49.8894992543
49.9661109808
50.0569909608
50.1519680632
50.2424301181
50.321706001
50.3849353617
50.428787044
50.4512048159
50.3976271861
50.3710562553
50.3187317921
50.2424301181
50.1451975318
50.0318755761
49.9097967959
49.7894311014
49.6847121104
49.6117791991
49.5852862046
49.6117791991
49.6847121104
49.7894311014
49.9097967959
50.0318755761
50.1451975318
50.2424301181
50.3187317921
50.3710562553
50.3976271861
50.3385517875
50.3070122795
50.2444320549
50.1519680632
50.0318755761
49.8883136742
49.7285461193
49.5647180895
49.4156482315
49.3069166612
49.2658211458
49.3069166612
49.4156482315
49.5647180895
49.7285461193
49.8883136742
50.0318755761
50.1519680632
50.2444320549
50.3070122795
50.3385517875
50.2789906281
50.2419864169
50.1679521577
50.0569909608
49.9097967959
49.7285461193
49.5187251122
49.2924100765
49.0731598599
48.901242765
48.8310196018
48.901242765
49.0731598599
49.2924100765
49.5187251122
49.7285461193
49.9097967959
50.0569909608
50.1679521577
50.2419864169
50.2789906281
50.224472119
50.182002838
50.0963446862
49.9661109808
49.7894311014
49.5647180895
49.2924100765
48.9794693725
48.649145327
48.3592243391
48.2211016988
48.3592243391
48.649145327
48.9794693725
49.2924100765
49.5647180895
49.7894311014
49.9661109808
50.0963446862
50.182002838
50.224472119
50.1804892759
50.1332566947
50.0373080092
49.8894992543
49.6847121104
49.4156482315
49.0731598599
48.649145327
48.1483914295
47.62750401
47.2964314274
47.62750401
48.1483914295
48.649145327
49.0731598599
49.4156482315
49.6847121104
49.8894992543
50.0373080092
50.1332566947
50.1804892759
50.1518578885
50.1013374279
49.9981833759
49.8377207031
49.6117791991
49.3069166612
48.901242765
48.3592243391
47.62750401
46.6598261167
45.6582204825
46.6598261167
47.62750401
48.3592243391
48.901242765
49.3069166612
49.6117791991
49.8377207031
49.9981833759
50.1013374279
50.1518578885
50.1419136632
50.0902133537
49.9844504731
49.8193136722
49.5852862046
49.2658211458
48.8310196018
48.2211016988
47.2964314274
45.6582204825
41.888914931
45.6582204825
47.2964314274
48.2211016988
48.8310196018
49.2658211458
49.5852862046
49.8193136722
49.9844504731
50.0902133537
50.1419136632
50.1518578885
50.1013374279
49.9981833759
49.8377207031
49.6117791991
49.3069166612
48.901242765
48.3592243391
47.62750401
46.6598261167
45.6582204825
46.6598261167
47.62750401
48.3592243391
48.901242765
49.3069166612
49.6117791991
49.8377207031
49.9981833759
50.1013374279
50.1518578885
50.1804892759
50.1332566947
50.0373080092
49.8894992543
49.6847121104
49.4156482315
49.0731598599
48.649145327
48.1483914295
47.62750401
47.2964314274
47.62750401
48.1483914295
48.649145327
49.0731598599
49.4156482315
49.6847121104
49.8894992543
50.0373080092
50.1332566947
50.1804892759
50.224472119
50.182002838
50.0963446862
49.9661109808
49.7894311014
49.5647180895
49.2924100765
48.9794693725
48.649145327
48.3592243391
48.2211016988
48.3592243391
48.649145327
48.9794693725
49.2924100765
49.5647180895
49.7894311014
49.9661109808
50.0963446862
50.182002838
50.224472119
50.2789906281
50.2419864169
50.1679521577
50.0569909608
49.9097967959
49.7285461193
49.5187251122
49.2924100765
49.0731598599
48.901242765
48.8310196018
48.901242765
49.0731598599
49.2924100765
49.5187251122
49.7285461193
49.9097967959
50.0569909608
50.1679521577
50.2419864169
50.2789906281
50.3385517875
50.3070122795
50.2444320549
50.1519680632
50.0318755761
49.8883136742
49.7285461193
49.5647180895
49.4156482315
49.3069166612
49.2658211458
49.3069166612
49.4156482315
49.5647180895
49.7285461193
49.8883136742
50.0318755761
50.1519680632
50.2444320549
50.3070122795
50.3385517875
50.3976271861
50.3710562553
50.3187317921
50.2424301181
50.1451975318
50.0318755761
49.9097967959
49.7894311014
49.6847121104
49.6117791991
49.5852862046
49.6117791991
49.6847121104
49.7894311014
49.9097967959
50.0318755761
50.1451975318
50.2424301181
50.3187317921
50.3710562553
50.3976271861
50.4512048159
50.428787044
50.3849353617
50.321706001
50.2424301181
50.1519680632
50.0569909608
49.9661109808
49.8894992543
49.8377207031
49.8193136722
49.8377207031
49.8894992543
49.9661109808
50.0569909608
50.1519680632
50.2424301181
50.321706001
50.3849353617
50.428787044
50.4512048159
50.4950965928
50.475857034
50.4384227673
50.3849353617
50.3187317921
50.2444320549
50.1679521577
50.0963446862
50.0373080092
49.9981833759
49.9844504731
49.9981833759
50.0373080092
50.0963446862
50.1679521577
50.2444320549
50.3187317921
50.3849353617
50.4384227673
50.475857034
50.4950965928
50.5261349336
50.5090176169
50.475857034
50.428787044
50.3710562553
50.3070122795
50.2419864169
50.182002838
50.1332566947
50.1013374279
50.0902133537
50.1013374279
50.1332566947
50.182002838
50.2419864169
50.3070122795
50.3710562553
50.428787044
50.475857034
50.5090176169
50.5261349336
50.5421918274
50.5261349336
50.4950965928
50.4512048159
50.3976271861
50.3385517875
50.2789906281
50.224472119
50.1804892759
50.1518578885
50.1419136632
50.1518578885
50.1804892759
50.224472119
50.2789906281
50.3385517875
50.3976271861
50.4512048159
50.4950965928
50.5261349336
50.5421918274
SCALARS gas_saturation double 1
LOOKUP_TABLE default
0.799454647275
0.799454533282
0.799454120947
0.799453548007
0.799452905641
0.799452299353
0.79945178944
0.79945110022
0.799450537428
0.799450200631
0.799450072898
0.799450200631
0.799450537428
0.79945110022
0.79945178944
0.799452299353
0.799452905641
0.799453548007
0.799454120947
0.799454533282
0.799454647275
0.799454533282
0.799454332311
0.799453882797
0.799453285456
0.799452639883
0.79945202038
0.799451314221
0.799450553972
0.799449993648
0.799449665606
0.799449542392
0.799449665606
0.799449993648
0.799450553972
0.799451314221
0.79945202038
0.799452639883
0.799453285456
0.799453882797
0.799454332311
0.799454533282
0.799454120947
0.799453882797
0.799453392149
0.799452778185
0.799452130749
0.799451348609
0.799450395543
0.799449609188
0.799449077908
0.799448649427
0.799448456574
0.799448649427
0.799449077908
0.799449609188
0.799450395543
0.799451348609
0.799452130749
0.799452778185
0.799453392149
0.799453882797
0.799454120947
0.799453548007
0.799453285456
0.799452778185
0.799452156848
0.799451319718
0.799450202018
0.799449259426
0.799448228459
0.799447283049
0.79944675362
0.799446607074
0.79944675362
0.799447283049
0.799448228459
0.799449259426
0.799450202018
0.799451319718
0.799452156848
0.799452778185
0.799453285456
0.799453548007
0.799452905641
0.799452639883
0.799452130749
0.799451319718
0.799450115774
0.79944904273
0.799447535744
0.79944632877
0.79944504522
0.799444251491
0.799443966127
0.799444251491
0.79944504522
0.79944632877
0.799447535744
0.79944904273
0.799450115774
0.799451319718
0.799452130749
0.799452639883
0.799452905641
0.799452299353
0.79945202038
0.799451348609
0.799450202018
0.79944904273
0.799447270274
0.799445618362
0.799443803243
0.799442073975
0.799440972064
0.799440622473
0.799440972064
0.799442073975
0.799443803243
0.799445618362
0.799447270274
0.79944904273
0.799450202018
0.799451348609
0.79945202038
0.799452299353
0.79945178944
0.799451314221
0.799450395543
0.799449259426
0.799447535744
0.799445618362
0.799443423695
0.799440839208
0.799438339984
0.799436380041
0.799435632975
0.799436380041
0.799438339984
0.799440839208
0.799443423695
0.799445618362
0.799447535744
0.799449259426
0.799450395543
0.799451314221
0.79945178944
0.79945110022
0.799450553972
0.799449609188
0.799448228459
0.79944632877
0.799443803243
0.799440839208
0.799437328114
0.79943359124
0.799430401118
0.799428933734
0.799430401118
0.79943359124
0.799437328114
0.799440839208
0.799443803243
0.79944632877
0.799448228459
0.799449609188
0.799450553972
0.79945110022
0.799450537428
0.799449993648
0.799449077908
0.799447283049
0.79944504522
0.799442073975
0.799438339984
0.79943359124
0.799428053191
0.799422269238
0.799418771104
0.799422269238
0.799428053191
0.79943359124
0.799438339984
0.799442073975
0.79944504522
0.799447283049
0.799449077908
0.799449993648
0.799450537428
0.799450200631
0.799449665606
0.799448649427
0.79944675362
0.799444251491
0.799440972064
0.799436380041
0.799430401118
0.799422269238
0.799411592545
0.799400506963
0.799411592545
0.799422269238
0.799430401118
0.799436380041
0.799440972064
0.799444251491
0.79944675362
0.799448649427
0.799449665606
0.799450200631
0.799450072898
0.799449542392
0.799448456574
0.799446607074
0.799443966127
0.799440622473
0.799435632975
0.799428933734
0.799418771104
0.799400506963
0.7993587749
0.799400506963
0.799418771104
0.799428933734
0.799435632975
0.799440622473
0.799443966127
0.799446607074
0.799448456574
0.799449542392
0.799450072898
0.799450200631
0.799449665606
0.799448649427
0.79944675362
0.799444251491
0.799440972064
0.799436380041
0.799430401118
0.799422269238
0.799411592545
0.799400506963
0.799411592545
0.799422269238
0.799430401118
0.799436380041
0.799440972064
0.799444251491
0.79944675362
0.799448649427
0.799449665606
0.799450200631
0.799450537428
0.799449993648
0.799449077908
0.799447283049
0.79944504522
0.799442073975
0.799438339984
0.79943359124
0.799428053191
0.799422269238
0.799418771104
0.799422269238
0.799428053191
0.79943359124
0.799438339984
0.799442073975
0.79944504522
0.799447283049
0.799449077908
0.799449993648
0.799450537428
0.79945110022
0.799450553972
0.799449609188
0.799448228459
0.79944632877
0.799443803243
0.799440839208
0.799437328114
0.79943359124
0.799430401118
0.799428933734
0.799430401118
0.79943359124
0.799437328114
0.799440839208
0.799443803243
0.79944632877
0.799448228459
0.799449609188
0.799450553972
0.79945110022
0.79945178944
0.799451314221
0.799450395543
0.799449259426
0.799447535744
0.799445618362
0.799443423695
0.799440839208
0.799438339984
0.799436380041
0.799435632975
0.799436380041
0.799438339984
0.799440839208
0.799443423695
0.799445618362
0.799447535744
0.799449259426
0.799450395543
0.799451314221
0.79945178944
0.799452299353
0.79945202038
0.799451348609
0.799450202018
0.79944904273
0.799447270274
0.799445618362
0.799443803243
0.799442073975
0.799440972064
0.799440622473
0.799440972064
0.799442073975
0.799443803243
0.799445618362
0.799447270274
0.79944904273
0.799450202018
0.799451348609
0.79945202038
0.799452299353
0.799452905641
0.799452639883
0.799452130749
0.799451319718
0.799450115774
0.79944904273
0.799447535744
0.79944632877
0.79944504522
0.799444251491
0.799443966127
0.799444251491
0.79944504522
0.79944632877
0.799447535744
0.79944904273
0.799450115774
0.799451319718
0.799452130749
0.799452639883
0.799452905641
0.799453548007
0.799453285456
0.799452778185
0.799452156848
0.799451319718
0.799450202018
0.799449259426
0.799448228459
0.799447283049
0.79944675362
0.799446607074
0.79944675362
0.799447283049
0.799448228459
0.799449259426
0.799450202018
0.799451319718
0.799452156848
0.799452778185
0.799453285456
0.799453548007
0.799454120947
0.799453882797
0.799453392149
0.799452778185
0.799452130749
0.799451348609
0.799450395543
0.799449609188
0.799449077908
0.799448649427
0.799448456574
0.799448649427
0.799449077908
0.799449609188
0.799450395543
0.799451348609
0.799452130749
0.799452778185
0.799453392149
0.799453882797
0.799454120947
0.799454533282
0.799454332311
0.799453882797
0.799453285456
0.799452639883
0.79945202038
0.799451314221
0.799450553972
0.799449993648
0.799449665606
0.799449542392
0.799449665606
0.799449993648
0.799450553972
0.799451314221
0.79945202038
0.799452639883
0.799453285456
0.799453882797
0.799454332311
0.799454533282
0.799454647275
0.799454533282
0.799454120947
0.799453548007
0.799452905641
0.799452299353
0.79945178944
0.79945110022
0.799450537428
0.799450200631
0.799450072898
0.799450200631
0.799450537428
0.79945110022
0.79945178944
0.799452299353
0.799452905641
0.799453548007
0.799454120947
0.799454533282
0.799454647275
0.799454614672
0.7994545025
0.799454102121
0.79945353143
0.799452886455
0.799452269444
0.799451757577
0.799451080293
0.799450513794
0.799450180294
0.799450053833
0.799450180294
0.799450513794
0.799451080293
0.799451757577
0.799452269444
0.799452886455
0.79945353143
0.799454102121
0.7994545025
0.799454614672
0.7994545025
0.79945431784
0.799453863397
0.799453262705
0.799452615005
0.799451994626
0.799451296638
0.799450530162
0.799449966672
0.799449642301
0.79944951599
0.799449642301
0.799449966672
0.799450530162
0.799451296638
0.799451994626
0.799452615005
0.799453262705
0.799453863397
0.79945431784
0.7994545025
0.799454102121
0.799453863397
0.799453368297
0.799452751718
0.799452102605
0.799451335117
0.799450373375
0.799449586459
0.799449044398
0.799448634924
0.799448434852
0.799448634924
0.799449044398
0.799449586459
0.799450373375
0.799451335117
0.799452102605
0.799452751718
0.799453368297
0.799453863397
0.799454102121
0.79945353143
0.799453262705
0.799452751718
0.799452129429
0.79945130365
0.799450181667
0.799449232826
0.799448208869
0.799447263531
0.799446728422
0.799446578034
0.799446728422
0.799447263531
0.799448208869
0.799449232826
0.799450181667
0.79945130365
0.799452129429
0.799452751718
0.799453262705
0.79945353143
0.799452886455
0.799452615005
0.799452102605
0.79945130365
0.799450096204
0.799449009966
0.799447513874
0.799446303194
0.799445019591
0.799444225789
0.799443940969
0.799444225789
0.799445019591
0.799446303194
0.799447513874
0.799449009966
0.799450096204
0.79945130365
0.799452102605
0.799452615005
0.799452886455
0.799452269444
0.799451994626
0.799451335117
0.799450181667
0.799449009966
0.7994472482
0.799445596748
0.799443774156
0.799442050335
0.799440943371
0.799440604398
0.799440943371
0.799442050335
0.799443774156
0.799445596748
0.7994472482
0.799449009966
0.799450181667
0.799451335117
0.799451994626
0.799452269444
0.799451757577
0.799451296638
0.799450373375
0.799449232826
0.799447513874
0.799445596748
0.799443391099
0.799440812216
0.799438308924
0.799436357263
0.799435609333
0.799436357263
0.799438308924
0.799440812216
0.799443391099
0.799445596748
0.799447513874
0.799449232826
0.799450373375
0.799451296638
0.799451757577
0.799451080293
0.799450530162
0.799449586459
0.799448208869
0.799446303194
0.799443774156
0.799440812216
0.79943730609
0.799433568385
0.799430373912
0.799428910776
0.799430373912
0.799433568385
0.79943730609
0.799440812216
0.799443774156
0.799446303194
0.799448208869
0.799449586459
0.799450530162
0.799451080293
0.799450513794
0.799449966672
0.799449044398
0.799447263531
0.799445019591
0.799442050335
0.799438308924
0.799433568385
0.799428029963
0.799422244592
0.799418741765
0.799422244592
0.799428029963
0.799433568385
0.799438308924
0.799442050335
0.799445019591
0.799447263531
0.799449044398
0.799449966672
0.799450513794
0.799450180294
0.799449642301
0.799448634924
0.799446728422
0.799444225789
0.799440943371
0.799436357263
0.799430373912
0.799422244592
0.799411568009
0.799400484123
0.799411568009
0.799422244592
0.799430373912
0.799436357263
0.799440943371
0.799444225789
0.799446728422
0.799448634924
0.799449642301
0.799450180294
0.799450053833
0.79944951599
0.799448434852
0.799446578034
0.799443940969
0.799440604398
0.799435609333
0.799428910776
0.799418741765
0.799400484123
0.799358751285
0.799400484123
0.799418741765
0.799428910776
0.799435609333
0.799440604398
0.799443940969
0.799446578034
0.799448434852
0.79944951599
0.799450053833
0.799450180294
0.799449642301
0.799448634924
0.799446728422
0.799444225789
0.799440943371
0.799436357263
0.799430373912
0.799422244592
0.799411568009
0.799400484123
0.799411568009
0.799422244592
0.799430373912
0.799436357263
0.799440943371
0.799444225789
0.799446728422
0.799448634924
0.799449642301
0.799450180294
0.799450513794
0.799449966672
0.799449044398
0.799447263531
0.799445019591
0.799442050335
0.799438308924
0.799433568385
0.799428029963
0.799422244592
0.799418741765
0.799422244592
0.799428029963
0.799433568385
0.799438308924
0.799442050335
0.799445019591
0.799447263531
0.799449044398
0.799449966672
0.799450513794
0.799451080293
0.799450530162
0.799449586459
0.799448208869
0.799446303194
0.799443774156
0.799440812216
0.79943730609
0.799433568385
0.799430373912
0.799428910776
0.799430373912
0.799433568385
0.79943730609
0.799440812216
0.799443774156
0.799446303194
0.799448208869
0.799449586459
0.799450530162
0.799451080293
0.799451757577
0.799451296638
0.799450373375
0.799449232826
0.799447513874
0.799445596748
0.799443391099
0.799440812216
0.799438308924
0.799436357263
0.799435609333
0.799436357263
0.799438308924
0.799440812216
0.799443391099
0.799445596748
0.799447513874
0.799449232826
0.799450373375
0.799451296638
0.799451757577
0.799452269444
0.799451994626
0.799451335117
0.799450181667
0.799449009966
0.7994472482
0.799445596748
0.799443774156
0.799442050335
0.799440943371
0.799440604398
0.799440943371
0.799442050335
0.799443774156
0.799445596748
0.7994472482
0.799449009966
0.799450181667
0.799451335117
0.799451994626
0.799452269444
0.799452886455
0.799452615005
0.799452102605
0.79945130365
0.799450096204
0.799449009966
0.799447513874
0.799446303194
0.799445019591
0.799444225789
0.799443940969
0.799444225789
0.799445019591
0.799446303194
0.799447513874
0.799449009966
0.799450096204
0.79945130365
0.799452102605
0.799452615005
0.799452886455
0.79945353143
0.799453262705
0.799452751718
0.799452129429
0.79945130365
0.799450181667
0.799449232826
0.799448208869
0.799447263531
0.799446728422
0.799446578034
0.799446728422
0.799447263531
0.799448208869
0.799449232826
0.799450181667
0.79945130365
0.799452129429
0.799452751718
0.799453262705
0.79945353143
0.799454102121
0.799453863397
0.799453368297
0.799452751718
0.799452102605
0.799451335117
0.799450373375
0.799449586459
0.799449044398
0.799448634924
0.799448434852
0.799448634924
0.799449044398
0.799449586459
0.799450373375
0.799451335117
0.799452102605
0.799452751718
0.799453368297
0.799453863397
0.799454102121
0.7994545025
0.79945431784
0.799453863397
0.799453262705
0.799452615005
0.799451994626
0.799451296638
0.799450530162
0.799449966672
0.799449642301
0.79944951599
0.799449642301
0.799449966672
0.799450530162
0.799451296638
0.799451994626
0.799452615005
0.799453262705
0.799453863397
0.79945431784
0.7994545025
0.799454614672
0.7994545025
0.799454102121
0.79945353143
0.799452886455
0.799452269444
0.799451757577
0.799451080293
0.799450513794
0.799450180294
0.799450053833
0.799450180294
0.799450513794
0.799451080293
0.799451757577
0.799452269444
0.799452886455
0.79945353143
0.799454102121
0.7994545025
0.799454614672
0.799454580512
0.799454470157
0.799454087675
0.799453513289
0.799452865423
0.799452237976
0.799451724163
0.799451058804
0.799450488605
0.7994501584
0.799450033085
0.7994501584
0.799450488605
0.799451058804
0.799451724163
0.799452237976
0.799452865423
0.799453513289
0.799454087675
0.799454470157
0.799454580512
0.799454470157
0.799454301799
0.799453842428
0.799453238397
0.799452588561
0.799451966756
0.799451281899
0.799450504799
0.799449938144
0.799449617442
0.799449492413
0.799449617442
0.799449938144
0.799450504799
0.799451281899
0.799451966756
0.799452588561
0.799453238397
0.799453842428
0.799454301799
0.799454470157
0.799454087675
0.799453842428
0.799453342676
0.79945272369
0.799452073889
0.799451320132
0.799450349604
0.799449562175
0.799449012976
0.799448618866
0.799448411581
0.799448618866
0.799449012976
0.799449562175
0.799450349604
0.799451320132
0.799452073889
0.79945272369
0.799453342676
0.799453842428
0.799454087675
0.799453513289
0.799453238397
0.79945272369
0.799452099883
0.79945128886
0.79945015976
0.799449204544
0.799448187726
0.799447242461
0.799446704297
0.799446547448
0.799446704297
0.799447242461
0.799448187726
0.799449204544
0.79945015976
0.79945128886
0.799452099883
0.79945272369
0.799453238397
0.799453513289
0.799452865423
0.799452588561
0.799452073889
0.79945128886
0.799450075077
0.799448975527
0.79944749045
0.799446276065
0.799445001578
0.799444198545
0.799443916814
0.799444198545
0.799445001578
0.799446276065
0.79944749045
0.799448975527
0.799450075077
0.79945128886
0.799452073889
0.799452588561
0.799452865423
0.799452237976
0.799451966756
0.799451320132
0.79945015976
0.799448975527
0.799447227266
0.79944557359
0.799443743531
0.799442025157
0.799440913147
0.799440572896
0.799440913147
0.799442025157
0.799443743531
0.79944557359
0.799447227266
0.799448975527
0.79945015976
0.799451320132
0.799451966756
0.799452237976
0.799451724163
0.799451281899
0.799450349604
0.799449204544
0.79944749045
0.79944557359
0.799443356961
0.799440783694
0.799438276041
0.799436332958
0.799435584634
0.799436332958
0.799438276041
0.799440783694
0.799443356961
0.79944557359
0.79944749045
0.799449204544
0.799450349604
0.799451281899
0.799451724163
0.799451058804
0.799450504799
0.799449562175
0.799448187726
0.799446276065
0.799443743531
0.799440783694
0.799437290425
0.799433544009
0.799430345018
0.799428886297
0.799430345018
0.799433544009
0.799437290425
0.799440783694
0.799443743531
0.799446276065
0.799448187726
0.799449562175
0.799450504799
0.799451058804
0.799450488605
0.799449938144
0.799449012976
0.799447242461
0.799445001578
0.799442025157
0.799438276041
0.799433544009
0.799428005222
0.799422222232
0.799418710949
0.799422222232
0.799428005222
0.799433544009
0.799438276041
0.799442025157
0.799445001578
0.799447242461
0.799449012976
0.799449938144
0.799450488605
0.7994501584
0.799449617442
0.799448618866
0.799446704297
0.799444198545
0.799440913147
0.799436332958
0.799430345018
0.799422222232
0.79941154194
0.79940045988
0.79941154194
0.799422222232
0.799430345018
0.799436332958
0.799440913147
0.799444198545
0.799446704297
0.799448618866
0.799449617442
0.7994501584
0.799450033085
0.799449492413
0.799448411581
0.799446547448
0.799443916814
0.799440572896
0.799435584634
0.799428886297
0.799418710949
0.79940045988
0.79935872644
0.79940045988
0.799418710949
0.799428886297
0.799435584634
0.799440572896
0.799443916814
0.799446547448
0.799448411581
0.799449492413
0.799450033085
0.7994501584
0.799449617442
0.799448618866
0.799446704297
0.799444198545
0.799440913147
0.799436332958
0.799430345018
0.799422222232
0.79941154194
0.79940045988
0.79941154194
0.799422222232
0.799430345018
0.799436332958
0.799440913147
0.799444198545
0.799446704297
0.799448618866
0.799449617442
0.7994501584
0.799450488605
0.799449938144
0.799449012976
0.799447242461
0.799445001578
0.799442025157
0.799438276041
0.799433544009
0.799428005222
0.799422222232
0.799418710949
0.799422222232
0.799428005222
0.799433544009
0.799438276041
0.799442025157
0.799445001578
0.799447242461
0.799449012976
0.799449938144
0.799450488605
0.799451058804
0.799450504799
0.799449562175
0.799448187726
0.799446276065
0.799443743531
0.799440783694
0.799437290425
0.799433544009
0.799430345018
0.799428886297
0.799430345018
0.799433544009
0.799437290425
0.799440783694
0.799443743531
0.799446276065
0.799448187726
0.799449562175
0.799450504799
0.799451058804
0.799451724163
0.799451281899
0.799450349604
0.799449204544
0.79944749045
0.79944557359
0.799443356961
0.799440783694
0.799438276041
0.799436332958
0.799435584634
0.799436332958
0.799438276041
0.799440783694
0.799443356961
0.79944557359
0.79944749045
0.799449204544
0.799450349604
0.799451281899
0.799451724163
0.799452237976
0.799451966756
0.799451320132
0.79945015976
0.799448975527
0.799447227266
0.79944557359
0.799443743531
0.799442025157
0.799440913147
0.799440572896
0.799440913147
0.799442025157
0.799443743531
0.79944557359
0.799447227266
0.799448975527
0.79945015976
0.799451320132
0.799451966756
0.799452237976
0.799452865423
0.799452588561
0.799452073889
0.79945128886
0.799450075077
0.799448975527
0.79944749045
0.799446276065
0.799445001578
0.799444198545
0.799443916814
0.799444198545
0.799445001578
0.799446276065
0.79944749045
0.799448975527
0.799450075077
0.79945128886
0.799452073889
0.799452588561
0.799452865423
0.799453513289
0.799453238397
0.79945272369
0.799452099883
0.79945128886
0.79945015976
0.799449204544
0.799448187726
0.799447242461
0.799446704297
0.799446547448
0.799446704297
0.799447242461
0.799448187726
0.799449204544
0.79945015976
0.79945128886
0.799452099883
0.79945272369
0.799453238397
0.799453513289
0.799454087675
0.799453842428
0.799453342676
0.79945272369
0.799452073889
0.799451320132
0.799450349604
0.799449562175
0.799449012976
0.799448618866
0.799448411581
0.799448618866
0.799449012976
0.799449562175
0.799450349604
0.799451320132
0.799452073889
0.79945272369
0.799453342676
0.799453842428
0.799454087675
0.799454470157
0.799454301799
0.799453842428
0.799453238397
0.799452588561
0.799451966756
0.799451281899
0.799450504799
0.799449938144
0.799449617442
0.799449492413
0.799449617442
0.799449938144
0.799450504799
0.799451281899
0.799451966756
0.799452588561
0.799453238397
0.799453842428
0.799454301799
0.799454470157
0.799454580512
0.799454470157
0.799454087675
0.799453513289
0.799452865423
0.799452237976
0.799451724163
0.799451058804
0.799450488605
0.7994501584
0.799450033085
0.7994501584
0.799450488605
0.799451058804
0.799451724163
0.799452237976
0.799452865423
0.799453513289
0.799454087675
0.799454470157
0.799454580512
0.799454548438
0.799454434845
0.799454070255
0.799453492175
0.799452841995
0.799452205128
0.79945168728
0.799451034344
0.799450460426
0.799450133534
0.799450009364
0.799450133534
0.799450460426
0.799451034344
0.79945168728
0.799452205128
0.799452841995
0.799453492175
0.799454070255
0.799454434845
0.799454548438
0.799454434845
0.799454282785
0.799453818488
0.799453211119
0.799452559147
0.799451935915
0.799451263482
0.799450476465
0.799449905841
0.799449589612
0.799449465862
0.799449589612
0.799449905841
0.799450476465
0.799451263482
0.799451935915
0.799452559147
0.799453211119
0.799453818488
0.799454282785
0.799454434845
0.799454070255
0.799453818488
0.799453314509
0.799452692692
0.799452041711
0.799451302135
0.799450322886
0.799449534919
0.799448983725
0.799448599575
0.799448388174
0.799448599575
0.799448983725
0.799449534919
0.799450322886
0.799451302135
0.799452041711
0.799452692692
0.799453314509
0.799453818488
0.799454070255
0.799453492175
0.799453211119
0.799452692692
0.799452067366
0.799451271095
0.799450134881
0.799449173032
0.79944816361
0.799447218417
0.799446677494
0.799446513891
0.799446677494
0.799447218417
0.79944816361
0.799449173032
0.799450134881
0.799451271095
0.799452067366
0.799452692692
0.799453211119
0.799453492175
0.799452841995
0.799452559147
0.799452041711
0.799451271095
0.799450050978
0.799448937783
0.799447464053
0.799446245963
0.799444980571
0.799444168327
0.799443889687
0.799444168327
0.799444980571
0.799446245963
0.799447464053
0.799448937783
0.799450050978
0.799451271095
0.799452041711
0.799452559147
0.799452841995
0.799452205128
0.799451935915
0.799451302135
0.799450134881
0.799448937783
0.799447203352
0.799445547462
0.799443709935
0.799441997007
0.79944087995
0.799440535607
0.79944087995
0.799441997007
0.799443709935
0.799445547462
0.799447203352
0.799448937783
0.799450134881
0.799451302135
0.799451935915
0.799452205128
0.79945168728
0.799451263482
0.799450322886
0.799449173032
0.799447464053
0.799445547462
0.799443319852
0.799440752198
0.799438240772
0.799436305679
0.799435556726
0.799436305679
0.799438240772
0.799440752198
0.799443319852
0.799445547462
0.799447464053
0.799449173032
0.799450322886
0.799451263482
0.79945168728
0.799451034344
0.799450476465
0.799449534919
0.79944816361
0.799446245963
0.799443709935
0.799440752198
0.799437271782
0.799433516658
0.799430313149
0.799428858862
0.799430313149
0.799433516658
0.799437271782
0.799440752198
0.799443709935
0.799446245963
0.79944816361
0.799449534919
0.799450476465
0.799451034344
0.799450460426
0.799449905841
0.799448983725
0.799447218417
0.799444980571
0.799441997007
0.799438240772
0.799433516658
0.799427977505
0.799422196893
0.799418677156
0.799422196893
0.799427977505
0.799433516658
0.799438240772
0.799441997007
0.799444980571
0.799447218417
0.799448983725
0.799449905841
0.799450460426
0.799450133534
0.799449589612
0.799448599575
0.799446677494
0.799444168327
0.79944087995
0.799436305679
0.799430313149
0.799422196893
0.799411513024
0.799400432629
0.799411513024
0.799422196893
0.799430313149
0.799436305679
0.79944087995
0.799444168327
0.799446677494
0.799448599575
0.799449589612
0.799450133534
0.799450009364
0.799449465862
0.799448388174
0.799446513891
0.799443889687
0.799440535607
0.799435556726
0.799428858862
0.799418677156
0.799400432629
0.799358698412
0.799400432629
0.799418677156
0.799428858862
0.799435556726
0.799440535607
0.799443889687
0.799446513891
0.799448388174
0.799449465862
0.799450009364
0.799450133534
0.799449589612
0.799448599575
0.799446677494
0.799444168327
0.79944087995
0.799436305679
0.799430313149
0.799422196893
0.799411513024
0.799400432629
0.799411513024
0.799422196893
0.799430313149
0.799436305679
0.79944087995
0.799444168327
0.799446677494
0.799448599575
0.799449589612
0.799450133534
0.799450460426
0.799449905841
0.799448983725
0.799447218417
0.799444980571
0.799441997007
0.799438240772
0.799433516658
0.799427977505
0.799422196893
0.799418677156
0.799422196893
0.799427977505
0.799433516658
0.799438240772
0.799441997007
0.799444980571
0.799447218417
0.799448983725
0.799449905841
0.799450460426
0.799451034344
0.799450476465
0.799449534919
0.79944816361
0.799446245963
0.799443709935
0.799440752198
0.799437271782
0.799433516658
0.799430313149
0.799428858862
0.799430313149
0.799433516658
0.799437271782
0.799440752198
0.799443709935
0.799446245963
0.79944816361
0.799449534919
0.799450476465
0.799451034344
0.79945168728
0.799451263482
0.799450322886
0.799449173032
0.799447464053
0.799445547462
0.799443319852
0.799440752198
0.799438240772
0.799436305679
0.799435556726
0.799436305679
0.799438240772
0.799440752198
0.799443319852
0.799445547462
0.799447464053
0.799449173032
0.799450322886
0.799451263482
0.79945168728
0.799452205128
0.799451935915
0.799451302135
0.799450134881
0.799448937783
0.799447203352
0.799445547462
0.799443709935
0.799441997007
0.79944087995
0.799440535607
0.79944087995
0.799441997007
0.799443709935
0.799445547462
0.799447203352
0.799448937783
0.799450134881
0.799451302135
0.799451935915
0.799452205128
0.799452841995
0.799452559147
0.799452041711
0.799451271095
0.799450050978
0.799448937783
0.799447464053
0.799446245963
0.799444980571
0.799444168327
0.799443889687
0.799444168327
0.799444980571
0.799446245963
0.799447464053
0.799448937783
0.799450050978
0.799451271095
0.799452041711
0.799452559147
0.799452841995
0.799453492175
0.799453211119
0.799452692692
0.799452067366
0.799451271095
0.799450134881
0.799449173032
0.79944816361
0.799447218417
0.799446677494
0.799446513891
0.799446677494
0.799447218417
0.79944816361
0.799449173032
0.799450134881
0.799451271095
0.799452067366
0.799452692692
0.799453211119
0.799453492175
0.799454070255
0.799453818488
0.799453314509
0.799452692692
0.799452041711
0.799451302135
0.799450322886
0.799449534919
0.799448983725
0.799448599575
0.799448388174
0.799448599575
0.799448983725
0.799449534919
0.799450322886
0.799451302135
0.799452041711
0.799452692692
0.799453314509
0.799453818488
0.799454070255
0.799454434845
0.799454282785
0.799453818488
0.799453211119
0.799452559147
0.799451935915
0.799451263482
0.799450476465
0.799449905841
0.799449589612
0.799449465862
0.799449589612
0.799449905841
0.799450476465
0.799451263482
0.799451935915
0.799452559147
0.799453211119
0.799453818488
0.799454282785
0.799454434845
0.799454548438
0.799454434845
0.799454070255
0.799453492175
0.799452841995
0.799452205128
0.79945168728
0.799451034344
0.799450460426
0.799450133534
0.799450009364
0.799450133534
0.799450460426
0.799451034344
0.79945168728
0.799452205128
0.799452841995
0.799453492175
0.799454070255
0.799454434845
0.799454548438
0.799454519802
0.79945439923
0.799454052096
0.799453470759
0.799452817968
0.799452179124
0.799451651084
0.79945100958
0.799450431976
0.799450108355
0.799449985331
0.799450108355
0.799450431976
0.79945100958
0.799451651084
0.799452179124
0.799452817968
0.799453470759
0.799454052096
0.79945439923
0.799454519802
0.79945439923
0.799454263472
0.799453794251
0.799453183532
0.799452529433
0.799451904728
0.799451246166
0.799450447822
0.799449874837
0.799449561466
0.799449438998
0.799449561466
0.799449874837
0.799450447822
0.799451246166
0.799451904728
0.799452529433
0.799453183532
0.799453794251
0.799454263472
0.79945439923
0.799454052096
0.799453794251
0.79945328987
0.799452661387
0.799452009228
0.799451283834
0.799450295855
0.799449507349
0.799448954162
0.799448580486
0.799448370419
0.799448580486
0.799448954162
0.799449507349
0.799450295855
0.799451283834
0.799452009228
0.799452661387
0.79945328987
0.799453794251
0.799454052096
0.799453470759
0.799453183532
0.799452661387
0.799452034543
0.799451253025
0.799450109688
0.799449141207
0.799448139177
0.799447194057
0.799446650382
0.799446480011
0.799446650382
0.799447194057
0.799448139177
0.799449141207
0.799450109688
0.799451253025
0.799452034543
0.799452661387
0.799453183532
0.799453470759
0.799452817968
0.799452529433
0.799452009228
0.799451253025
0.799450026565
0.7994489004
0.799447437343
0.799446215548
0.799444959241
0.799444137786
0.799443862234
0.799444137786
0.799444959241
0.799446215548
0.799447437343
0.7994489004
0.799450026565
0.799451253025
0.799452009228
0.799452529433
0.799452817968
0.799452179124
0.799451904728
0.799451283834
0.799450109688
0.7994489004
0.799447179136
0.79944552101
0.799443676011
0.799441968522
0.799440846418
0.799440497983
0.799440846418
0.799441968522
0.799443676011
0.79944552101
0.799447179136
0.7994489004
0.799450109688
0.799451283834
0.799451904728
0.799452179124
0.799451651084
0.799451246166
0.799450295855
0.799449141207
0.799447437343
0.79944552101
0.799443282419
0.799440720365
0.799438204873
0.799436278058
0.799435528468
0.799436278058
0.799438204873
0.799440720365
0.799443282419
0.79944552101
0.799447437343
0.799449141207
0.799450295855
0.799451246166
0.799451651084
0.79945100958
0.799450447822
0.799449507349
0.799448139177
0.799446215548
0.799443676011
0.799440720365
0.799437252797
0.799433488957
0.799430280922
0.79942883468
0.799430280922
0.799433488957
0.799437252797
0.799440720365
0.799443676011
0.799446215548
0.799448139177
0.799449507349
0.799450447822
0.79945100958
0.799450431976
0.799449874837
0.799448954162
0.799447194057
0.799444959241
0.799441968522
0.799438204873
0.799433488957
0.799427949424
0.799422170964
0.799418642968
0.799422170964
0.799427949424
0.799433488957
0.799438204873
0.799441968522
0.799444959241
0.799447194057
0.799448954162
0.799449874837
0.799450431976
0.799450108355
0.799449561466
0.799448580486
0.799446650382
0.799444137786
0.799440846418
0.799436278058
0.799430280922
0.799422170964
0.799411483647
0.799400404886
0.799411483647
0.799422170964
0.799430280922
0.799436278058
0.799440846418
0.799444137786
0.799446650382
0.799448580486
0.799449561466
0.799450108355
0.799449985331
0.799449438998
0.799448370419
0.799446480011
0.799443862234
0.799440497983
0.799435528468
0.79942883468
0.799418642968
0.799400404886
0.799358669479
0.799400404886
0.799418642968
0.79942883468
0.799435528468
0.799440497983
0.799443862234
0.799446480011
0.799448370419
0.799449438998
0.799449985331
0.799450108355
0.799449561466
0.799448580486
0.799446650382
0.799444137786
0.799440846418
0.799436278058
0.799430280922
0.799422170964
0.799411483647
0.799400404886
0.799411483647
0.799422170964
0.799430280922
0.799436278058
0.799440846418
0.799444137786
0.799446650382
0.799448580486
0.799449561466
0.799450108355
0.799450431976
0.799449874837
0.799448954162
0.799447194057
0.799444959241
0.799441968522
0.799438204873
0.799433488957
0.799427949424
0.799422170964
0.799418642968
0.799422170964
0.799427949424
0.799433488957
0.799438204873
0.799441968522
0.799444959241
0.799447194057
0.799448954162
0.799449874837
0.799450431976
0.79945100958
0.799450447822
0.799449507349
0.799448139177
0.799446215548
0.799443676011
0.799440720365
0.799437252797
0.799433488957
0.799430280922
0.79942883468
0.799430280922
0.799433488957
0.799437252797
0.799440720365
0.799443676011
0.799446215548
0.799448139177
0.799449507349
0.799450447822
0.79945100958
0.799451651084
0.799451246166
0.799450295855
0.799449141207
0.799447437343
0.79944552101
0.799443282419
0.799440720365
0.799438204873
0.799436278058
0.799435528468
0.799436278058
0.799438204873
0.799440720365
0.799443282419
0.79944552101
0.799447437343
0.799449141207
0.799450295855
0.799451246166
0.799451651084
0.799452179124
0.799451904728
0.799451283834
0.799450109688
0.7994489004
0.799447179136
0.79944552101
0.799443676011
0.799441968522
0.799440846418
0.799440497983
0.799440846418
0.799441968522
0.799443676011
0.79944552101
0.799447179136
0.7994489004
0.799450109688
0.799451283834
0.799451904728
0.799452179124
0.799452817968
0.799452529433
0.799452009228
0.799451253025
0.799450026565
0.7994489004
0.799447437343
0.799446215548
0.799444959241
0.799444137786
0.799443862234
0.799444137786
0.799444959241
0.799446215548
0.799447437343
0.7994489004
0.799450026565
0.799451253025
0.799452009228
0.799452529433
0.799452817968
0.799453470759
0.799453183532
0.799452661387
0.799452034543
0.799451253025
0.799450109688
0.799449141207
0.799448139177
0.799447194057
0.799446650382
0.799446480011
0.799446650382
0.799447194057
0.799448139177
0.799449141207
0.799450109688
0.799451253025
0.799452034543
0.799452661387
0.799453183532
0.799453470759
0.799454052096
0.799453794251
0.79945328987
0.799452661387
0.799452009228
0.799451283834
0.799450295855
0.799449507349
0.799448954162
0.799448580486
0.799448370419
0.799448580486
0.799448954162
0.799449507349
0.799450295855
0.799451283834
0.799452009228
0.799452661387
0.79945328987
0.799453794251
0.799454052096
0.79945439923
0.799454263472
0.799453794251
0.799453183532
0.799452529433
0.799451904728
0.799451246166
0.799450447822
0.799449874837
0.799449561466
0.799449438998
0.799449561466
0.799449874837
0.799450447822
0.799451246166
0.799451904728
0.799452529433
0.799453183532
0.799453794251
0.799454263472
0.79945439923
0.799454519802
0.79945439923
0.799454052096
0.799453470759
0.799452817968
0.799452179124
0.799451651084
0.79945100958
0.799450431976
0.799450108355
0.799449985331
0.799450108355
0.799450431976
0.79945100958
0.799451651084
0.799452179124
0.799452817968
0.799453470759
0.799454052096
0.79945439923
0.799454519802
