# vtk DataFile Version 3.0
Hydrogen reservoir; coordinates in metres, z positive down
ASCII
DATASET RECTILINEAR_GRID
DIMENSIONS 10 10 10
X_COORDINATES 10 double
0 111.111111111 222.222222222 333.333333333 444.444444444 555.555555556 666.666666667 777.777777778 888.888888889 1000
Y_COORDINATES 10 double
0 111.111111111 222.222222222 333.333333333 444.444444444 555.555555556 666.666666667 777.777777778 888.888888889 1000
Z_COORDINATES 10 double
100 105 110 115 120 125 130 135 140 145
CELL_DATA 729
SCALARS pressure_bar double 1
LOOKUP_TABLE default
6.06846601663
6.06459432114
6.05815288603
6.0517587515
6.04886281983
6.0517587515
6.05815288603
6.06459432114
6.06846601663
6.06459432114
6.05939976857
6.05030847293
6.04043240841
6.0352359073
6.04043240841
6.05030847293
6.05939976857
6.06459432114
6.05815288603
6.05030847293
6.03540199739
6.01648719099
6.00320738991
6.01648719099
6.03540199739
6.05030847293
6.05815288603
6.0517587515
6.04043240841
6.01648719099
5.9785908705
5.93537015185
5.9785908705
6.01648719099
6.04043240841
6.0517587515
6.04886281983
6.0352359073
6.00320738991
5.93537015185
5.75822290485
5.93537015185
6.00320738991
6.0352359073
6.04886281983
6.0517587515
6.04043240841
6.01648719099
5.9785908705
5.93537015185
5.9785908705
6.01648719099
6.04043240841
6.0517587515
6.05815288603
6.05030847293
6.03540199739
6.01648719099
6.00320738991
6.01648719099
6.03540199739
6.05030847293
6.05815288603
6.06459432114
6.05939976857
6.05030847293
6.04043240841
6.0352359073
6.04043240841
6.05030847293
6.05939976857
6.06459432114
6.06846601663
6.06459432114
6.05815288603
6.0517587515
6.04886281983
6.0517587515
6.05815288603
6.06459432114
6.06846601663
6.06897468435
6.06510295706
6.05866143964
6.05226727742
6.04937139437
6.05226727742
6.05866143964
6.06510295706
6.06897468435
6.06510295706
6.05990834719
6.05081713719
6.04094125186
6.03574560914
6.04094125186
6.05081713719
6.05990834719
6.06510295706
6.05866143964
6.05081713719
6.03591094207
6.01699900431
6.00373608712
6.01699900431
6.03591094207
6.05081713719
6.05866143964
6.05226727742
6.04094125186
6.01699900431
5.97913912247
5.93614191753
5.97913912247
6.01699900431
6.04094125186
6.05226727742
6.04937139437
6.03574560914
6.00373608712
5.93614191753
5.74375673132
5.93614191753
6.00373608712
6.03574560914
6.04937139437
6.05226727742
6.04094125186
6.01699900431
5.97913912247
5.93614191753
5.97913912247
6.01699900431
6.04094125186
6.05226727742
6.05866143964
6.05081713719
6.03591094207
6.01699900431
6.00373608712
6.01699900431
6.03591094207
6.05081713719
6.05866143964
6.06510295706
6.05990834719
6.05081713719
6.04094125186
6.03574560914
6.04094125186
6.05081713719
6.05990834719
6.06510295706
6.06897468435
6.06510295706
6.05866143964
6.05226727742
6.04937139437
6.05226727742
6.05866143964
6.06510295706
6.06897468435
6.06969409
6.06582247794
6.0593810859
6.05298721908
6.05009154913
6.05298721908
6.0593810859
6.06582247794
6.06969409
6.06582247794
6.06062798414
6.05153742918
6.04166228849
6.03646833441
6.04166228849
6.05153742918
6.06062798414
6.06582247794
6.0593810859
6.05153742918
6.03663236863
6.01772618444
6.00449481908
6.01772618444
6.03663236863
6.05153742918
6.0593810859
6.05298721908
6.04166228849
6.01772618444
5.97993435989
5.93771643711
5.97993435989
6.01772618444
6.04166228849
6.05298721908
6.05009154913
6.03646833441
6.00449481908
5.93771643711
5.77772603996
5.93771643711
6.00449481908
6.03646833441
6.05009154913
6.05298721908
6.04166228849
6.01772618444
5.97993435989
5.93771643711
5.97993435989
6.01772618444
6.04166228849
6.05298721908
6.0593810859
6.05153742918
6.03663236863
6.01772618444
6.00449481908
6.01772618444
6.03663236863
6.05153742918
6.0593810859
6.06582247794
6.06062798414
6.05153742918
6.04166228849
6.03646833441
6.04166228849
6.05153742918
6.06062798414
6.06582247794
6.06969409
6.06582247794
6.0593810859
6.05298721908
6.05009154913
6.05298721908
6.0593810859
6.06582247794
6.06969409
6.07062512046
6.06675384945
6.06031321986
6.05392071908
6.05102546436
6.05392071908
6.06031321986
6.06675384945
6.07062512046
6.06675384945
6.06155994473
6.0524712991
6.04259714197
6.03740488631
6.04259714197
6.0524712991
6.06155994473
6.06675384945
6.06031321986
6.0524712991
6.03756754163
6.01866792619
6.00547097133
6.01866792619
6.03756754163
6.0524712991
6.06031321986
6.05392071908
6.04259714197
6.01866792619
5.98094902418
5.93949027382
5.98094902418
6.01866792619
6.04259714197
6.05392071908
6.05102546436
6.03740488631
6.00547097133
5.93949027382
5.79839775863
5.93949027382
6.00547097133
6.03740488631
6.05102546436
6.05392071908
6.04259714197
6.01866792619
5.98094902418
5.93949027382
5.98094902418
6.01866792619
6.04259714197
6.05392071908
6.06031321986
6.0524712991
6.03756754163
6.01866792619
6.00547097133
6.01866792619
6.03756754163
6.0524712991
6.06031321986
6.06675384945
6.06155994473
6.0524712991
6.04259714197
6.03740488631
6.04259714197
6.0524712991
6.06155994473
6.06675384945
6.07062512046
6.06675384945
6.06031321986
6.05392071908
6.05102546436
6.05392071908
6.06031321986
6.06675384945
6.07062512046
6.07210696384
6.06824027069
6.0618086039
6.0554189563
6.05252480527
6.0554189563
6.0618086039
6.06824027069
6.07210696384
6.06824027069
6.06305347449
6.05396963845
6.04408435266
6.03889596093
6.04408435266
6.05396963845
6.06305347449
6.06824027069
6.0618086039
6.05396963845
6.03905756732
6.02017385269
6.00702232964
6.02017385269
6.03905756732
6.05396963845
6.0618086039
6.0554189563
6.04408435266
6.02017385269
5.98253045709
5.94172044607
5.98253045709
6.02017385269
6.04408435266
6.0554189563
6.05252480527
6.03889596093
6.00702232964
5.94172044607
5.8128563561
5.94172044607
6.00702232964
6.03889596093
6.05252480527
6.0554189563
6.04408435266
6.02017385269
5.98253045709
5.94172044607
5.98253045709
6.02017385269
6.04408435266
6.0554189563
6.0618086039
6.05396963845
6.03905756732
6.02017385269
6.00702232964
6.02017385269
6.03905756732
6.05396963845
6.0618086039
6.06824027069
6.06305347449
6.05396963845
6.04408435266
6.03889596093
6.04408435266
6.05396963845
6.06305347449
6.06824027069
6.07210696384
6.06824027069
6.0618086039
6.0554189563
6.05252480527
6.0554189563
6.0618086039
6.06824027069
6.07210696384
6.6026230147
6.59877765562
6.59235743758
6.58593745423
6.58306119409
6.58593745423
6.59235743758
6.59877765562
6.6026230147
6.59877765562
6.59360406122
6.58450426723
6.57472287652
6.56963062085
6.57472287652
6.58450426723
6.59360406122
6.59877765562
6.59235743758
6.58450426723
6.569762067
6.55122150931
6.53853752813
6.55122150931
6.569762067
6.58450426723
6.59235743758
6.58593745423
6.57472287652
6.55122150931
6.51481520276
6.47819605641
6.51481520276
6.55122150931
6.57472287652
6.58593745423
6.58306119409
6.56963062085
6.53853752813
6.47819605641
6.37817700557
6.47819605641
6.53853752813
6.56963062085
6.58306119409
6.58593745423
6.57472287652
6.55122150931
6.51481520276
6.47819605641
6.51481520276
6.55122150931
6.57472287652
6.58593745423
6.59235743758
6.58450426723
6.569762067
6.55122150931
6.53853752813
6.55122150931
6.569762067
6.58450426723
6.59235743758
6.59877765562
6.59360406122
6.58450426723
6.57472287652
6.56963062085
6.57472287652
6.58450426723
6.59360406122
6.59877765562
6.6026230147
6.59877765562
6.59235743758
6.58593745423
6.58306119409
6.58593745423
6.59235743758
6.59877765562
6.6026230147
7.14311460611
7.13927050293
7.13285374455
7.12645094278
7.1235811376
7.12645094278
7.13285374455
7.13927050293
7.14311460611
7.13927050293
7.13409985909
7.1250256691
7.11526861659
7.11020810635
7.11526861659
7.1250256691
7.13409985909
7.13927050293
7.13285374455
7.1250256691
7.11032047144
7.09189634259
7.0795194265
7.09189634259
7.11032047144
7.1250256691
7.13285374455
7.12645094278
7.11526861659
7.09189634259
7.05619937385
7.02205805374
7.05619937385
7.09189634259
7.11526861659
7.12645094278
7.1235811376
7.11020810635
7.0795194265
7.02205805374
6.93787511296
7.02205805374
7.0795194265
7.11020810635
7.1235811376
7.12645094278
7.11526861659
7.09189634259
7.05619937385
7.02205805374
7.05619937385
7.09189634259
7.11526861659
7.12645094278
7.13285374455
7.1250256691
7.11032047144
7.09189634259
7.0795194265
7.09189634259
7.11032047144
7.1250256691
7.13285374455
7.13927050293
7.13409985909
7.1250256691
7.11526861659
7.11020810635
7.11526861659
7.1250256691
7.13409985909
7.13927050293
7.14311460611
7.13927050293
7.13285374455
7.12645094278
7.1235811376
7.12645094278
7.13285374455
7.13927050293
7.14311460611
7.66488866757
7.66104144718
7.65462074789
7.64822262123
7.64535441646
7.64822262123
7.65462074789
7.66104144718
7.66488866757
7.66104144718
7.65586784277
7.64680104519
7.63704906483
7.63200530726
7.63704906483
7.64680104519
7.65586784277
7.66104144718
7.65462074789
7.64680104519
7.63210365548
7.61374193958
7.60156820996
7.61374193958
7.63210365548
7.64680104519
7.65462074789
7.64822262123
7.63704906483
7.61374193958
7.57850537579
7.54601071145
7.57850537579
7.61374193958
7.63704906483
7.64822262123
7.64535441646
7.63200530726
7.60156820996
7.54601071145
7.47156347503
7.54601071145
7.60156820996
7.63200530726
7.64535441646
7.64822262123
7.63704906483
7.61374193958
7.57850537579
7.54601071145
7.57850537579
7.61374193958
7.63704906483
7.64822262123
7.65462074789
7.64680104519
7.63210365548
7.61374193958
7.60156820996
7.61374193958
7.63210365548
7.64680104519
7.65462074789
7.66104144718
7.65586784277
7.64680104519
7.63704906483
7.63200530726
7.63704906483
7.64680104519
7.65586784277
7.66104144718
7.66488866757
7.66104144718
7.65462074789
7.64822262123
7.64535441646
7.64822262123
7.65462074789
7.66104144718
7.66488866757
8.1688280593
8.16497414777
8.15854300432
8.15213837101
8.14926802645
8.15213837101
8.15854300432
8.16497414777
8.1688280593
8.16497414777
8.15979227676
8.15071750529
8.14095479436
8.13591303133
8.14095479436
8.15071750529
8.15979227676
8.16497414777
8.15854300432
8.15071750529
8.13600406702
8.11765031032
8.10556501053
8.11765031032
8.13600406702
8.15071750529
8.15854300431
8.15213837101
8.14095479436
8.11765031032
8.08260430394
8.05089650146
8.08260430394
8.11765031032
8.14095479436
8.15213837101
8.14926802645
8.13591303133
8.10556501053
8.05089650146
7.98100593772
8.05089650146
8.10556501053
8.13591303133
8.14926802645
8.15213837101
8.14095479436
8.11765031032
8.08260430394
8.05089650146
8.08260430394
8.11765031032
8.14095479436
8.15213837101
8.15854300432
8.15071750529
8.13600406702
8.11765031032
8.10556501053
8.11765031032
8.13600406702
8.15071750529
8.15854300432
8.16497414777
8.15979227676
8.15071750529
8.14095479436
8.13591303133
8.14095479436
8.15071750529
8.15979227676
8.16497414777
8.1688280593
8.16497414777
8.15854300432
8.15213837101
8.14926802645
8.15213837101
8.15854300432
8.16497414777
8.1688280593
SCALARS gas_saturation double 1
LOOKUP_TABLE default
0.749938916734
0.749938974913
0.74993915047
0.749939439534
0.749939326082
0.749939439534
0.74993915047
0.749938974913
0.749938916734
0.749938974913
0.7499391123
0.749939430858
0.749938844973
0.749938637237
0.749938844973
0.749939430858
0.7499391123
0.749938974913
0.74993915047
0.749939430858
0.749938644703
0.74993847064
0.749938909857
0.74993847064
0.749938644703
0.749939430858
0.74993915047
0.749939439534
0.749938844973
0.74993847064
0.749938018213
0.749937779992
0.749938018213
0.74993847064
0.749938844973
0.749939439534
0.749939326082
0.749938637237
0.749938909857
0.749937779992
0.749937944623
0.749937779992
0.749938909857
0.749938637237
0.749939326082
0.749939439534
0.749938844973
0.74993847064
0.749938018213
0.749937779992
0.749938018213
0.74993847064
0.749938844973
0.749939439534
0.74993915047
0.749939430858
0.749938644703
0.74993847064
0.749938909857
0.74993847064
0.749938644703
0.749939430858
0.74993915047
0.749938974913
0.7499391123
0.749939430858
0.749938844973
0.749938637237
0.749938844973
0.749939430858
0.7499391123
0.749938974913
0.749938916734
0.749938974913
0.74993915047
0.749939439534
0.749939326082
0.749939439534
0.74993915047
0.749938974913
0.749938916734
0.74989950949
0.749899564285
0.749899736155
0.749900008422
0.749899960978
0.749900008422
0.749899736155
0.749899564285
0.74989950949
0.749899564285
0.749899693049
0.749900067999
0.749899468514
0.749899252044
0.749899468514
0.749900067999
0.749899693049
0.749899564285
0.749899736155
0.749900067999
0.749899260633
0.749899064411
0.749899478981
0.749899064411
0.749899260633
0.749900067999
0.749899736155
0.749900008422
0.749899468514
0.749899064411
0.749898626101
0.749898403988
0.749898626101
0.749899064411
0.749899468514
0.749900008422
0.749899960978
0.749899252044
0.749899478981
0.749898403988
0.749899651246
0.749898403988
0.749899478981
0.749899252044
0.749899960978
0.749900008422
0.749899468514
0.749899064411
0.749898626101
0.749898403988
0.749898626101
0.749899064411
0.749899468514
0.749900008422
0.749899736155
0.749900067999
0.749899260633
0.749899064411
0.749899478981
0.749899064411
0.749899260633
0.749900067999
0.749899736155
0.749899564285
0.749899693049
0.749900067999
0.749899468514
0.749899252044
0.749899468514
0.749900067999
0.749899693049
0.749899564285
0.74989950949
0.749899564285
0.749899736155
0.749900008422
0.749899960978
0.749900008422
0.749899736155
0.749899564285
0.74989950949
0.749804839027
0.749804889008
0.749805050389
0.749805313486
0.749805350444
0.749805313486
0.749805050389
0.749804889008
0.749804839027
0.749804889008
0.749805010164
0.749805392557
0.749804838667
0.749804612047
0.749804838667
0.749805392557
0.749805010164
0.749804889008
0.749805050389
0.749805392557
0.74980462078
0.749804391504
0.749804785954
0.749804391504
0.74980462078
0.749805392557
0.749805050389
0.749805313486
0.749804838667
0.749804391504
0.749803970947
0.749803796566
0.749803970947
0.749804391504
0.749804838667
0.749805313486
0.749805350444
0.749804612047
0.749804785954
0.749803796566
0.749803587602
0.749803796566
0.749804785954
0.749804612047
0.749805350444
0.749805313486
0.749804838667
0.749804391504
0.749803970947
0.749803796566
0.749803970947
0.749804391504
0.749804838667
0.749805313486
0.749805050389
0.749805392557
0.74980462078
0.749804391504
0.749804785954
0.749804391504
0.74980462078
0.749805392557
0.749805050389
0.749804889008
0.749805010164
0.749805392557
0.749804838667
0.749804612047
0.749804838667
0.749805392557
0.749805010164
0.749804889008
0.749804839027
0.749804889008
0.749805050389
0.749805313486
0.749805350444
0.749805313486
0.749805050389
0.749804889008
0.749804839027
0.749050307101
0.749064570834
0.748947957241
0.748523787587
0.748497388217
0.748523787587
0.748947957241
0.749064570834
0.749050307101
0.749064570834
0.748989276563
0.748504277294
0.748613422952
0.748733075704
0.748613422952
0.748504277294
0.748989276563
0.749064570834
0.748947957241
0.748504277294
0.748730013151
0.749069312013
0.748686378075
0.749069312013
0.748730013151
0.748504277294
0.748947957241
0.748523787587
0.748613422952
0.749069312013
0.748851390138
0.74863853241
0.748851390138
0.749069312013
0.748613422952
0.748523787587
0.748497388217
0.748733075704
0.748686378075
0.74863853241
0.748382405642
0.74863853241
0.748686378075
0.748733075704
0.748497388217
0.748523787587
0.748613422952
0.749069312013
0.748851390138
0.74863853241
0.748851390138
0.749069312013
0.748613422952
0.748523787587
0.748947957241
0.748504277294
0.748730013151
0.749069312013
0.748686378075
0.749069312013
0.748730013151
0.748504277294
0.748947957241
0.749064570834
0.748989276563
0.748504277294
0.748613422952
0.748733075704
0.748613422952
0.748504277294
0.748989276563
0.749064570834
0.749050307101
0.749064570834
0.748947957241
0.748523787587
0.748497388217
0.748523787587
0.748947957241
0.749064570834
0.749050307101
0.631668950495
0.631591148577
0.631596589053
0.631897323313
0.631869993396
0.631897323313
0.631596589053
0.631591148577
0.631668950495
0.631591148577
0.631575632736
0.631882623367
0.631597923907
0.63134794752
0.631597923907
0.631882623367
0.631575632736
0.631591148577
0.631596589053
0.631882623367
0.631388623886
0.630534878186
0.630166246617
0.630534878186
0.631388623886
0.631882623367
0.631596589053
0.631897323313
0.631597923907
0.630534878186
0.628938442394
0.624047936188
0.628938442394
0.630534878186
0.631597923907
0.631897323313
0.631869993396
0.63134794752
0.630166246617
0.624047936188
0.589916583911
0.624047936188
0.630166246617
0.63134794752
0.631869993396
0.631897323313
0.631597923907
0.630534878186
0.628938442394
0.624047936188
0.628938442394
0.630534878186
0.631597923907
0.631897323313
0.631596589053
0.631882623367
0.631388623886
0.630534878186
0.630166246617
0.630534878186
0.631388623886
0.631882623367
0.631596589053
0.631591148577
0.631575632736
0.631882623367
0.631597923907
0.63134794752
0.631597923907
0.631882623367
0.631575632736
0.631591148577
0.631668950495
0.631591148577
0.631596589053
0.631897323313
0.631869993396
0.631897323313
0.631596589053
0.631591148577
0.631668950495
0.0320447337121
0.0320701391262
0.0321127078137
0.0321556473337
0.0321747990911
0.0321556473337
0.0321127078137
0.0320701391262
0.0320447337121
0.0320701391262
0.0321044174734
0.0321651806407
0.0322302723957
0.0322641395428
0.0322302723957
0.0321651806407
0.0321044174734
0.0320701391262
0.0321127078137
0.0321651806407
0.0322633138012
0.0323872824874
0.0324712760846
0.0323872824874
0.0322633138012
0.0321651806407
0.0321127078137
0.0321556473337
0.0322302723957
0.0323872824874
0.0326295167333
0.032867554833
0.0326295167333
0.0323872824874
0.0322302723957
0.0321556473337
0.0321747990911
0.0322641395428
0.0324712760846
0.032867554833
0.0334784400987
0.032867554833
0.0324712760846
0.0322641395428
0.0321747990911
0.0321556473337
0.0322302723957
0.0323872824874
0.0326295167333
0.032867554833
0.0326295167333
0.0323872824874
0.0322302723957
0.0321556473337
0.0321127078137
0.0321651806407
0.0322633138012
0.0323872824874
0.0324712760845
0.0323872824874
0.0322633138012
0.0321651806407
0.0321127078137
0.0320701391262
0.0321044174734
0.0321651806407
0.0322302723957
0.0322641395428
0.0322302723957
0.0321651806407
0.0321044174734
0.0320701391262
0.0320447337121
0.0320701391262
0.0321127078137
0.0321556473337
0.0321747990911
0.0321556473337
0.0321127078137
0.0320701391262
0.0320447337121
0.0296589134756
0.0296817716966
0.0297200084096
0.0297584964257
0.0297759263287
0.0297584964257
0.0297200084096
0.0296817716966
0.0296589134756
0.0296817716966
0.029712576246
0.0297671557019
0.0298265878257
0.0298574443572
0.0298265878257
0.0297671557019
0.029712576246
0.0296817716966
0.0297200084096
0.0297671557019
0.0298567649758
0.0299678905541
0.0300421854769
0.0299678905541
0.0298567649758
0.0297671557019
0.0297200084096
0.0297584964257
0.0298265878257
0.0299678905541
0.030185151447
0.0303912525569
0.030185151447
0.0299678905541
0.0298265878257
0.0297584964257
0.0297759263287
0.0298574443572
0.0300421854769
0.0303912525569
0.0308984397702
0.0303912525569
0.0300421854769
0.0298574443572
0.0297759263287
0.0297584964257
0.0298265878257
0.0299678905541
0.030185151447
0.0303912525569
0.030185151447
0.0299678905541
0.0298265878257
0.0297584964257
0.0297200084096
0.0297671557019
0.0298567649758
0.0299678905541
0.0300421854769
0.0299678905541
0.0298567649758
0.0297671557019
0.0297200084096
0.0296817716966
0.029712576246
0.0297671557019
0.0298265878257
0.0298574443572
0.0298265878257
0.0297671557019
0.029712576246
0.0296817716966
0.0296589134756
0.0296817716966
0.0297200084096
0.0297584964257
0.0297759263287
0.0297584964257
0.0297200084096
0.0296817716966
0.0296589134756
0.0276933767901
0.0277147237838
0.0277503723312
0.0277856538545
0.0278013888903
0.0277856538545
0.0277503723312
0.0277147237838
0.0276933767901
0.0277147237838
0.0277434581118
0.0277934518489
0.0278474771885
0.0278755241083
0.0278474771885
0.0277934518489
0.0277434581118
0.0277147237838
0.0277503723312
0.0277934518489
0.0278749793062
0.0279774321066
0.028045601982
0.0279774321066
0.0278749793062
0.0277934518489
0.0277503723312
0.0277856538545
0.0278474771885
0.0279774321066
0.0281742719312
0.0283569425807
0.0281742719312
0.0279774321066
0.0278474771885
0.0277856538545
0.0278013888903
0.0278755241083
0.028045601982
0.0283569425807
0.0287764299322
0.0283569425807
0.028045601982
0.0278755241083
0.0278013888903
0.0277856538545
0.0278474771885
0.0279774321066
0.0281742719312
0.0283569425807
0.0281742719312
0.0279774321066
0.0278474771885
0.0277856538545
0.0277503723312
0.0277934518489
0.0278749793062
0.0279774321066
0.028045601982
0.0279774321066
0.0278749793062
0.0277934518489
0.0277503723312
0.0277147237838
0.0277434581118
0.0277934518489
0.0278474771885
0.0278755241083
0.0278474771885
0.0277934518489
0.0277434581118
0.0277147237838
0.0276933767901
0.0277147237838
0.0277503723312
0.0277856538545
0.0278013888903
0.0277856538545
0.0277503723312
0.0277147237838
0.0276933767901
0.0258561441257
0.0258743776443
0.025904849999
0.0259352579128
0.0259488720737
0.0259352579128
0.025904849999
0.0258743776443
0.0258561441257
0.0258743776443
0.0258989313871
0.0259420227054
0.025987939737
0.026011662851
0.025987939737
0.0259420227054
0.0258989313871
0.0258743776443
0.025904849999
0.0259420227054
0.0260112408676
0.0260979182161
0.0261552569392
0.0260979182161
0.0260112408676
0.0259420227054
0.025904849999
0.0259352579128
0.025987939737
0.0260979182161
0.0262636118957
0.026413817062
0.0262636118957
0.0260979182161
0.025987939737
0.0259352579128
0.0259488720737
0.026011662851
0.0261552569392
0.026413817062
0.0267435256251
0.026413817062
0.0261552569392
0.026011662851
0.0259488720737
0.0259352579128
0.025987939737
0.0260979182161
0.0262636118957
0.026413817062
0.0262636118957
0.0260979182161
0.025987939737
0.0259352579128
0.025904849999
0.0259420227054
0.0260112408676
0.0260979182161
0.0261552569392
0.0260979182161
0.0260112408676
0.0259420227054
0.025904849999
0.0258743776443
0.0258989313871
0.0259420227054
0.025987939737
0.026011662851
0.025987939737
0.0259420227054
0.0258989313871
0.0258743776443
0.0258561441257
0.0258743776443
0.025904849999
0.0259352579128
0.0259488720737
0.0259352579128
0.025904849999
0.0258743776443
0.0258561441257
SCALARS gas_H2_mole_fraction double 1
LOOKUP_TABLE default
0.972977839885
0.972973455272
0.972966147607
0.972958878661
0.972955580854
0.972958878661
0.972966147607
0.972973455272
0.972977839885
0.972973455272
0.972967564033
0.97295722897
0.972945966741
0.972940025916
0.972945966741
0.97295722897
0.972967564033
0.972973455272
0.972966147607
0.97295722897
0.972940218461
0.972918513806
0.972903195627
0.972918513806
0.972940218461
0.97295722897
0.972966147607
0.972958878661
0.972945966741
0.972918513806
0.972874628856
0.972823934297
0.972874628856
0.972918513806
0.972945966741
0.972958878661
0.972955580854
0.972940025916
0.972903195627
0.972823934297
0.972608700266
0.972823934297
0.972903195627
0.972940025916
0.972955580854
0.972958878661
0.972945966741
0.972918513806
0.972874628856
0.972823934297
0.972874628856
0.972918513806
0.972945966741
0.972958878661
0.972966147607
0.97295722897
0.972940218461
0.972918513806
0.972903195627
0.972918513806
0.972940218461
0.97295722897
0.972966147607
0.972973455272
0.972967564033
0.97295722897
0.972945966741
0.972940025916
0.972945966741
0.97295722897
0.972967564033
0.972973455272
0.972977839885
0.972973455272
0.972966147607
0.972958878661
0.972955580854
0.972958878661
0.972966147607
0.972973455272
0.972977839885
0.97297841462
0.972974030894
0.972966724826
0.972959456197
0.972956159478
0.972959456197
0.972966724826
0.972974030894
0.97297841462
0.972974030894
0.972968140375
0.972957807512
0.972946547255
0.97294060821
0.972946547255
0.972957807512
0.972968140375
0.972974030894
0.972966724826
0.972957807512
0.972940799947
0.972919102552
0.972903805965
0.972919102552
0.972940799947
0.972957807512
0.972966724826
0.972959456197
0.972946547255
0.972919102552
0.972875267569
0.972824852886
0.972875267569
0.972919102552
0.972946547255
0.972959456197
0.972956159478
0.97294060821
0.972903805965
0.972824852886
0.972593575803
0.972824852886
0.972903805965
0.97294060821
0.972956159478
0.972959456197
0.972946547255
0.972919102552
0.972875267569
0.972824852886
0.972875267569
0.972919102552
0.972946547255
0.972959456197
0.972966724826
0.972957807512
0.972940799947
0.972919102552
0.972903805965
0.972919102552
0.972940799947
0.972957807512
0.972966724826
0.972974030894
0.972968140375
0.972957807512
0.972946547255
0.97294060821
0.972946547255
0.972957807512
0.972968140375
0.972974030894
0.97297841462
0.972974030894
0.972966724826
0.972959456197
0.972956159478
0.972959456197
0.972966724826
0.972974030894
0.97297841462
0.972979280618
0.972974898412
0.972967594176
0.972960327834
0.97295703202
0.972960327834
0.972967594176
0.972974898412
0.972979280618
0.972974898412
0.972969009493
0.972958679915
0.972947423689
0.972941488406
0.972947423689
0.972958679915
0.972969009493
0.972974898412
0.972967594176
0.972958679915
0.972941678424
0.972919994654
0.972904742973
0.972919994654
0.972941678424
0.972958679915
0.972967594176
0.972960327834
0.972947423689
0.972919994654
0.972876260238
0.972826905849
0.972876260238
0.972919994654
0.972947423689
0.972960327834
0.97295703202
0.972941488406
0.972904742973
0.972826905849
0.972640996138
0.972826905849
0.972904742973
0.972941488406
0.97295703202
0.972960327834
0.972947423689
0.972919994654
0.972876260238
0.972826905849
0.972876260238
0.972919994654
0.972947423689
0.972960327834
0.972967594176
0.972958679915
0.972941678424
0.972919994654
0.972904742973
0.972919994654
0.972941678424
0.972958679915
0.972967594176
0.972974898412
0.972969009493
0.972958679915
0.972947423689
0.972941488406
0.972947423689
0.972958679915
0.972969009493
0.972974898412
0.972979280618
0.972974898412
0.972967594176
0.972960327834
0.97295703202
0.972960327834
0.972967594176
0.972974898412
0.972979280618
0.972982738997
0.972978369378
0.97297108552
0.972963827015
0.972960535462
0.972963827015
0.97297108552
0.972978369378
0.972982738997
0.972978369378
0.972972497215
0.972962181097
0.972950943422
0.972945027324
0.972950943422
0.972962181097
0.972972497215
0.972978369378
0.97297108552
0.972962181097
0.972945212951
0.972923610167
0.972908497931
0.972923610167
0.972945212951
0.972962181097
0.97297108552
0.972963827015
0.972950943422
0.972923610167
0.972880192433
0.97283307416
0.972880192433
0.972923610167
0.972950943422
0.972963827015
0.972960535462
0.972945027324
0.972908497931
0.97283307416
0.972681854196
0.97283307416
0.972908497931
0.972945027324
0.972960535462
0.972963827015
0.972950943422
0.972923610167
0.972880192433
0.97283307416
0.972880192433
0.972923610167
0.972950943422
0.972963827015
0.97297108552
0.972962181097
0.972945212951
0.972923610167
0.972908497931
0.972923610167
0.972945212951
0.972962181097
0.97297108552
0.972978369378
0.972972497215
0.972962181097
0.972950943422
0.972945027324
0.972950943422
0.972962181097
0.972972497215
0.972978369378
0.972982738997
0.972978369378
0.97297108552
0.972963827015
0.972960535462
0.972963827015
0.97297108552
0.972978369378
0.972982738997
0.973069561321
0.973065522349
0.973058781313
0.973052052249
0.973049019165
0.973052052249
0.973058781313
0.973065522349
0.973069561321
0.973065522349
0.973060088816
0.973050534452
0.973040170038
0.973034735031
0.973040170038
0.973050534452
0.973060088816
0.973065522349
0.973058781313
0.973050534452
0.973034884939
0.973015033767
0.973001252382
0.973015033767
0.973034884939
0.973050534452
0.973058781313
0.973052052249
0.973040170038
0.973015033767
0.972975396907
0.972933132102
0.972975396907
0.973015033767
0.973040170038
0.973052052249
0.973049019165
0.973034735031
0.973001252382
0.972933132102
0.972800443874
0.972933132102
0.973001252382
0.973034735031
0.973049019165
0.973052052249
0.973040170038
0.973015033767
0.972975396907
0.972933132102
0.972975396907
0.973015033767
0.973040170038
0.973052052249
0.973058781313
0.973050534452
0.973034884939
0.973015033767
0.973001252382
0.973015033767
0.973034884939
0.973050534452
0.973058781313
0.973065522349
0.973060088816
0.973050534452
0.973040170038
0.973034735031
0.973040170038
0.973050534452
0.973060088816
0.973065522349
0.973069561321
0.973065522349
0.973058781313
0.973052052249
0.973049019165
0.973052052249
0.973058781313
0.973065522349
0.973069561321
0.986159104298
0.986155051019
0.986148272051
0.986141476679
0.986138429697
0.986141476679
0.986148272051
0.986155051019
0.986159104298
0.986155051019
0.986149590201
0.98613996016
0.986129588402
0.986124170647
0.986129588402
0.98613996016
0.986149590201
0.986155051019
0.986148272051
0.98613996016
0.9861243194
0.986104520925
0.986090833598
0.986104520925
0.9861243194
0.98613996016
0.986148272051
0.986141476679
0.986129588402
0.986104520925
0.986065174657
0.986024539137
0.986065174657
0.986104520925
0.986129588402
0.986141476679
0.986138429697
0.986124170647
0.986090833598
0.986024539137
0.985908208506
0.986024539137
0.986090833598
0.986124170647
0.986138429697
0.986141476679
0.986129588402
0.986104520925
0.986065174657
0.986024539137
0.986065174657
0.986104520925
0.986129588402
0.986141476679
0.986148272051
0.98613996016
0.9861243194
0.986104520925
0.986090833598
0.986104520925
0.9861243194
0.98613996016
0.986148272051
0.986155051019
0.986149590201
0.98613996016
0.986129588402
0.986124170647
0.986129588402
0.98613996016
0.986149590201
0.986155051019
0.986159104298
0.986155051019
0.986148272051
0.986141476679
0.986138429697
0.986141476679
0.986148272051
0.986155051019
0.986159104298
0.986317791797
0.98631429152
0.986308439792
0.98630258395
0.986299954193
0.986302583951
0.986308439792
0.98631429152
0.986317791797
0.98631429152
0.986309577912
0.986301279764
0.986292328954
0.986287674179
0.986292328954
0.986301279764
0.986309577912
0.98631429152
0.986308439792
0.986301279764
0.986287783988
0.98627080958
0.986259305367
0.98627080958
0.986287783988
0.986301279764
0.986308439792
0.986302583951
0.986292328954
0.98627080958
0.986237537222
0.986204998215
0.986237537222
0.98627080958
0.986292328954
0.986302583951
0.986299954193
0.986287674179
0.986259305367
0.986204998215
0.986121351776
0.986204998215
0.986259305367
0.986287674179
0.986299954193
0.986302583951
0.986292328954
0.98627080958
0.986237537222
0.986204998215
0.986237537222
0.98627080958
0.986292328954
0.986302583951
0.986308439792
0.986301279764
0.986287783988
0.98627080958
0.986259305367
0.98627080958
0.986287783988
0.986301279764
0.986308439792
0.98631429152
0.986309577912
0.986301279764
0.986292328954
0.986287674179
0.986292328954
0.986301279764
0.986309577912
0.98631429152
0.986317791797
0.98631429152
0.986308439792
0.986302583951
0.986299954193
0.986302583951
0.986308439792
0.98631429152
0.986317791797
0.986410576812
0.986407493538
0.98640234258
0.986397206917
0.986394902954
0.986397206917
0.98640234258
0.986407493538
0.986410576812
0.986407493538
0.986403344107
0.986396067141
0.986388218762
0.986384149546
0.986388218762
0.986396067141
0.986403344107
0.986407493538
0.98640234258
0.986396067141
0.986384232281
0.986369376122
0.986359463488
0.986369376122
0.986384232281
0.986396067141
0.98640234258
0.986397206917
0.986388218762
0.986369376122
0.986340635157
0.986313684991
0.986340635157
0.986369376122
0.986388218762
0.986397206917
0.986394902954
0.986384149546
0.986359463488
0.986313684991
0.986250114477
0.986313684991
0.986359463488
0.986384149546
0.986394902954
0.986397206917
0.986388218762
0.986369376122
0.986340635157
0.986313684991
0.986340635157
0.986369376122
0.986388218762
0.986397206917
0.98640234258
0.986396067141
0.986384232281
0.986369376122
0.986359463488
0.986369376122
0.986384232281
0.986396067141
0.98640234258
0.986407493538
0.986403344107
0.986396067141
0.986388218762
0.986384149546
0.986388218762
0.986396067141
0.986403344107
0.986407493538
0.986410576812
0.986407493538
0.98640234258
0.986397206917
0.986394902954
0.986397206917
0.98640234258
0.986407493538
0.986410576812
0.986457224367
0.986454492382
0.986449928546
0.986445377485
0.98644333672
0.986445377485
0.986449928546
0.986454492382
0.986457224367
0.986454492382
0.986450816382
0.986444369229
0.986437426681
0.986433836981
0.986437426681
0.986444369229
0.986450816382
0.986454492382
0.986449928546
0.986444369229
0.986433902085
0.986420800871
0.986412146612
0.986420800871
0.986433902085
0.986444369229
0.986449928546
0.986445377485
0.986437426681
0.986420800871
0.986395648004
0.986372728744
0.986395648004
0.986420800871
0.986437426681
0.986445377485
0.98644333672
0.986433836981
0.986412146612
0.986372728744
0.986321652385
0.986372728744
0.986412146612
0.986433836981
0.98644333672
0.986445377485
0.986437426681
0.986420800871
0.986395648004
0.986372728744
0.986395648004
0.986420800871
0.986437426681
0.986445377485
0.986449928546
0.986444369229
0.986433902085
0.986420800871
0.986412146612
0.986420800871
0.986433902085
0.986444369229
0.986449928546
0.986454492382
0.986450816382
0.986444369229
0.986437426681
0.986433836981
0.986437426681
0.986444369229
0.986450816382
0.986454492382
0.986457224367
0.986454492382
0.986449928546
0.986445377485
0.98644333672
0.986445377485
0.986449928546
0.986454492382
0.986457224367
SCALARS aqueous_H2_mole_fraction double 1
LOOKUP_TABLE default
8.0638957675e-05
8.05872360888e-05
8.05011853232e-05
8.04157661694e-05
8.03770793063e-05
8.04157661694e-05
8.05011853232e-05
8.05872360888e-05
8.0638957675e-05
8.05872360888e-05
8.05178424347e-05
8.03963919697e-05
8.02644570999e-05
8.0195036456e-05
8.02644570999e-05
8.03963919697e-05
8.05178424347e-05
8.05872360888e-05
8.05011853232e-05
8.03963919697e-05
8.0197255482e-05
7.99445691511e-05
7.97671604292e-05
7.99445691511e-05
8.0197255482e-05
8.03963919697e-05
8.05011853232e-05
8.04157661694e-05
8.02644570999e-05
7.99445691511e-05
7.94382983347e-05
7.88608869233e-05
7.94382983347e-05
7.99445691511e-05
8.02644570999e-05
8.04157661694e-05
8.03770793063e-05
8.0195036456e-05
7.97671604292e-05
7.88608869233e-05
7.64941622807e-05
7.88608869233e-05
7.97671604292e-05
8.0195036456e-05
8.03770793063e-05
8.04157661694e-05
8.02644570999e-05
7.99445691511e-05
7.94382983347e-05
7.88608869233e-05
7.94382983347e-05
7.99445691511e-05
8.02644570999e-05
8.04157661694e-05
8.05011853232e-05
8.03963919697e-05
8.0197255482e-05
7.99445691511e-05
7.97671604292e-05
7.99445691511e-05
8.0197255482e-05
8.03963919697e-05
8.05011853232e-05
8.05872360888e-05
8.05178424347e-05
8.03963919697e-05
8.02644570999e-05
8.0195036456e-05
8.02644570999e-05
8.03963919697e-05
8.05178424347e-05
8.05872360888e-05
8.0638957675e-05
8.05872360888e-05
8.05011853232e-05
8.04157661694e-05
8.03770793063e-05
8.04157661694e-05
8.05011853232e-05
8.05872360888e-05
8.0638957675e-05
8.0645752832e-05
8.05940308515e-05
8.05079790495e-05
8.04225594782e-05
8.03838733154e-05
8.04225594782e-05
8.05079790495e-05
8.05940308515e-05
8.0645752832e-05
8.05940308515e-05
8.05246364351e-05
8.04031871795e-05
8.02712547311e-05
8.02018455579e-05
8.02712547311e-05
8.04031871795e-05
8.05246364351e-05
8.05940308515e-05
8.05079790495e-05
8.04031871795e-05
8.02040544756e-05
7.99514065647e-05
7.97742234083e-05
7.99514065647e-05
8.02040544756e-05
8.04031871795e-05
8.05079790495e-05
8.04225594782e-05
8.02712547311e-05
7.99514065647e-05
7.94456226992e-05
7.88711980851e-05
7.94456226992e-05
7.99514065647e-05
8.02712547311e-05
8.04225594782e-05
8.03838733154e-05
8.02018455579e-05
7.97742234083e-05
7.88711980851e-05
7.63011189689e-05
7.88711980851e-05
7.97742234083e-05
8.02018455579e-05
8.03838733154e-05
8.04225594782e-05
8.02712547311e-05
7.99514065647e-05
7.94456226992e-05
7.88711980851e-05
7.94456226992e-05
7.99514065647e-05
8.02712547311e-05
8.04225594782e-05
8.05079790495e-05
8.04031871795e-05
8.02040544756e-05
7.99514065647e-05
7.97742234083e-05
7.99514065647e-05
8.02040544756e-05
8.04031871795e-05
8.05079790495e-05
8.05940308515e-05
8.05246364351e-05
8.04031871795e-05
8.02712547311e-05
8.02018455579e-05
8.02712547311e-05
8.04031871795e-05
8.05246364351e-05
8.05940308515e-05
8.0645752832e-05
8.05940308515e-05
8.05079790495e-05
8.04225594782e-05
8.03838733154e-05
8.04225594782e-05
8.05079790495e-05
8.05940308515e-05
8.0645752832e-05
8.06553675968e-05
8.06036472029e-05
8.05175971027e-05
8.04321815265e-05
8.0393498214e-05
8.04321815265e-05
8.05175971027e-05
8.06036472029e-05
8.06553675968e-05
8.06036472029e-05
8.05342543674e-05
8.04128139126e-05
8.02808914998e-05
8.02115049438e-05
8.02808914998e-05
8.04128139126e-05
8.05342543674e-05
8.06036472029e-05
8.05175971027e-05
8.04128139126e-05
8.02136964956e-05
7.99611256862e-05
7.97843644934e-05
7.99611256862e-05
8.02136964956e-05
8.04128139126e-05
8.05175971027e-05
8.04321815265e-05
8.02808914998e-05
7.99611256862e-05
7.94562520828e-05
7.88922489785e-05
7.94562520828e-05
7.99611256862e-05
8.02808914998e-05
8.04321815265e-05
8.0393498214e-05
8.02115049438e-05
7.97843644934e-05
7.88922489785e-05
7.67553674506e-05
7.88922489785e-05
7.97843644934e-05
8.02115049438e-05
8.0393498214e-05
8.04321815265e-05
8.02808914998e-05
7.99611256862e-05
7.94562520828e-05
7.88922489785e-05
7.94562520828e-05
7.99611256862e-05
8.02808914998e-05
8.04321815265e-05
8.05175971027e-05
8.04128139126e-05
8.02136964956e-05
7.99611256862e-05
7.97843644934e-05
7.99611256862e-05
8.02136964956e-05
8.04128139126e-05
8.05175971027e-05
8.06036472029e-05
8.05342543674e-05
8.04128139126e-05
8.02808914998e-05
8.02115049438e-05
8.02808914998e-05
8.04128139126e-05
8.05342543674e-05
8.06036472029e-05
8.06553675968e-05
8.06036472029e-05
8.05175971027e-05
8.04321815265e-05
8.0393498214e-05
8.04321815265e-05
8.05175971027e-05
8.06036472029e-05
8.06553675968e-05
8.06680044992e-05
8.06162894611e-05
8.05302508089e-05
8.04448536491e-05
8.04061760371e-05
8.04448536491e-05
8.05302508089e-05
8.06162894611e-05
8.06680044992e-05
8.06162894611e-05
8.05469055426e-05
8.04254910278e-05
8.02935826471e-05
8.02242199139e-05
8.02935826471e-05
8.04254910278e-05
8.05469055426e-05
8.06162894611e-05
8.05302508089e-05
8.04254910278e-05
8.0226392822e-05
7.9973914747e-05
7.97976206777e-05
7.9973914747e-05
8.0226392822e-05
8.04254910278e-05
8.05302508089e-05
8.04448536491e-05
8.02935826471e-05
7.9973914747e-05
7.94700321268e-05
7.89162774806e-05
7.94700321268e-05
7.9973914747e-05
8.02935826471e-05
8.04448536491e-05
8.04061760371e-05
8.02242199139e-05
7.97976206777e-05
7.89162774806e-05
7.70327638343e-05
7.89162774806e-05
7.97976206777e-05
8.02242199139e-05
8.04061760371e-05
8.04448536491e-05
8.02935826471e-05
7.9973914747e-05
7.94700321268e-05
7.89162774806e-05
7.94700321268e-05
7.9973914747e-05
8.02935826471e-05
8.04448536491e-05
8.05302508089e-05
8.04254910278e-05
8.0226392822e-05
7.9973914747e-05
7.97976206777e-05
7.9973914747e-05
8.0226392822e-05
8.04254910278e-05
8.05302508089e-05
8.06162894611e-05
8.05469055426e-05
8.04254910278e-05
8.02935826471e-05
8.02242199139e-05
8.02935826471e-05
8.04254910278e-05
8.05469055426e-05
8.06162894611e-05
8.06680044992e-05
8.06162894611e-05
8.05302508089e-05
8.04448536491e-05
8.04061760371e-05
8.04448536491e-05
8.05302508089e-05
8.06162894611e-05
8.06680044992e-05
8.06948608297e-05
8.06432292952e-05
8.05573467519e-05
8.04720235051e-05
8.04333783808e-05
8.04720235051e-05
8.05573467519e-05
8.06432292952e-05
8.06948608297e-05
8.06432292952e-05
8.0573969765e-05
8.04526710698e-05
8.032067512e-05
8.0251396942e-05
8.032067512e-05
8.04526710698e-05
8.0573969765e-05
8.06432292952e-05
8.05573467519e-05
8.04526710698e-05
8.02535531901e-05
8.00014067247e-05
7.98258079104e-05
8.00014067247e-05
8.02535531901e-05
8.04526710698e-05
8.05573467519e-05
8.04720235051e-05
8.032067512e-05
8.00014067247e-05
7.94987871596e-05
7.89539777676e-05
7.94987871596e-05
8.00014067247e-05
8.032067512e-05
8.04720235051e-05
8.04333783808e-05
8.0251396942e-05
7.98258079104e-05
7.89539777676e-05
7.72339432037e-05
7.89539777676e-05
7.98258079104e-05
8.0251396942e-05
8.04333783808e-05
8.04720235051e-05
8.032067512e-05
8.00014067247e-05
7.94987871596e-05
7.89539777676e-05
7.94987871596e-05
8.00014067247e-05
8.032067512e-05
8.04720235051e-05
8.05573467519e-05
8.04526710698e-05
8.02535531901e-05
8.00014067247e-05
7.98258079104e-05
8.00014067247e-05
8.02535531901e-05
8.04526710698e-05
8.05573467519e-05
8.06432292952e-05
8.0573969765e-05
8.04526710698e-05
8.032067512e-05
8.0251396942e-05
8.032067512e-05
8.04526710698e-05
8.0573969765e-05
8.06432292952e-05
8.06948608297e-05
8.06432292952e-05
8.05573467519e-05
8.04720235051e-05
8.04333783808e-05
8.04720235051e-05
8.05573467519e-05
8.06432292952e-05
8.06948608297e-05
8.8911815326e-05
8.88597657412e-05
8.87728633178e-05
8.8685963447e-05
8.86470309041e-05
8.8685963447e-05
8.87728633178e-05
8.88597657412e-05
8.8911815326e-05
8.88597657412e-05
8.87897373952e-05
8.86665642181e-05
8.85341652007e-05
8.84652365892e-05
8.85341652007e-05
8.86665642181e-05
8.87897373952e-05
8.88597657412e-05
8.87728633178e-05
8.86665642181e-05
8.84670166319e-05
8.82160503528e-05
8.80443506132e-05
8.82160503528e-05
8.84670166319e-05
8.86665642181e-05
8.87728633178e-05
8.8685963447e-05
8.85341652007e-05
8.82160503528e-05
8.77232317666e-05
8.72274675812e-05
8.77232317666e-05
8.82160503528e-05
8.85341652007e-05
8.8685963447e-05
8.86470309041e-05
8.84652365892e-05
8.80443506132e-05
8.72274675812e-05
8.58730604819e-05
8.72274675812e-05
8.80443506132e-05
8.84652365892e-05
8.86470309041e-05
8.8685963447e-05
8.85341652007e-05
8.82160503528e-05
8.77232317666e-05
8.72274675812e-05
8.77232317666e-05
8.82160503528e-05
8.85341652007e-05
8.8685963447e-05
8.87728633178e-05
8.86665642181e-05
8.84670166319e-05
8.82160503528e-05
8.80443506132e-05
8.82160503528e-05
8.84670166319e-05
8.86665642181e-05
8.87728633178e-05
8.88597657412e-05
8.87897373952e-05
8.86665642181e-05
8.85341652007e-05
8.84652365892e-05
8.85341652007e-05
8.86665642181e-05
8.87897373952e-05
8.88597657412e-05
8.8911815326e-05
8.88597657412e-05
8.87728633178e-05
8.8685963447e-05
8.86470309041e-05
8.8685963447e-05
8.87728633178e-05
8.88597657412e-05
8.8911815326e-05
9.61907689825e-05
9.61387677682e-05
9.60519645889e-05
9.59653492792e-05
9.59265270926e-05
9.59653492793e-05
9.60519645889e-05
9.61387677682e-05
9.61907689825e-05
9.61387677682e-05
9.60688216098e-05
9.59460686079e-05
9.58140768949e-05
9.5745618638e-05
9.58140768949e-05
9.59460686079e-05
9.60688216098e-05
9.61387677682e-05
9.60519645889e-05
9.59460686079e-05
9.57471393272e-05
9.54978999842e-05
9.53304601514e-05
9.54978999842e-05
9.57471393272e-05
9.59460686079e-05
9.60519645889e-05
9.59653492793e-05
9.58140768949e-05
9.54978999842e-05
9.50149757123e-05
9.45530494849e-05
9.50149757123e-05
9.54978999842e-05
9.58140768949e-05
9.59653492793e-05
9.59265270926e-05
9.5745618638e-05
9.53304601514e-05
9.45530494849e-05
9.34138368819e-05
9.45530494849e-05
9.53304601514e-05
9.5745618638e-05
9.59265270926e-05
9.59653492793e-05
9.58140768949e-05
9.54978999842e-05
9.50149757123e-05
9.45530494849e-05
9.50149757123e-05
9.54978999842e-05
9.58140768949e-05
9.59653492793e-05
9.60519645889e-05
9.59460686079e-05
9.57471393272e-05
9.54978999842e-05
9.53304601514e-05
9.54978999842e-05
9.57471393272e-05
9.59460686079e-05
9.60519645889e-05
9.61387677682e-05
9.60688216098e-05
9.59460686079e-05
9.58140768949e-05
9.5745618638e-05
9.58140768949e-05
9.59460686079e-05
9.60688216098e-05
9.61387677682e-05
9.61907689825e-05
9.61387677682e-05
9.60519645889e-05
9.59653492793e-05
9.59265270926e-05
9.59653492793e-05
9.60519645889e-05
9.61387677682e-05
9.61907689825e-05
0.000103211447162
0.000103159433099
0.000103072625765
0.000102986123903
0.000102947346151
0.000102986123903
0.000103072625765
0.000103159433099
0.000103211447162
0.000103159433099
0.000103089486451
0.00010296690459
0.000102835058226
0.00010276686633
0.000102835058226
0.00010296690459
0.000103089486451
0.000103159433099
0.000103072625765
0.00010296690459
0.000102768196353
0.000102519943566
0.000102355349307
0.000102519943566
0.000102768196353
0.00010296690459
0.000103072625765
0.000102986123903
0.000102835058226
0.000102519943566
0.00010204353036
0.000101604159026
0.00010204353036
0.000102519943566
0.000102835058226
0.000102986123903
0.000102947346151
0.00010276686633
0.000102355349307
0.000101604159026
0.000100597406418
0.000101604159026
0.000102355349307
0.00010276686633
0.000102947346151
0.000102986123903
0.000102835058226
0.000102519943566
0.00010204353036
0.000101604159026
0.00010204353036
0.000102519943566
0.000102835058226
0.000102986123903
0.000103072625765
0.00010296690459
0.000102768196353
0.000102519943566
0.000102355349307
0.000102519943566
0.000102768196353
0.00010296690459
0.000103072625765
0.000103159433099
0.000103089486451
0.00010296690459
0.000102835058226
0.00010276686633
0.000102835058226
0.00010296690459
0.000103089486451
0.000103159433099
0.000103211447162
0.000103159433099
0.000103072625765
0.000102986123903
0.000102947346151
0.000102986123903
0.000103072625765
0.000103159433099
0.000103211447162
0.000109986663665
0.000109934589877
0.000109847692554
0.000109761153248
0.000109722369229
0.000109761153248
0.000109847692554
0.000109934589877
0.000109986663665
0.000109934589877
0.000109864572774
0.000109741954754
0.000109610041666
0.000109541917664
0.000109610041666
0.000109741954754
0.000109864572774
0.000109934589877
0.000109847692554
0.000109741954754
0.000109543147762
0.000109295151713
0.000109131854225
0.000109295151713
0.000109543147762
0.000109741954754
0.000109847692554
0.000109761153248
0.000109610041666
0.000109295151713
0.000108821605998
0.000108393161369
0.000108821605998
0.000109295151713
0.000109610041666
0.000109761153248
0.000109722369229
0.000109541917664
0.000109131854225
0.000108393161369
0.000107448763082
0.000108393161369
0.000109131854225
0.000109541917664
0.000109722369229
0.000109761153248
0.000109610041666
0.000109295151713
0.000108821605998
0.000108393161369
0.000108821605998
0.000109295151713
0.000109610041666
0.000109761153248
0.000109847692554
0.000109741954754
0.000109543147762
0.000109295151713
0.000109131854225
0.000109295151713
0.000109543147762
0.000109741954754
0.000109847692554
0.000109934589877
0.000109864572774
0.000109741954754
0.000109610041666
0.000109541917664
0.000109610041666
0.000109741954754
0.000109864572774
0.000109934589877
0.000109986663665
0.000109934589877
0.000109847692554
0.000109761153248
0.000109722369229
0.000109761153248
0.000109847692554
0.000109934589877
0.000109986663665
