# vtk DataFile Version 3.0
Hydrogen reservoir; coordinates in metres, z positive down
ASCII
DATASET RECTILINEAR_GRID
DIMENSIONS 10 10 10
X_COORDINATES 10 double
0 111.111111111 222.222222222 333.333333333 444.444444444 555.555555556 666.666666667 777.777777778 888.888888889 1000
Y_COORDINATES 10 double
0 111.111111111 222.222222222 333.333333333 444.444444444 555.555555556 666.666666667 777.777777778 888.888888889 1000
Z_COORDINATES 10 double
100 105 110 115 120 125 130 135 140 145
CELL_DATA 729
SCALARS pressure_bar double 1
LOOKUP_TABLE default
5.9923159247
5.99005242165
5.98610693416
5.98195211314
5.97996522258
5.98195211314
5.98610693416
5.99005242165
5.9923159247
5.99005242165
5.98661108177
5.9802703734
5.97292035197
5.96880364991
5.97292035197
5.9802703734
5.98661108177
5.99005242165
5.98610693416
5.9802703734
5.96859794344
5.95287716633
5.94122977133
5.95287716633
5.96859794344
5.9802703734
5.98610693416
5.98195211314
5.97292035197
5.95287716633
5.91943638222
5.87961850626
5.91943638222
5.95287716633
5.97292035197
5.98195211314
5.97996522258
5.96880364991
5.94122977133
5.87961850626
5.71180951744
5.87961850626
5.94122977133
5.96880364991
5.97996522258
5.98195211314
5.97292035197
5.95287716633
5.91943638222
5.87961850626
5.91943638222
5.95287716633
5.97292035197
5.98195211314
5.98610693416
5.9802703734
5.96859794344
5.95287716633
5.94122977133
5.95287716633
5.96859794344
5.9802703734
5.98610693416
5.99005242165
5.98661108177
5.9802703734
5.97292035197
5.96880364991
5.97292035197
5.9802703734
5.98661108177
5.99005242165
5.9923159247
5.99005242165
5.98610693416
5.98195211314
5.97996522258
5.98195211314
5.98610693416
5.99005242165
5.9923159247
5.99261047028
5.99034686976
5.98640121035
5.98224621589
5.98025927495
5.98224621589
5.98640121035
5.99034686976
5.99261047028
5.99034686976
5.98690537516
5.98056439479
5.97321420657
5.9690981269
5.97321420657
5.98056439479
5.98690537516
5.99034686976
5.98640121035
5.98056439479
5.96889169087
5.95317308011
5.94154277011
5.95317308011
5.96889169087
5.98056439479
5.98640121035
5.98224621589
5.97321420657
5.95317308011
5.9197682873
5.88020342203
5.9197682873
5.95317308011
5.97321420657
5.98224621589
5.98025927495
5.9690981269
5.94154277011
5.88020342203
5.69787887203
5.88020342203
5.94154277011
5.9690981269
5.98025927495
5.98224621589
5.97321420657
5.95317308011
5.9197682873
5.88020342203
5.9197682873
5.95317308011
5.97321420657
5.98224621589
5.98640121035
5.98056439479
5.96889169087
5.95317308011
5.94154277011
5.95317308011
5.96889169087
5.98056439479
5.98640121035
5.99034686976
5.98690537516
5.98056439479
5.97321420657
5.9690981269
5.97321420657
5.98056439479
5.98690537516
5.99034686976
5.99261047028
5.99034686976
5.98640121035
5.98224621589
5.98025927495
5.98224621589
5.98640121035
5.99034686976
5.99261047028
5.99290513629
5.99064144739
5.98669562961
5.98254048046
5.98055351865
5.98254048046
5.98669562961
5.99064144739
5.99290513629
5.99064144739
5.98719980507
5.9808585729
5.97350833721
5.96939341782
5.97350833721
5.9808585729
5.98719980507
5.99064144739
5.98669562961
5.9808585729
5.96918577796
5.95347132105
5.94187228493
5.95347132105
5.96918577796
5.9808585729
5.98669562961
5.98254048046
5.97350833721
5.95347132105
5.92013234663
5.88139402533
5.92013234663
5.95347132105
5.97350833721
5.98254048046
5.98055351865
5.96939341782
5.94187228493
5.88139402533
5.73192953797
5.88139402533
5.94187228493
5.96939341782
5.98055351865
5.98254048046
5.97350833721
5.95347132105
5.92013234663
5.88139402533
5.92013234663
5.95347132105
5.97350833721
5.98254048046
5.98669562961
5.9808585729
5.96918577796
5.95347132105
5.94187228493
5.95347132105
5.96918577796
5.9808585729
5.98669562961
5.99064144739
5.98719980507
5.9808585729
5.97350833721
5.96939341782
5.97350833721
5.9808585729
5.98719980507
5.99064144739
5.99290513629
5.99064144739
5.98669562961
5.98254048046
5.98055351865
5.98254048046
5.98669562961
5.99064144739
5.99290513629
5.99319991812
5.99093615072
5.98699018934
5.98283490057
5.98084792532
5.98283490057
5.98699018934
5.99093615072
5.99319991812
5.99093615072
5.98749436917
5.98115290014
5.97380264245
5.96968891124
5.97380264245
5.98115290014
5.98749436917
5.99093615072
5.98699018934
5.98115290014
5.96948005676
5.95376997842
5.94220281353
5.95376997842
5.96948005676
5.98115290014
5.98699018934
5.98283490057
5.97380264245
5.95376997842
5.92049797079
5.88257696439
5.92049797079
5.95376997842
5.97380264245
5.98283490057
5.98084792532
5.96968891124
5.94220281353
5.88257696439
5.7532554341
5.88257696439
5.94220281353
5.96968891124
5.98084792532
5.98283490057
5.97380264245
5.95376997842
5.92049797079
5.88257696439
5.92049797079
5.95376997842
5.97380264245
5.98283490057
5.98699018934
5.98115290014
5.96948005676
5.95376997842
5.94220281353
5.95376997842
5.96948005676
5.98115290014
5.98699018934
5.99093615072
5.98749436917
5.98115290014
5.97380264245
5.96968891124
5.97380264245
5.98115290014
5.98749436917
5.99093615072
5.99319991812
5.99093615072
5.98699018934
5.98283490057
5.98084792532
5.98283490057
5.98699018934
5.99093615072
5.99319991812
5.9934947853
5.99123094963
5.98728486221
5.98312944658
5.98114244191
5.98312944658
5.98728486221
5.99123094963
5.9934947853
5.99123094963
5.98778904293
5.98144736148
5.97409703442
5.96998401878
5.97409703442
5.98144736148
5.98778904293
5.99123094963
5.98728486221
5.98144736148
5.96977443381
5.95406679302
5.94251909867
5.95406679302
5.96977443381
5.98144736148
5.98728486221
5.98312944658
5.97409703442
5.95406679302
5.92083596323
5.88340012608
5.92083596323
5.95406679302
5.97409703442
5.98312944658
5.98114244191
5.96998401878
5.94251909867
5.88340012608
5.76389579993
5.88340012608
5.94251909867
5.96998401878
5.98114244191
5.98312944658
5.97409703442
5.95406679302
5.92083596323
5.88340012608
5.92083596323
5.95406679302
5.97409703442
5.98312944658
5.98728486221
5.98144736148
5.96977443381
5.95406679302
5.94251909867
5.95406679302
5.96977443381
5.98144736148
5.98728486221
5.99123094963
5.98778904293
5.98144736148
5.97409703442
5.96998401878
5.97409703442
5.98144736148
5.98778904293
5.99123094963
5.9934947853
5.99123094963
5.98728486221
5.98312944658
5.98114244191
5.98312944658
5.98728486221
5.99123094963
5.9934947853
6.10983919974
6.10970795179
6.1094902115
6.10927500095
6.10917812626
6.10927500095
6.1094902115
6.10970795179
6.10983919974
6.10970795179
6.10953291212
6.1092277483
6.10889830781
6.10872670656
6.10889830781
6.1092277483
6.10953291212
6.10970795179
6.1094902115
6.1092277483
6.10873154449
6.10810807493
6.10767684601
6.10810807493
6.10873154449
6.1092277483
6.1094902115
6.10927500095
6.10889830781
6.10810807493
6.10687312091
6.10548689443
6.10687312091
6.10810807493
6.10889830781
6.10927500095
6.10917812626
6.10872670656
6.10767684601
6.10548689443
6.09912065365
6.10548689443
6.10767684601
6.10872670656
6.10917812626
6.10927500095
6.10889830781
6.10810807493
6.10687312091
6.10548689443
6.10687312091
6.10810807493
6.10889830781
6.10927500095
6.1094902115
6.1092277483
6.10873154449
6.10810807493
6.10767684601
6.10810807493
6.10873154449
6.1092277483
6.1094902115
6.10970795179
6.10953291212
6.1092277483
6.10889830781
6.10872670656
6.10889830781
6.1092277483
6.10953291212
6.10970795179
6.10983919974
6.10970795179
6.1094902115
6.10927500095
6.10917812626
6.10927500095
6.1094902115
6.10970795179
6.10983919974
6.59816022728
6.59802896187
6.5978111927
6.59759595378
6.59749906683
6.59759595378
6.5978111927
6.59802896187
6.59816022728
6.59802896187
6.59785389903
6.59754869516
6.59721921359
6.59704760619
6.59721921359
6.59754869516
6.59785389903
6.59802896187
6.5978111927
6.59754869516
6.59705242979
6.59642893133
6.59599821985
6.59642893133
6.59705242979
6.59754869516
6.5978111927
6.59759595378
6.59721921359
6.59642893133
6.59519501411
6.59383111602
6.59519501411
6.59642893133
6.59721921359
6.59759595378
6.59749906683
6.59704760619
6.59599821985
6.59383111602
6.58858844554
6.59383111602
6.59599821985
6.59704760619
6.59749906683
6.59759595378
6.59721921359
6.59642893133
6.59519501411
6.59383111602
6.59519501411
6.59642893133
6.59721921359
6.59759595378
6.5978111927
6.59754869516
6.59705242979
6.59642893133
6.59599821985
6.59642893133
6.59705242979
6.59754869516
6.5978111927
6.59802896187
6.59785389903
6.59754869516
6.59721921359
6.59704760619
6.59721921359
6.59754869516
6.59785389903
6.59802896187
6.59816022728
6.59802896187
6.5978111927
6.59759595379
6.59749906683
6.59759595379
6.5978111927
6.59802896187
6.59816022728
7.08649569336
7.08636439888
7.08614658157
7.0859312953
7.08583438769
7.0859312953
7.08614658157
7.08636439888
7.08649569336
7.08636439888
7.08618929741
7.08588402655
7.08555447558
7.08538285294
7.08555447558
7.08588402655
7.08618929741
7.08636439888
7.08614658157
7.08588402655
7.08538765696
7.08476409363
7.08433403503
7.08476409363
7.08538765696
7.08588402655
7.08614658157
7.0859312953
7.08555447558
7.08476409363
7.08353147026
7.08219173862
7.08353147026
7.08476409363
7.08555447558
7.0859312953
7.08583438769
7.08538285294
7.08433403503
7.08219173862
7.077640652
7.08219173862
7.08433403503
7.08538285294
7.08583438769
7.0859312953
7.08555447558
7.08476409363
7.08353147026
7.08219173862
7.08353147026
7.08476409363
7.08555447558
7.0859312953
7.08614658157
7.08588402655
7.08538765696
7.08476409363
7.08433403503
7.08476409363
7.08538765696
7.08588402655
7.08614658157
7.08636439888
7.08618929741
7.08588402655
7.08555447558
7.08538285294
7.08555447558
7.08588402655
7.08618929741
7.08636439888
7.08649569336
7.08636439888
7.08614658157
7.0859312953
7.08583438769
7.0859312953
7.08614658157
7.08636439888
7.08649569336
7.57482938845
7.57469810483
7.57448030557
7.5742650372
7.5741681381
7.5742650372
7.57448030557
7.57469810483
7.57482938845
7.57469810483
7.57452301786
7.57421777242
7.57388825074
7.57371665772
7.57388825074
7.57421777242
7.57452301786
7.57469810483
7.57448030557
7.57421777242
7.57372144701
7.57309798452
7.57266846021
7.57309798452
7.57372144701
7.57421777242
7.57448030557
7.5742650372
7.57388825074
7.57309798452
7.57186650839
7.57054171911
7.57186650839
7.57309798452
7.57388825074
7.5742650372
7.5741681381
7.57371665772
7.57266846021
7.57054171911
7.5663209756
7.57054171911
7.57266846021
7.57371665772
7.5741681381
7.5742650372
7.57388825074
7.57309798452
7.57186650839
7.57054171911
7.57186650839
7.57309798452
7.57388825074
7.5742650372
7.57448030557
7.57421777242
7.57372144701
7.57309798452
7.57266846021
7.57309798452
7.57372144701
7.57421777242
7.57448030557
7.57469810483
7.57452301786
7.57421777242
7.57388825074
7.57371665772
7.57388825074
7.57421777242
7.57452301786
7.57469810483
7.57482938845
7.57469810483
7.57448030557
7.5742650372
7.5741681381
7.5742650372
7.57448030557
7.57469810483
7.57482938845
SCALARS gas_saturation double 1
LOOKUP_TABLE default
0.749938457858
0.749938345146
0.749938184361
0.749938058415
0.749938012517
0.749938058415
0.749938184361
0.749938345146
0.749938457858
0.749938345146
0.749938204208
0.749938017214
0.749937936294
0.749937951918
0.749937936294
0.749938017214
0.749938204208
0.749938345146
0.749938184361
0.749938017214
0.749937952437
0.749938444928
0.749937930788
0.749938444928
0.749937952437
0.749938017214
0.749938184361
0.749938058415
0.749937936294
0.749938444928
0.749937473912
0.749937064117
0.749937473912
0.749938444928
0.749937936294
0.749938058415
0.749938012517
0.749937951918
0.749937930788
0.749937064117
0.749936036271
0.749937064117
0.749937930788
0.749937951918
0.749938012517
0.749938058415
0.749937936294
0.749938444928
0.749937473912
0.749937064117
0.749937473912
0.749938444928
0.749937936294
0.749938058415
0.749938184361
0.749938017214
0.749937952437
0.749938444928
0.749937930788
0.749938444928
0.749937952437
0.749938017214
0.749938184361
0.749938345146
0.749938204208
0.749938017214
0.749937936294
0.749937951918
0.749937936294
0.749938017214
0.749938204208
0.749938345146
0.749938457858
0.749938345146
0.749938184361
0.749938058415
0.749938012517
0.749938058415
0.749938184361
0.749938345146
0.749938457858
0.749899075211
0.749898961854
0.749898793122
0.74989866275
0.749898618428
0.74989866275
0.749898793122
0.749898961854
0.749899075211
0.749898961854
0.749898810877
0.749898625563
0.74989853828
0.749898550771
0.74989853828
0.749898625563
0.749898810877
0.749898961854
0.749898793122
0.749898625563
0.74989855346
0.7498990263
0.7498985466
0.7498990263
0.74989855346
0.749898625563
0.749898793122
0.74989866275
0.74989853828
0.7498990263
0.749898071389
0.749897670874
0.749898071389
0.7498990263
0.74989853828
0.74989866275
0.749898618428
0.749898550771
0.7498985466
0.749897670874
0.74989717727
0.749897670874
0.7498985466
0.749898550771
0.749898618428
0.74989866275
0.74989853828
0.7498990263
0.749898071389
0.749897670874
0.749898071389
0.7498990263
0.74989853828
0.74989866275
0.749898793122
0.749898625563
0.74989855346
0.7498990263
0.7498985466
0.7498990263
0.74989855346
0.749898625563
0.749898793122
0.749898961854
0.749898810877
0.749898625563
0.74989853828
0.749898550771
0.74989853828
0.749898625563
0.749898810877
0.749898961854
0.749899075211
0.749898961854
0.749898793122
0.74989866275
0.749898618428
0.74989866275
0.749898793122
0.749898961854
0.749899075211
0.749804432125
0.749804317287
0.749804147242
0.749804010087
0.749803965076
0.749804010087
0.749804147241
0.749804317287
0.749804432125
0.749804317287
0.749804163245
0.749803973062
0.749803879911
0.749803890633
0.749803879911
0.749803973062
0.749804163245
0.749804317287
0.749804147242
0.749803973062
0.749803892768
0.749804348763
0.74980390246
0.749804348763
0.749803892768
0.749803973062
0.749804147242
0.749804010087
0.749803879911
0.749804348763
0.749803408561
0.749803040456
0.749803408561
0.749804348763
0.749803879911
0.749804010087
0.749803965076
0.749803890633
0.74980390246
0.749803040456
0.749801926378
0.749803040456
0.74980390246
0.749803890633
0.749803965076
0.749804010087
0.749803879911
0.749804348763
0.749803408561
0.749803040456
0.749803408561
0.749804348763
0.749803879911
0.749804010087
0.749804147242
0.749803973062
0.749803892768
0.749804348763
0.74980390246
0.749804348763
0.749803892768
0.749803973062
0.749804147242
0.749804317287
0.749804163245
0.749803973062
0.749803879911
0.749803890633
0.749803879911
0.749803973062
0.749804163245
0.749804317287
0.749804432125
0.749804317287
0.749804147242
0.749804010087
0.749803965076
0.749804010087
0.749804147242
0.749804317287
0.749804432125
0.749468996821
0.749468860879
0.749468652228
0.749468464968
0.749468385954
0.749468464968
0.749468652228
0.749468860879
0.749468996821
0.749468860879
0.749468673773
0.749468393849
0.749468185945
0.749468124825
0.749468185945
0.749468393849
0.749468673773
0.749468860879
0.749468652228
0.749468393849
0.749468126298
0.749468618354
0.749468253277
0.749468618354
0.749468126298
0.749468393849
0.749468652228
0.749468464968
0.749468185945
0.749468618354
0.749467625682
0.749467368953
0.749467625682
0.749468618354
0.749468185945
0.749468464968
0.749468385954
0.749468124825
0.749468253277
0.749467368953
0.749464916026
0.749467368953
0.749468253277
0.749468124825
0.749468385954
0.749468464968
0.749468185945
0.749468618354
0.749467625682
0.749467368953
0.749467625682
0.749468618354
0.749468185945
0.749468464968
0.749468652228
0.749468393849
0.749468126298
0.749468618354
0.749468253277
0.749468618354
0.749468126298
0.749468393849
0.749468652228
0.749468860879
0.749468673773
0.749468393849
0.749468185945
0.749468124825
0.749468185945
0.749468393849
0.749468673773
0.749468860879
0.749468996821
0.749468860879
0.749468652228
0.749468464968
0.749468385954
0.749468464968
0.749468652228
0.749468860879
0.749468996821
0.745695355809
0.74569525257
0.745695116925
0.745695019079
0.745694989382
0.745695019079
0.745695116925
0.74569525257
0.745695355809
0.74569525257
0.745695134341
0.74569499833
0.745694999708
0.745695078476
0.745694999708
0.74569499833
0.745695134341
0.74569525257
0.745695116925
0.74569499833
0.745695079226
0.74569548219
0.745695032516
0.74569548219
0.745695079226
0.74569499833
0.745695116925
0.745695019079
0.745694999708
0.74569548219
0.745694593123
0.745694188511
0.745694593123
0.74569548219
0.745694999708
0.745695019079
0.745694989382
0.745695078476
0.745695032516
0.745694188511
0.740136459767
0.745694188511
0.745695032516
0.745695078476
0.745694989382
0.745695019079
0.745694999708
0.74569548219
0.745694593123
0.745694188511
0.745694593123
0.74569548219
0.745694999708
0.745695019079
0.745695116925
0.74569499833
0.745695079226
0.74569548219
0.745695032516
0.74569548219
0.745695079226
0.74569499833
0.745695116925
0.74569525257
0.745695134341
0.74569499833
0.745694999708
0.745695078476
0.745694999708
0.74569499833
0.745695134341
0.74569525257
0.745695355809
0.74569525257
0.745695116925
0.745695019079
0.745694989382
0.745695019079
0.745695116925
0.74569525257
0.745695355809
0
0
0
0
0
0
0
0
0
0
0
0
0
0
0
0
0
0
0
0
0
0
0
0
0
0
0
0
0
0
0
0
0
0
0
0
0
0
0
0
0
0
0
0
0
0
0
0
0
0
0
0
0
0
0
0
0
0
0
0
0
0
0
0
0
0
0
0
0
0
0
0
0
0
0
0
0
0
0
0
0
0
0
0
0
0
0
0
0
0
0
0
0
0
0
0
0
0
0
0
0
0
0
0
0
0
0
0
0
0
0
0
0
0
0
0
0
0
0
0
0
0
0
0
0
0
0
0
0
0
0
0
0
0
0
0
0
0
0
0
0
0
0
0
0
0
0
0
0
0
0
0
0
0
0
0
0
0
0
0
0
0
0
0
0
0
0
0
0
0
0
0
0
0
0
0
0
0
0
0
0
0
0
0
0
0
0
0
0
0
0
0
0
0
0
0
0
0
0
0
0
0
0
0
0
0
0
0
0
0
0
0
0
0
0
0
0
0
0
0
0
0
0
0
0
0
0
0
0
0
0
0
0
0
0
0
0
0
0
0
0
0
0
0
0
0
0
0
0
0
0
0
0
0
0
0
0
0
0
0
0
0
0
0
0
0
0
0
0
0
0
0
0
0
0
0
0
0
0
0
0
0
0
0
0
0
0
0
0
0
0
0
0
0
0
0
0
0
0
0
0
0
0
0
0
0
0
0
0
0
0
0
0
0
0
0
0
0
0
0
0
0
0
0
SCALARS gas_H2_mole_fraction double 1
LOOKUP_TABLE default
0.972890557966
0.972887929617
0.972883343792
0.972878507914
0.972876192827
0.972878507914
0.972883343792
0.972887929617
0.972890557966
0.972887929617
0.972883930291
0.972876548381
0.972867972386
0.972863159601
0.972867972386
0.972876548381
0.972883930291
0.972887929617
0.972883343792
0.972876548381
0.972862918922
0.972844479289
0.972830754523
0.972844479289
0.972862918922
0.972876548381
0.972883343792
0.972878507914
0.972867972386
0.972844479289
0.972804930577
0.972757263985
0.972804930577
0.972844479289
0.972867972386
0.972878507914
0.972876192827
0.972863159601
0.972830754523
0.972757263985
0.972549337601
0.972757263985
0.972830754523
0.972863159601
0.972876192827
0.972878507914
0.972867972386
0.972844479289
0.972804930577
0.972757263985
0.972804930577
0.972844479289
0.972867972386
0.972878507914
0.972883343792
0.972876548381
0.972862918922
0.972844479289
0.972830754523
0.972844479289
0.972862918922
0.972876548381
0.972883343792
0.972887929617
0.972883930291
0.972876548381
0.972867972386
0.972863159601
0.972867972386
0.972876548381
0.972883930291
0.972887929617
0.972890557966
0.972887929617
0.972883343792
0.972878507914
0.972876192827
0.972878507914
0.972883343792
0.972887929617
0.972890557966
0.972890898448
0.972888270376
0.972883684234
0.972878848537
0.972876533958
0.972878848537
0.972883684234
0.972888270376
0.972890898448
0.972888270376
0.97288427044
0.972876889666
0.972868314219
0.972863502677
0.972868314219
0.972876889666
0.97288427044
0.972888270376
0.972883684234
0.972876889666
0.972863261411
0.972844825397
0.972831122507
0.972844825397
0.972863261411
0.972876889666
0.972883684234
0.972878848537
0.972868314219
0.972844825397
0.972805323754
0.972757966809
0.972805323754
0.972844825397
0.972868314219
0.972878848537
0.972876533958
0.972863502677
0.972831122507
0.972757966809
0.972531620831
0.972757966809
0.972831122507
0.972863502677
0.972876533958
0.972878848537
0.972868314219
0.972844825397
0.972805323754
0.972757966809
0.972805323754
0.972844825397
0.972868314219
0.972878848537
0.972883684234
0.972876889666
0.972863261411
0.972844825397
0.972831122507
0.972844825397
0.972863261411
0.972876889666
0.972883684234
0.972888270376
0.97288427044
0.972876889666
0.972868314219
0.972863502677
0.972868314219
0.972876889666
0.97288427044
0.972888270376
0.972890898448
0.972888270376
0.972883684234
0.972878848537
0.972876533958
0.972878848537
0.972883684234
0.972888270376
0.972890898448
0.972891239151
0.972888611223
0.972884025443
0.972879189759
0.972876875512
0.972879189759
0.972884025443
0.972888611223
0.972891239151
0.972888611223
0.972884611371
0.972877231166
0.972868656376
0.972863846892
0.972868656376
0.972877231166
0.972884611371
0.972888611223
0.972884025443
0.972877231166
0.972863604204
0.972845174502
0.972831509983
0.972845174502
0.972863604204
0.972877231166
0.972884025443
0.972879189759
0.972868656376
0.972845174502
0.972805755223
0.972759399672
0.972805755223
0.972845174502
0.972868656376
0.972879189759
0.972876875512
0.972863846892
0.972831509983
0.972759399672
0.972574911136
0.972759399672
0.972831509983
0.972863846892
0.972876875512
0.972879189759
0.972868656376
0.972845174502
0.972805755223
0.972759399672
0.972805755223
0.972845174502
0.972868656376
0.972879189759
0.972884025443
0.972877231166
0.972863604204
0.972845174502
0.972831509983
0.972845174502
0.972863604204
0.972877231166
0.972884025443
0.972888611223
0.972884611371
0.972877231166
0.972868656376
0.972863846892
0.972868656376
0.972877231166
0.972884611371
0.972888611223
0.972891239151
0.972888611223
0.972884025443
0.972879189759
0.972876875512
0.972879189759
0.972884025443
0.972888611223
0.972891239151
0.972891579686
0.97288895203
0.972884366927
0.972879531589
0.972877216863
0.972879531589
0.972884366927
0.97288895203
0.972891579686
0.97288895203
0.972884953038
0.972877572482
0.972868998475
0.972864191087
0.972868998475
0.972877572482
0.972884953038
0.97288895203
0.972884366927
0.972877572482
0.972863946908
0.972845524377
0.972831898282
0.972845524377
0.972863946908
0.972877572482
0.972884366927
0.972879531589
0.972868998475
0.972845524377
0.972806187906
0.97276082174
0.972806187906
0.972845524377
0.972868998475
0.972879531589
0.972877216863
0.972864191087
0.972831898282
0.97276082174
0.972601761753
0.97276082174
0.972831898282
0.972864191087
0.972877216863
0.972879531589
0.972868998475
0.972845524377
0.972806187906
0.97276082174
0.972806187906
0.972845524377
0.972868998475
0.972879531589
0.972884366927
0.972877572482
0.972863946908
0.972845524377
0.972831898282
0.972845524377
0.972863946908
0.972877572482
0.972884366927
0.97288895203
0.972884953038
0.972877572482
0.972868998475
0.972864191087
0.972868998475
0.972877572482
0.972884953038
0.97288895203
0.972891579686
0.97288895203
0.972884366927
0.972879531589
0.972877216863
0.972879531589
0.972884366927
0.97288895203
0.972891579686
0.972891919464
0.972889291522
0.972884706704
0.97287987128
0.972877556514
0.97287987128
0.972884706704
0.972889291522
0.972891919464
0.972889291522
0.972885292895
0.972877911902
0.972869338128
0.972864531551
0.972869338128
0.972877911902
0.972885292895
0.972889291522
0.972884706704
0.972877911902
0.972864286539
0.972845866814
0.972832264491
0.972845866814
0.972864286539
0.972877911902
0.972884706704
0.97287987128
0.972869338128
0.972845866814
0.972806580395
0.972761799394
0.972806580395
0.972845866814
0.972869338128
0.97287987128
0.972877556514
0.972864531551
0.972832264491
0.972761799394
0.972615062845
0.972761799394
0.972832264491
0.972864531551
0.972877556514
0.97287987128
0.972869338128
0.972845866814
0.972806580395
0.972761799394
0.972806580395
0.972845866814
0.972869338128
0.97287987128
0.972884706704
0.972877911902
0.972864286539
0.972845866814
0.972832264491
0.972845866814
0.972864286539
0.972877911902
0.972884706704
0.972889291522
0.972885292895
0.972877911902
0.972869338128
0.972864531551
0.972869338128
0.972877911902
0.972885292895
0.972889291522
0.972891919464
0.972889291522
0.972884706704
0.97287987128
0.972877556514
0.97287987128
0.972884706704
0.972889291522
0.972891919464
0
0
0
0
0
0
0
0
0
0
0
0
0
0
0
0
0
0
0
0
0
0
0
0
0
0
0
0
0
0
0
0
0
0
0
0
0
0
0
0
0
0
0
0
0
0
0
0
0
0
0
0
0
0
0
0
0
0
0
0
0
0
0
0
0
0
0
0
0
0
0
0
0
0
0
0
0
0
0
0
0
0
0
0
0
0
0
0
0
0
0
0
0
0
0
0
0
0
0
0
0
0
0
0
0
0
0
0
0
0
0
0
0
0
0
0
0
0
0
0
0
0
0
0
0
0
0
0
0
0
0
0
0
0
0
0
0
0
0
0
0
0
0
0
0
0
0
0
0
0
0
0
0
0
0
0
0
0
0
0
0
0
0
0
0
0
0
0
0
0
0
0
0
0
0
0
0
0
0
0
0
0
0
0
0
0
0
0
0
0
0
0
0
0
0
0
0
0
0
0
0
0
0
0
0
0
0
0
0
0
0
0
0
0
0
0
0
0
0
0
0
0
0
0
0
0
0
0
0
0
0
0
0
0
0
0
0
0
0
0
0
0
0
0
0
0
0
0
0
0
0
0
0
0
0
0
0
0
0
0
0
0
0
0
0
0
0
0
0
0
0
0
0
0
0
0
0
0
0
0
0
0
0
0
0
0
0
0
0
0
0
0
0
0
0
0
0
0
0
0
0
0
0
0
0
0
0
0
0
0
0
0
0
0
0
0
0
0
0
0
0
0
0
0
SCALARS aqueous_H2_mole_fraction double 1
LOOKUP_TABLE default
7.96216552418e-05
7.95914160359e-05
7.95387063438e-05
7.94831999188e-05
7.94566559527e-05
7.94831999188e-05
7.95387063438e-05
7.95914160359e-05
7.96216552418e-05
7.95914160359e-05
7.95454415201e-05
7.94607326242e-05
7.93625394448e-05
7.93075418508e-05
7.93625394448e-05
7.94607326242e-05
7.95454415201e-05
7.95914160359e-05
7.95387063438e-05
7.94607326242e-05
7.9304793685e-05
7.90947689502e-05
7.89391621328e-05
7.90947689502e-05
7.9304793685e-05
7.94607326242e-05
7.95387063438e-05
7.94831999188e-05
7.93625394448e-05
7.90947689502e-05
7.86480042675e-05
7.81160322526e-05
7.86480042675e-05
7.90947689502e-05
7.93625394448e-05
7.94831999188e-05
7.94566559527e-05
7.93075418508e-05
7.89391621328e-05
7.81160322526e-05
7.58739707789e-05
7.81160322526e-05
7.89391621328e-05
7.93075418508e-05
7.94566559527e-05
7.94831999188e-05
7.93625394448e-05
7.90947689502e-05
7.86480042675e-05
7.81160322526e-05
7.86480042675e-05
7.90947689502e-05
7.93625394448e-05
7.94831999188e-05
7.95387063438e-05
7.94607326242e-05
7.9304793685e-05
7.90947689502e-05
7.89391621328e-05
7.90947689502e-05
7.9304793685e-05
7.94607326242e-05
7.95387063438e-05
7.95914160359e-05
7.95454415201e-05
7.94607326242e-05
7.93625394448e-05
7.93075418508e-05
7.93625394448e-05
7.94607326242e-05
7.95454415201e-05
7.95914160359e-05
7.96216552418e-05
7.95914160359e-05
7.95387063438e-05
7.94831999188e-05
7.94566559527e-05
7.94831999188e-05
7.95387063438e-05
7.95914160359e-05
7.96216552418e-05
7.96255900983e-05
7.95953496061e-05
7.95426375797e-05
7.94871288393e-05
7.94605842323e-05
7.94871288393e-05
7.95426375797e-05
7.95953496061e-05
7.96255900983e-05
7.95953496061e-05
7.95493729637e-05
7.94646605078e-05
7.93664651083e-05
7.93114758419e-05
7.93664651083e-05
7.94646605078e-05
7.95493729637e-05
7.95953496061e-05
7.95426375797e-05
7.94646605078e-05
7.93087179496e-05
7.90987221313e-05
7.89433436208e-05
7.90987221313e-05
7.93087179496e-05
7.94646605078e-05
7.95426375797e-05
7.94871288393e-05
7.93664651083e-05
7.90987221313e-05
7.86524383943e-05
7.81238467253e-05
7.86524383943e-05
7.90987221313e-05
7.93664651083e-05
7.94871288393e-05
7.94605842323e-05
7.93114758419e-05
7.89433436208e-05
7.81238467252e-05
7.56878440627e-05
7.81238467252e-05
7.89433436208e-05
7.93114758419e-05
7.94605842323e-05
7.94871288393e-05
7.93664651083e-05
7.90987221313e-05
7.86524383943e-05
7.81238467253e-05
7.86524383943e-05
7.90987221313e-05
7.93664651083e-05
7.94871288393e-05
7.95426375797e-05
7.94646605078e-05
7.93087179496e-05
7.90987221313e-05
7.89433436208e-05
7.90987221313e-05
7.93087179496e-05
7.94646605078e-05
7.95426375797e-05
7.95953496061e-05
7.95493729637e-05
7.94646605078e-05
7.93664651083e-05
7.93114758419e-05
7.93664651083e-05
7.94646605078e-05
7.95493729637e-05
7.95953496061e-05
7.96255900983e-05
7.95953496061e-05
7.95426375797e-05
7.94871288393e-05
7.94605842323e-05
7.94871288393e-05
7.95426375797e-05
7.95953496061e-05
7.96255900983e-05
7.96295265724e-05
7.95992849037e-05
7.95465707781e-05
7.94910599574e-05
7.94645150866e-05
7.94910599574e-05
7.95465707781e-05
7.95992849037e-05
7.96295265724e-05
7.95992849037e-05
7.95533062842e-05
7.94685904898e-05
7.93703944619e-05
7.93154207241e-05
7.93703944619e-05
7.94685904898e-05
7.95533062842e-05
7.95992849037e-05
7.95465707781e-05
7.94685904898e-05
7.93126467465e-05
7.9102706426e-05
7.89477457625e-05
7.9102706426e-05
7.93126467465e-05
7.94685904898e-05
7.95465707781e-05
7.94910599574e-05
7.93703944619e-05
7.9102706426e-05
7.86573021095e-05
7.81397533887e-05
7.86573021095e-05
7.9102706426e-05
7.93703944619e-05
7.94910599574e-05
7.94645150866e-05
7.93154207241e-05
7.89477457625e-05
7.81397533887e-05
7.61428015971e-05
7.81397533887e-05
7.89477457625e-05
7.93154207241e-05
7.94645150866e-05
7.94910599574e-05
7.93703944619e-05
7.9102706426e-05
7.86573021095e-05
7.81397533887e-05
7.86573021095e-05
7.9102706426e-05
7.93703944619e-05
7.94910599574e-05
7.95465707781e-05
7.94685904898e-05
7.93126467465e-05
7.9102706426e-05
7.89477457625e-05
7.9102706426e-05
7.93126467465e-05
7.94685904898e-05
7.95465707781e-05
7.95992849037e-05
7.95533062842e-05
7.94685904898e-05
7.93703944619e-05
7.93154207241e-05
7.93703944619e-05
7.94685904898e-05
7.95533062842e-05
7.95992849037e-05
7.96295265724e-05
7.95992849037e-05
7.95465707781e-05
7.94910599574e-05
7.94645150866e-05
7.94910599574e-05
7.95465707781e-05
7.95992849037e-05
7.96295265724e-05
7.96334645712e-05
7.96032218674e-05
7.95505058644e-05
7.94949931904e-05
7.9468448088e-05
7.94949931904e-05
7.95505058644e-05
7.96032218674e-05
7.96334645712e-05
7.96032218674e-05
7.95572414471e-05
7.94725224369e-05
7.93743261288e-05
7.93193682928e-05
7.93743261288e-05
7.94725224369e-05
7.95572414471e-05
7.96032218674e-05
7.95505058644e-05
7.94725224369e-05
7.93165780812e-05
7.91066963091e-05
7.89521614204e-05
7.91066963091e-05
7.93165780812e-05
7.94725224369e-05
7.95505058644e-05
7.94949931904e-05
7.93743261288e-05
7.91066963091e-05
7.86621866817e-05
7.8155557566e-05
7.86621866817e-05
7.91066963091e-05
7.93743261288e-05
7.94949931904e-05
7.9468448088e-05
7.93193682928e-05
7.89521614204e-05
7.8155557566e-05
7.64277364586e-05
7.8155557566e-05
7.89521614204e-05
7.93193682928e-05
7.9468448088e-05
7.94949931904e-05
7.93743261288e-05
7.91066963091e-05
7.86621866817e-05
7.8155557566e-05
7.86621866817e-05
7.91066963091e-05
7.93743261288e-05
7.94949931904e-05
7.95505058644e-05
7.94725224369e-05
7.93165780812e-05
7.91066963091e-05
7.89521614204e-05
7.91066963091e-05
7.93165780812e-05
7.94725224369e-05
7.95505058644e-05
7.96032218674e-05
7.95572414471e-05
7.94725224369e-05
7.93743261288e-05
7.93193682928e-05
7.93743261288e-05
7.94725224369e-05
7.95572414471e-05
7.96032218674e-05
7.96334645712e-05
7.96032218674e-05
7.95505058644e-05
7.94949931904e-05
7.9468448088e-05
7.94949931904e-05
7.95505058644e-05
7.96032218674e-05
7.96334645712e-05
7.96374036421e-05
7.96071599935e-05
7.9554442314e-05
7.94989279207e-05
7.94723824107e-05
7.94989279207e-05
7.9554442314e-05
7.96071599935e-05
7.96374036421e-05
7.96071599935e-05
7.95611779185e-05
7.94764560101e-05
7.93782587487e-05
7.93233104411e-05
7.93782587487e-05
7.94764560101e-05
7.95611779185e-05
7.96071599935e-05
7.9554442314e-05
7.94764560101e-05
7.93205104706e-05
7.9110661147e-05
7.89563863624e-05
7.9110661147e-05
7.93205104706e-05
7.94764560101e-05
7.9554442314e-05
7.94989279207e-05
7.93782587487e-05
7.9110661147e-05
7.86667015039e-05
7.81665541478e-05
7.86667015039e-05
7.9110661147e-05
7.93782587487e-05
7.94989279207e-05
7.94723824107e-05
7.93233104411e-05
7.89563863624e-05
7.81665541478e-05
7.65698991884e-05
7.81665541478e-05
7.89563863624e-05
7.93233104411e-05
7.94723824107e-05
7.94989279207e-05
7.93782587487e-05
7.9110661147e-05
7.86667015039e-05
7.81665541478e-05
7.86667015039e-05
7.9110661147e-05
7.93782587487e-05
7.94989279207e-05
7.9554442314e-05
7.94764560101e-05
7.93205104706e-05
7.9110661147e-05
7.89563863624e-05
7.9110661147e-05
7.93205104706e-05
7.94764560101e-05
7.9554442314e-05
7.96071599935e-05
7.95611779185e-05
7.94764560101e-05
7.93782587487e-05
7.93233104411e-05
7.93782587487e-05
7.94764560101e-05
7.95611779185e-05
7.96071599935e-05
7.96374036421e-05
7.96071599935e-05
7.9554442314e-05
7.94989279207e-05
7.94723824107e-05
7.94989279207e-05
7.9554442314e-05
7.96071599935e-05
7.96374036421e-05
7.88477605837e-05
7.88477607262e-05
7.88477609612e-05
7.88477611611e-05
7.88477613099e-05
7.88477611611e-05
7.88477609612e-05
7.88477607262e-05
7.88477605837e-05
7.88477607262e-05
7.88477609161e-05
7.88477612499e-05
7.88477616477e-05
7.88477621674e-05
7.88477616477e-05
7.88477612499e-05
7.88477609161e-05
7.88477607262e-05
7.88477609612e-05
7.88477612499e-05
7.88477618525e-05
7.88477635915e-05
7.88477758653e-05
7.88477635915e-05
7.88477618525e-05
7.88477612499e-05
7.88477609612e-05
7.88477611611e-05
7.88477616477e-05
7.88477635915e-05
7.88477895818e-05
7.88482544367e-05
7.88477895818e-05
7.88477635915e-05
7.88477616477e-05
7.88477611611e-05
7.88477613099e-05
7.88477621674e-05
7.88477758653e-05
7.88482544367e-05
7.88713649417e-05
7.88482544367e-05
7.88477758653e-05
7.88477621674e-05
7.88477613099e-05
7.88477611611e-05
7.88477616477e-05
7.88477635915e-05
7.88477895818e-05
7.88482544367e-05
7.88477895818e-05
7.88477635915e-05
7.88477616477e-05
7.88477611611e-05
7.88477609612e-05
7.88477612499e-05
7.88477618525e-05
7.88477635915e-05
7.88477758653e-05
7.88477635915e-05
7.88477618525e-05
7.88477612499e-05
7.88477609612e-05
7.88477607262e-05
7.88477609161e-05
7.88477612499e-05
7.88477616477e-05
7.88477621674e-05
7.88477616477e-05
7.88477612499e-05
7.88477609161e-05
7.88477607262e-05
7.88477605837e-05
7.88477607262e-05
7.88477609612e-05
7.88477611611e-05
7.88477613099e-05
7.88477611611e-05
7.88477609612e-05
7.88477607262e-05
7.88477605837e-05
8.50434027352e-05
8.5043403463e-05
8.5043403474e-05
8.50434034249e-05
8.50434044293e-05
8.50434034249e-05
8.5043403474e-05
8.5043403463e-05
8.50434027352e-05
8.5043403463e-05
8.5043403437e-05
8.50434044548e-05
8.50434042372e-05
8.50434043806e-05
8.50434042372e-05
8.50434044548e-05
8.5043403437e-05
8.5043403463e-05
8.5043403474e-05
8.50434044548e-05
8.50434040977e-05
8.5043407865e-05
8.50434204196e-05
8.5043407865e-05
8.50434040977e-05
8.50434044548e-05
8.5043403474e-05
8.50434034249e-05
8.50434042372e-05
8.5043407865e-05
8.50434377024e-05
8.50439403247e-05
8.50434377024e-05
8.5043407865e-05
8.50434042372e-05
8.50434034249e-05
8.50434044293e-05
8.50434043806e-05
8.50434204196e-05
8.50439403247e-05
8.50580466418e-05
8.50439403247e-05
8.50434204196e-05
8.50434043806e-05
8.50434044293e-05
8.50434034249e-05
8.50434042372e-05
8.5043407865e-05
8.50434377024e-05
8.50439403247e-05
8.50434377024e-05
8.5043407865e-05
8.50434042372e-05
8.50434034249e-05
8.5043403474e-05
8.50434044548e-05
8.50434040977e-05
8.5043407865e-05
8.50434204196e-05
8.5043407865e-05
8.50434040977e-05
8.50434044548e-05
8.5043403474e-05
8.5043403463e-05
8.5043403437e-05
8.50434044548e-05
8.50434042372e-05
8.50434043806e-05
8.50434042372e-05
8.50434044548e-05
8.5043403437e-05
8.5043403463e-05
8.50434027352e-05
8.5043403463e-05
8.5043403474e-05
8.50434034249e-05
8.50434044293e-05
8.50434034249e-05
8.5043403474e-05
8.5043403463e-05
8.50434027352e-05
9.12374253583e-05
9.12374252609e-05
9.12374262945e-05
9.12374272037e-05
9.1237426833e-05
9.12374272037e-05
9.12374262945e-05
9.12374252609e-05
9.12374253583e-05
9.12374252609e-05
9.12374261335e-05
9.12374266032e-05
9.12374284747e-05
9.12374296111e-05
9.12374284747e-05
9.12374266032e-05
9.12374261335e-05
9.12374252609e-05
9.12374262945e-05
9.12374266032e-05
9.12374295138e-05
9.12374303295e-05
9.12374345372e-05
9.12374303295e-05
9.12374295138e-05
9.12374266032e-05
9.12374262945e-05
9.12374272037e-05
9.12374284747e-05
9.12374303295e-05
9.12374414482e-05
9.12377127544e-05
9.12374414482e-05
9.12374303295e-05
9.12374284747e-05
9.12374272037e-05
9.1237426833e-05
9.12374296111e-05
9.12374345372e-05
9.12377127544e-05
9.12446651484e-05
9.12377127544e-05
9.12374345372e-05
9.12374296111e-05
9.1237426833e-05
9.12374272037e-05
9.12374284747e-05
9.12374303295e-05
9.12374414482e-05
9.12377127544e-05
9.12374414482e-05
9.12374303295e-05
9.12374284747e-05
9.12374272037e-05
9.12374262945e-05
9.12374266032e-05
9.12374295138e-05
9.12374303295e-05
9.12374345372e-05
9.12374303295e-05
9.12374295138e-05
9.12374266032e-05
9.12374262945e-05
9.12374252609e-05
9.12374261335e-05
9.12374266032e-05
9.12374284747e-05
9.12374296111e-05
9.12374284747e-05
9.12374266032e-05
9.12374261335e-05
9.12374252609e-05
9.12374253583e-05
9.12374252609e-05
9.12374262945e-05
9.12374272037e-05
9.1237426833e-05
9.12374272037e-05
9.12374262945e-05
9.12374252609e-05
9.12374253583e-05
9.74296808079e-05
9.74296806614e-05
9.74296804184e-05
9.74296802201e-05
9.74296800817e-05
9.74296802201e-05
9.74296804184e-05
9.74296806614e-05
9.74296808079e-05
9.74296806614e-05
9.74296804664e-05
9.74296801294e-05
9.74296798038e-05
9.74296799346e-05
9.74296798038e-05
9.74296801294e-05
9.74296804664e-05
9.74296806614e-05
9.74296804184e-05
9.74296801294e-05
9.74296796411e-05
9.7429679972e-05
9.74296906155e-05
9.7429679972e-05
9.74296796411e-05
9.74296801294e-05
9.74296804184e-05
9.74296802201e-05
9.74296798038e-05
9.7429679972e-05
9.74296979593e-05
9.74297404689e-05
9.74296979593e-05
9.7429679972e-05
9.74296798038e-05
9.74296802201e-05
9.74296800817e-05
9.74296799346e-05
9.74296906155e-05
9.74297404689e-05
9.74297404747e-05
9.74297404689e-05
9.74296906155e-05
9.74296799346e-05
9.74296800817e-05
9.74296802201e-05
9.74296798038e-05
9.7429679972e-05
9.74296979593e-05
9.74297404689e-05
9.74296979593e-05
9.7429679972e-05
9.74296798038e-05
9.74296802201e-05
9.74296804184e-05
9.74296801294e-05
9.74296796411e-05
9.7429679972e-05
9.74296906155e-05
9.7429679972e-05
9.74296796411e-05
9.74296801294e-05
9.74296804184e-05
9.74296806614e-05
9.74296804664e-05
9.74296801294e-05
9.74296798038e-05
9.74296799346e-05
9.74296798038e-05
9.74296801294e-05
9.74296804664e-05
9.74296806614e-05
9.74296808079e-05
9.74296806614e-05
9.74296804184e-05
9.74296802201e-05
9.74296800817e-05
9.74296802201e-05
9.74296804184e-05
9.74296806614e-05
9.74296808079e-05
