# vtk DataFile Version 3.0
Hydrogen reservoir; coordinates in metres, z positive down
ASCII
DATASET RECTILINEAR_GRID
DIMENSIONS 10 10 10
X_COORDINATES 10 double
0 111.111111111 222.222222222 333.333333333 444.444444444 555.555555556 666.666666667 777.777777778 888.888888889 1000
Y_COORDINATES 10 double
0 111.111111111 222.222222222 333.333333333 444.444444444 555.555555556 666.666666667 777.777777778 888.888888889 1000
Z_COORDINATES 10 double
100 105 110 115 120 125 130 135 140 145
CELL_DATA 729
SCALARS pressure_bar double 1
LOOKUP_TABLE default
5.88317048076
5.87959607984
5.87365601877
5.86776910395
5.86511031748
5.86776910395
5.87365601877
5.87959607984
5.88317048076
5.87959607984
5.87481411376
5.86645883261
5.85740614131
5.85266394087
5.85740614131
5.86645883261
5.87481411376
5.87959607984
5.87365601877
5.86645883261
5.85281477551
5.83559241494
5.8235628316
5.83559241494
5.85281477551
5.86645883261
5.87365601877
5.86776910395
5.85740614131
5.83559241494
5.80119561198
5.76212436326
5.80119561198
5.83559241494
5.85740614131
5.86776910395
5.86511031748
5.85266394087
5.8235628316
5.76212436326
5.60025332332
5.76212436326
5.8235628316
5.85266394087
5.86511031748
5.86776910395
5.85740614131
5.83559241494
5.80119561198
5.76212436326
5.80119561198
5.83559241494
5.85740614131
5.86776910395
5.87365601877
5.86645883261
5.85281477551
5.83559241494
5.8235628316
5.83559241494
5.85281477551
5.86645883261
5.87365601877
5.87959607984
5.87481411376
5.86645883261
5.85740614131
5.85266394087
5.85740614131
5.86645883261
5.87481411376
5.87959607984
5.88317048076
5.87959607984
5.87365601877
5.86776910395
5.86511031748
5.86776910395
5.87365601877
5.87959607984
5.88317048076
5.88345994992
5.87988537467
5.87394503054
5.86805785284
5.86539898382
5.86805785284
5.87394503054
5.87988537467
5.88345994992
5.87988537467
5.87510318028
5.8667475363
5.85769463244
5.85295306054
5.85769463244
5.8667475363
5.87510318028
5.87988537467
5.87394503054
5.8667475363
5.85310324447
5.83588241264
5.82386928419
5.83588241264
5.85310324447
5.8667475363
5.87394503054
5.86805785284
5.85769463244
5.83588241264
5.8015211994
5.76269345603
5.8015211994
5.83588241264
5.85769463244
5.86805785284
5.86539898382
5.85295306054
5.82386928419
5.76269345603
5.58690618883
5.76269345603
5.82386928419
5.85295306054
5.86539898382
5.86805785284
5.85769463244
5.83588241264
5.8015211994
5.76269345603
5.8015211994
5.83588241264
5.85769463244
5.86805785284
5.87394503054
5.8667475363
5.85310324447
5.83588241264
5.82386928419
5.83588241264
5.85310324447
5.8667475363
5.87394503054
5.87988537467
5.87510318028
5.8667475363
5.85769463244
5.85295306054
5.85769463244
5.8667475363
5.87510318028
5.87988537467
5.88345994992
5.87988537467
5.87394503054
5.86805785284
5.86539898382
5.86805785284
5.87394503054
5.87988537467
5.88345994992
5.88374958472
5.88017482923
5.87423419828
5.86834676787
5.86568784456
5.86834676787
5.87423419828
5.88017482923
5.88374958472
5.88017482923
5.87539240289
5.86703641887
5.85798347044
5.85324308703
5.85798347044
5.86703641887
5.87539240289
5.88017482923
5.87423419828
5.86703641887
5.85339221235
5.83617432117
5.82419140438
5.83617432117
5.85339221235
5.86703641887
5.87423419828
5.86834676787
5.85798347044
5.83617432117
5.80187845916
5.76384528938
5.80187845916
5.83617432117
5.85798347044
5.86834676787
5.86568784456
5.85324308703
5.82419140438
5.76384528938
5.61952044986
5.76384528938
5.82419140438
5.85324308703
5.86568784456
5.86834676787
5.85798347044
5.83617432117
5.80187845916
5.76384528938
5.80187845916
5.83617432117
5.85798347044
5.86834676787
5.87423419828
5.86703641887
5.85339221235
5.83617432117
5.82419140438
5.83617432117
5.85339221235
5.86703641887
5.87423419828
5.88017482923
5.87539240289
5.86703641887
5.85798347044
5.85324308703
5.85798347044
5.86703641887
5.87539240289
5.88017482923
5.88374958472
5.88017482923
5.87423419828
5.86834676787
5.86568784456
5.86834676787
5.87423419828
5.88017482923
5.88374958472
5.8840393832
5.8804644445
5.87452352695
5.86863585035
5.86597687789
5.86863585035
5.87452352695
5.8804644445
5.8840393832
5.8804644445
5.87568178604
5.86732547937
5.85827258392
5.85353334381
5.85827258392
5.86732547937
5.87568178604
5.8804644445
5.87452352695
5.86732547937
5.8536814536
5.83646629801
5.82451438472
5.83646629801
5.8536814536
5.86732547937
5.87452352695
5.86863585035
5.85827258392
5.83646629801
5.80223780079
5.76499302273
5.80223780079
5.83646629801
5.85827258392
5.86863585035
5.86597687789
5.85353334381
5.82451438472
5.76499302273
5.63994149763
5.76499302273
5.82451438472
5.85353334381
5.86597687789
5.86863585035
5.85827258392
5.83646629801
5.80223780079
5.76499302273
5.80223780079
5.83646629801
5.85827258392
5.86863585035
5.87452352695
5.86732547937
5.8536814536
5.83646629801
5.82451438472
5.83646629801
5.8536814536
5.86732547937
5.87452352695
5.8804644445
5.87568178604
5.86732547937
5.85827258392
5.85353334381
5.85827258392
5.86732547937
5.87568178604
5.8804644445
5.8840393832
5.8804644445
5.87452352695
5.86863585035
5.86597687789
5.86863585035
5.87452352695
5.8804644445
5.8840393832
5.88432932671
5.8807542141
5.87481303019
5.86892511741
5.86626606237
5.86892511741
5.87481303019
5.8807542141
5.88432932671
5.8807542141
5.87597134346
5.86761474697
5.85856165347
5.85382302935
5.85856165347
5.86761474697
5.87597134346
5.8807542141
5.87481303019
5.86761474697
5.85397048518
5.83675662807
5.82482404309
5.83675662807
5.85397048518
5.86761474697
5.87481303019
5.86892511741
5.85856165347
5.83675662807
5.80257002079
5.76580254659
5.80257002079
5.83675662807
5.85856165347
5.86892511741
5.86626606237
5.85382302935
5.82482404309
5.76580254659
5.65020098228
5.76580254659
5.82482404309
5.85382302935
5.86626606237
5.86892511741
5.85856165347
5.83675662807
5.80257002079
5.76580254659
5.80257002079
5.83675662807
5.85856165347
5.86892511741
5.87481303019
5.86761474697
5.85397048518
5.83675662807
5.82482404309
5.83675662807
5.85397048518
5.86761474697
5.87481303019
5.8807542141
5.87597134346
5.86761474697
5.85856165347
5.85382302935
5.85856165347
5.86761474697
5.87597134346
5.8807542141
5.88432932671
5.8807542141
5.87481303019
5.86892511741
5.86626606237
5.86892511741
5.87481303019
5.8807542141
5.88432932671
6.04830433981
6.04777531315
6.04688799923
6.04599838567
6.04559183223
6.04599838567
6.04688799923
6.04777531315
6.04830433981
6.04777531315
6.04704674109
6.04576082699
6.04434931159
6.04359695319
6.04434931159
6.04576082699
6.04704674109
6.04777531315
6.04688799923
6.04576082699
6.04360330084
6.04084717876
6.03886409012
6.04084717876
6.04360330084
6.04576082699
6.04688799923
6.04599838567
6.04434931159
6.04084717876
6.03526948215
6.02804520484
6.03526948215
6.04084717876
6.04434931159
6.04599838567
6.04559183223
6.04359695319
6.03886409012
6.02804520484
6.01467722666
6.02804520484
6.03886409012
6.04359695319
6.04559183223
6.04599838567
6.04434931159
6.04084717876
6.03526948215
6.02804520484
6.03526948215
6.04084717876
6.04434931159
6.04599838567
6.04688799923
6.04576082699
6.04360330084
6.04084717876
6.03886409012
6.04084717876
6.04360330084
6.04576082699
6.04688799923
6.04777531315
6.04704674109
6.04576082699
6.04434931159
6.04359695319
6.04434931159
6.04576082699
6.04704674109
6.04777531315
6.04830433981
6.04777531315
6.04688799923
6.04599838567
6.04559183223
6.04599838567
6.04688799923
6.04777531315
6.04830433981
6.5366039251
6.53607444616
6.53518645989
6.534296269
6.53388948438
6.534296269
6.53518645989
6.53607444616
6.53660392511
6.53607444616
6.53534543059
6.53405885973
6.53264683182
6.53189455569
6.53264683182
6.53405885973
6.53534543059
6.53607444616
6.53518645989
6.53405885973
6.53190081587
6.52914588052
6.52717766837
6.52914588052
6.53190081587
6.53405885973
6.53518645989
6.534296269
6.53264683182
6.52914588052
6.52360913873
6.51714880961
6.52360913873
6.52914588052
6.53264683182
6.534296269
6.53388948438
6.53189455569
6.52717766837
6.51714880961
6.50566977678
6.51714880961
6.52717766837
6.53189455569
6.53388948438
6.534296269
6.53264683182
6.52914588052
6.52360913873
6.51714880961
6.52360913873
6.52914588052
6.53264683182
6.534296269
6.53518645989
6.53405885973
6.53190081587
6.52914588052
6.52717766837
6.52914588052
6.53190081587
6.53405885973
6.53518645989
6.53607444616
6.53534543059
6.53405885973
6.53264683182
6.53189455569
6.53264683182
6.53405885973
6.53534543059
6.53607444616
6.5366039251
6.53607444616
6.53518645989
6.534296269
6.53388948438
6.534296269
6.53518645989
6.53607444616
6.5366039251
7.02493326489
7.02440383608
7.02351592323
7.02262579672
7.02221905364
7.02262579672
7.02351592323
7.02440383608
7.02493326489
7.02440383608
7.02367486664
7.02238836754
7.02097647672
7.02022475736
7.02097647672
7.02238836754
7.02367486664
7.02440383608
7.02351592323
7.02238836754
7.020230508
7.01747785975
7.01552695601
7.01747785975
7.020230508
7.02238836754
7.02351592323
7.02262579672
7.02097647672
7.01747785975
7.01199432021
7.0060273475
7.01199432021
7.01747785975
7.02097647672
7.02262579672
7.02221905364
7.02022475736
7.01552695601
7.0060273475
6.99573735982
7.0060273475
7.01552695601
7.02022475736
7.02221905364
7.02262579672
7.02097647672
7.01747785975
7.01199432021
7.0060273475
7.01199432021
7.01747785975
7.02097647672
7.02262579672
7.02351592323
7.02238836754
7.020230508
7.01747785975
7.01552695601
7.01747785975
7.020230508
7.02238836754
7.02351592323
7.02440383608
7.02367486664
7.02238836754
7.02097647672
7.02022475736
7.02097647672
7.02238836754
7.02367486664
7.02440383608
7.02493326489
7.02440383608
7.02351592323
7.02262579672
7.02221905364
7.02262579672
7.02351592323
7.02440383608
7.02493326489
7.51326337509
7.51273377253
7.51184560005
7.51095525005
7.51054842309
7.51095525005
7.51184560005
7.51273377253
7.51326337509
7.51273377253
7.51200462989
7.51071787417
7.50930581352
7.50855431877
7.50930581352
7.51071787417
7.51200462989
7.51273377253
7.51184560005
7.51071787417
7.50855985794
7.50580868848
7.50386805392
7.50580868848
7.50855985794
7.51071787417
7.51184560005
7.51095525005
7.50930581352
7.50580868848
7.50037506592
7.49465096416
7.50037506592
7.50580868848
7.50930581352
7.51095525005
7.51054842309
7.50855431877
7.50386805392
7.49465096416
7.48493534265
7.49465096416
7.50386805392
7.50855431877
7.51054842309
7.51095525005
7.50930581352
7.50580868848
7.50037506592
7.49465096416
7.50037506592
7.50580868848
7.50930581352
7.51095525005
7.51184560005
7.51071787417
7.50855985794
7.50580868848
7.50386805392
7.50580868848
7.50855985794
7.51071787417
7.51184560005
7.51273377253
7.51200462989
7.51071787417
7.50930581352
7.50855431877
7.50930581352
7.51071787417
7.51200462989
7.51273377253
7.51326337509
7.51273377253
7.51184560005
7.51095525005
7.51054842309
7.51095525005
7.51184560005
7.51273377253
7.51326337509
SCALARS gas_saturation double 1
LOOKUP_TABLE default
0.749937133897
0.749937048646
0.74993698055
0.749937012585
0.749937056247
0.749937012585
0.74993698055
0.749937048646
0.749937133897
0.749937048646
0.749936988225
0.749937029774
0.749937294728
0.749937524132
0.749937294728
0.749937029774
0.749936988225
0.749937048646
0.74993698055
0.749937029774
0.749937518608
0.749936745036
0.749936517528
0.749936745036
0.749937518608
0.749937029774
0.74993698055
0.749937012585
0.749937294728
0.749936745036
0.749937170785
0.749936275799
0.749937170785
0.749936745036
0.749937294728
0.749937012585
0.749937056247
0.749937524132
0.749936517528
0.749936275799
0.74993677192
0.749936275799
0.749936517528
0.749937524132
0.749937056247
0.749937012585
0.749937294728
0.749936745036
0.749937170785
0.749936275799
0.749937170785
0.749936745036
0.749937294728
0.749937012585
0.74993698055
0.749937029774
0.749937518608
0.749936745036
0.749936517528
0.749936745036
0.749937518608
0.749937029774
0.74993698055
0.749937048646
0.749936988225
0.749937029774
0.749937294728
0.749937524132
0.749937294728
0.749937029774
0.749936988225
0.749937048646
0.749937133897
0.749937048646
0.74993698055
0.749937012585
0.749937056247
0.749937012585
0.74993698055
0.749937048646
0.749937133897
0.749897742906
0.74989765015
0.749897583287
0.749897603028
0.749897645558
0.749897603028
0.749897583287
0.74989765015
0.749897742906
0.74989765015
0.749897585165
0.749897627355
0.74989788297
0.749898107224
0.74989788297
0.749897627355
0.749897585165
0.74989765015
0.749897583287
0.749897627355
0.749898100065
0.749897355796
0.749897117567
0.749897355796
0.749898100065
0.749897627355
0.749897583287
0.749897603028
0.74989788297
0.749897355796
0.749897754705
0.749896859608
0.749897754705
0.749897355796
0.74989788297
0.749897603028
0.749897645558
0.749898107224
0.749897117567
0.749896859608
0.749897726036
0.749896859608
0.749897117567
0.749898107224
0.749897645558
0.749897603028
0.74989788297
0.749897355796
0.749897754705
0.749896859608
0.749897754705
0.749897355796
0.74989788297
0.749897603028
0.749897583287
0.749897627355
0.749898100065
0.749897355796
0.749897117567
0.749897355796
0.749898100065
0.749897627355
0.749897583287
0.74989765015
0.749897585165
0.749897627355
0.74989788297
0.749898107224
0.74989788297
0.749897627355
0.749897585165
0.74989765015
0.749897742906
0.74989765015
0.749897583287
0.749897603028
0.749897645558
0.749897603028
0.749897583287
0.74989765015
0.749897742906
0.749803090509
0.749802997087
0.749802923606
0.749802939304
0.749802981059
0.749802939304
0.749802923606
0.749802997087
0.749803090509
0.749802997087
0.749802928372
0.749802962152
0.749803211108
0.74980343181
0.749803211108
0.749802962152
0.749802928372
0.749802997087
0.749802923606
0.749802962152
0.749803425058
0.749802706229
0.749802458371
0.749802706229
0.749803425058
0.749802962152
0.749802923606
0.749802939304
0.749803211108
0.749802706229
0.749803072401
0.749802161612
0.749803072401
0.749802706229
0.749803211108
0.749802939304
0.749802981059
0.74980343181
0.749802458371
0.749802161612
0.749802054594
0.749802161612
0.749802458371
0.74980343181
0.749802981059
0.749802939304
0.749803211108
0.749802706229
0.749803072401
0.749802161612
0.749803072401
0.749802706229
0.749803211108
0.749802939304
0.749802923606
0.749802962152
0.749803425058
0.749802706229
0.749802458371
0.749802706229
0.749803425058
0.749802962152
0.749802923606
0.749802997087
0.749802928372
0.749802962152
0.749803211108
0.74980343181
0.749803211108
0.749802962152
0.749802928372
0.749802997087
0.749803090509
0.749802997087
0.749802923606
0.749802939304
0.749802981059
0.749802939304
0.749802923606
0.749802997087
0.749803090509
0.749467413622
0.749467309836
0.749467205521
0.749467193398
0.74946722407
0.749467193398
0.749467205521
0.749467309836
0.749467413622
0.749467309836
0.749467218091
0.749467203483
0.749467450706
0.749467675903
0.749467450706
0.749467203483
0.749467218091
0.749467309836
0.749467205521
0.749467203483
0.749467670311
0.749466993765
0.749466712792
0.749466993765
0.749467670311
0.749467203483
0.749467205521
0.749467193398
0.749467450706
0.749466993765
0.749467303322
0.749466283195
0.749467303322
0.749466993765
0.749467450706
0.749467193398
0.74946722407
0.749467675903
0.749466712792
0.749466283195
0.749461309197
0.749466283195
0.749466712792
0.749467675903
0.74946722407
0.749467193398
0.749467450706
0.749466993765
0.749467303322
0.749466283195
0.749467303322
0.749466993765
0.749467450706
0.749467193398
0.749467205521
0.749467203483
0.749467670311
0.749466993765
0.749466712792
0.749466993765
0.749467670311
0.749467203483
0.749467205521
0.749467309836
0.749467218091
0.749467203483
0.749467450706
0.749467675903
0.749467450706
0.749467203483
0.749467218091
0.749467309836
0.749467413622
0.749467309836
0.749467205521
0.749467193398
0.74946722407
0.749467193398
0.749467205521
0.749467309836
0.749467413622
0.745694202731
0.745694116212
0.74569404488
0.745694087351
0.745694132817
0.745694087351
0.74569404488
0.745694116212
0.745694202731
0.745694116212
0.745694056826
0.745694108861
0.745694351213
0.745694562506
0.745694351213
0.745694108861
0.745694056826
0.745694116212
0.74569404488
0.745694108861
0.745694555431
0.7456938474
0.745693591621
0.7456938474
0.745694555431
0.745694108861
0.74569404488
0.745694087351
0.745694351213
0.7456938474
0.745694174132
0.745009033126
0.745694174132
0.7456938474
0.745694351213
0.745694087351
0.745694132817
0.745694562506
0.745693591621
0.745009033126
0.736235782508
0.745009033126
0.745693591621
0.745694562506
0.745694132817
0.745694087351
0.745694351213
0.7456938474
0.745694174132
0.745009033126
0.745694174132
0.7456938474
0.745694351213
0.745694087351
0.74569404488
0.745694108861
0.745694555431
0.7456938474
0.745693591621
0.7456938474
0.745694555431
0.745694108861
0.74569404488
0.745694116212
0.745694056826
0.745694108861
0.745694351213
0.745694562506
0.745694351213
0.745694108861
0.745694056826
0.745694116212
0.745694202731
0.745694116212
0.74569404488
0.745694087351
0.745694132817
0.745694087351
0.74569404488
0.745694116212
0.745694202731
0
0
0
0
0
0
0
0
0
0
0
0
0
0
0
0
0
0
0
0
0
0
0
0
0
0
0
0
0
0
0
0
0
0
0
0
0
0
0
0
0
0
0
0
0
0
0
0
0
0
0
0
0
0
0
0
0
0
0
0
0
0
0
0
0
0
0
0
0
0
0
0
0
0
0
0
0
0
0
0
0
0
0
0
0
0
0
0
0
0
0
0
0
0
0
0
0
0
0
0
0
0
0
0
0
0
0
0
0
0
0
0
0
0
0
0
0
0
0
0
0
0
0
0
0
0
0
0
0
0
0
0
0
0
0
0
0
0
0
0
0
0
0
0
0
0
0
0
0
0
0
0
0
0
0
0
0
0
0
0
0
0
0
0
0
0
0
0
0
0
0
0
0
0
0
0
0
0
0
0
0
0
0
0
0
0
0
0
0
0
0
0
0
0
0
0
0
0
0
0
0
0
0
0
0
0
0
0
0
0
0
0
0
0
0
0
0
0
0
0
0
0
0
0
0
0
0
0
0
0
0
0
0
0
0
0
0
0
0
0
0
0
0
0
0
0
0
0
0
0
0
0
0
0
0
0
0
0
0
0
0
0
0
0
0
0
0
0
0
0
0
0
0
0
0
0
0
0
0
0
0
0
0
0
0
0
0
0
0
0
0
0
0
0
0
0
0
0
0
0
0
0
0
0
0
0
0
0
0
0
0
0
0
0
0
0
0
0
0
0
0
0
0
0
SCALARS gas_H2_mole_fraction double 1
LOOKUP_TABLE default
0.972761524429
0.972757218157
0.972750049736
0.972742931553
0.972739711408
0.972742931553
0.972750049736
0.972757218157
0.972761524429
0.972757218157
0.972751448821
0.972741346028
0.972730367701
0.972724602856
0.972730367701
0.972741346028
0.972751448821
0.972757218157
0.972750049736
0.972741346028
0.972724788814
0.972703780068
0.972689033816
0.972703780068
0.972724788814
0.972741346028
0.972750049736
0.972742931553
0.972730367701
0.972703780068
0.972661460425
0.972612814475
0.972661460425
0.972703780068
0.972730367701
0.972742931553
0.972739711408
0.972724602856
0.972689033816
0.972612814475
0.97240452095
0.972612814475
0.972689033816
0.972724602856
0.972739711408
0.972742931553
0.972730367701
0.972703780068
0.972661460425
0.972612814475
0.972661460425
0.972703780068
0.972730367701
0.972742931553
0.972750049736
0.972741346028
0.972724788814
0.972703780068
0.972689033816
0.972703780068
0.972724788814
0.972741346028
0.972750049736
0.972757218157
0.972751448821
0.972741346028
0.972730367701
0.972724602856
0.972730367701
0.972741346028
0.972751448821
0.972757218157
0.972761524429
0.972757218157
0.972750049736
0.972742931553
0.972739711408
0.972742931553
0.972750049736
0.972757218157
0.972761524429
0.972761871419
0.972757564808
0.972750397407
0.972743278762
0.972740058953
0.972743278762
0.972750397407
0.972757564808
0.972761871419
0.972757564808
0.972751795718
0.972741694197
0.972730716482
0.972724952815
0.972730716482
0.972741694197
0.972751795718
0.972757564808
0.972750397407
0.972741694197
0.972725137778
0.972704133344
0.972689408631
0.972704133344
0.972725137778
0.972741694197
0.972750397407
0.972743278762
0.972730716482
0.972704133344
0.972661862198
0.972613526436
0.972661862198
0.972704133344
0.972730716482
0.972743278762
0.972740058953
0.972724952815
0.972689408631
0.972613526436
0.972386805789
0.972613526436
0.972689408631
0.972724952815
0.972740058953
0.972743278762
0.972730716482
0.972704133344
0.972661862198
0.972613526436
0.972661862198
0.972704133344
0.972730716482
0.972743278762
0.972750397407
0.972741694197
0.972725137778
0.972704133344
0.972689408631
0.972704133344
0.972725137778
0.972741694197
0.972750397407
0.972757564808
0.972751795718
0.972741694197
0.972730716482
0.972724952815
0.972730716482
0.972741694197
0.972751795718
0.972757564808
0.972761871419
0.972757564808
0.972750397407
0.972743278762
0.972740058953
0.972743278762
0.972750397407
0.972757564808
0.972761871419
0.972762218538
0.972757912254
0.972750745133
0.972743626793
0.972740407428
0.972743626793
0.972750745133
0.972757912254
0.972762218538
0.972757912254
0.972752143553
0.972742042326
0.972731065693
0.97272530412
0.972731065693
0.972742042326
0.972752143553
0.972757912254
0.972750745133
0.972742042326
0.972725487801
0.972704488967
0.972689802757
0.972704488967
0.972725487801
0.972742042326
0.972750745133
0.972743626793
0.972731065693
0.972704488967
0.972662302723
0.972614966324
0.972662302723
0.972704488967
0.972731065693
0.972743626793
0.972740407428
0.97272530412
0.972689802757
0.972614966324
0.97242989402
0.972614966324
0.972689802757
0.97272530412
0.972740407428
0.972743626793
0.972731065693
0.972704488967
0.972662302723
0.972614966324
0.972662302723
0.972704488967
0.972731065693
0.972743626793
0.972750745133
0.972742042326
0.972725487801
0.972704488967
0.972689802757
0.972704488967
0.972725487801
0.972742042326
0.972750745133
0.972757912254
0.972752143553
0.972742042326
0.972731065693
0.97272530412
0.972731065693
0.972742042326
0.972752143553
0.972757912254
0.972762218538
0.972757912254
0.972750745133
0.972743626793
0.972740407428
0.972743626793
0.972750745133
0.972757912254
0.972762218538
0.97276256504
0.972758259378
0.972751092127
0.972743974659
0.972740755414
0.972743974659
0.972751092127
0.972758259378
0.97276256504
0.972758259378
0.972752490869
0.972742389889
0.972731414564
0.972725654864
0.972731414564
0.972742389889
0.972752490869
0.972758259378
0.972751092127
0.972742389889
0.972725837346
0.972704843708
0.972690196904
0.972704843708
0.972725837346
0.972742389889
0.972751092127
0.972743974659
0.972731414564
0.972704843708
0.97266274447
0.972616398555
0.97266274447
0.972704843708
0.972731414564
0.972743974659
0.972740755414
0.972725654864
0.972690196904
0.972616398555
0.972456610507
0.972616398555
0.972690196904
0.972725654864
0.972740755414
0.972743974659
0.972731414564
0.972704843708
0.97266274447
0.972616398555
0.97266274447
0.972704843708
0.972731414564
0.972743974659
0.972751092127
0.972742389889
0.972725837346
0.972704843708
0.972690196904
0.972704843708
0.972725837346
0.972742389889
0.972751092127
0.972758259378
0.972752490869
0.972742389889
0.972731414564
0.972725654864
0.972731414564
0.972742389889
0.972752490869
0.972758259378
0.97276256504
0.972758259378
0.972751092127
0.972743974659
0.972740755414
0.972743974659
0.972751092127
0.972758259378
0.97276256504
0.97276290058
0.97275859497
0.97275142701
0.972744309937
0.972741090646
0.972744309937
0.97275142701
0.97275859497
0.97276290058
0.97275859497
0.972752826321
0.97274272489
0.972731749545
0.972725990874
0.972731749545
0.97274272489
0.972752826321
0.97275859497
0.97275142701
0.97274272489
0.972726172607
0.972705180656
0.972690557714
0.972705180656
0.972726172607
0.97274272489
0.97275142701
0.972744309937
0.972731749545
0.972705180656
0.972663134093
0.972617386768
0.972663134093
0.972705180656
0.972731749545
0.972744309937
0.972741090646
0.972725990874
0.972690557714
0.972617386768
0.972469931128
0.972617386768
0.972690557714
0.972725990874
0.972741090646
0.972744309937
0.972731749545
0.972705180656
0.972663134093
0.972617386768
0.972663134093
0.972705180656
0.972731749545
0.972744309937
0.97275142701
0.97274272489
0.972726172607
0.972705180656
0.972690557714
0.972705180656
0.972726172607
0.97274272489
0.97275142701
0.97275859497
0.972752826321
0.97274272489
0.972731749545
0.972725990874
0.972731749545
0.97274272489
0.972752826321
0.97275859497
0.97276290058
0.97275859497
0.97275142701
0.972744309937
0.972741090646
0.972744309937
0.97275142701
0.97275859497
0.97276290058
0
0
0
0
0
0
0
0
0
0
0
0
0
0
0
0
0
0
0
0
0
0
0
0
0
0
0
0
0
0
0
0
0
0
0
0
0
0
0
0
0
0
0
0
0
0
0
0
0
0
0
0
0
0
0
0
0
0
0
0
0
0
0
0
0
0
0
0
0
0
0
0
0
0
0
0
0
0
0
0
0
0
0
0
0
0
0
0
0
0
0
0
0
0
0
0
0
0
0
0
0
0
0
0
0
0
0
0
0
0
0
0
0
0
0
0
0
0
0
0
0
0
0
0
0
0
0
0
0
0
0
0
0
0
0
0
0
0
0
0
0
0
0
0
0
0
0
0
0
0
0
0
0
0
0
0
0
0
0
0
0
0
0
0
0
0
0
0
0
0
0
0
0
0
0
0
0
0
0
0
0
0
0
0
0
0
0
0
0
0
0
0
0
0
0
0
0
0
0
0
0
0
0
0
0
0
0
0
0
0
0
0
0
0
0
0
0
0
0
0
0
0
0
0
0
0
0
0
0
0
0
0
0
0
0
0
0
0
0
0
0
0
0
0
0
0
0
0
0
0
0
0
0
0
0
0
0
0
0
0
0
0
0
0
0
0
0
0
0
0
0
0
0
0
0
0
0
0
0
0
0
0
0
0
0
0
0
0
0
0
0
0
0
0
0
0
0
0
0
0
0
0
0
0
0
0
0
0
0
0
0
0
0
0
0
0
0
0
0
0
0
0
0
0
SCALARS aqueous_H2_mole_fraction double 1
LOOKUP_TABLE default
7.81634861458e-05
7.81157311201e-05
7.8036369938e-05
7.79577185772e-05
7.79221960735e-05
7.79577185772e-05
7.8036369938e-05
7.81157311201e-05
7.81634861458e-05
7.81157311201e-05
7.80518425208e-05
7.79402128907e-05
7.78192650291e-05
7.7755906909e-05
7.78192650291e-05
7.79402128907e-05
7.80518425208e-05
7.81157311201e-05
7.8036369938e-05
7.79402128907e-05
7.77579223322e-05
7.75278221693e-05
7.73670991607e-05
7.75278221693e-05
7.77579223322e-05
7.79402128907e-05
7.8036369938e-05
7.79577185772e-05
7.78192650291e-05
7.75278221693e-05
7.70682563402e-05
7.65462286739e-05
7.70682563402e-05
7.75278221693e-05
7.78192650291e-05
7.79577185772e-05
7.79221960735e-05
7.7755906909e-05
7.73670991607e-05
7.65462286739e-05
7.43833964792e-05
7.65462286739e-05
7.73670991607e-05
7.7755906909e-05
7.79221960735e-05
7.79577185772e-05
7.78192650291e-05
7.75278221693e-05
7.70682563402e-05
7.65462286739e-05
7.70682563402e-05
7.75278221693e-05
7.78192650291e-05
7.79577185772e-05
7.8036369938e-05
7.79402128907e-05
7.77579223322e-05
7.75278221693e-05
7.73670991607e-05
7.75278221693e-05
7.77579223322e-05
7.79402128907e-05
7.8036369938e-05
7.81157311201e-05
7.80518425208e-05
7.79402128907e-05
7.78192650291e-05
7.7755906909e-05
7.78192650291e-05
7.79402128907e-05
7.80518425208e-05
7.81157311201e-05
7.81634861458e-05
7.81157311201e-05
7.8036369938e-05
7.79577185772e-05
7.79221960735e-05
7.79577185772e-05
7.8036369938e-05
7.81157311201e-05
7.81634861458e-05
7.81673534107e-05
7.81195960196e-05
7.80402311214e-05
7.79615761939e-05
7.79260526027e-05
7.79615761939e-05
7.80402311214e-05
7.81195960196e-05
7.81673534107e-05
7.81195960196e-05
7.80557043768e-05
7.7944069975e-05
7.78231192767e-05
7.77597695523e-05
7.78231192767e-05
7.7944069975e-05
7.80557043768e-05
7.81195960196e-05
7.80402311214e-05
7.7944069975e-05
7.77617762666e-05
7.75316965959e-05
7.73711934517e-05
7.75316965959e-05
7.77617762666e-05
7.7944069975e-05
7.80402311214e-05
7.79615761939e-05
7.78231192767e-05
7.75316965959e-05
7.70726063703e-05
7.65538322531e-05
7.70726063703e-05
7.75316965959e-05
7.78231192767e-05
7.79615761939e-05
7.79260526027e-05
7.77597695523e-05
7.73711934517e-05
7.65538322531e-05
7.42050503862e-05
7.65538322531e-05
7.73711934517e-05
7.77597695523e-05
7.79260526027e-05
7.79615761939e-05
7.78231192767e-05
7.75316965959e-05
7.70726063703e-05
7.65538322531e-05
7.70726063703e-05
7.75316965959e-05
7.78231192767e-05
7.79615761939e-05
7.80402311214e-05
7.7944069975e-05
7.77617762666e-05
7.75316965959e-05
7.73711934517e-05
7.75316965959e-05
7.77617762666e-05
7.7944069975e-05
7.80402311214e-05
7.81195960196e-05
7.80557043768e-05
7.7944069975e-05
7.78231192767e-05
7.77597695523e-05
7.78231192767e-05
7.7944069975e-05
7.80557043768e-05
7.81195960196e-05
7.81673534107e-05
7.81195960196e-05
7.80402311214e-05
7.79615761939e-05
7.79260526027e-05
7.79615761939e-05
7.80402311214e-05
7.81195960196e-05
7.81673534107e-05
7.81712228851e-05
7.81234631036e-05
7.804409438e-05
7.79654360821e-05
7.79299117869e-05
7.79654360821e-05
7.804409438e-05
7.81234631036e-05
7.81712228851e-05
7.81234631036e-05
7.80595683805e-05
7.79479294309e-05
7.78269781615e-05
7.77636443327e-05
7.78269781615e-05
7.79479294309e-05
7.80595683805e-05
7.81234631036e-05
7.804409438e-05
7.79479294309e-05
7.7765636905e-05
7.75355965555e-05
7.73754970805e-05
7.75355965555e-05
7.7765636905e-05
7.79479294309e-05
7.804409438e-05
7.79654360821e-05
7.78269781615e-05
7.75355965555e-05
7.70773795377e-05
7.65692216975e-05
7.70773795377e-05
7.75355965555e-05
7.78269781615e-05
7.79654360821e-05
7.79299117869e-05
7.77636443327e-05
7.73754970805e-05
7.65692216975e-05
7.46408399499e-05
7.65692216975e-05
7.73754970805e-05
7.77636443327e-05
7.79299117869e-05
7.79654360821e-05
7.78269781615e-05
7.75355965555e-05
7.70773795377e-05
7.65692216975e-05
7.70773795377e-05
7.75355965555e-05
7.78269781615e-05
7.79654360821e-05
7.804409438e-05
7.79479294309e-05
7.7765636905e-05
7.75355965555e-05
7.73754970805e-05
7.75355965555e-05
7.7765636905e-05
7.79479294309e-05
7.804409438e-05
7.81234631036e-05
7.80595683805e-05
7.79479294309e-05
7.78269781615e-05
7.77636443327e-05
7.78269781615e-05
7.79479294309e-05
7.80595683805e-05
7.81234631036e-05
7.81712228851e-05
7.81234631036e-05
7.804409438e-05
7.79654360821e-05
7.79299117869e-05
7.79654360821e-05
7.804409438e-05
7.81234631036e-05
7.81712228851e-05
7.81750944832e-05
7.81273322954e-05
7.80479597167e-05
7.796929818e-05
7.7933773223e-05
7.796929818e-05
7.80479597167e-05
7.81273322954e-05
7.81750944832e-05
7.81273322954e-05
7.80634344741e-05
7.79517912034e-05
7.78308406749e-05
7.77675221248e-05
7.78308406749e-05
7.79517912034e-05
7.80634344741e-05
7.81273322954e-05
7.80479597167e-05
7.79517912034e-05
7.77695011331e-05
7.75394973528e-05
7.73798121219e-05
7.75394973528e-05
7.77695011331e-05
7.79517912034e-05
7.80479597167e-05
7.796929818e-05
7.78308406749e-05
7.75394973528e-05
7.70821804167e-05
7.65845561983e-05
7.70821804167e-05
7.75394973528e-05
7.78308406749e-05
7.796929818e-05
7.7933773223e-05
7.77675221248e-05
7.73798121219e-05
7.65845561983e-05
7.4913699815e-05
7.65845561983e-05
7.73798121219e-05
7.77675221248e-05
7.7933773223e-05
7.796929818e-05
7.78308406749e-05
7.75394973528e-05
7.70821804167e-05
7.65845561983e-05
7.70821804167e-05
7.75394973528e-05
7.78308406749e-05
7.796929818e-05
7.80479597167e-05
7.79517912034e-05
7.77695011331e-05
7.75394973528e-05
7.73798121219e-05
7.75394973528e-05
7.77695011331e-05
7.79517912034e-05
7.80479597167e-05
7.81273322954e-05
7.80634344741e-05
7.79517912034e-05
7.78308406749e-05
7.77675221248e-05
7.78308406749e-05
7.79517912034e-05
7.80634344741e-05
7.81273322954e-05
7.81750944832e-05
7.81273322954e-05
7.80479597167e-05
7.796929818e-05
7.7933773223e-05
7.796929818e-05
7.80479597167e-05
7.81273322954e-05
7.81750944832e-05
7.8178967126e-05
7.81312026102e-05
7.80518263993e-05
7.79731617196e-05
7.79376356445e-05
7.79731617196e-05
7.80518263993e-05
7.81312026102e-05
7.8178967126e-05
7.81312026102e-05
7.80673019292e-05
7.79556547187e-05
7.78347014967e-05
7.77713911649e-05
7.78347014967e-05
7.79556547187e-05
7.80673019292e-05
7.81312026102e-05
7.80518263993e-05
7.79556547187e-05
7.77733614408e-05
7.75433748927e-05
7.73839478248e-05
7.75433748927e-05
7.77733614408e-05
7.79556547187e-05
7.80518263993e-05
7.79731617196e-05
7.78347014967e-05
7.75433748927e-05
7.70866174599e-05
7.65953702805e-05
7.70866174599e-05
7.75433748927e-05
7.78347014967e-05
7.79731617196e-05
7.79376356445e-05
7.77713911649e-05
7.73839478248e-05
7.65953702805e-05
7.50507805313e-05
7.65953702805e-05
7.73839478248e-05
7.77713911649e-05
7.79376356445e-05
7.79731617196e-05
7.78347014967e-05
7.75433748927e-05
7.70866174599e-05
7.65953702805e-05
7.70866174599e-05
7.75433748927e-05
7.78347014967e-05
7.79731617196e-05
7.80518263993e-05
7.79556547187e-05
7.77733614408e-05
7.75433748927e-05
7.73839478248e-05
7.75433748927e-05
7.77733614408e-05
7.79556547187e-05
7.80518263993e-05
7.81312026102e-05
7.80673019292e-05
7.79556547187e-05
7.78347014967e-05
7.77713911649e-05
7.78347014967e-05
7.79556547187e-05
7.80673019292e-05
7.81312026102e-05
7.8178967126e-05
7.81312026102e-05
7.80518263993e-05
7.79731617196e-05
7.79376356445e-05
7.79731617196e-05
7.80518263993e-05
7.81312026102e-05
7.8178967126e-05
7.88478451996e-05
7.88478454945e-05
7.88478465988e-05
7.88478476469e-05
7.88478482306e-05
7.88478476469e-05
7.88478465988e-05
7.88478454945e-05
7.88478451996e-05
7.88478454945e-05
7.88478465846e-05
7.88478475228e-05
7.88478494047e-05
7.88478514589e-05
7.88478494047e-05
7.88478475228e-05
7.88478465846e-05
7.88478454945e-05
7.88478465988e-05
7.88478475228e-05
7.88478500283e-05
7.88478578209e-05
7.88479148401e-05
7.88478578209e-05
7.88478500283e-05
7.88478475228e-05
7.88478465988e-05
7.88478476469e-05
7.88478494047e-05
7.88478578209e-05
7.88479867832e-05
7.88515783058e-05
7.88479867832e-05
7.88478578209e-05
7.88478494047e-05
7.88478476469e-05
7.88478482306e-05
7.88478514589e-05
7.88479148401e-05
7.88515783058e-05
7.88882311027e-05
7.88515783058e-05
7.88479148401e-05
7.88478514589e-05
7.88478482306e-05
7.88478476469e-05
7.88478494047e-05
7.88478578209e-05
7.88479867832e-05
7.88515783058e-05
7.88479867832e-05
7.88478578209e-05
7.88478494047e-05
7.88478476469e-05
7.88478465988e-05
7.88478475228e-05
7.88478500283e-05
7.88478578209e-05
7.88479148401e-05
7.88478578209e-05
7.88478500283e-05
7.88478475228e-05
7.88478465988e-05
7.88478454945e-05
7.88478465846e-05
7.88478475228e-05
7.88478494047e-05
7.88478514589e-05
7.88478494047e-05
7.88478475228e-05
7.88478465846e-05
7.88478454945e-05
7.88478451996e-05
7.88478454945e-05
7.88478465988e-05
7.88478476469e-05
7.88478482306e-05
7.88478476469e-05
7.88478465988e-05
7.88478454945e-05
7.88478451996e-05
8.50435540654e-05
8.50435526339e-05
8.50435518118e-05
8.50435499589e-05
8.50435491095e-05
8.50435499589e-05
8.50435518118e-05
8.50435526339e-05
8.50435540654e-05
8.50435526339e-05
8.50435519641e-05
8.50435498582e-05
8.50435462392e-05
8.50435466173e-05
8.50435462392e-05
8.50435498582e-05
8.50435519641e-05
8.50435526339e-05
8.50435518118e-05
8.50435498582e-05
8.50435441447e-05
8.5043549675e-05
8.50436469229e-05
8.5043549675e-05
8.50435441447e-05
8.50435498582e-05
8.50435518118e-05
8.50435499589e-05
8.50435462392e-05
8.5043549675e-05
8.50437466119e-05
8.50462084305e-05
8.50437466119e-05
8.5043549675e-05
8.50435462392e-05
8.50435499589e-05
8.50435491095e-05
8.50435466173e-05
8.50436469229e-05
8.50462084305e-05
8.50681755664e-05
8.50462084305e-05
8.50436469229e-05
8.50435466173e-05
8.50435491095e-05
8.50435499589e-05
8.50435462392e-05
8.5043549675e-05
8.50437466119e-05
8.50462084305e-05
8.50437466119e-05
8.5043549675e-05
8.50435462392e-05
8.50435499589e-05
8.50435518118e-05
8.50435498582e-05
8.50435441447e-05
8.5043549675e-05
8.50436469229e-05
8.5043549675e-05
8.50435441447e-05
8.50435498582e-05
8.50435518118e-05
8.50435526339e-05
8.50435519641e-05
8.50435498582e-05
8.50435462392e-05
8.50435466173e-05
8.50435462392e-05
8.50435498582e-05
8.50435519641e-05
8.50435526339e-05
8.50435540654e-05
8.50435526339e-05
8.50435518118e-05
8.50435499589e-05
8.50435491095e-05
8.50435499589e-05
8.50435518118e-05
8.50435526339e-05
8.50435540654e-05
9.1237611925e-05
9.12376139309e-05
9.12376154249e-05
9.12376179033e-05
9.1237618964e-05
9.12376179033e-05
9.12376154249e-05
9.12376139309e-05
9.1237611925e-05
9.12376139309e-05
9.12376148895e-05
9.12376185263e-05
9.12376238147e-05
9.12376280935e-05
9.12376238147e-05
9.12376185263e-05
9.12376148895e-05
9.12376139309e-05
9.12376154249e-05
9.12376185263e-05
9.123762734e-05
9.12376370793e-05
9.12376758886e-05
9.12376370793e-05
9.123762734e-05
9.12376185263e-05
9.12376154249e-05
9.12376179033e-05
9.12376238147e-05
9.12376370793e-05
9.12377364542e-05
9.12391078091e-05
9.12377364542e-05
9.12376370793e-05
9.12376238147e-05
9.12376179033e-05
9.1237618964e-05
9.12376280935e-05
9.12376758886e-05
9.12391078091e-05
9.12505068784e-05
9.12391078091e-05
9.12376758886e-05
9.12376280935e-05
9.1237618964e-05
9.12376179033e-05
9.12376238147e-05
9.12376370793e-05
9.12377364542e-05
9.12391078091e-05
9.12377364542e-05
9.12376370793e-05
9.12376238147e-05
9.12376179033e-05
9.12376154249e-05
9.12376185263e-05
9.123762734e-05
9.12376370793e-05
9.12376758886e-05
9.12376370793e-05
9.123762734e-05
9.12376185263e-05
9.12376154249e-05
9.12376139309e-05
9.12376148895e-05
9.12376185263e-05
9.12376238147e-05
9.12376280935e-05
9.12376238147e-05
9.12376185263e-05
9.12376148895e-05
9.12376139309e-05
9.1237611925e-05
9.12376139309e-05
9.12376154249e-05
9.12376179033e-05
9.1237618964e-05
9.12376179033e-05
9.12376154249e-05
9.12376139309e-05
9.1237611925e-05
9.74296846279e-05
9.7429684721e-05
9.74296846105e-05
9.74296845623e-05
9.7429684634e-05
9.74296845623e-05
9.74296846105e-05
9.7429684721e-05
9.74296846279e-05
9.7429684721e-05
9.74296847439e-05
9.74296848604e-05
9.74296848692e-05
9.74296859255e-05
9.74296848692e-05
9.74296848604e-05
9.74296847439e-05
9.7429684721e-05
9.74296846105e-05
9.74296848604e-05
9.74296851339e-05
9.74296887123e-05
9.74297164007e-05
9.74296887123e-05
9.74296851339e-05
9.74296848604e-05
9.74296846105e-05
9.74296845623e-05
9.74296848692e-05
9.74296887123e-05
9.74297366985e-05
9.74298098339e-05
9.74297366985e-05
9.74296887123e-05
9.74296848692e-05
9.74296845623e-05
9.7429684634e-05
9.74296859255e-05
9.74297164007e-05
9.74298098339e-05
9.74298593588e-05
9.74298098339e-05
9.74297164007e-05
9.74296859255e-05
9.7429684634e-05
9.74296845623e-05
9.74296848692e-05
9.74296887123e-05
9.74297366985e-05
9.74298098339e-05
9.74297366985e-05
9.74296887123e-05
9.74296848692e-05
9.74296845623e-05
9.74296846105e-05
9.74296848604e-05
9.74296851339e-05
9.74296887123e-05
9.74297164007e-05
9.74296887123e-05
9.74296851339e-05
9.74296848604e-05
9.74296846105e-05
9.7429684721e-05
9.74296847439e-05
9.74296848604e-05
9.74296848692e-05
9.74296859255e-05
9.74296848692e-05
9.74296848604e-05
9.74296847439e-05
9.7429684721e-05
9.74296846279e-05
9.7429684721e-05
9.74296846105e-05
9.74296845623e-05
9.7429684634e-05
9.74296845623e-05
9.74296846105e-05
9.7429684721e-05
9.74296846279e-05
