# vtk DataFile Version 3.0
Hydrogen reservoir; coordinates in metres, z positive down
ASCII
DATASET RECTILINEAR_GRID
DIMENSIONS 10 10 10
X_COORDINATES 10 double
0 111.111111111 222.222222222 333.333333333 444.444444444 555.555555556 666.666666667 777.777777778 888.888888889 1000
Y_COORDINATES 10 double
0 111.111111111 222.222222222 333.333333333 444.444444444 555.555555556 666.666666667 777.777777778 888.888888889 1000
Z_COORDINATES 10 double
100 105 110 115 120 125 130 135 140 145
CELL_DATA 729
SCALARS pressure_bar double 1
LOOKUP_TABLE default
5.99955782624
5.99955782624
5.99955782624
5.99955782624
5.99955782624
5.99955782624
5.99955782624
5.99955782624
5.99955782624
5.99955782624
5.99955782624
5.99955782624
5.99955782624
5.99955782624
5.99955782624
5.99955782624
5.99955782624
5.99955782624
5.99955782624
5.99955782624
5.99955782624
5.99955782624
5.99955782624
5.99955782624
5.99955782624
5.99955782624
5.99955782624
5.99955782624
5.99955782624
5.99955782624
5.99955782624
5.99955782624
5.99955782624
5.99955782624
5.99955782624
5.99955782624
5.99955782624
5.99955782624
5.99955782624
5.99955782624
5.99955782624
5.99955782624
5.99955782624
5.99955782624
5.99955782624
5.99955782624
5.99955782624
5.99955782624
5.99955782624
5.99955782624
5.99955782624
5.99955782624
5.99955782624
5.99955782624
5.99955782624
5.99955782624
5.99955782624
5.99955782624
5.99955782624
5.99955782624
5.99955782624
5.99955782624
5.99955782624
5.99955782624
5.99955782624
5.99955782624
5.99955782624
5.99955782624
5.99955782624
5.99955782624
5.99955782624
5.99955782624
5.99955782624
5.99955782624
5.99955782624
5.99955782624
5.99955782624
5.99955782624
5.99955782624
5.99955782624
5.99955782624
5.99985260529
5.99985260529
5.99985260529
5.99985260529
5.99985260529
5.99985260529
5.99985260529
5.99985260529
5.99985260529
5.99985260529
5.99985260529
5.99985260529
5.99985260529
5.99985260529
5.99985260529
5.99985260529
5.99985260529
5.99985260529
5.99985260529
5.99985260529
5.99985260529
5.99985260529
5.99985260529
5.99985260529
5.99985260529
5.99985260529
5.99985260529
5.99985260529
5.99985260529
5.99985260529
5.99985260529
5.99985260529
5.99985260529
5.99985260529
5.99985260529
5.99985260529
5.99985260529
5.99985260529
5.99985260529
5.99985260529
5.99985260529
5.99985260529
5.99985260529
5.99985260529
5.99985260529
5.99985260529
5.99985260529
5.99985260529
5.99985260529
5.99985260529
5.99985260529
5.99985260529
5.99985260529
5.99985260529
5.99985260529
5.99985260529
5.99985260529
5.99985260529
5.99985260529
5.99985260529
5.99985260529
5.99985260529
5.99985260529
5.99985260529
5.99985260529
5.99985260529
5.99985260529
5.99985260529
5.99985260529
5.99985260529
5.99985260529
5.99985260529
5.99985260529
5.99985260529
5.99985260529
5.99985260529
5.99985260529
5.99985260529
5.99985260529
5.99985260529
5.99985260529
6.00014739817
6.00014739817
6.00014739817
6.00014739817
6.00014739817
6.00014739817
6.00014739817
6.00014739817
6.00014739817
6.00014739817
6.00014739817
6.00014739817
6.00014739817
6.00014739817
6.00014739817
6.00014739817
6.00014739817
6.00014739817
6.00014739817
6.00014739817
6.00014739817
6.00014739817
6.00014739817
6.00014739817
6.00014739817
6.00014739817
6.00014739817
6.00014739817
6.00014739817
6.00014739817
6.00014739817
6.00014739817
6.00014739817
6.00014739817
6.00014739817
6.00014739817
6.00014739817
6.00014739817
6.00014739817
6.00014739817
6.00014739817
6.00014739817
6.00014739817
6.00014739817
6.00014739817
6.00014739817
6.00014739817
6.00014739817
6.00014739817
6.00014739817
6.00014739817
6.00014739817
6.00014739817
6.00014739817
6.00014739817
6.00014739817
6.00014739817
6.00014739817
6.00014739817
6.00014739817
6.00014739817
6.00014739817
6.00014739817
6.00014739817
6.00014739817
6.00014739817
6.00014739817
6.00014739817
6.00014739817
6.00014739817
6.00014739817
6.00014739817
6.00014739817
6.00014739817
6.00014739817
6.00014739817
6.00014739817
6.00014739817
6.00014739817
6.00014739817
6.00014739817
6.00044220487
6.00044220487
6.00044220487
6.00044220487
6.00044220487
6.00044220487
6.00044220487
6.00044220487
6.00044220487
6.00044220487
6.00044220487
6.00044220487
6.00044220487
6.00044220487
6.00044220487
6.00044220487
6.00044220487
6.00044220487
6.00044220487
6.00044220487
6.00044220487
6.00044220487
6.00044220487
6.00044220487
6.00044220487
6.00044220487
6.00044220487
6.00044220487
6.00044220487
6.00044220487
6.00044220487
6.00044220487
6.00044220487
6.00044220487
6.00044220487
6.00044220487
6.00044220487
6.00044220487
6.00044220487
6.00044220487
6.00044220487
6.00044220487
6.00044220487
6.00044220487
6.00044220487
6.00044220487
6.00044220487
6.00044220487
6.00044220487
6.00044220487
6.00044220487
6.00044220487
6.00044220487
6.00044220487
6.00044220487
6.00044220487
6.00044220487
6.00044220487
6.00044220487
6.00044220487
6.00044220487
6.00044220487
6.00044220487
6.00044220487
6.00044220487
6.00044220487
6.00044220487
6.00044220487
6.00044220487
6.00044220487
6.00044220487
6.00044220487
6.00044220487
6.00044220487
6.00044220487
6.00044220487
6.00044220487
6.00044220487
6.00044220487
6.00044220487
6.00044220487
6.00073702541
6.00073702541
6.00073702541
6.00073702541
6.00073702541
6.00073702541
6.00073702541
6.00073702541
6.00073702541
6.00073702541
6.00073702541
6.00073702541
6.00073702541
6.00073702541
6.00073702541
6.00073702541
6.00073702541
6.00073702541
6.00073702541
6.00073702541
6.00073702541
6.00073702541
6.00073702541
6.00073702541
6.00073702541
6.00073702541
6.00073702541
6.00073702541
6.00073702541
6.00073702541
6.00073702541
6.00073702541
6.00073702541
6.00073702541
6.00073702541
6.00073702541
6.00073702541
6.00073702541
6.00073702541
6.00073702541
6.00073702541
6.00073702541
6.00073702541
6.00073702541
6.00073702541
6.00073702541
6.00073702541
6.00073702541
6.00073702541
6.00073702541
6.00073702541
6.00073702541
6.00073702541
6.00073702541
6.00073702541
6.00073702541
6.00073702541
6.00073702541
6.00073702541
6.00073702541
6.00073702541
6.00073702541
6.00073702541
6.00073702541
6.00073702541
6.00073702541
6.00073702541
6.00073702541
6.00073702541
6.00073702541
6.00073702541
6.00073702541
6.00073702541
6.00073702541
6.00073702541
6.00073702541
6.00073702541
6.00073702541
6.00073702541
6.00073702541
6.00073702541
6.24504039695
6.24504039695
6.24504039695
6.24504039695
6.24504039695
6.24504039695
6.24504039695
6.24504039695
6.24504039695
6.24504039695
6.24504039695
6.24504039695
6.24504039695
6.24504039695
6.24504039695
6.24504039695
6.24504039695
6.24504039695
6.24504039695
6.24504039695
6.24504039695
6.24504039695
6.24504039695
6.24504039695
6.24504039695
6.24504039695
6.24504039695
6.24504039695
6.24504039695
6.24504039695
6.24504039695
6.24504039695
6.24504039695
6.24504039695
6.24504039695
6.24504039695
6.24504039695
6.24504039695
6.24504039695
6.24504039695
6.24504039695
6.24504039695
6.24504039695
6.24504039695
6.24504039695
6.24504039695
6.24504039695
6.24504039695
6.24504039695
6.24504039695
6.24504039695
6.24504039695
6.24504039695
6.24504039695
6.24504039695
6.24504039695
6.24504039695
6.24504039695
6.24504039695
6.24504039695
6.24504039695
6.24504039695
6.24504039695
6.24504039695
6.24504039695
6.24504039695
6.24504039695
6.24504039695
6.24504039695
6.24504039695
6.24504039695
6.24504039695
6.24504039695
6.24504039695
6.24504039695
6.24504039695
6.24504039695
6.24504039695
6.24504039695
6.24504039695
6.24504039695
6.73336028583
6.73336028583
6.73336028583
6.73336028583
6.73336028583
6.73336028583
6.73336028583
6.73336028583
6.73336028583
6.73336028583
6.73336028583
6.73336028583
6.73336028583
6.73336028583
6.73336028583
6.73336028583
6.73336028583
6.73336028583
6.73336028583
6.73336028583
6.73336028583
6.73336028583
6.73336028583
6.73336028583
6.73336028583
6.73336028583
6.73336028583
6.73336028583
6.73336028583
6.73336028583
6.73336028583
6.73336028583
6.73336028583
6.73336028583
6.73336028583
6.73336028583
6.73336028583
6.73336028583
6.73336028583
6.73336028583
6.73336028583
6.73336028583
6.73336028583
6.73336028583
6.73336028583
6.73336028583
6.73336028583
6.73336028583
6.73336028583
6.73336028583
6.73336028583
6.73336028583
6.73336028583
6.73336028583
6.73336028583
6.73336028583
6.73336028583
6.73336028583
6.73336028583
6.73336028583
6.73336028583
6.73336028583
6.73336028583
6.73336028583
6.73336028583
6.73336028583
6.73336028583
6.73336028583
6.73336028583
6.73336028583
6.73336028583
6.73336028583
6.73336028583
6.73336028583
6.73336028583
6.73336028583
6.73336028583
6.73336028583
6.73336028583
6.73336028583
6.73336028583
7.22169080966
7.22169080966
7.22169080966
7.22169080966
7.22169080966
7.22169080966
7.22169080966
7.22169080966
7.22169080966
7.22169080966
7.22169080966
7.22169080966
7.22169080966
7.22169080966
7.22169080966
7.22169080966
7.22169080966
7.22169080966
7.22169080966
7.22169080966
7.22169080966
7.22169080966
7.22169080966
7.22169080966
7.22169080966
7.22169080966
7.22169080966
7.22169080966
7.22169080966
7.22169080966
7.22169080966
7.22169080966
7.22169080966
7.22169080966
7.22169080966
7.22169080966
7.22169080966
7.22169080966
7.22169080966
7.22169080966
7.22169080966
7.22169080966
7.22169080966
7.22169080966
7.22169080966
7.22169080966
7.22169080966
7.22169080966
7.22169080966
7.22169080966
7.22169080966
7.22169080966
7.22169080966
7.22169080966
7.22169080966
7.22169080966
7.22169080966
7.22169080966
7.22169080966
7.22169080966
7.22169080966
7.22169080966
7.22169080966
7.22169080966
7.22169080966
7.22169080966
7.22169080966
7.22169080966
7.22169080966
7.22169080966
7.22169080966
7.22169080966
7.22169080966
7.22169080966
7.22169080966
7.22169080966
7.22169080966
7.22169080966
7.22169080966
7.22169080966
7.22169080966
7.71003196763
7.71003196763
7.71003196763
7.71003196763
7.71003196763
7.71003196763
7.71003196763
7.71003196763
7.71003196763
7.71003196763
7.71003196763
7.71003196763
7.71003196763
7.71003196763
7.71003196763
7.71003196763
7.71003196763
7.71003196763
7.71003196763
7.71003196763
7.71003196763
7.71003196763
7.71003196763
7.71003196763
7.71003196763
7.71003196763
7.71003196763
7.71003196763
7.71003196763
7.71003196763
7.71003196763
7.71003196763
7.71003196763
7.71003196763
7.71003196763
7.71003196763
7.71003196763
7.71003196763
7.71003196763
7.71003196763
7.71003196763
7.71003196763
7.71003196763
7.71003196763
7.71003196763
7.71003196763
7.71003196763
7.71003196763
7.71003196763
7.71003196763
7.71003196763
7.71003196763
7.71003196763
7.71003196763
7.71003196763
7.71003196763
7.71003196763
7.71003196763
7.71003196763
7.71003196763
7.71003196763
7.71003196763
7.71003196763
7.71003196763
7.71003196763
7.71003196763
7.71003196763
7.71003196763
7.71003196763
7.71003196763
7.71003196763
7.71003196763
7.71003196763
7.71003196763
7.71003196763
7.71003196763
7.71003196763
7.71003196763
7.71003196763
7.71003196763
7.71003196763
SCALARS gas_saturation double 1
LOOKUP_TABLE default
0.749938904846
0.749938904846
0.749938904846
0.749938904846
0.749938904846
0.749938904846
0.749938904846
0.749938904846
0.749938904846
0.749938904846
0.749938904846
0.749938904846
0.749938904846
0.749938904846
0.749938904846
0.749938904846
0.749938904846
0.749938904846
0.749938904846
0.749938904846
0.749938904846
0.749938904846
0.749938904846
0.749938904846
0.749938904846
0.749938904846
0.749938904846
0.749938904846
0.749938904846
0.749938904846
0.749938904846
0.749938904846
0.749938904846
0.749938904846
0.749938904846
0.749938904846
0.749938904846
0.749938904846
0.749938904846
0.749938904846
0.749938904846
0.749938904846
0.749938904846
0.749938904846
0.749938904846
0.749938904846
0.749938904846
0.749938904846
0.749938904846
0.749938904846
0.749938904846
0.749938904846
0.749938904846
0.749938904846
0.749938904846
0.749938904846
0.749938904846
0.749938904846
0.749938904846
0.749938904846
0.749938904846
0.749938904846
0.749938904846
0.749938904846
0.749938904846
0.749938904846
0.749938904846
0.749938904846
0.749938904846
0.749938904846
0.749938904846
0.749938904846
0.749938904846
0.749938904846
0.749938904846
0.749938904846
0.749938904846
0.749938904846
0.749938904846
0.749938904846
0.749938904846
0.749899527742
0.749899527742
0.749899527742
0.749899527742
0.749899527742
0.749899527742
0.749899527742
0.749899527742
0.749899527742
0.749899527742
0.749899527742
0.749899527742
0.749899527742
0.749899527742
0.749899527742
0.749899527742
0.749899527742
0.749899527742
0.749899527742
0.749899527742
0.749899527742
0.749899527742
0.749899527742
0.749899527742
0.749899527742
0.749899527742
0.749899527742
0.749899527742
0.749899527742
0.749899527742
0.749899527742
0.749899527742
0.749899527742
0.749899527742
0.749899527742
0.749899527742
0.749899527742
0.749899527742
0.749899527742
0.749899527742
0.749899527742
0.749899527742
0.749899527742
0.749899527742
0.749899527742
0.749899527742
0.749899527742
0.749899527742
0.749899527742
0.749899527742
0.749899527742
0.749899527742
0.749899527742
0.749899527742
0.749899527742
0.749899527742
0.749899527742
0.749899527742
0.749899527742
0.749899527742
0.749899527742
0.749899527742
0.749899527742
0.749899527742
0.749899527742
0.749899527742
0.749899527742
0.749899527742
0.749899527742
0.749899527742
0.749899527742
0.749899527742
0.749899527742
0.749899527742
0.749899527742
0.749899527742
0.749899527742
0.749899527742
0.749899527742
0.749899527742
0.749899527742
0.749804890469
0.749804890469
0.749804890469
0.749804890469
0.749804890469
0.749804890469
0.749804890469
0.749804890469
0.749804890469
0.749804890469
0.749804890469
0.749804890469
0.749804890469
0.749804890469
0.749804890469
0.749804890469
0.749804890469
0.749804890469
0.749804890469
0.749804890469
0.749804890469
0.749804890469
0.749804890469
0.749804890469
0.749804890469
0.749804890469
0.749804890469
0.749804890469
0.749804890469
0.749804890469
0.749804890469
0.749804890469
0.749804890469
0.749804890469
0.749804890469
0.749804890469
0.749804890469
0.749804890469
0.749804890469
0.749804890469
0.749804890469
0.749804890469
0.749804890469
0.749804890469
0.749804890469
0.749804890469
0.749804890469
0.749804890469
0.749804890469
0.749804890469
0.749804890469
0.749804890469
0.749804890469
0.749804890469
0.749804890469
0.749804890469
0.749804890469
0.749804890469
0.749804890469
0.749804890469
0.749804890469
0.749804890469
0.749804890469
0.749804890469
0.749804890469
0.749804890469
0.749804890469
0.749804890469
0.749804890469
0.749804890469
0.749804890469
0.749804890469
0.749804890469
0.749804890469
0.749804890469
0.749804890469
0.749804890469
0.749804890469
0.749804890469
0.749804890469
0.749804890469
0.74946951226
0.74946951226
0.74946951226
0.74946951226
0.74946951226
0.74946951226
0.74946951226
0.74946951226
0.74946951226
0.74946951226
0.74946951226
0.74946951226
0.74946951226
0.74946951226
0.74946951226
0.74946951226
0.74946951226
0.74946951226
0.74946951226
0.74946951226
0.74946951226
0.74946951226
0.74946951226
0.74946951226
0.74946951226
0.74946951226
0.74946951226
0.74946951226
0.74946951226
0.74946951226
0.74946951226
0.74946951226
0.74946951226
0.74946951226
0.74946951226
0.74946951226
0.74946951226
0.74946951226
0.74946951226
0.74946951226
0.74946951226
0.74946951226
0.74946951226
0.74946951226
0.74946951226
0.74946951226
0.74946951226
0.74946951226
0.74946951226
0.74946951226
0.74946951226
0.74946951226
0.74946951226
0.74946951226
0.74946951226
0.74946951226
0.74946951226
0.74946951226
0.74946951226
0.74946951226
0.74946951226
0.74946951226
0.74946951226
0.74946951226
0.74946951226
0.74946951226
0.74946951226
0.74946951226
0.74946951226
0.74946951226
0.74946951226
0.74946951226
0.74946951226
0.74946951226
0.74946951226
0.74946951226
0.74946951226
0.74946951226
0.74946951226
0.74946951226
0.74946951226
0.745695782895
0.745695782895
0.745695782895
0.745695782895
0.745695782895
0.745695782895
0.745695782895
0.745695782895
0.745695782895
0.745695782895
0.745695782895
0.745695782895
0.745695782895
0.745695782895
0.745695782895
0.745695782895
0.745695782895
0.745695782895
0.745695782895
0.745695782895
0.745695782895
0.745695782895
0.745695782895
0.745695782895
0.745695782895
0.745695782895
0.745695782895
0.745695782895
0.745695782895
0.745695782895
0.745695782895
0.745695782895
0.745695782895
0.745695782895
0.745695782895
0.745695782895
0.745695782895
0.745695782895
0.745695782895
0.745695782895
0.745695782895
0.745695782895
0.745695782895
0.745695782895
0.745695782895
0.745695782895
0.745695782895
0.745695782895
0.745695782895
0.745695782895
0.745695782895
0.745695782895
0.745695782895
0.745695782895
0.745695782895
0.745695782895
0.745695782895
0.745695782895
0.745695782895
0.745695782895
0.745695782895
0.745695782895
0.745695782895
0.745695782895
0.745695782895
0.745695782895
0.745695782895
0.745695782895
0.745695782895
0.745695782895
0.745695782895
0.745695782895
0.745695782895
0.745695782895
0.745695782895
0.745695782895
0.745695782895
0.745695782895
0.745695782895
0.745695782895
0.745695782895
0
0
0
0
0
0
0
0
0
0
0
0
0
0
0
0
0
0
0
0
0
0
0
0
0
0
0
0
0
0
0
0
0
0
0
0
0
0
0
0
0
0
0
0
0
0
0
0
0
0
0
0
0
0
0
0
0
0
0
0
0
0
0
0
0
0
0
0
0
0
0
0
0
0
0
0
0
0
0
0
0
0
0
0
0
0
0
0
0
0
0
0
0
0
0
0
0
0
0
0
0
0
0
0
0
0
0
0
0
0
0
0
0
0
0
0
0
0
0
0
0
0
0
0
0
0
0
0
0
0
0
0
0
0
0
0
0
0
0
0
0
0
0
0
0
0
0
0
0
0
0
0
0
0
0
0
0
0
0
0
0
0
0
0
0
0
0
0
0
0
0
0
0
0
0
0
0
0
0
0
0
0
0
0
0
0
0
0
0
0
0
0
0
0
0
0
0
0
0
0
0
0
0
0
0
0
0
0
0
0
0
0
0
0
0
0
0
0
0
0
0
0
0
0
0
0
0
0
0
0
0
0
0
0
0
0
0
0
0
0
0
0
0
0
0
0
0
0
0
0
0
0
0
0
0
0
0
0
0
0
0
0
0
0
0
0
0
0
0
0
0
0
0
0
0
0
0
0
0
0
0
0
0
0
0
0
0
0
0
0
0
0
0
0
0
0
0
0
0
0
0
0
0
0
0
0
0
0
0
0
0
0
0
0
0
0
0
0
0
0
0
0
0
0
SCALARS gas_H2_mole_fraction double 1
LOOKUP_TABLE default
0.972898953773
0.972898953773
0.972898953773
0.972898953773
0.972898953773
0.972898953773
0.972898953773
0.972898953773
0.972898953773
0.972898953773
0.972898953773
0.972898953773
0.972898953773
0.972898953773
0.972898953773
0.972898953773
0.972898953773
0.972898953773
0.972898953773
0.972898953773
0.972898953773
0.972898953773
0.972898953773
0.972898953773
0.972898953773
0.972898953773
0.972898953773
0.972898953773
0.972898953773
0.972898953773
0.972898953773
0.972898953773
0.972898953773
0.972898953773
0.972898953773
0.972898953773
0.972898953773
0.972898953773
0.972898953773
0.972898953773
0.972898953773
0.972898953773
0.972898953773
0.972898953773
0.972898953773
0.972898953773
0.972898953773
0.972898953773
0.972898953773
0.972898953773
0.972898953773
0.972898953773
0.972898953773
0.972898953773
0.972898953773
0.972898953773
0.972898953773
0.972898953773
0.972898953773
0.972898953773
0.972898953773
0.972898953773
0.972898953773
0.972898953773
0.972898953773
0.972898953773
0.972898953773
0.972898953773
0.972898953773
0.972898953773
0.972898953773
0.972898953773
0.972898953773
0.972898953773
0.972898953773
0.972898953773
0.972898953773
0.972898953773
0.972898953773
0.972898953773
0.972898953773
0.972899293685
0.972899293685
0.972899293685
0.972899293685
0.972899293685
0.972899293685
0.972899293685
0.972899293685
0.972899293685
0.972899293685
0.972899293685
0.972899293685
0.972899293685
0.972899293685
0.972899293685
0.972899293685
0.972899293685
0.972899293685
0.972899293685
0.972899293685
0.972899293685
0.972899293685
0.972899293685
0.972899293685
0.972899293685
0.972899293685
0.972899293685
0.972899293685
0.972899293685
0.972899293685
0.972899293685
0.972899293685
0.972899293685
0.972899293685
0.972899293685
0.972899293685
0.972899293685
0.972899293685
0.972899293685
0.972899293685
0.972899293685
0.972899293685
0.972899293685
0.972899293685
0.972899293685
0.972899293685
0.972899293685
0.972899293685
0.972899293685
0.972899293685
0.972899293685
0.972899293685
0.972899293685
0.972899293685
0.972899293685
0.972899293685
0.972899293685
0.972899293685
0.972899293685
0.972899293685
0.972899293685
0.972899293685
0.972899293685
0.972899293685
0.972899293685
0.972899293685
0.972899293685
0.972899293685
0.972899293685
0.972899293685
0.972899293685
0.972899293685
0.972899293685
0.972899293685
0.972899293685
0.972899293685
0.972899293685
0.972899293685
0.972899293685
0.972899293685
0.972899293685
0.97289963358
0.97289963358
0.97289963358
0.97289963358
0.97289963358
0.97289963358
0.97289963358
0.97289963358
0.97289963358
0.97289963358
0.97289963358
0.97289963358
0.97289963358
0.97289963358
0.97289963358
0.97289963358
0.97289963358
0.97289963358
0.97289963358
0.97289963358
0.97289963358
0.97289963358
0.97289963358
0.97289963358
0.97289963358
0.97289963358
0.97289963358
0.97289963358
0.97289963358
0.97289963358
0.97289963358
0.97289963358
0.97289963358
0.97289963358
0.97289963358
0.97289963358
0.97289963358
0.97289963358
0.97289963358
0.97289963358
0.97289963358
0.97289963358
0.97289963358
0.97289963358
0.97289963358
0.97289963358
0.97289963358
0.97289963358
0.97289963358
0.97289963358
0.97289963358
0.97289963358
0.97289963358
0.97289963358
0.97289963358
0.97289963358
0.97289963358
0.97289963358
0.97289963358
0.97289963358
0.97289963358
0.97289963358
0.97289963358
0.97289963358
0.97289963358
0.97289963358
0.97289963358
0.97289963358
0.97289963358
0.97289963358
0.97289963358
0.97289963358
0.97289963358
0.97289963358
0.97289963358
0.97289963358
0.97289963358
0.97289963358
0.97289963358
0.97289963358
0.97289963358
0.972899973458
0.972899973458
0.972899973458
0.972899973458
0.972899973458
0.972899973458
0.972899973458
0.972899973458
0.972899973458
0.972899973458
0.972899973458
0.972899973458
0.972899973458
0.972899973458
0.972899973458
0.972899973458
0.972899973458
0.972899973458
0.972899973458
0.972899973458
0.972899973458
0.972899973458
0.972899973458
0.972899973458
0.972899973458
0.972899973458
0.972899973458
0.972899973458
0.972899973458
0.972899973458
0.972899973458
0.972899973458
0.972899973458
0.972899973458
0.972899973458
0.972899973458
0.972899973458
0.972899973458
0.972899973458
0.972899973458
0.972899973458
0.972899973458
0.972899973458
0.972899973458
0.972899973458
0.972899973458
0.972899973458
0.972899973458
0.972899973458
0.972899973458
0.972899973458
0.972899973458
0.972899973458
0.972899973458
0.972899973458
0.972899973458
0.972899973458
0.972899973458
0.972899973458
0.972899973458
0.972899973458
0.972899973458
0.972899973458
0.972899973458
0.972899973458
0.972899973458
0.972899973458
0.972899973458
0.972899973458
0.972899973458
0.972899973458
0.972899973458
0.972899973458
0.972899973458
0.972899973458
0.972899973458
0.972899973458
0.972899973458
0.972899973458
0.972899973458
0.972899973458
0.972900313317
0.972900313317
0.972900313317
0.972900313317
0.972900313317
0.972900313317
0.972900313317
0.972900313317
0.972900313317
0.972900313317
0.972900313317
0.972900313317
0.972900313317
0.972900313317
0.972900313317
0.972900313317
0.972900313317
0.972900313317
0.972900313317
0.972900313317
0.972900313317
0.972900313317
0.972900313317
0.972900313317
0.972900313317
0.972900313317
0.972900313317
0.972900313317
0.972900313317
0.972900313317
0.972900313317
0.972900313317
0.972900313317
0.972900313317
0.972900313317
0.972900313317
0.972900313317
0.972900313317
0.972900313317
0.972900313317
0.972900313317
0.972900313317
0.972900313317
0.972900313317
0.972900313317
0.972900313317
0.972900313317
0.972900313317
0.972900313317
0.972900313317
0.972900313317
0.972900313317
0.972900313317
0.972900313317
0.972900313317
0.972900313317
0.972900313317
0.972900313317
0.972900313317
0.972900313317
0.972900313317
0.972900313317
0.972900313317
0.972900313317
0.972900313317
0.972900313317
0.972900313317
0.972900313317
0.972900313317
0.972900313317
0.972900313317
0.972900313317
0.972900313317
0.972900313317
0.972900313317
0.972900313317
0.972900313317
0.972900313317
0.972900313317
0.972900313317
0.972900313317
0
0
0
0
0
0
0
0
0
0
0
0
0
0
0
0
0
0
0
0
0
0
0
0
0
0
0
0
0
0
0
0
0
0
0
0
0
0
0
0
0
0
0
0
0
0
0
0
0
0
0
0
0
0
0
0
0
0
0
0
0
0
0
0
0
0
0
0
0
0
0
0
0
0
0
0
0
0
0
0
0
0
0
0
0
0
0
0
0
0
0
0
0
0
0
0
0
0
0
0
0
0
0
0
0
0
0
0
0
0
0
0
0
0
0
0
0
0
0
0
0
0
0
0
0
0
0
0
0
0
0
0
0
0
0
0
0
0
0
0
0
0
0
0
0
0
0
0
0
0
0
0
0
0
0
0
0
0
0
0
0
0
0
0
0
0
0
0
0
0
0
0
0
0
0
0
0
0
0
0
0
0
0
0
0
0
0
0
0
0
0
0
0
0
0
0
0
0
0
0
0
0
0
0
0
0
0
0
0
0
0
0
0
0
0
0
0
0
0
0
0
0
0
0
0
0
0
0
0
0
0
0
0
0
0
0
0
0
0
0
0
0
0
0
0
0
0
0
0
0
0
0
0
0
0
0
0
0
0
0
0
0
0
0
0
0
0
0
0
0
0
0
0
0
0
0
0
0
0
0
0
0
0
0
0
0
0
0
0
0
0
0
0
0
0
0
0
0
0
0
0
0
0
0
0
0
0
0
0
0
0
0
0
0
0
0
0
0
0
0
0
0
0
0
SCALARS aqueous_H2_mole_fraction double 1
LOOKUP_TABLE default
7.97184029571e-05
7.97184029571e-05
7.97184029571e-05
7.97184029571e-05
7.97184029571e-05
7.97184029571e-05
7.97184029571e-05
7.97184029571e-05
7.97184029571e-05
7.97184029571e-05
7.97184029571e-05
7.97184029571e-05
7.97184029571e-05
7.97184029571e-05
7.97184029571e-05
7.97184029571e-05
7.97184029571e-05
7.97184029571e-05
7.97184029571e-05
7.97184029571e-05
7.97184029571e-05
7.97184029571e-05
7.97184029571e-05
7.97184029571e-05
7.97184029571e-05
7.97184029571e-05
7.97184029571e-05
7.97184029571e-05
7.97184029571e-05
7.97184029571e-05
7.97184029571e-05
7.97184029571e-05
7.97184029571e-05
7.97184029571e-05
7.97184029571e-05
7.97184029571e-05
7.97184029571e-05
7.97184029571e-05
7.97184029571e-05
7.97184029571e-05
7.97184029571e-05
7.97184029571e-05
7.97184029571e-05
7.97184029571e-05
7.97184029571e-05
7.97184029571e-05
7.97184029571e-05
7.97184029571e-05
7.97184029571e-05
7.97184029571e-05
7.97184029571e-05
7.97184029571e-05
7.97184029571e-05
7.97184029571e-05
7.97184029571e-05
7.97184029571e-05
7.97184029571e-05
7.97184029571e-05
7.97184029571e-05
7.97184029571e-05
7.97184029571e-05
7.97184029571e-05
7.97184029571e-05
7.97184029571e-05
7.97184029571e-05
7.97184029571e-05
7.97184029571e-05
7.97184029571e-05
7.97184029571e-05
7.97184029571e-05
7.97184029571e-05
7.97184029571e-05
7.97184029571e-05
7.97184029571e-05
7.97184029571e-05
7.97184029571e-05
7.97184029571e-05
7.97184029571e-05
7.97184029571e-05
7.97184029571e-05
7.97184029571e-05
7.9722340915e-05
7.9722340915e-05
7.9722340915e-05
7.9722340915e-05
7.9722340915e-05
7.9722340915e-05
7.9722340915e-05
7.9722340915e-05
7.9722340915e-05
7.9722340915e-05
7.9722340915e-05
7.9722340915e-05
7.9722340915e-05
7.9722340915e-05
7.9722340915e-05
7.9722340915e-05
7.9722340915e-05
7.9722340915e-05
7.9722340915e-05
7.9722340915e-05
7.9722340915e-05
7.9722340915e-05
7.9722340915e-05
7.9722340915e-05
7.9722340915e-05
7.9722340915e-05
7.9722340915e-05
7.9722340915e-05
7.9722340915e-05
7.9722340915e-05
7.9722340915e-05
7.9722340915e-05
7.9722340915e-05
7.9722340915e-05
7.9722340915e-05
7.9722340915e-05
7.9722340915e-05
7.9722340915e-05
7.9722340915e-05
7.9722340915e-05
7.9722340915e-05
7.9722340915e-05
7.9722340915e-05
7.9722340915e-05
7.9722340915e-05
7.9722340915e-05
7.9722340915e-05
7.9722340915e-05
7.9722340915e-05
7.9722340915e-05
7.9722340915e-05
7.9722340915e-05
7.9722340915e-05
7.9722340915e-05
7.9722340915e-05
7.9722340915e-05
7.9722340915e-05
7.9722340915e-05
7.9722340915e-05
7.9722340915e-05
7.9722340915e-05
7.9722340915e-05
7.9722340915e-05
7.9722340915e-05
7.9722340915e-05
7.9722340915e-05
7.9722340915e-05
7.9722340915e-05
7.9722340915e-05
7.9722340915e-05
7.9722340915e-05
7.9722340915e-05
7.9722340915e-05
7.9722340915e-05
7.9722340915e-05
7.9722340915e-05
7.9722340915e-05
7.9722340915e-05
7.9722340915e-05
7.9722340915e-05
7.9722340915e-05
7.97262790571e-05
7.97262790571e-05
7.97262790571e-05
7.97262790571e-05
7.97262790571e-05
7.97262790571e-05
7.97262790571e-05
7.97262790571e-05
7.97262790571e-05
7.97262790571e-05
7.97262790571e-05
7.97262790571e-05
7.97262790571e-05
7.97262790571e-05
7.97262790571e-05
7.97262790571e-05
7.97262790571e-05
7.97262790571e-05
7.97262790571e-05
7.97262790571e-05
7.97262790571e-05
7.97262790571e-05
7.97262790571e-05
7.97262790571e-05
7.97262790571e-05
7.97262790571e-05
7.97262790571e-05
7.97262790571e-05
7.97262790571e-05
7.97262790571e-05
7.97262790571e-05
7.97262790571e-05
7.97262790571e-05
7.97262790571e-05
7.97262790571e-05
7.97262790571e-05
7.97262790571e-05
7.97262790571e-05
7.97262790571e-05
7.97262790571e-05
7.97262790571e-05
7.97262790571e-05
7.97262790571e-05
7.97262790571e-05
7.97262790571e-05
7.97262790571e-05
7.97262790571e-05
7.97262790571e-05
7.97262790571e-05
7.97262790571e-05
7.97262790571e-05
7.97262790571e-05
7.97262790571e-05
7.97262790571e-05
7.97262790571e-05
7.97262790571e-05
7.97262790571e-05
7.97262790571e-05
7.97262790571e-05
7.97262790571e-05
7.97262790571e-05
7.97262790571e-05
7.97262790571e-05
7.97262790571e-05
7.97262790571e-05
7.97262790571e-05
7.97262790571e-05
7.97262790571e-05
7.97262790571e-05
7.97262790571e-05
7.97262790571e-05
7.97262790571e-05
7.97262790571e-05
7.97262790571e-05
7.97262790571e-05
7.97262790571e-05
7.97262790571e-05
7.97262790571e-05
7.97262790571e-05
7.97262790571e-05
7.97262790571e-05
7.97302173833e-05
7.97302173833e-05
7.97302173833e-05
7.97302173833e-05
7.97302173833e-05
7.97302173833e-05
7.97302173833e-05
7.97302173833e-05
7.97302173833e-05
7.97302173833e-05
7.97302173833e-05
7.97302173833e-05
7.97302173833e-05
7.97302173833e-05
7.97302173833e-05
7.97302173833e-05
7.97302173833e-05
7.97302173833e-05
7.97302173833e-05
7.97302173833e-05
7.97302173833e-05
7.97302173833e-05
7.97302173833e-05
7.97302173833e-05
7.97302173833e-05
7.97302173833e-05
7.97302173833e-05
7.97302173833e-05
7.97302173833e-05
7.97302173833e-05
7.97302173833e-05
7.97302173833e-05
7.97302173833e-05
7.97302173833e-05
7.97302173833e-05
7.97302173833e-05
7.97302173833e-05
7.97302173833e-05
7.97302173833e-05
7.97302173833e-05
7.97302173833e-05
7.97302173833e-05
7.97302173833e-05
7.97302173833e-05
7.97302173833e-05
7.97302173833e-05
7.97302173833e-05
7.97302173833e-05
7.97302173833e-05
7.97302173833e-05
7.97302173833e-05
7.97302173833e-05
7.97302173833e-05
7.97302173833e-05
7.97302173833e-05
7.97302173833e-05
7.97302173833e-05
7.97302173833e-05
7.97302173833e-05
7.97302173833e-05
7.97302173833e-05
7.97302173833e-05
7.97302173833e-05
7.97302173833e-05
7.97302173833e-05
7.97302173833e-05
7.97302173833e-05
7.97302173833e-05
7.97302173833e-05
7.97302173833e-05
7.97302173833e-05
7.97302173833e-05
7.97302173833e-05
7.97302173833e-05
7.97302173833e-05
7.97302173833e-05
7.97302173833e-05
7.97302173833e-05
7.97302173833e-05
7.97302173833e-05
7.97302173833e-05
7.97341558936e-05
7.97341558936e-05
7.97341558936e-05
7.97341558936e-05
7.97341558936e-05
7.97341558936e-05
7.97341558936e-05
7.97341558936e-05
7.97341558936e-05
7.97341558936e-05
7.97341558936e-05
7.97341558936e-05
7.97341558936e-05
7.97341558936e-05
7.97341558936e-05
7.97341558936e-05
7.97341558936e-05
7.97341558936e-05
7.97341558936e-05
7.97341558936e-05
7.97341558936e-05
7.97341558936e-05
7.97341558936e-05
7.97341558936e-05
7.97341558936e-05
7.97341558936e-05
7.97341558936e-05
7.97341558936e-05
7.97341558936e-05
7.97341558936e-05
7.97341558936e-05
7.97341558936e-05
7.97341558936e-05
7.97341558936e-05
7.97341558936e-05
7.97341558936e-05
7.97341558936e-05
7.97341558936e-05
7.97341558936e-05
7.97341558936e-05
7.97341558936e-05
7.97341558936e-05
7.97341558936e-05
7.97341558936e-05
7.97341558936e-05
7.97341558936e-05
7.97341558936e-05
7.97341558936e-05
7.97341558936e-05
7.97341558936e-05
7.97341558936e-05
7.97341558936e-05
7.97341558936e-05
7.97341558936e-05
7.97341558936e-05
7.97341558936e-05
7.97341558936e-05
7.97341558936e-05
7.97341558936e-05
7.97341558936e-05
7.97341558936e-05
7.97341558936e-05
7.97341558936e-05
7.97341558936e-05
7.97341558936e-05
7.97341558936e-05
7.97341558936e-05
7.97341558936e-05
7.97341558936e-05
7.97341558936e-05
7.97341558936e-05
7.97341558936e-05
7.97341558936e-05
7.97341558936e-05
7.97341558936e-05
7.97341558936e-05
7.97341558936e-05
7.97341558936e-05
7.97341558936e-05
7.97341558936e-05
7.97341558936e-05
7.88477018637e-05
7.88477018637e-05
7.88477018637e-05
7.88477018637e-05
7.88477018637e-05
7.88477018637e-05
7.88477018637e-05
7.88477018637e-05
7.88477018637e-05
7.88477018637e-05
7.88477018637e-05
7.88477018637e-05
7.88477018637e-05
7.88477018637e-05
7.88477018637e-05
7.88477018637e-05
7.88477018637e-05
7.88477018637e-05
7.88477018637e-05
7.88477018637e-05
7.88477018637e-05
7.88477018637e-05
7.88477018637e-05
7.88477018637e-05
7.88477018637e-05
7.88477018637e-05
7.88477018637e-05
7.88477018637e-05
7.88477018637e-05
7.88477018637e-05
7.88477018637e-05
7.88477018637e-05
7.88477018637e-05
7.88477018637e-05
7.88477018637e-05
7.88477018637e-05
7.88477018637e-05
7.88477018637e-05
7.88477018637e-05
7.88477018637e-05
7.88477018637e-05
7.88477018637e-05
7.88477018637e-05
7.88477018637e-05
7.88477018637e-05
7.88477018637e-05
7.88477018637e-05
7.88477018637e-05
7.88477018637e-05
7.88477018637e-05
7.88477018637e-05
7.88477018637e-05
7.88477018637e-05
7.88477018637e-05
7.88477018637e-05
7.88477018637e-05
7.88477018637e-05
7.88477018637e-05
7.88477018637e-05
7.88477018637e-05
7.88477018637e-05
7.88477018637e-05
7.88477018637e-05
7.88477018637e-05
7.88477018637e-05
7.88477018637e-05
7.88477018637e-05
7.88477018637e-05
7.88477018637e-05
7.88477018637e-05
7.88477018637e-05
7.88477018637e-05
7.88477018637e-05
7.88477018637e-05
7.88477018637e-05
7.88477018637e-05
7.88477018637e-05
7.88477018637e-05
7.88477018637e-05
7.88477018637e-05
7.88477018637e-05
8.50432854246e-05
8.50432854246e-05
8.50432854246e-05
8.50432854246e-05
8.50432854246e-05
8.50432854246e-05
8.50432854246e-05
8.50432854246e-05
8.50432854246e-05
8.50432854246e-05
8.50432854246e-05
8.50432854246e-05
8.50432854246e-05
8.50432854246e-05
8.50432854246e-05
8.50432854246e-05
8.50432854246e-05
8.50432854246e-05
8.50432854246e-05
8.50432854246e-05
8.50432854246e-05
8.50432854246e-05
8.50432854246e-05
8.50432854246e-05
8.50432854246e-05
8.50432854246e-05
8.50432854246e-05
8.50432854246e-05
8.50432854246e-05
8.50432854246e-05
8.50432854246e-05
8.50432854246e-05
8.50432854246e-05
8.50432854246e-05
8.50432854246e-05
8.50432854246e-05
8.50432854246e-05
8.50432854246e-05
8.50432854246e-05
8.50432854246e-05
8.50432854246e-05
8.50432854246e-05
8.50432854246e-05
8.50432854246e-05
8.50432854246e-05
8.50432854246e-05
8.50432854246e-05
8.50432854246e-05
8.50432854246e-05
8.50432854246e-05
8.50432854246e-05
8.50432854246e-05
8.50432854246e-05
8.50432854246e-05
8.50432854246e-05
8.50432854246e-05
8.50432854246e-05
8.50432854246e-05
8.50432854246e-05
8.50432854246e-05
8.50432854246e-05
8.50432854246e-05
8.50432854246e-05
8.50432854246e-05
8.50432854246e-05
8.50432854246e-05
8.50432854246e-05
8.50432854246e-05
8.50432854246e-05
8.50432854246e-05
8.50432854246e-05
8.50432854246e-05
8.50432854246e-05
8.50432854246e-05
8.50432854246e-05
8.50432854246e-05
8.50432854246e-05
8.50432854246e-05
8.50432854246e-05
8.50432854246e-05
8.50432854246e-05
9.12372967115e-05
9.12372967115e-05
9.12372967115e-05
9.12372967115e-05
9.12372967115e-05
9.12372967115e-05
9.12372967115e-05
9.12372967115e-05
9.12372967115e-05
9.12372967115e-05
9.12372967115e-05
9.12372967115e-05
9.12372967115e-05
9.12372967115e-05
9.12372967115e-05
9.12372967115e-05
9.12372967115e-05
9.12372967115e-05
9.12372967115e-05
9.12372967115e-05
9.12372967115e-05
9.12372967115e-05
9.12372967115e-05
9.12372967115e-05
9.12372967115e-05
9.12372967115e-05
9.12372967115e-05
9.12372967115e-05
9.12372967115e-05
9.12372967115e-05
9.12372967115e-05
9.12372967115e-05
9.12372967115e-05
9.12372967115e-05
9.12372967115e-05
9.12372967115e-05
9.12372967115e-05
9.12372967115e-05
9.12372967115e-05
9.12372967115e-05
9.12372967115e-05
9.12372967115e-05
9.12372967115e-05
9.12372967115e-05
9.12372967115e-05
9.12372967115e-05
9.12372967115e-05
9.12372967115e-05
9.12372967115e-05
9.12372967115e-05
9.12372967115e-05
9.12372967115e-05
9.12372967115e-05
9.12372967115e-05
9.12372967115e-05
9.12372967115e-05
9.12372967115e-05
9.12372967115e-05
9.12372967115e-05
9.12372967115e-05
9.12372967115e-05
9.12372967115e-05
9.12372967115e-05
9.12372967115e-05
9.12372967115e-05
9.12372967115e-05
9.12372967115e-05
9.12372967115e-05
9.12372967115e-05
9.12372967115e-05
9.12372967115e-05
9.12372967115e-05
9.12372967115e-05
9.12372967115e-05
9.12372967115e-05
9.12372967115e-05
9.12372967115e-05
9.12372967115e-05
9.12372967115e-05
9.12372967115e-05
9.12372967115e-05
9.74297404747e-05
9.74297404747e-05
9.74297404747e-05
9.74297404747e-05
9.74297404747e-05
9.74297404747e-05
9.74297404747e-05
9.74297404747e-05
9.74297404747e-05
9.74297404747e-05
9.74297404747e-05
9.74297404747e-05
9.74297404747e-05
9.74297404747e-05
9.74297404747e-05
9.74297404747e-05
9.74297404747e-05
9.74297404747e-05
9.74297404747e-05
9.74297404747e-05
9.74297404747e-05
9.74297404747e-05
9.74297404747e-05
9.74297404747e-05
9.74297404747e-05
9.74297404747e-05
9.74297404747e-05
9.74297404747e-05
9.74297404747e-05
9.74297404747e-05
9.74297404747e-05
9.74297404747e-05
9.74297404747e-05
9.74297404747e-05
9.74297404747e-05
9.74297404747e-05
9.74297404747e-05
9.74297404747e-05
9.74297404747e-05
9.74297404747e-05
9.74297404747e-05
9.74297404747e-05
9.74297404747e-05
9.74297404747e-05
9.74297404747e-05
9.74297404747e-05
9.74297404747e-05
9.74297404747e-05
9.74297404747e-05
9.74297404747e-05
9.74297404747e-05
9.74297404747e-05
9.74297404747e-05
9.74297404747e-05
9.74297404747e-05
9.74297404747e-05
9.74297404747e-05
9.74297404747e-05
9.74297404747e-05
9.74297404747e-05
9.74297404747e-05
9.74297404747e-05
9.74297404747e-05
9.74297404747e-05
9.74297404747e-05
9.74297404747e-05
9.74297404747e-05
9.74297404747e-05
9.74297404747e-05
9.74297404747e-05
9.74297404747e-05
9.74297404747e-05
9.74297404747e-05
9.74297404747e-05
9.74297404747e-05
9.74297404747e-05
9.74297404747e-05
9.74297404747e-05
9.74297404747e-05
9.74297404747e-05
9.74297404747e-05
