# vtk DataFile Version 3.0
Hydrogen reservoir; coordinates in metres, z positive down
ASCII
DATASET RECTILINEAR_GRID
DIMENSIONS 10 10 10
X_COORDINATES 10 double
0 111.111111111 222.222222222 333.333333333 444.444444444 555.555555556 666.666666667 777.777777778 888.888888889 1000
Y_COORDINATES 10 double
0 111.111111111 222.222222222 333.333333333 444.444444444 555.555555556 666.666666667 777.777777778 888.888888889 1000
Z_COORDINATES 10 double
100 105 110 115 120 125 130 135 140 145
CELL_DATA 729
SCALARS pressure_bar double 1
LOOKUP_TABLE default
5.995472969
5.99171030322
5.98545353268
5.97924474349
5.97643763947
5.97924474349
5.98545353268
5.99171030322
5.995472969
5.99171030322
5.98666932424
5.97785055029
5.96828211287
5.96326195483
5.96828211287
5.97785055028
5.98666932424
5.99171030322
5.98545353268
5.97785055029
5.96341850078
5.94516137245
5.93238965244
5.94516137245
5.96341850078
5.97785055028
5.98545353268
5.97924474349
5.96828211287
5.94516137245
5.90865567236
5.86708906377
5.90865567236
5.94516137245
5.96828211287
5.97924474349
5.97643763947
5.96326195483
5.93238965244
5.86708906377
5.69597750992
5.86708906377
5.93238965244
5.96326195483
5.97643763947
5.97924474349
5.96828211287
5.94516137245
5.90865567236
5.86708906377
5.90865567236
5.94516137245
5.96828211287
5.97924474349
5.98545353268
5.97785055029
5.96341850078
5.94516137245
5.93238965244
5.94516137245
5.96341850078
5.97785055029
5.98545353268
5.99171030322
5.98666932424
5.97785055029
5.96828211287
5.96326195483
5.96828211287
5.97785055029
5.98666932424
5.99171030322
5.995472969
5.99171030322
5.98545353268
5.97924474349
5.97643763947
5.97924474349
5.98545353268
5.99171030322
5.995472969
5.99588540941
5.99212258997
5.98586564837
5.97965650339
5.97684930978
5.97965650339
5.98586564837
5.99212258997
5.99588540941
5.99212258997
5.98708149556
5.97826221846
5.96869357752
5.96367404046
5.96869357752
5.97826221846
5.98708149556
5.99212258997
5.98586564837
5.97826221846
5.96382988027
5.94557496074
5.93282008801
5.94557496074
5.96382988027
5.97826221846
5.98586564837
5.97965650339
5.96869357752
5.94557496074
5.90910505093
5.86777142457
5.90910505093
5.94557496074
5.96869357752
5.97965650339
5.97684930978
5.96367404046
5.93282008801
5.86777142457
5.68194213518
5.86777142457
5.93282008801
5.96367404046
5.97684930978
5.97965650339
5.96869357752
5.94557496074
5.90910505093
5.86777142457
5.90910505093
5.94557496074
5.96869357752
5.97965650339
5.98586564837
5.97826221846
5.96382988027
5.94557496074
5.93282008801
5.94557496074
5.96382988027
5.97826221846
5.98586564837
5.99212258997
5.98708149556
5.97826221846
5.96869357752
5.96367404046
5.96869357752
5.97826221846
5.98708149556
5.99212258997
5.99588540941
5.99212258997
5.98586564837
5.97965650339
5.97684930978
5.97965650339
5.98586564837
5.99212258997
5.99588540941
5.99641575839
5.99265280249
5.98639581987
5.98018623637
5.9773789812
5.98018623637
5.98639581987
5.99265280249
5.99641575839
5.99265280249
5.98761172489
5.97879182249
5.9692231636
5.96420482803
5.9692231636
5.97879182249
5.98761172489
5.99265280249
5.98639581987
5.97879182249
5.96435948833
5.94610896463
5.93338532912
5.94610896463
5.96435948833
5.97879182249
5.98639581987
5.98018623637
5.9692231636
5.94610896463
5.90970538343
5.86916031404
5.90970538343
5.94610896463
5.9692231636
5.98018623637
5.9773789812
5.96420482803
5.93338532912
5.86916031404
5.71533144071
5.86916031404
5.93338532912
5.96420482803
5.9773789812
5.98018623637
5.9692231636
5.94610896463
5.90970538343
5.86916031404
5.90970538343
5.94610896463
5.9692231636
5.98018623637
5.98639581987
5.97879182249
5.96435948833
5.94610896463
5.93338532912
5.94610896463
5.96435948833
5.97879182249
5.98639581987
5.99265280249
5.98761172489
5.97879182249
5.9692231636
5.96420482803
5.9692231636
5.97879182249
5.98761172489
5.99265280249
5.99641575839
5.99265280249
5.98639581987
5.98018623637
5.9773789812
5.98018623637
5.98639581987
5.99265280249
5.99641575839
5.99706440177
5.99330131567
5.98704449587
5.9808344098
5.9780270978
5.9808344098
5.98704449587
5.99330131567
5.99706440177
5.99330131567
5.98826045647
5.97943981406
5.96987123191
5.96485419568
5.96987123191
5.97943981406
5.98826045647
5.99330131567
5.98704449587
5.97943981406
5.96500766251
5.9467618995
5.93407115757
5.9467618995
5.96500766251
5.97943981406
5.98704449587
5.9808344098
5.96987123191
5.9467618995
5.91042828295
5.87065873053
5.91042828295
5.9467618995
5.96987123191
5.9808344098
5.9780270978
5.96485419568
5.93407115757
5.87065873053
5.73586144132
5.87065873053
5.93407115757
5.96485419568
5.9780270978
5.9808344098
5.96987123191
5.9467618995
5.91042828295
5.87065873053
5.91042828295
5.9467618995
5.96987123191
5.9808344098
5.98704449587
5.97943981406
5.96500766251
5.9467618995
5.93407115757
5.9467618995
5.96500766251
5.97943981406
5.98704449587
5.99330131567
5.98826045647
5.97943981406
5.96987123191
5.96485419568
5.96987123191
5.97943981406
5.98826045647
5.99330131567
5.99706440177
5.99330131567
5.98704449587
5.9808344098
5.9780270978
5.9808344098
5.98704449587
5.99330131567
5.99706440177
5.99793976015
5.99417128346
5.98790582475
5.98170519717
5.97890240107
5.98170519717
5.98790582475
5.99417128346
5.99793976015
5.99417128346
5.98912367412
5.98031373232
5.97074919614
5.96573399517
5.97074919614
5.98031373232
5.98912367412
5.99417128346
5.98790582475
5.98031373232
5.96588648266
5.94764140591
5.93495981094
5.94764140591
5.96588648266
5.98031373232
5.98790582475
5.98170519717
5.97074919614
5.94764140591
5.91137254769
5.87218460989
5.91137254769
5.94764140591
5.97074919614
5.98170519717
5.97890240107
5.96573399517
5.93495981094
5.87218460989
5.74869146823
5.87218460989
5.93495981094
5.96573399517
5.97890240107
5.98170519717
5.97074919614
5.94764140591
5.91137254769
5.87218460989
5.91137254769
5.94764140591
5.97074919614
5.98170519717
5.98790582475
5.98031373232
5.96588648266
5.94764140591
5.93495981094
5.94764140591
5.96588648266
5.98031373232
5.98790582475
5.99417128346
5.98912367412
5.98031373232
5.97074919614
5.96573399517
5.97074919614
5.98031373232
5.98912367412
5.99417128346
5.99793976015
5.99417128346
5.98790582475
5.98170519717
5.97890240107
5.98170519717
5.98790582475
5.99417128346
5.99793976015
6.49000834178
6.48621292831
6.47987738527
6.4736115034
6.4708105368
6.4736115034
6.47987738527
6.48621292831
6.49000834178
6.48621292831
6.48111308005
6.47222666909
6.46269973532
6.45775525233
6.46269973532
6.47222666909
6.48111308005
6.48621292831
6.47987738527
6.47222666909
6.45786878776
6.43987533304
6.42765908983
6.43987533304
6.45786878776
6.47222666909
6.47987738527
6.4736115034
6.46269973532
6.43987533304
6.40483869016
6.37026183528
6.40483869016
6.43987533304
6.46269973532
6.4736115034
6.4708105368
6.45775525233
6.42765908983
6.37026183528
6.27725542572
6.37026183528
6.42765908983
6.45775525233
6.4708105368
6.4736115034
6.46269973532
6.43987533304
6.40483869016
6.37026183528
6.40483869016
6.43987533304
6.46269973532
6.4736115034
6.47987738527
6.47222666909
6.45786878776
6.43987533304
6.42765908983
6.43987533304
6.45786878776
6.47222666909
6.47987738527
6.48621292831
6.48111308005
6.47222666909
6.46269973532
6.45775525233
6.46269973532
6.47222666909
6.48111308005
6.48621292831
6.49000834178
6.48621292831
6.47987738527
6.4736115034
6.4708105368
6.4736115034
6.47987738527
6.48621292831
6.49000834178
7.01307758246
7.00928042151
7.00294894766
6.99669066439
6.99389181951
6.99669066439
7.00294894766
7.00928042151
7.01307758246
7.00928042151
7.00418510489
6.99531140908
6.98579589714
6.98087913302
6.98579589714
6.99531140908
7.00418510489
7.00928042151
7.00294894766
6.99531140908
6.9809740448
6.9630875554
6.9511749879
6.9630875554
6.9809740448
6.99531140908
7.00294894766
6.99669066439
6.98579589714
6.9630875554
6.92873244063
6.89646934262
6.92873244063
6.9630875554
6.98579589714
6.99669066439
6.99389181951
6.98087913302
6.9511749879
6.89646934262
6.81802941341
6.89646934262
6.9511749879
6.98087913302
6.99389181951
6.99669066439
6.98579589714
6.9630875554
6.92873244063
6.89646934262
6.92873244063
6.9630875554
6.98579589714
6.99669066439
7.00294894766
6.99531140908
6.9809740448
6.9630875554
6.9511749879
6.9630875554
6.9809740448
6.99531140908
7.00294894766
7.00928042151
7.00418510489
6.99531140908
6.98579589714
6.98087913302
6.98579589714
6.99531140908
7.00418510489
7.00928042151
7.01307758246
7.00928042151
7.00294894766
6.99669066439
6.99389181951
6.99669066439
7.00294894766
7.00928042151
7.01307758246
7.52457628064
7.52077807648
7.51444933763
7.50819605106
7.50539891644
7.50819605106
7.51444933763
7.52077807648
7.52457628064
7.52077807648
7.51568580703
7.50682047782
7.4973138102
7.49241753004
7.4973138102
7.50682047782
7.51568580703
7.52077807648
7.51444933763
7.50682047782
7.49249868539
7.47469026432
7.46299028638
7.47469026432
7.49249868539
7.50682047782
7.51444933763
7.50819605106
7.4973138102
7.47469026432
7.44081703173
7.41012632089
7.44081703173
7.47469026432
7.4973138102
7.50819605106
7.50539891644
7.49241753004
7.46299028638
7.41012632089
7.34072510371
7.41012632089
7.46299028638
7.49241753004
7.50539891644
7.50819605106
7.4973138102
7.47469026432
7.44081703173
7.41012632089
7.44081703173
7.47469026432
7.4973138102
7.50819605106
7.51444933763
7.50682047782
7.49249868539
7.47469026432
7.46299028638
7.47469026432
7.49249868539
7.50682047782
7.51444933763
7.52077807648
7.51568580703
7.50682047782
7.4973138102
7.49241753004
7.4973138102
7.50682047782
7.51568580703
7.52077807648
7.52457628064
7.52077807648
7.51444933763
7.50819605106
7.50539891644
7.50819605106
7.51444933763
7.52077807648
7.52457628064
8.02450479141
8.02070606832
8.01437864834
8.00812778923
8.00533157596
8.00812778923
8.01437864834
8.02070606832
8.02450479141
8.02070606832
8.01561528563
8.00675403817
7.99725208793
7.99236661225
7.99725208793
8.00675403817
8.01561528563
8.02070606832
8.01437864834
8.00675403817
7.99244049093
7.97467300857
7.96308222494
7.97467300857
7.99244049093
8.00675403817
8.01437864834
8.00812778923
7.99725208793
7.97467300857
7.94104861247
7.91115103323
7.94104861247
7.97467300857
7.99725208793
8.00812778923
8.00533157596
7.99236661225
7.96308222494
7.91115103323
7.84607499682
7.91115103323
7.96308222494
7.99236661225
8.00533157596
8.00812778923
7.99725208793
7.97467300857
7.94104861247
7.91115103323
7.94104861247
7.97467300857
7.99725208793
8.00812778923
8.01437864834
8.00675403817
7.99244049093
7.97467300857
7.96308222494
7.97467300857
7.99244049093
8.00675403817
8.01437864834
8.02070606832
8.01561528563
8.00675403817
7.99725208793
7.99236661225
7.99725208793
8.00675403817
8.01561528563
8.02070606832
8.02450479141
8.02070606832
8.01437864834
8.00812778923
8.00533157596
8.00812778923
8.01437864834
8.02070606832
8.02450479141
SCALARS gas_saturation double 1
LOOKUP_TABLE default
0.749938635589
0.749938429438
0.749938158146
0.749938000274
0.749937958529
0.749938000274
0.749938158146
0.749938429438
0.749938635589
0.749938429438
0.749938207235
0.749937976036
0.749937959037
0.749938048529
0.749937959037
0.749937976036
0.749938207235
0.749938429438
0.749938158146
0.749937976036
0.749938045722
0.749938157232
0.749937601991
0.749938157232
0.749938045722
0.749937976036
0.749938158146
0.749938000274
0.749937959037
0.749938157232
0.749937746571
0.749937114098
0.749937746571
0.749938157232
0.749937959037
0.749938000274
0.749937958529
0.749938048529
0.749937601991
0.749937114098
0.749937445907
0.749937114098
0.749937601991
0.749938048529
0.749937958529
0.749938000274
0.749937959037
0.749938157232
0.749937746571
0.749937114098
0.749937746571
0.749938157232
0.749937959037
0.749938000274
0.749938158146
0.749937976036
0.749938045722
0.749938157232
0.749937601991
0.749938157232
0.749938045722
0.749937976036
0.749938158146
0.749938429438
0.749938207235
0.749937976036
0.749937959037
0.749938048529
0.749937959037
0.749937976036
0.749938207235
0.749938429438
0.749938635589
0.749938429438
0.749938158146
0.749938000274
0.749937958529
0.749938000274
0.749938158146
0.749938429438
0.749938635589
0.749899261223
0.749899048028
0.749898776408
0.749898603212
0.749898559516
0.749898603212
0.749898776408
0.749899048028
0.749899261223
0.749899048028
0.749898819189
0.749898583924
0.749898557514
0.749898640505
0.749898557514
0.749898583924
0.749898819189
0.749899048028
0.749898776408
0.749898583924
0.749898638865
0.749898776922
0.749898215046
0.749898776922
0.749898638865
0.749898583924
0.749898776408
0.749898603212
0.749898557514
0.749898776922
0.749898324674
0.749897702137
0.749898324674
0.749898776922
0.749898557514
0.749898603212
0.749898559516
0.749898640505
0.749898215046
0.749897702137
0.749898605108
0.749897702137
0.749898215046
0.749898640505
0.749898559516
0.749898603212
0.749898557514
0.749898776922
0.749898324674
0.749897702137
0.749898324674
0.749898776922
0.749898557514
0.749898603212
0.749898776408
0.749898583924
0.749898638865
0.749898776922
0.749898215046
0.749898776922
0.749898638865
0.749898583924
0.749898776408
0.749899048028
0.749898819189
0.749898583924
0.749898557514
0.749898640505
0.749898557514
0.749898583924
0.749898819189
0.749899048028
0.749899261223
0.749899048028
0.749898776408
0.749898603212
0.749898559516
0.749898603212
0.749898776408
0.749899048028
0.749899261223
0.74980463067
0.749804411563
0.749804132743
0.749803952733
0.749803905924
0.749803952733
0.749804132743
0.749804411563
0.74980463067
0.749804411563
0.749804176556
0.74980393245
0.74980389096
0.749803964832
0.74980389096
0.74980393245
0.749804176556
0.749804411563
0.749804132743
0.74980393245
0.749803963541
0.749804147953
0.749803570397
0.749804147953
0.749803963541
0.74980393245
0.749804132743
0.749803952733
0.74980389096
0.749804147953
0.74980363724
0.749803022954
0.74980363724
0.749804147953
0.74980389096
0.749803952733
0.749803905924
0.749803964832
0.749803570397
0.749803022954
0.749803127125
0.749803022954
0.749803570397
0.749803964832
0.749803905924
0.749803952733
0.74980389096
0.749804147953
0.74980363724
0.749803022954
0.74980363724
0.749804147953
0.74980389096
0.749803952733
0.749804132743
0.74980393245
0.749803963541
0.749804147953
0.749803570397
0.749804147953
0.749803963541
0.74980393245
0.749804132743
0.749804411563
0.749804176556
0.74980393245
0.74980389096
0.749803964832
0.74980389096
0.74980393245
0.749804176556
0.749804411563
0.74980463067
0.749804411563
0.749804132743
0.749803952733
0.749803905924
0.749803952733
0.749804132743
0.749804411563
0.74980463067
0.749304130305
0.749272837557
0.749128633781
0.748975334486
0.748982284124
0.748975334486
0.749128633781
0.749272837557
0.749304130305
0.749272837557
0.749163363941
0.748975873554
0.749054086531
0.749112135508
0.749054086531
0.748975873554
0.749163363941
0.749272837557
0.749128633781
0.748975873554
0.749110528698
0.74929453265
0.749026000888
0.74929453265
0.749110528698
0.748975873554
0.749128633781
0.748975334486
0.749054086531
0.74929453265
0.749152563768
0.748995741188
0.749152563768
0.74929453265
0.749054086531
0.748975334486
0.748982284124
0.749112135508
0.749026000888
0.748995741188
0.748655980228
0.748995741188
0.749026000888
0.749112135508
0.748982284124
0.748975334486
0.749054086531
0.74929453265
0.749152563768
0.748995741188
0.749152563768
0.74929453265
0.749054086531
0.748975334486
0.749128633781
0.748975873554
0.749110528698
0.74929453265
0.749026000888
0.74929453265
0.749110528698
0.748975873554
0.749128633781
0.749272837557
0.749163363941
0.748975873554
0.749054086531
0.749112135508
0.749054086531
0.748975873554
0.749163363941
0.749272837557
0.749304130305
0.749272837557
0.749128633781
0.748975334486
0.748982284124
0.748975334486
0.749128633781
0.749272837557
0.749304130305
0.673374521932
0.673431360647
0.67361242877
0.673794540479
0.673794570452
0.673794540479
0.67361242877
0.673431360647
0.673374521932
0.673431360647
0.673570905436
0.67379666148
0.673734129649
0.673639517276
0.673734129649
0.67379666148
0.673570905436
0.673431360647
0.67361242877
0.67379666148
0.673683093742
0.673376954017
0.673151318897
0.673376954017
0.673683093742
0.67379666148
0.67361242877
0.673794540479
0.673734129649
0.673376954017
0.672379681419
0.668123191762
0.672379681419
0.673376954017
0.673734129649
0.673794540479
0.673794570452
0.673639517276
0.673151318897
0.668123191762
0.636750546395
0.668123191762
0.673151318897
0.673639517276
0.673794570452
0.673794540479
0.673734129649
0.673376954017
0.672379681419
0.668123191762
0.672379681419
0.673376954017
0.673734129649
0.673794540479
0.67361242877
0.67379666148
0.673683093742
0.673376954017
0.673151318897
0.673376954017
0.673683093742
0.67379666148
0.67361242877
0.673431360647
0.673570905436
0.67379666148
0.673734129649
0.673639517276
0.673734129649
0.67379666148
0.673570905436
0.673431360647
0.673374521932
0.673431360647
0.67361242877
0.673794540479
0.673794570452
0.673794540479
0.67361242877
0.673431360647
0.673374521932
0
0
0
0
0
0
0
0
0
0
0
0
0
0
0
0
0
0
0
0
0
0
0
0
0
0
0
0
0
0
0
0
0
0
0
0
0
0
0
0
0
0
0
0
0
0
0
0
0
0
0
0
0
0
0
0
0
0
0
0
0
0
0
0
0
0
0
0
0
0
0
0
0
0
0
0
0
0
0
0
0
0
0
0
0
0
0
0
0
0
0
0
0
0
0
0
0
0
0
0
0
0
0
0
0
0
0
0
0
0
0
0
0
0
0
0
0
0
0
0
0
0
0
0
0
0
0
0
0
0
0
0
0
0
0
0
0
0
0
0
0
0
0
0
0
0
0
0
0
0
0
0
0
0
0
0
0
0
0
0
0
0
0
0
0
0
0
0
0
0
0
0
0
0
0
0
0
0
0
0
0
0
0
0
0
0
0
0
0
0
0
0
0
0
0
0
0
0
0
0
0
0
0
0
0
0
0
0
0
0
0
0
0
0
0
0
0
0
0
0
0
0
0
0
0
0
0
0
0
0
0
0
0
0
0
0
0
0
0
0
0
0
0
0
0
0
0
0
0
0
0
0
0
0
0
0
0
0
0
0
0
0
0
0
0
0
0
0
0
0
0
0
0
0
0
0
0
0
0
0
0
0
0
0
0
0
0
0
0
0
0
0
0
0
0
0
0
0
0
0
0
0
0
0
0
0
0
0
0
0
0
0
0
0
0
0
0
0
0
0
0
0
0
0
SCALARS gas_H2_mole_fraction double 1
LOOKUP_TABLE default
0.972894220422
0.972889855353
0.972882583777
0.972875353594
0.972872079241
0.972875353594
0.972882583777
0.972889855353
0.972894220422
0.972889855353
0.972883998653
0.972873728903
0.972862551966
0.972856673542
0.972862551966
0.972873728903
0.972883998653
0.972889855353
0.972882583777
0.972873728903
0.972856859368
0.972835403436
0.97282031669
0.972835403436
0.972856859368
0.972873728903
0.972882583777
0.972875353594
0.972862551966
0.972835403436
0.972792116717
0.972742211972
0.972792116717
0.972835403436
0.972862551966
0.972875353594
0.972872079241
0.972856673542
0.97282031669
0.972742211972
0.972529597442
0.972742211972
0.97282031669
0.972856673542
0.972872079241
0.972875353594
0.972862551966
0.972835403436
0.972792116717
0.972742211972
0.972792116717
0.972835403436
0.972862551966
0.972875353594
0.972882583777
0.972873728903
0.972856859368
0.972835403436
0.97282031669
0.972835403436
0.972856859368
0.972873728903
0.972882583777
0.972889855353
0.972883998653
0.972873728903
0.972862551966
0.972856673542
0.972862551966
0.972873728903
0.972883998653
0.972889855353
0.972894220422
0.972889855353
0.972882583777
0.972875353594
0.972872079241
0.972875353594
0.972882583777
0.972889855353
0.972894220422
0.972894697185
0.972890332246
0.972883062084
0.972875831625
0.972872557713
0.972875831625
0.972883062084
0.972890332246
0.972894697185
0.972890332246
0.972884476043
0.972874207732
0.972863032154
0.972857155131
0.972863032154
0.972874207732
0.972884476043
0.972890332246
0.972883062084
0.972874207732
0.972857340214
0.972835888997
0.972820824991
0.972835888997
0.972857340214
0.972874207732
0.972883062084
0.972875831625
0.972863032154
0.972835888997
0.972792650975
0.972743035734
0.972792650975
0.972835888997
0.972863032154
0.972875831625
0.972872557713
0.972857155131
0.972820824991
0.972743035734
0.972511577072
0.972743035734
0.972820824991
0.972857155131
0.972872557713
0.972875831625
0.972863032154
0.972835888997
0.972792650975
0.972743035734
0.972792650975
0.972835888997
0.972863032154
0.972875831625
0.972883062084
0.972874207732
0.972857340214
0.972835888997
0.972820824991
0.972835888997
0.972857340214
0.972874207732
0.972883062084
0.972890332246
0.972884476043
0.972874207732
0.972863032154
0.972857155131
0.972863032154
0.972874207732
0.972884476043
0.972890332246
0.972894697185
0.972890332246
0.972883062084
0.972875831625
0.972872557713
0.972875831625
0.972883062084
0.972890332246
0.972894697185
0.972895310944
0.972890946642
0.972883677607
0.972876447965
0.972873174477
0.972876447965
0.972883677607
0.972890946642
0.972895310944
0.972890946642
0.972885091336
0.972874824186
0.972863650568
0.972857775836
0.972863650568
0.972874824186
0.972885091336
0.972890946642
0.972883677607
0.972874824186
0.972857959506
0.972836517325
0.972821492925
0.972836517325
0.972857959506
0.972874824186
0.972883677607
0.972876447965
0.972863650568
0.972836517325
0.972793365987
0.972744712199
0.972793365987
0.972836517325
0.972863650568
0.972876447965
0.972873174477
0.972857775836
0.972821492925
0.972744712199
0.972554210686
0.972744712199
0.972821492925
0.972857775836
0.972873174477
0.972876447965
0.972863650568
0.972836517325
0.972793365987
0.972744712199
0.972793365987
0.972836517325
0.972863650568
0.972876447965
0.972883677607
0.972874824186
0.972857959506
0.972836517325
0.972821492925
0.972836517325
0.972857959506
0.972874824186
0.972883677607
0.972890946642
0.972885091336
0.972874824186
0.972863650568
0.972857775836
0.972863650568
0.972874824186
0.972885091336
0.972890946642
0.972895310944
0.972890946642
0.972883677607
0.972876447965
0.972873174477
0.972876447965
0.972883677607
0.972890946642
0.972895310944
0.972896068776
0.97289170488
0.972884436794
0.972877208231
0.97287393513
0.972877208231
0.972884436794
0.97289170488
0.972896068776
0.97289170488
0.972885850588
0.972875583562
0.972864411959
0.972858539892
0.972864411959
0.972875583562
0.972885850588
0.97289170488
0.972884436794
0.972875583562
0.972858722083
0.972837289654
0.972822305956
0.972837289654
0.972858722083
0.972875583562
0.972884436794
0.972877208231
0.972864411959
0.972837289654
0.972794228326
0.972746518333
0.972794228326
0.972837289654
0.972864411959
0.972877208231
0.97287393513
0.972858539892
0.972822305956
0.972746518333
0.972580152696
0.972746518333
0.972822305956
0.972858539892
0.97287393513
0.972877208231
0.972864411959
0.972837289654
0.972794228326
0.972746518333
0.972794228326
0.972837289654
0.972864411959
0.972877208231
0.972884436794
0.972875583562
0.972858722083
0.972837289654
0.972822305956
0.972837289654
0.972858722083
0.972875583562
0.972884436794
0.97289170488
0.972885850588
0.972875583562
0.972864411959
0.972858539892
0.972864411959
0.972875583562
0.972885850588
0.97289170488
0.972896068776
0.97289170488
0.972884436794
0.972877208231
0.97287393513
0.972877208231
0.972884436794
0.97289170488
0.972896068776
0.972897254687
0.972892880463
0.972885594005
0.972878368943
0.97287509733
0.972878368943
0.972885594005
0.972892880463
0.972897254687
0.972892880463
0.972887011567
0.972876746402
0.972865567032
0.972859691328
0.972865567032
0.972876746402
0.972887011567
0.972892880463
0.972885594005
0.972876746402
0.972859872641
0.972838419213
0.972823431578
0.972838419213
0.972859872641
0.972876746402
0.972885594005
0.972878368943
0.972865567032
0.972838419213
0.972795393685
0.972748342002
0.972795393685
0.972838419213
0.972865567032
0.972878368943
0.97287509733
0.972859691328
0.972823431578
0.972748342002
0.972596163949
0.972748342002
0.972823431578
0.972859691328
0.97287509733
0.972878368943
0.972865567032
0.972838419213
0.972795393685
0.972748342002
0.972795393685
0.972838419213
0.972865567032
0.972878368943
0.972885594005
0.972876746402
0.972859872641
0.972838419213
0.972823431578
0.972838419213
0.972859872641
0.972876746402
0.972885594005
0.972892880463
0.972887011567
0.972876746402
0.972865567032
0.972859691328
0.972865567032
0.972876746402
0.972887011567
0.972892880463
0.972897254687
0.972892880463
0.972885594005
0.972878368943
0.97287509733
0.972878368943
0.972885594005
0.972892880463
0.972897254687
0
0
0
0
0
0
0
0
0
0
0
0
0
0
0
0
0
0
0
0
0
0
0
0
0
0
0
0
0
0
0
0
0
0
0
0
0
0
0
0
0
0
0
0
0
0
0
0
0
0
0
0
0
0
0
0
0
0
0
0
0
0
0
0
0
0
0
0
0
0
0
0
0
0
0
0
0
0
0
0
0
0
0
0
0
0
0
0
0
0
0
0
0
0
0
0
0
0
0
0
0
0
0
0
0
0
0
0
0
0
0
0
0
0
0
0
0
0
0
0
0
0
0
0
0
0
0
0
0
0
0
0
0
0
0
0
0
0
0
0
0
0
0
0
0
0
0
0
0
0
0
0
0
0
0
0
0
0
0
0
0
0
0
0
0
0
0
0
0
0
0
0
0
0
0
0
0
0
0
0
0
0
0
0
0
0
0
0
0
0
0
0
0
0
0
0
0
0
0
0
0
0
0
0
0
0
0
0
0
0
0
0
0
0
0
0
0
0
0
0
0
0
0
0
0
0
0
0
0
0
0
0
0
0
0
0
0
0
0
0
0
0
0
0
0
0
0
0
0
0
0
0
0
0
0
0
0
0
0
0
0
0
0
0
0
0
0
0
0
0
0
0
0
0
0
0
0
0
0
0
0
0
0
0
0
0
0
0
0
0
0
0
0
0
0
0
0
0
0
0
0
0
0
0
0
0
0
0
0
0
0
0
0
0
0
0
0
0
0
0
0
0
0
0
SCALARS aqueous_H2_mole_fraction double 1
LOOKUP_TABLE default
7.96638316102e-05
7.96135644976e-05
7.95299772245e-05
7.94470307198e-05
7.94095289911e-05
7.94470307198e-05
7.95299772245e-05
7.96135644976e-05
7.96638316102e-05
7.96135644976e-05
7.95462196621e-05
7.94284049893e-05
7.93005745114e-05
7.923350694e-05
7.93005745114e-05
7.94284049893e-05
7.95462196621e-05
7.96135644976e-05
7.95299772245e-05
7.94284049893e-05
7.92355985352e-05
7.89916884535e-05
7.88210604752e-05
7.89916884535e-05
7.92355985352e-05
7.94284049893e-05
7.95299772245e-05
7.94470307198e-05
7.93005745114e-05
7.89916884535e-05
7.85039760606e-05
7.79486412727e-05
7.85039760606e-05
7.89916884535e-05
7.93005745114e-05
7.94470307198e-05
7.94095289911e-05
7.923350694e-05
7.88210604752e-05
7.79486412727e-05
7.56624711627e-05
7.79486412727e-05
7.88210604752e-05
7.923350694e-05
7.94095289911e-05
7.94470307198e-05
7.93005745114e-05
7.89916884535e-05
7.85039760606e-05
7.79486412727e-05
7.85039760606e-05
7.89916884535e-05
7.93005745114e-05
7.94470307198e-05
7.95299772245e-05
7.94284049893e-05
7.92355985352e-05
7.89916884535e-05
7.88210604752e-05
7.89916884535e-05
7.92355985352e-05
7.94284049893e-05
7.95299772245e-05
7.96135644976e-05
7.95462196621e-05
7.94284049893e-05
7.93005745114e-05
7.923350694e-05
7.93005745114e-05
7.94284049893e-05
7.95462196621e-05
7.96135644976e-05
7.96638316102e-05
7.96135644976e-05
7.95299772245e-05
7.94470307198e-05
7.94095289911e-05
7.94470307198e-05
7.95299772245e-05
7.96135644976e-05
7.96638316102e-05
7.96693414644e-05
7.9619072287e-05
7.95354827983e-05
7.94525314898e-05
7.94150285807e-05
7.94525314898e-05
7.95354827983e-05
7.9619072287e-05
7.96693414644e-05
7.9619072287e-05
7.95517259109e-05
7.94339045939e-05
7.93060714315e-05
7.92390121608e-05
7.93060714315e-05
7.94339045939e-05
7.95517259109e-05
7.9619072287e-05
7.95354827983e-05
7.94339045939e-05
7.92410943307e-05
7.8997213746e-05
7.88268109421e-05
7.8997213746e-05
7.92410943307e-05
7.94339045939e-05
7.95354827983e-05
7.94525314898e-05
7.93060714315e-05
7.8997213746e-05
7.85099796245e-05
7.79577577041e-05
7.85099796245e-05
7.8997213746e-05
7.93060714315e-05
7.94525314898e-05
7.94150285807e-05
7.92390121608e-05
7.88268109421e-05
7.79577577041e-05
7.54749379183e-05
7.79577577041e-05
7.88268109421e-05
7.92390121608e-05
7.94150285807e-05
7.94525314898e-05
7.93060714315e-05
7.8997213746e-05
7.85099796245e-05
7.79577577041e-05
7.85099796245e-05
7.8997213746e-05
7.93060714315e-05
7.94525314898e-05
7.95354827983e-05
7.94339045939e-05
7.92410943307e-05
7.8997213746e-05
7.88268109421e-05
7.8997213746e-05
7.92410943307e-05
7.94339045939e-05
7.95354827983e-05
7.9619072287e-05
7.95517259109e-05
7.94339045939e-05
7.93060714315e-05
7.92390121608e-05
7.93060714315e-05
7.94339045939e-05
7.95517259109e-05
7.9619072287e-05
7.96693414644e-05
7.9619072287e-05
7.95354827983e-05
7.94525314898e-05
7.94150285807e-05
7.94525314898e-05
7.95354827983e-05
7.9619072287e-05
7.96693414644e-05
7.96764265404e-05
7.96261555571e-05
7.95425655363e-05
7.94596083983e-05
7.94221046711e-05
7.94596083983e-05
7.95425655363e-05
7.96261555571e-05
7.96764265404e-05
7.96261555571e-05
7.95588094128e-05
7.94409797833e-05
7.93131464196e-05
7.92461032076e-05
7.93131464196e-05
7.94409797833e-05
7.95588094128e-05
7.96261555571e-05
7.95425655363e-05
7.94409797833e-05
7.9248169619e-05
7.90043478384e-05
7.88343624059e-05
7.90043478384e-05
7.9248169619e-05
7.94409797833e-05
7.95425655363e-05
7.94596083983e-05
7.93131464196e-05
7.90043478384e-05
7.85179999997e-05
7.79763134703e-05
7.85179999997e-05
7.90043478384e-05
7.93131464196e-05
7.94596083983e-05
7.94221046711e-05
7.92461032076e-05
7.88343624059e-05
7.79763134703e-05
7.59210586165e-05
7.79763134703e-05
7.88343624059e-05
7.92461032076e-05
7.94221046711e-05
7.94596083983e-05
7.93131464196e-05
7.90043478384e-05
7.85179999997e-05
7.79763134703e-05
7.85179999997e-05
7.90043478384e-05
7.93131464196e-05
7.94596083983e-05
7.95425655363e-05
7.94409797833e-05
7.9248169619e-05
7.90043478384e-05
7.88343624059e-05
7.90043478384e-05
7.9248169619e-05
7.94409797833e-05
7.95425655363e-05
7.96261555571e-05
7.95588094128e-05
7.94409797833e-05
7.93131464196e-05
7.92461032076e-05
7.93131464196e-05
7.94409797833e-05
7.95588094128e-05
7.96261555571e-05
7.96764265404e-05
7.96261555571e-05
7.95425655363e-05
7.94596083983e-05
7.94221046711e-05
7.94596083983e-05
7.95425655363e-05
7.96261555571e-05
7.96764265404e-05
7.96850925402e-05
7.96348198038e-05
7.9551231922e-05
7.94682681079e-05
7.94307636141e-05
7.94682681079e-05
7.9551231922e-05
7.96348198038e-05
7.96850925402e-05
7.96348198038e-05
7.95674765602e-05
7.94496369859e-05
7.93218046533e-05
7.92547788134e-05
7.93218046533e-05
7.94496369859e-05
7.95674765602e-05
7.96348198038e-05
7.9551231922e-05
7.94496369859e-05
7.92568292765e-05
7.90130711439e-05
7.88435251043e-05
7.90130711439e-05
7.92568292765e-05
7.94496369859e-05
7.9551231922e-05
7.94682681079e-05
7.93218046533e-05
7.90130711439e-05
7.8527657977e-05
7.79963323851e-05
7.8527657977e-05
7.90130711439e-05
7.93218046533e-05
7.94682681079e-05
7.94307636141e-05
7.92547788134e-05
7.88435251043e-05
7.79963323851e-05
7.61953575578e-05
7.79963323851e-05
7.88435251043e-05
7.92547788134e-05
7.94307636141e-05
7.94682681079e-05
7.93218046533e-05
7.90130711439e-05
7.8527657977e-05
7.79963323851e-05
7.8527657977e-05
7.90130711439e-05
7.93218046533e-05
7.94682681079e-05
7.9551231922e-05
7.94496369859e-05
7.92568292765e-05
7.90130711439e-05
7.88435251043e-05
7.90130711439e-05
7.92568292765e-05
7.94496369859e-05
7.9551231922e-05
7.96348198038e-05
7.95674765602e-05
7.94496369859e-05
7.93218046533e-05
7.92547788134e-05
7.93218046533e-05
7.94496369859e-05
7.95674765602e-05
7.96348198038e-05
7.96850925402e-05
7.96348198038e-05
7.9551231922e-05
7.94682681079e-05
7.94307636141e-05
7.94682681079e-05
7.9551231922e-05
7.96348198038e-05
7.96850925402e-05
7.96968013763e-05
7.96464562029e-05
7.95627520829e-05
7.94799138733e-05
7.94424693368e-05
7.94799138733e-05
7.95627520829e-05
7.96464562029e-05
7.96968013763e-05
7.96464562029e-05
7.95790221108e-05
7.94613244222e-05
7.93335449013e-05
7.92665429925e-05
7.93335449013e-05
7.94613244222e-05
7.95790221108e-05
7.96464562029e-05
7.95627520829e-05
7.94613244222e-05
7.92685803973e-05
7.90248292395e-05
7.8855403915e-05
7.90248292395e-05
7.92685803973e-05
7.94613244222e-05
7.95627520829e-05
7.94799138733e-05
7.93335449013e-05
7.90248292395e-05
7.85402770682e-05
7.8016717513e-05
7.85402770682e-05
7.90248292395e-05
7.93335449013e-05
7.94799138733e-05
7.94424693368e-05
7.92665429925e-05
7.8855403915e-05
7.8016717513e-05
7.63667685338e-05
7.8016717513e-05
7.8855403915e-05
7.92665429925e-05
7.94424693368e-05
7.94799138733e-05
7.93335449013e-05
7.90248292395e-05
7.85402770682e-05
7.8016717513e-05
7.85402770682e-05
7.90248292395e-05
7.93335449013e-05
7.94799138733e-05
7.95627520829e-05
7.94613244222e-05
7.92685803973e-05
7.90248292395e-05
7.8855403915e-05
7.90248292395e-05
7.92685803973e-05
7.94613244222e-05
7.95627520829e-05
7.96464562029e-05
7.95790221108e-05
7.94613244222e-05
7.93335449013e-05
7.92665429925e-05
7.93335449013e-05
7.94613244222e-05
7.95790221108e-05
7.96464562029e-05
7.96968013763e-05
7.96464562029e-05
7.95627520829e-05
7.94799138733e-05
7.94424693368e-05
7.94799138733e-05
7.95627520829e-05
7.96464562029e-05
7.96968013763e-05
7.77437827075e-05
7.77436666612e-05
7.77434999138e-05
7.7743371768e-05
7.77433441349e-05
7.7743371768e-05
7.77434999138e-05
7.77436666612e-05
7.77437827075e-05
7.77436666612e-05
7.7743531699e-05
7.7743363137e-05
7.77433110778e-05
7.77435082132e-05
7.77433110778e-05
7.7743363137e-05
7.7743531699e-05
7.77436666612e-05
7.77434999138e-05
7.7743363137e-05
7.77432998586e-05
7.77439762472e-05
7.77463986497e-05
7.77439762472e-05
7.77432998586e-05
7.7743363137e-05
7.77434999138e-05
7.7743371768e-05
7.77433110778e-05
7.77439762472e-05
7.77496104314e-05
7.77700403021e-05
7.77496104314e-05
7.77439762472e-05
7.77433110778e-05
7.7743371768e-05
7.77433441349e-05
7.77435082132e-05
7.77463986497e-05
7.77700403021e-05
7.78972587663e-05
7.77700403021e-05
7.77463986497e-05
7.77435082132e-05
7.77433441349e-05
7.7743371768e-05
7.77433110778e-05
7.77439762472e-05
7.77496104314e-05
7.77700403021e-05
7.77496104314e-05
7.77439762472e-05
7.77433110778e-05
7.7743371768e-05
7.77434999138e-05
7.7743363137e-05
7.77432998586e-05
7.77439762472e-05
7.77463986497e-05
7.77439762472e-05
7.77432998586e-05
7.7743363137e-05
7.77434999138e-05
7.77436666612e-05
7.7743531699e-05
7.7743363137e-05
7.77433110778e-05
7.77435082132e-05
7.77433110778e-05
7.7743363137e-05
7.7743531699e-05
7.77436666612e-05
7.77437827075e-05
7.77436666612e-05
7.77434999138e-05
7.7743371768e-05
7.77433441349e-05
7.7743371768e-05
7.77434999138e-05
7.77436666612e-05
7.77437827075e-05
8.37176410294e-05
8.37175641234e-05
8.37174538452e-05
8.37173699487e-05
8.37173536123e-05
8.37173699487e-05
8.37174538452e-05
8.37175641234e-05
8.37176410294e-05
8.37175641234e-05
8.3717475393e-05
8.37173659428e-05
8.37173404999e-05
8.3717487439e-05
8.37173404999e-05
8.37173659428e-05
8.3717475393e-05
8.37175641234e-05
8.37174538452e-05
8.37173659428e-05
8.37173390088e-05
8.37178499591e-05
8.37195634011e-05
8.37178499591e-05
8.37173390088e-05
8.37173659428e-05
8.37174538452e-05
8.37173699487e-05
8.37173404999e-05
8.37178499591e-05
8.37218545124e-05
8.37357245126e-05
8.37218545124e-05
8.37178499591e-05
8.37173404999e-05
8.37173699487e-05
8.37173536123e-05
8.3717487439e-05
8.37195634011e-05
8.37357245126e-05
8.38148263235e-05
8.37357245126e-05
8.37195634011e-05
8.3717487439e-05
8.37173536123e-05
8.37173699487e-05
8.37173404999e-05
8.37178499591e-05
8.37218545124e-05
8.37357245126e-05
8.37218545124e-05
8.37178499591e-05
8.37173404999e-05
8.37173699487e-05
8.37174538452e-05
8.37173659428e-05
8.37173390088e-05
8.37178499591e-05
8.37195634011e-05
8.37178499591e-05
8.37173390088e-05
8.37173659428e-05
8.37174538452e-05
8.37175641234e-05
8.3717475393e-05
8.37173659428e-05
8.37173404999e-05
8.3717487439e-05
8.37173404999e-05
8.37173659428e-05
8.3717475393e-05
8.37175641234e-05
8.37176410294e-05
8.37175641234e-05
8.37174538452e-05
8.37173699487e-05
8.37173536123e-05
8.37173699487e-05
8.37174538452e-05
8.37175641234e-05
8.37176410294e-05
8.9690044925e-05
8.96900065019e-05
8.96899514491e-05
8.96899097929e-05
8.9689902186e-05
8.96899097929e-05
8.96899514491e-05
8.96900065019e-05
8.9690044925e-05
8.96900065019e-05
8.96899623626e-05
8.96899082819e-05
8.96898981467e-05
8.96899761881e-05
8.96898981467e-05
8.96899082819e-05
8.96899623626e-05
8.96900065019e-05
8.96899514491e-05
8.96899082819e-05
8.96898991098e-05
8.96901723241e-05
8.96910577046e-05
8.96901723241e-05
8.96898991098e-05
8.96899082819e-05
8.96899514491e-05
8.96899097929e-05
8.96898981467e-05
8.96901723241e-05
8.9692247266e-05
8.96992406591e-05
8.9692247266e-05
8.96901723241e-05
8.96898981467e-05
8.96899097929e-05
8.9689902186e-05
8.96899761881e-05
8.96910577046e-05
8.96992406591e-05
8.97371301618e-05
8.96992406591e-05
8.96910577046e-05
8.96899761881e-05
8.9689902186e-05
8.96899097929e-05
8.96898981467e-05
8.96901723241e-05
8.9692247266e-05
8.96992406591e-05
8.9692247266e-05
8.96901723241e-05
8.96898981467e-05
8.96899097929e-05
8.96899514491e-05
8.96899082819e-05
8.96898991098e-05
8.96901723241e-05
8.96910577046e-05
8.96901723241e-05
8.96898991098e-05
8.96899082819e-05
8.96899514491e-05
8.96900065019e-05
8.96899623626e-05
8.96899082819e-05
8.96898981467e-05
8.96899761881e-05
8.96898981467e-05
8.96899082819e-05
8.96899623626e-05
8.96900065019e-05
8.9690044925e-05
8.96900065019e-05
8.96899514491e-05
8.96899097929e-05
8.9689902186e-05
8.96899097929e-05
8.96899514491e-05
8.96900065019e-05
8.9690044925e-05
9.56609718548e-05
9.5660971571e-05
9.56609710924e-05
9.56609706095e-05
9.56609703882e-05
9.56609706095e-05
9.56609710924e-05
9.5660971571e-05
9.56609718548e-05
9.5660971571e-05
9.56609711783e-05
9.56609704803e-05
9.56609697097e-05
9.56609693032e-05
9.56609697097e-05
9.56609704803e-05
9.56609711783e-05
9.5660971571e-05
9.56609710924e-05
9.56609704803e-05
9.56609693017e-05
9.56609678001e-05
9.56609667984e-05
9.56609678001e-05
9.56609693017e-05
9.56609704803e-05
9.56609710924e-05
9.56609706095e-05
9.56609697097e-05
9.56609678001e-05
9.56609648799e-05
9.56609622246e-05
9.56609648799e-05
9.56609678001e-05
9.56609697097e-05
9.56609706095e-05
9.56609703882e-05
9.56609693032e-05
9.56609667984e-05
9.56609622246e-05
9.5660956405e-05
9.56609622246e-05
9.56609667984e-05
9.56609693032e-05
9.56609703882e-05
9.56609706095e-05
9.56609697097e-05
9.56609678001e-05
9.56609648799e-05
9.56609622246e-05
9.56609648799e-05
9.56609678001e-05
9.56609697097e-05
9.56609706095e-05
9.56609710924e-05
9.56609704803e-05
9.56609693017e-05
9.56609678001e-05
9.56609667984e-05
9.56609678001e-05
9.56609693017e-05
9.56609704803e-05
9.56609710924e-05
9.5660971571e-05
9.56609711783e-05
9.56609704803e-05
9.56609697097e-05
9.56609693032e-05
9.56609697097e-05
9.56609704803e-05
9.56609711783e-05
9.5660971571e-05
9.56609718548e-05
9.5660971571e-05
9.56609710924e-05
9.56609706095e-05
9.56609703882e-05
9.56609706095e-05
9.56609710924e-05
9.5660971571e-05
9.56609718548e-05
