# vtk DataFile Version 3.0
Hydrogen reservoir; coordinates in metres, z positive down
ASCII
DATASET RECTILINEAR_GRID
DIMENSIONS 22 22 6
X_COORDINATES 22 double
0 47.619047619 95.2380952381 142.857142857 190.476190476 238.095238095 285.714285714 333.333333333 380.952380952 428.571428571 476.19047619 523.80952381 571.428571429 619.047619048 666.666666667 714.285714286 761.904761905 809.523809524 857.142857143 904.761904762 952.380952381 1000
Y_COORDINATES 22 double
0 47.619047619 95.2380952381 142.857142857 190.476190476 238.095238095 285.714285714 333.333333333 380.952380952 428.571428571 476.19047619 523.80952381 571.428571429 619.047619048 666.666666667 714.285714286 761.904761905 809.523809524 857.142857143 904.761904762 952.380952381 1000
Z_COORDINATES 6 double
985 991 997 1003 1009 1015
CELL_DATA 2205
SCALARS pressure_bar double 1
LOOKUP_TABLE default
99.9918115845
99.9918115845
99.9918115845
99.9918115845
99.9918115845
99.9918115845
99.9918115845
99.9918115845
99.9918115845
99.9918115845
99.9918115845
99.9918115845
99.9918115845
99.9918115845
99.9918115845
99.9918115845
99.9918115845
99.9918115845
99.9918115845
99.9918115845
99.9918115845
99.9918115845
99.9918115845
99.9918115845
99.9918115845
99.9918115845
99.9918115845
99.9918115845
99.9918115845
99.9918115845
99.9918115845
99.9918115845
99.9918115845
99.9918115845
99.9918115845
99.9918115845
99.9918115845
99.9918115845
99.9918115845
99.9918115845
99.9918115845
99.9918115845
99.9918115845
99.9918115845
99.9918115845
99.9918115845
99.9918115845
99.9918115845
99.9918115845
99.9918115845
99.9918115845
99.9918115845
99.9918115845
99.9918115845
99.9918115845
99.9918115845
99.9918115845
99.9918115845
99.9918115845
99.9918115845
99.9918115845
99.9918115845
99.9918115845
99.9918115845
99.9918115845
99.9918115845
99.9918115845
99.9918115845
99.9918115845
99.9918115845
99.9918115845
99.9918115845
99.9918115845
99.9918115845
99.9918115845
99.9918115845
99.9918115845
99.9918115845
99.9918115845
99.9918115845
99.9918115845
99.9918115845
99.9918115845
99.9918115845
99.9918115845
99.9918115845
99.9918115845
99.9918115845
99.9918115845
99.9918115845
99.9918115845
99.9918115845
99.9918115845
99.9918115845
99.9918115845
99.9918115845
99.9918115845
99.9918115845
99.9918115845
99.9918115845
99.9918115845
99.9918115845
99.9918115845
99.9918115845
99.9918115845
99.9918115845
99.9918115845
99.9918115845
99.9918115845
99.9918115845
99.9918115845
99.9918115845
99.9918115845
99.9918115845
99.9918115845
99.9918115845
99.9918115845
99.9918115845
99.9918115845
99.9918115845
99.9918115845
99.9918115845
99.9918115845
99.9918115845
99.9918115845
99.9918115845
99.9918115845
99.9918115845
99.9918115845
99.9918115845
99.9918115845
99.9918115845
99.9918115845
99.9918115845
99.9918115845
99.9918115845
99.9918115845
99.9918115845
99.9918115845
99.9918115845
99.9918115845
99.9918115845
99.9918115845
99.9918115845
99.9918115845
99.9918115845
99.9918115845
99.9918115845
99.9918115845
99.9918115845
99.9918115845
99.9918115845
99.9918115845
99.9918115845
99.9918115845
99.9918115845
99.9918115845
99.9918115845
99.9918115845
99.9918115845
99.9918115845
99.9918115845
99.9918115845
99.9918115845
99.9918115845
99.9918115845
99.9918115845
99.9918115845
99.9918115845
99.9918115845
99.9918115845
99.9918115845
99.9918115845
99.9918115845
99.9918115845
99.9918115845
99.9918115845
99.9918115845
99.9918115845
99.9918115845
99.9918115845
99.9918115845
99.9918115845
99.9918115845
99.9918115845
99.9918115845
99.9918115845
99.9918115845
99.9918115845
99.9918115845
99.9918115845
99.9918115845
99.9918115845
99.9918115845
99.9918115845
99.9918115845
99.9918115845
99.9918115845
99.9918115845
99.9918115845
99.9918115845
99.9918115845
99.9918115845
99.9918115845
99.9918115845
99.9918115845
99.9918115845
99.9918115845
99.9918115845
99.9918115845
99.9918115845
99.9918115845
99.9918115845
99.9918115845
99.9918115845
99.9918115845
99.9918115845
99.9918115845
99.9918115845
99.9918115845
99.9918115845
99.9918115845
99.9918115845
99.9918115845
99.9918115845
99.9918115845
99.9918115845
99.9918115845
99.9918115845
99.9918115845
99.9918115845
99.9918115845
99.9918115845
99.9918115845
99.9918115845
99.9918115845
99.9918115845
99.9918115845
99.9918115845
99.9918115845
99.9918115845
99.9918115845
99.9918115845
99.9918115845
99.9918115845
99.9918115845
99.9918115845
99.9918115845
99.9918115845
99.9918115845
99.9918115845
99.9918115845
99.9918115845
99.9918115845
99.9918115845
99.9918115845
99.9918115845
99.9918115845
99.9918115845
99.9918115845
99.9918115845
99.9918115845
99.9918115845
99.9918115845
99.9918115845
99.9918115845
99.9918115845
99.9918115845
99.9918115845
99.9918115845
99.9918115845
99.9918115845
99.9918115845
99.9918115845
99.9918115845
99.9918115845
99.9918115845
99.9918115845
99.9918115845
99.9918115845
99.9918115845
99.9918115845
99.9918115845
99.9918115845
99.9918115845
99.9918115845
99.9918115845
99.9918115845
99.9918115845
99.9918115845
99.9918115845
99.9918115845
99.9918115845
99.9918115845
99.9918115845
99.9918115845
99.9918115845
99.9918115845
99.9918115845
99.9918115845
99.9918115845
99.9918115845
99.9918115845
99.9918115845
99.9918115845
99.9918115845
99.9918115845
99.9918115845
99.9918115845
99.9918115845
99.9918115845
99.9918115845
99.9918115845
99.9918115845
99.9918115845
99.9918115845
99.9918115845
99.9918115845
99.9918115845
99.9918115845
99.9918115845
99.9918115845
99.9918115845
99.9918115845
99.9918115845
99.9918115845
99.9918115845
99.9918115845
99.9918115845
99.9918115845
99.9918115845
99.9918115845
99.9918115845
99.9918115845
99.9918115845
99.9918115845
99.9918115845
99.9918115845
99.9918115845
99.9918115845
99.9918115845
99.9918115845
99.9918115845
99.9918115845
99.9918115845
99.9918115845
99.9918115845
99.9918115845
99.9918115845
99.9918115845
99.9918115845
99.9918115845
99.9918115845
99.9918115845
99.9918115845
99.9918115845
99.9918115845
99.9918115845
99.9918115845
99.9918115845
99.9918115845
99.9918115845
99.9918115845
99.9918115845
99.9918115845
99.9918115845
99.9918115845
99.9918115845
99.9918115845
99.9918115845
99.9918115845
99.9918115845
99.9918115845
99.9918115845
99.9918115845
99.9918115845
99.9918115845
99.9918115845
99.9918115845
99.9918115845
99.9918115845
99.9918115845
99.9918115845
99.9918115845
99.9918115845
99.9918115845
99.9918115845
99.9918115845
99.9918115845
99.9918115845
99.9918115845
99.9918115845
99.9918115845
99.9918115845
99.9918115845
99.9918115845
99.9918115845
99.9918115845
99.9918115845
99.9918115845
99.9918115845
99.9918115845
99.9918115845
99.9918115845
99.9918115845
99.9918115845
99.9918115845
99.9918115845
99.9918115845
99.9918115845
99.9918115845
99.9918115845
99.9918115845
99.9918115845
99.9918115845
99.9918115845
99.9918115845
99.9918115845
99.9918115845
99.9918115845
99.9918115845
99.9918115845
99.9918115845
99.9918115845
99.9918115845
99.9918115845
99.9918115845
99.9918115845
99.9918115845
99.9918115845
99.9918115845
99.9918115845
99.9918115845
99.9918115845
99.9918115845
99.9918115845
99.9918115845
99.9918115845
99.9918115845
99.9918115845
99.9918115845
99.995905713
99.995905713
99.995905713
99.995905713
99.995905713
99.995905713
99.995905713
99.995905713
99.995905713
99.995905713
99.995905713
99.995905713
99.995905713
99.995905713
99.995905713
99.995905713
99.995905713
99.995905713
99.995905713
99.995905713
99.995905713
99.995905713
99.995905713
99.995905713
99.995905713
99.995905713
99.995905713
99.995905713
99.995905713
99.995905713
99.995905713
99.995905713
99.995905713
99.995905713
99.995905713
99.995905713
99.995905713
99.995905713
99.995905713
99.995905713
99.995905713
99.995905713
99.995905713
99.995905713
99.995905713
99.995905713
99.995905713
99.995905713
99.995905713
99.995905713
99.995905713
99.995905713
99.995905713
99.995905713
99.995905713
99.995905713
99.995905713
99.995905713
99.995905713
99.995905713
99.995905713
99.995905713
99.995905713
99.995905713
99.995905713
99.995905713
99.995905713
99.995905713
99.995905713
99.995905713
99.995905713
99.995905713
99.995905713
99.995905713
99.995905713
99.995905713
99.995905713
99.995905713
99.995905713
99.995905713
99.995905713
99.995905713
99.995905713
99.995905713
99.995905713
99.995905713
99.995905713
99.995905713
99.995905713
99.995905713
99.995905713
99.995905713
99.995905713
99.995905713
99.995905713
99.995905713
99.995905713
99.995905713
99.995905713
99.995905713
99.995905713
99.995905713
99.995905713
99.995905713
99.995905713
99.995905713
99.995905713
99.995905713
99.995905713
99.995905713
99.995905713
99.995905713
99.995905713
99.995905713
99.995905713
99.995905713
99.995905713
99.995905713
99.995905713
99.995905713
99.995905713
99.995905713
99.995905713
99.995905713
99.995905713
99.995905713
99.995905713
99.995905713
99.995905713
99.995905713
99.995905713
99.995905713
99.995905713
99.995905713
99.995905713
99.995905713
99.995905713
99.995905713
99.995905713
99.995905713
99.995905713
99.995905713
99.995905713
99.995905713
99.995905713
99.995905713
99.995905713
99.995905713
99.995905713
99.995905713
99.995905713
99.995905713
99.995905713
99.995905713
99.995905713
99.995905713
99.995905713
99.995905713
99.995905713
99.995905713
99.995905713
99.995905713
99.995905713
99.995905713
99.995905713
99.995905713
99.995905713
99.995905713
99.995905713
99.995905713
99.995905713
99.995905713
99.995905713
99.995905713
99.995905713
99.995905713
99.995905713
99.995905713
99.995905713
99.995905713
99.995905713
99.995905713
99.995905713
99.995905713
99.995905713
99.995905713
99.995905713
99.995905713
99.995905713
99.995905713
99.995905713
99.995905713
99.995905713
99.995905713
99.995905713
99.995905713
99.995905713
99.995905713
99.995905713
99.995905713
99.995905713
99.995905713
99.995905713
99.995905713
99.995905713
99.995905713
99.995905713
99.995905713
99.995905713
99.995905713
99.995905713
99.995905713
99.995905713
99.995905713
99.995905713
99.995905713
99.995905713
99.995905713
99.995905713
99.995905713
99.995905713
99.995905713
99.995905713
99.995905713
99.995905713
99.995905713
99.995905713
99.995905713
99.995905713
99.995905713
99.995905713
99.995905713
99.995905713
99.995905713
99.995905713
99.995905713
99.995905713
99.995905713
99.995905713
99.995905713
99.995905713
99.995905713
99.995905713
99.995905713
99.995905713
99.995905713
99.995905713
99.995905713
99.995905713
99.995905713
99.995905713
99.995905713
99.995905713
99.995905713
99.995905713
99.995905713
99.995905713
99.995905713
99.995905713
99.995905713
99.995905713
99.995905713
99.995905713
99.995905713
99.995905713
99.995905713
99.995905713
99.995905713
99.995905713
99.995905713
99.995905713
99.995905713
99.995905713
99.995905713
99.995905713
99.995905713
99.995905713
99.995905713
99.995905713
99.995905713
99.995905713
99.995905713
99.995905713
99.995905713
99.995905713
99.995905713
99.995905713
99.995905713
99.995905713
99.995905713
99.995905713
99.995905713
99.995905713
99.995905713
99.995905713
99.995905713
99.995905713
99.995905713
99.995905713
99.995905713
99.995905713
99.995905713
99.995905713
99.995905713
99.995905713
99.995905713
99.995905713
99.995905713
99.995905713
99.995905713
99.995905713
99.995905713
99.995905713
99.995905713
99.995905713
99.995905713
99.995905713
99.995905713
99.995905713
99.995905713
99.995905713
99.995905713
99.995905713
99.995905713
99.995905713
99.995905713
99.995905713
99.995905713
99.995905713
99.995905713
99.995905713
99.995905713
99.995905713
99.995905713
99.995905713
99.995905713
99.995905713
99.995905713
99.995905713
99.995905713
99.995905713
99.995905713
99.995905713
99.995905713
99.995905713
99.995905713
99.995905713
99.995905713
99.995905713
99.995905713
99.995905713
99.995905713
99.995905713
99.995905713
99.995905713
99.995905713
99.995905713
99.995905713
99.995905713
99.995905713
99.995905713
99.995905713
99.995905713
99.995905713
99.995905713
99.995905713
99.995905713
99.995905713
99.995905713
99.995905713
99.995905713
99.995905713
99.995905713
99.995905713
99.995905713
99.995905713
99.995905713
99.995905713
99.995905713
99.995905713
99.995905713
99.995905713
99.995905713
99.995905713
99.995905713
99.995905713
99.995905713
99.995905713
99.995905713
99.995905713
99.995905713
99.995905713
99.995905713
99.995905713
99.995905713
99.995905713
99.995905713
99.995905713
99.995905713
99.995905713
99.995905713
99.995905713
99.995905713
99.995905713
99.995905713
99.995905713
99.995905713
99.995905713
99.995905713
99.995905713
99.995905713
99.995905713
99.995905713
99.995905713
99.995905713
99.995905713
99.995905713
99.995905713
99.995905713
99.995905713
99.995905713
99.995905713
99.995905713
99.995905713
99.995905713
99.995905713
99.995905713
99.995905713
99.995905713
99.995905713
99.995905713
99.995905713
99.995905713
99.995905713
99.995905713
99.995905713
99.995905713
99.995905713
99.995905713
99.995905713
99.995905713
100
100
100
100
100
100
100
100
100
100
100
100
100
100
100
100
100
100
100
100
100
100
100
100
100
100
100
100
100
100
100
100
100
100
100
100
100
100
100
100
100
100
100
100
100
100
100
100
100
100
100
100
100
100
100
100
100
100
100
100
100
100
100
100
100
100
100
100
100
100
100
100
100
100
100
100
100
100
100
100
100
100
100
100
100
100
100
100
100
100
100
100
100
100
100
100
100
100
100
100
100
100
100
100
100
100
100
100
100
100
100
100
100
100
100
100
100
100
100
100
100
100
100
100
100
100
100
100
100
100
100
100
100
100
100
100
100
100
100
100
100
100
100
100
100
100
100
100
100
100
100
100
100
100
100
100
100
100
100
100
100
100
100
100
100
100
100
100
100
100
100
100
100
100
100
100
100
100
100
100
100
100
100
100
100
100
100
100
100
100
100
100
100
100
100
100
100
100
100
100
100
100
100
100
100
100
100
100
100
100
100
100
100
100
100
100
100
100
100
100
100
100
100
100
100
100
100
100
100
100
100
100
100
100
100
100
100
100
100
100
100
100
100
100
100
100
100
100
100
100
100
100
100
100
100
100
100
100
100
100
100
100
100
100
100
100
100
100
100
100
100
100
100
100
100
100
100
100
100
100
100
100
100
100
100
100
100
100
100
100
100
100
100
100
100
100
100
100
100
100
100
100
100
100
100
100
100
100
100
100
100
100
100
100
100
100
100
100
100
100
100
100
100
100
100
100
100
100
100
100
100
100
100
100
100
100
100
100
100
100
100
100
100
100
100
100
100
100
100
100
100
100
100
100
100
100
100
100
100
100
100
100
100
100
100
100
100
100
100
100
100
100
100
100
100
100
100
100
100
100
100
100
100
100
100
100
100
100
100
100
100
100
100
100
100
100
100
100
100
100
100
100
100
100
100
100
100
100
100
100
100
100
100
100
100
100
100
100
100
100
100
100
100
100
100
100
100
100
100
100
100
100
100
100
100
100
100
100
100
100
100
100.004094446
100.004094446
100.004094446
100.004094446
100.004094446
100.004094446
100.004094446
100.004094446
100.004094446
100.004094446
100.004094446
100.004094446
100.004094446
100.004094446
100.004094446
100.004094446
100.004094446
100.004094446
100.004094446
100.004094446
100.004094446
100.004094446
100.004094446
100.004094446
100.004094446
100.004094446
100.004094446
100.004094446
100.004094446
100.004094446
100.004094446
100.004094446
100.004094446
100.004094446
100.004094446
100.004094446
100.004094446
100.004094446
100.004094446
100.004094446
100.004094446
100.004094446
100.004094446
100.004094446
100.004094446
100.004094446
100.004094446
100.004094446
100.004094446
100.004094446
100.004094446
100.004094446
100.004094446
100.004094446
100.004094446
100.004094446
100.004094446
100.004094446
100.004094446
100.004094446
100.004094446
100.004094446
100.004094446
100.004094446
100.004094446
100.004094446
100.004094446
100.004094446
100.004094446
100.004094446
100.004094446
100.004094446
100.004094446
100.004094446
100.004094446
100.004094446
100.004094446
100.004094446
100.004094446
100.004094446
100.004094446
100.004094446
100.004094446
100.004094446
100.004094446
100.004094446
100.004094446
100.004094446
100.004094446
100.004094446
100.004094446
100.004094446
100.004094446
100.004094446
100.004094446
100.004094446
100.004094446
100.004094446
100.004094446
100.004094446
100.004094446
100.004094446
100.004094446
100.004094446
100.004094446
100.004094446
100.004094446
100.004094446
100.004094446
100.004094446
100.004094446
100.004094446
100.004094446
100.004094446
100.004094446
100.004094446
100.004094446
100.004094446
100.004094446
100.004094446
100.004094446
100.004094446
100.004094446
100.004094446
100.004094446
100.004094446
100.004094446
100.004094446
100.004094446
100.004094446
100.004094446
100.004094446
100.004094446
100.004094446
100.004094446
100.004094446
100.004094446
100.004094446
100.004094446
100.004094446
100.004094446
100.004094446
100.004094446
100.004094446
100.004094446
100.004094446
100.004094446
100.004094446
100.004094446
100.004094446
100.004094446
100.004094446
100.004094446
100.004094446
100.004094446
100.004094446
100.004094446
100.004094446
100.004094446
100.004094446
100.004094446
100.004094446
100.004094446
100.004094446
100.004094446
100.004094446
100.004094446
100.004094446
100.004094446
100.004094446
100.004094446
100.004094446
100.004094446
100.004094446
100.004094446
100.004094446
100.004094446
100.004094446
100.004094446
100.004094446
100.004094446
100.004094446
100.004094446
100.004094446
100.004094446
100.004094446
100.004094446
100.004094446
100.004094446
100.004094446
100.004094446
100.004094446
100.004094446
100.004094446
100.004094446
100.004094446
100.004094446
100.004094446
100.004094446
100.004094446
100.004094446
100.004094446
100.004094446
100.004094446
100.004094446
100.004094446
100.004094446
100.004094446
100.004094446
100.004094446
100.004094446
100.004094446
100.004094446
100.004094446
100.004094446
100.004094446
100.004094446
100.004094446
100.004094446
100.004094446
100.004094446
100.004094446
100.004094446
100.004094446
100.004094446
100.004094446
100.004094446
100.004094446
100.004094446
100.004094446
100.004094446
100.004094446
100.004094446
100.004094446
100.004094446
100.004094446
100.004094446
100.004094446
100.004094446
100.004094446
100.004094446
100.004094446
100.004094446
100.004094446
100.004094446
100.004094446
100.004094446
100.004094446
100.004094446
100.004094446
100.004094446
100.004094446
100.004094446
100.004094446
100.004094446
100.004094446
100.004094446
100.004094446
100.004094446
100.004094446
100.004094446
100.004094446
100.004094446
100.004094446
100.004094446
100.004094446
100.004094446
100.004094446
100.004094446
100.004094446
100.004094446
100.004094446
100.004094446
100.004094446
100.004094446
100.004094446
100.004094446
100.004094446
100.004094446
100.004094446
100.004094446
100.004094446
100.004094446
100.004094446
100.004094446
100.004094446
100.004094446
100.004094446
100.004094446
100.004094446
100.004094446
100.004094446
100.004094446
100.004094446
100.004094446
100.004094446
100.004094446
100.004094446
100.004094446
100.004094446
100.004094446
100.004094446
100.004094446
100.004094446
100.004094446
100.004094446
100.004094446
100.004094446
100.004094446
100.004094446
100.004094446
100.004094446
100.004094446
100.004094446
100.004094446
100.004094446
100.004094446
100.004094446
100.004094446
100.004094446
100.004094446
100.004094446
100.004094446
100.004094446
100.004094446
100.004094446
100.004094446
100.004094446
100.004094446
100.004094446
100.004094446
100.004094446
100.004094446
100.004094446
100.004094446
100.004094446
100.004094446
100.004094446
100.004094446
100.004094446
100.004094446
100.004094446
100.004094446
100.004094446
100.004094446
100.004094446
100.004094446
100.004094446
100.004094446
100.004094446
100.004094446
100.004094446
100.004094446
100.004094446
100.004094446
100.004094446
100.004094446
100.004094446
100.004094446
100.004094446
100.004094446
100.004094446
100.004094446
100.004094446
100.004094446
100.004094446
100.004094446
100.004094446
100.004094446
100.004094446
100.004094446
100.004094446
100.004094446
100.004094446
100.004094446
100.004094446
100.004094446
100.004094446
100.004094446
100.004094446
100.004094446
100.004094446
100.004094446
100.004094446
100.004094446
100.004094446
100.004094446
100.004094446
100.004094446
100.004094446
100.004094446
100.004094446
100.004094446
100.004094446
100.004094446
100.004094446
100.004094446
100.004094446
100.004094446
100.004094446
100.004094446
100.004094446
100.004094446
100.004094446
100.004094446
100.004094446
100.004094446
100.004094446
100.004094446
100.004094446
100.004094446
100.004094446
100.004094446
100.004094446
100.004094446
100.004094446
100.004094446
100.004094446
100.004094446
100.004094446
100.004094446
100.004094446
100.004094446
100.004094446
100.004094446
100.004094446
100.004094446
100.004094446
100.004094446
100.004094446
100.004094446
100.004094446
100.004094446
100.004094446
100.004094446
100.004094446
100.004094446
100.004094446
100.004094446
100.004094446
100.004094446
100.00818905
100.00818905
100.00818905
100.00818905
100.00818905
100.00818905
100.00818905
100.00818905
100.00818905
100.00818905
100.00818905
100.00818905
100.00818905
100.00818905
100.00818905
100.00818905
100.00818905
100.00818905
100.00818905
100.00818905
100.00818905
100.00818905
100.00818905
100.00818905
100.00818905
100.00818905
100.00818905
100.00818905
100.00818905
100.00818905
100.00818905
100.00818905
100.00818905
100.00818905
100.00818905
100.00818905
100.00818905
100.00818905
100.00818905
100.00818905
100.00818905
100.00818905
100.00818905
100.00818905
100.00818905
100.00818905
100.00818905
100.00818905
100.00818905
100.00818905
100.00818905
100.00818905
100.00818905
100.00818905
100.00818905
100.00818905
100.00818905
100.00818905
100.00818905
100.00818905
100.00818905
100.00818905
100.00818905
100.00818905
100.00818905
100.00818905
100.00818905
100.00818905
100.00818905
100.00818905
100.00818905
100.00818905
100.00818905
100.00818905
100.00818905
100.00818905
100.00818905
100.00818905
100.00818905
100.00818905
100.00818905
100.00818905
100.00818905
100.00818905
100.00818905
100.00818905
100.00818905
100.00818905
100.00818905
100.00818905
100.00818905
100.00818905
100.00818905
100.00818905
100.00818905
100.00818905
100.00818905
100.00818905
100.00818905
100.00818905
100.00818905
100.00818905
100.00818905
100.00818905
100.00818905
100.00818905
100.00818905
100.00818905
100.00818905
100.00818905
100.00818905
100.00818905
100.00818905
100.00818905
100.00818905
100.00818905
100.00818905
100.00818905
100.00818905
100.00818905
100.00818905
100.00818905
100.00818905
100.00818905
100.00818905
100.00818905
100.00818905
100.00818905
100.00818905
100.00818905
100.00818905
100.00818905
100.00818905
100.00818905
100.00818905
100.00818905
100.00818905
100.00818905
100.00818905
100.00818905
100.00818905
100.00818905
100.00818905
100.00818905
100.00818905
100.00818905
100.00818905
100.00818905
100.00818905
100.00818905
100.00818905
100.00818905
100.00818905
100.00818905
100.00818905
100.00818905
100.00818905
100.00818905
100.00818905
100.00818905
100.00818905
100.00818905
100.00818905
100.00818905
100.00818905
100.00818905
100.00818905
100.00818905
100.00818905
100.00818905
100.00818905
100.00818905
100.00818905
100.00818905
100.00818905
100.00818905
100.00818905
100.00818905
100.00818905
100.00818905
100.00818905
100.00818905
100.00818905
100.00818905
100.00818905
100.00818905
100.00818905
100.00818905
100.00818905
100.00818905
100.00818905
100.00818905
100.00818905
100.00818905
100.00818905
100.00818905
100.00818905
100.00818905
100.00818905
100.00818905
100.00818905
100.00818905
100.00818905
100.00818905
100.00818905
100.00818905
100.00818905
100.00818905
100.00818905
100.00818905
100.00818905
100.00818905
100.00818905
100.00818905
100.00818905
100.00818905
100.00818905
100.00818905
100.00818905
100.00818905
100.00818905
100.00818905
100.00818905
100.00818905
100.00818905
100.00818905
100.00818905
100.00818905
100.00818905
100.00818905
100.00818905
100.00818905
100.00818905
100.00818905
100.00818905
100.00818905
100.00818905
100.00818905
100.00818905
100.00818905
100.00818905
100.00818905
100.00818905
100.00818905
100.00818905
100.00818905
100.00818905
100.00818905
100.00818905
100.00818905
100.00818905
100.00818905
100.00818905
100.00818905
100.00818905
100.00818905
100.00818905
100.00818905
100.00818905
100.00818905
100.00818905
100.00818905
100.00818905
100.00818905
100.00818905
100.00818905
100.00818905
100.00818905
100.00818905
100.00818905
100.00818905
100.00818905
100.00818905
100.00818905
100.00818905
100.00818905
100.00818905
100.00818905
100.00818905
100.00818905
100.00818905
100.00818905
100.00818905
100.00818905
100.00818905
100.00818905
100.00818905
100.00818905
100.00818905
100.00818905
100.00818905
100.00818905
100.00818905
100.00818905
100.00818905
100.00818905
100.00818905
100.00818905
100.00818905
100.00818905
100.00818905
100.00818905
100.00818905
100.00818905
100.00818905
100.00818905
100.00818905
100.00818905
100.00818905
100.00818905
100.00818905
100.00818905
100.00818905
100.00818905
100.00818905
100.00818905
100.00818905
100.00818905
100.00818905
100.00818905
100.00818905
100.00818905
100.00818905
100.00818905
100.00818905
100.00818905
100.00818905
100.00818905
100.00818905
100.00818905
100.00818905
100.00818905
100.00818905
100.00818905
100.00818905
100.00818905
100.00818905
100.00818905
100.00818905
100.00818905
100.00818905
100.00818905
100.00818905
100.00818905
100.00818905
100.00818905
100.00818905
100.00818905
100.00818905
100.00818905
100.00818905
100.00818905
100.00818905
100.00818905
100.00818905
100.00818905
100.00818905
100.00818905
100.00818905
100.00818905
100.00818905
100.00818905
100.00818905
100.00818905
100.00818905
100.00818905
100.00818905
100.00818905
100.00818905
100.00818905
100.00818905
100.00818905
100.00818905
100.00818905
100.00818905
100.00818905
100.00818905
100.00818905
100.00818905
100.00818905
100.00818905
100.00818905
100.00818905
100.00818905
100.00818905
100.00818905
100.00818905
100.00818905
100.00818905
100.00818905
100.00818905
100.00818905
100.00818905
100.00818905
100.00818905
100.00818905
100.00818905
100.00818905
100.00818905
100.00818905
100.00818905
100.00818905
100.00818905
100.00818905
100.00818905
100.00818905
100.00818905
100.00818905
100.00818905
100.00818905
100.00818905
100.00818905
100.00818905
100.00818905
100.00818905
100.00818905
100.00818905
100.00818905
100.00818905
100.00818905
100.00818905
100.00818905
100.00818905
100.00818905
100.00818905
100.00818905
100.00818905
100.00818905
100.00818905
100.00818905
100.00818905
100.00818905
100.00818905
100.00818905
100.00818905
100.00818905
100.00818905
100.00818905
100.00818905
100.00818905
100.00818905
SCALARS gas_saturation double 1
LOOKUP_TABLE default
0.8
0.8
0.8
0.8
0.8
0.8
0.8
0.8
0.8
0.8
0.8
0.8
0.8
0.8
0.8
0.8
0.8
0.8
0.8
0.8
0.8
0.8
0.8
0.8
0.8
0.8
0.8
0.8
0.8
0.8
0.8
0.8
0.8
0.8
0.8
0.8
0.8
0.8
0.8
0.8
0.8
0.8
0.8
0.8
0.8
0.8
0.8
0.8
0.8
0.8
0.8
0.8
0.8
0.8
0.8
0.8
0.8
0.8
0.8
0.8
0.8
0.8
0.8
0.8
0.8
0.8
0.8
0.8
0.8
0.8
0.8
0.8
0.8
0.8
0.8
0.8
0.8
0.8
0.8
0.8
0.8
0.8
0.8
0.8
0.8
0.8
0.8
0.8
0.8
0.8
0.8
0.8
0.8
0.8
0.8
0.8
0.8
0.8
0.8
0.8
0.8
0.8
0.8
0.8
0.8
0.8
0.8
0.8
0.8
0.8
0.8
0.8
0.8
0.8
0.8
0.8
0.8
0.8
0.8
0.8
0.8
0.8
0.8
0.8
0.8
0.8
0.8
0.8
0.8
0.8
0.8
0.8
0.8
0.8
0.8
0.8
0.8
0.8
0.8
0.8
0.8
0.8
0.8
0.8
0.8
0.8
0.8
0.8
0.8
0.8
0.8
0.8
0.8
0.8
0.8
0.8
0.8
0.8
0.8
0.8
0.8
0.8
0.8
0.8
0.8
0.8
0.8
0.8
0.8
0.8
0.8
0.8
0.8
0.8
0.8
0.8
0.8
0.8
0.8
0.8
0.8
0.8
0.8
0.8
0.8
0.8
0.8
0.8
0.8
0.8
0.8
0.8
0.8
0.8
0.8
0.8
0.8
0.8
0.8
0.8
0.8
0.8
0.8
0.8
0.8
0.8
0.8
0.8
0.8
0.8
0.8
0.8
0.8
0.8
0.8
0.8
0.8
0.8
0.8
0.8
0.8
0.8
0.8
0.8
0.8
0.8
0.8
0.8
0.8
0.8
0.8
0.8
0.8
0.8
0.8
0.8
0.8
0.8
0.8
0.8
0.8
0.8
0.8
0.8
0.8
0.8
0.8
0.8
0.8
0.8
0.8
0.8
0.8
0.8
0.8
0.8
0.8
0.8
0.8
0.8
0.8
0.8
0.8
0.8
0.8
0.8
0.8
0.8
0.8
0.8
0.8
0.8
0.8
0.8
0.8
0.8
0.8
0.8
0.8
0.8
0.8
0.8
0.8
0.8
0.8
0.8
0.8
0.8
0.8
0.8
0.8
0.8
0.8
0.8
0.8
0.8
0.8
0.8
0.8
0.8
0.8
0.8
0.8
0.8
0.8
0.8
0.8
0.8
0.8
0.8
0.8
0.8
0.8
0.8
0.8
0.8
0.8
0.8
0.8
0.8
0.8
0.8
0.8
0.8
0.8
0.8
0.8
0.8
0.8
0.8
0.8
0.8
0.8
0.8
0.8
0.8
0.8
0.8
0.8
0.8
0.8
0.8
0.8
0.8
0.8
0.8
0.8
0.8
0.8
0.8
0.8
0.8
0.8
0.8
0.8
0.8
0.8
0.8
0.8
0.8
0.8
0.8
0.8
0.8
0.8
0.8
0.8
0.8
0.8
0.8
0.8
0.8
0.8
0.8
0.8
0.8
0.8
0.8
0.8
0.8
0.8
0.8
0.8
0.8
0.8
0.8
0.8
0.8
0.8
0.8
0.8
0.8
0.8
0.8
0.8
0.8
0.8
0.8
0.8
0.8
0.8
0.8
0.8
0.8
0.8
0.8
0.8
0.8
0.8
0.8
0.8
0.8
0.8
0.8
0.8
0.8
0.8
0.8
0.8
0.8
0.8
0.8
0.8
0.8
0.8
0.8
0.8
0.8
0.8
0.8
0.8
0.8
0.8
0.8
0.8
0.8
0.8
0.8
0.8
0.8
0.8
0.8
0.8
0.8
0.8
0.8
0.8
0.8
0.8
0.8
0.8
0.8
0.8
0.8
0.8
0.8
0.8
0.8
0.8
0.8
0.8
0.8
0.8
0.8
0.8
0.8
0.8
0.8
0.8
0.8
0.8
0.8
0.8
0.8
0.8
0.8
0.8
0.8
0.8
0.8
0.8
0.8
0.8
0.8
0.8
0.8
0.8
0.8
0.8
0.8
0.8
0.8
0.8
0.8
0.8
0.8
0.8
0.8
0.8
0.8
0.8
0.8
0.8
0.8
0.8
0.8
0.8
0.8
0.8
0.8
0.8
0.8
0.8
0.8
0.8
0.8
0.8
0.8
0.8
0.8
0.8
0.8
0.8
0.8
0.8
0.8
0.8
0.8
0.8
0.8
0.8
0.8
0.8
0.8
0.8
0.8
0.8
0.8
0.8
0.8
0.8
0.8
0.8
0.8
0.8
0.8
0.8
0.8
0.8
0.8
0.8
0.8
0.8
0.8
0.8
0.8
0.8
0.8
0.8
0.8
0.8
0.8
0.8
0.8
0.8
0.8
0.8
0.8
0.8
0.8
0.8
0.8
0.8
0.8
0.8
0.8
0.8
0.8
0.8
0.8
0.8
0.8
0.8
0.8
0.8
0.8
0.8
0.8
0.8
0.8
0.8
0.8
0.8
0.8
0.8
0.8
0.8
0.8
0.8
0.8
0.8
0.8
0.8
0.8
0.8
0.8
0.8
0.8
0.8
0.8
0.8
0.8
0.8
0.8
0.8
0.8
0.8
0.8
0.8
0.8
0.8
0.8
0.8
0.8
0.8
0.8
0.8
0.8
0.8
0.8
0.8
0.8
0.8
0.8
0.8
0.8
0.8
0.8
0.8
0.8
0.8
0.8
0.8
0.8
0.8
0.8
0.8
0.8
0.8
0.8
0.8
0.8
0.8
0.8
0.8
0.8
0.8
0.8
0.8
0.8
0.8
0.8
0.8
0.8
0.8
0.8
0.8
0.8
0.8
0.8
0.8
0.8
0.8
0.8
0.8
0.8
0.8
0.8
0.8
0.8
0.8
0.8
0.8
0.8
0.8
0.8
0.8
0.8
0.8
0.8
0.8
0.8
0.8
0.8
0.8
0.8
0.8
0.8
0.8
0.8
0.8
0.8
0.8
0.8
0.8
0.8
0.8
0.8
0.8
0.8
0.8
0.8
0.8
0.8
0.8
0.8
0.8
0.8
0.8
0.8
0.8
0.8
0.8
0.8
0.8
0.8
0.8
0.8
0.8
0.8
0.8
0.8
0.8
0.8
0.8
0.8
0.8
0.8
0.8
0.8
0.8
0.8
0.8
0.8
0.8
0.8
0.8
0.8
0.8
0.8
0.8
0.8
0.8
0.8
0.8
0.8
0.8
0.8
0.8
0.8
0.8
0.8
0.8
0.8
0.8
0.8
0.8
0.8
0.8
0.8
0.8
0.8
0.8
0.8
0.8
0.8
0.8
0.8
0.8
0.8
0.8
0.8
0.8
0.8
0.8
0.8
0.8
0.8
0.8
0.8
0.8
0.8
0.8
0.8
0.8
0.8
0.8
0.8
0.8
0.8
0.8
0.8
0.8
0.8
0.8
0.8
0.8
0.8
0.8
0.8
0.8
0.8
0.8
0.8
0.8
0.8
0.8
0.8
0.8
0.8
0.8
0.8
0.8
0.8
0.8
0.8
0.8
0.8
0.8
0.8
0.8
0.8
0.8
0.8
0.8
0.8
0.8
0.8
0.8
0.8
0.8
0.8
0.8
0.8
0.8
0.8
0.8
0.8
0.8
0.8
0.8
0.8
0.8
0.8
0.8
0.8
0.8
0.8
0.8
0.8
0.8
0.8
0.8
0.8
0.8
0.8
0.8
0.8
0.8
0.8
0.8
0.8
0.8
0.8
0.8
0.8
0.8
0.8
0.8
0.8
0.8
0.8
0.8
0.8
0.8
0.8
0.8
0.8
0.8
0.8
0.8
0.8
0.8
0.8
0.8
0.8
0.8
0.8
0.8
0.8
0.8
0.8
0.8
0.8
0.8
0.8
0.8
0.8
0.8
0.8
0.8
0.8
0.8
0.8
0.8
0.8
0.8
0.8
0.8
0.8
0.8
0.8
0.8
0.8
0.8
0.8
0.8
0.8
0.8
0.8
0.8
0.8
0.8
0.8
0.8
0.8
0.8
0.8
0.8
0.8
0.8
0.8
0.8
0.8
0.8
0.8
0.8
0.8
0.8
0.8
0.8
0.8
0.8
0.8
0.8
0.8
0.8
0.8
0.8
0.8
0.8
0.8
0.8
0.8
0.8
0.8
0.8
0.8
0.8
0.8
0.8
0.8
0.8
0.8
0.8
0.8
0.8
0.8
0.8
0.8
0.8
0.8
0.8
0.8
0.8
0.8
0.8
0.8
0.8
0.8
0.8
0.8
0.8
0.8
0.8
0.8
0.8
0.8
0.8
0.8
0.8
0.8
0.8
0.8
0.8
0.8
0.8
0.8
0.8
0.8
0.8
0.8
0.8
0.8
0.8
0.8
0.8
0.8
0.8
0.8
0.8
0.8
0.8
0.8
0.8
0.8
0.8
0.8
0.8
0.8
0.8
0.8
0.8
0.8
0.8
0.8
0.8
0.8
0.8
0.8
0.8
0.8
0.8
0.8
0.8
0.8
0.8
0.8
0.8
0.8
0.8
0.8
0.8
0.8
0.8
0.8
0.8
0.8
0.8
0.8
0.8
0.8
0.8
0.8
0.8
0.8
0.8
0.8
0.8
0.8
0.8
0.8
0.8
0.8
0.8
0.8
0.8
0.8
0.8
0.8
0.8
0.8
0.8
0.8
0.8
0.8
0.8
0.8
0.8
0.8
0.8
0.8
0.8
0.8
0.8
0.8
0.8
0.8
0.8
0.8
0.8
0.8
0.8
0.8
0.8
0.8
0.8
0.8
0.8
0.8
0.8
0.8
0.8
0.8
0.8
0.8
0.8
0.8
0.8
0.8
0.8
0.8
0.8
0.8
0.8
0.8
0.8
0.8
0.8
0.8
0.8
0.8
0.8
0.8
0.8
0.8
0.8
0.8
0.8
0.8
0.8
0.8
0.8
0.8
0.8
0.8
0.8
0.8
0.8
0.8
0.8
0.8
0.8
0.8
0.8
0.8
0.8
0.8
0.8
0.8
0.8
0.8
0.8
0.8
0.8
0.8
0.8
0.8
0.8
0.8
0.8
0.8
0.8
0.8
0.8
0.8
0.8
0.8
0.8
0.8
0.8
0.8
0.8
0.8
0.8
0.8
0.8
0.8
0.8
0.8
0.8
0.8
0.8
0.8
0.8
0.8
0.8
0.8
0.8
0.8
0.8
0.8
0.8
0.8
0.8
0.8
0.8
0.8
0.8
0.8
0.8
0.8
0.8
0.8
0.8
0.8
0.8
0.8
0.8
0.8
0.8
0.8
0.8
0.8
0.8
0.8
0.8
0.8
0.8
0.8
0.8
0.8
0.8
0.8
0.8
0.8
0.8
0.8
0.8
0.8
0.8
0.8
0.8
0.8
0.8
0.8
0.8
0.8
0.8
0.8
0.8
0.8
0.8
0.8
0.8
0.8
0.8
0.8
0.8
0.8
0.8
0.8
0.8
0.8
0.8
0.8
0.8
0.8
0.8
0.8
0.8
0.8
0.8
0.8
0.8
0.8
0.8
0.8
0.8
0.8
0.8
0.8
0.8
0.8
0.8
0.8
0.8
0.8
0.8
0.8
0.8
0.8
0.8
0.8
0.8
0.8
0.8
0.8
0.8
0.8
0.8
0.8
0.8
0.8
0.8
0.8
0.8
0.8
0.8
0.8
0.8
0.8
0.8
0.8
0.8
0.8
0.8
0.8
0.8
0.8
0.8
0.8
0.8
0.8
0.8
0.8
0.8
0.8
0.8
0.8
0.8
0.8
0.8
0.8
0.8
0.8
0.8
0.8
0.8
0.8
0.8
0.8
0.8
0.8
0.8
0.8
0.8
0.8
0.8
0.8
0.8
0.8
0.8
0.8
0.8
0.8
0.8
0.8
0.8
0.8
0.8
0.8
0.8
0.8
0.8
0.8
0.8
0.8
0.8
0.8
0.8
0.8
0.8
0.8
0.8
0.8
0.8
0.8
0.8
0.8
0.8
0.8
0.8
0.8
0.8
0.8
0.8
0.8
0.8
0.8
0.8
0.8
0.8
0.8
0.8
0.8
0.8
0.8
0.8
0.8
0.8
0.8
0.8
0.8
0.8
0.8
0.8
0.8
0.8
0.8
0.8
0.8
0.8
0.8
0.8
0.8
0.8
0.8
0.8
0.8
0.8
0.8
0.8
0.8
0.8
0.8
0.8
0.8
0.8
0.8
0.8
0.8
0.8
0.8
0.8
0.8
0.8
0.8
0.8
0.8
0.8
0.8
0.8
0.8
0.8
0.8
0.8
0.8
0.8
0.8
0.8
0.8
0.8
0.8
0.8
0.8
0.8
0.8
0.8
0.8
0.8
0.8
0.8
0.8
0.8
0.8
0.8
0.8
0.8
0.8
0.8
0.8
0.8
0.8
0.8
0.8
0.8
0.8
0.8
0.8
0.8
0.8
0.8
0.8
0.8
0.8
0.8
0.8
0.8
0.8
0.8
0.8
0.8
0.8
0.8
0.8
0.8
0.8
0.8
0.8
0.8
0.8
0.8
0.8
0.8
0.8
0.8
0.8
0.8
0.8
0.8
0.8
0.8
0.8
0.8
0.8
0.8
0.8
0.8
0.8
0.8
0.8
0.8
0.8
0.8
0.8
0.8
0.8
0.8
0.8
0.8
0.8
0.8
0.8
0.8
0.8
0.8
0.8
0.8
0.8
0.8
0.8
0.8
0.8
0.8
0.8
0.8
0.8
0.8
0.8
0.8
0.8
0.8
0.8
0.8
0.8
0.8
0.8
0.8
0.8
0.8
0.8
0.8
0.8
0.8
0.8
0.8
0.8
0.8
0.8
0.8
0.8
0.8
0.8
0.8
0.8
0.8
0.8
0.8
0.8
0.8
0.8
0.8
0.8
0.8
0.8
0.8
0.8
0.8
0.8
0.8
0.8
0.8
0.8
0.8
0.8
0.8
0.8
0.8
0.8
0.8
0.8
0.8
0.8
0.8
0.8
0.8
0.8
0.8
0.8
0.8
0.8
0.8
0.8
0.8
0.8
0.8
0.8
0.8
0.8
0.8
0.8
0.8
0.8
0.8
0.8
0.8
0.8
0.8
0.8
0.8
0.8
0.8
0.8
0.8
0.8
0.8
0.8
0.8
0.8
0.8
0.8
0.8
0.8
0.8
0.8
0.8
0.8
0.8
0.8
0.8
0.8
0.8
0.8
0.8
0.8
0.8
0.8
0.8
0.8
0.8
0.8
0.8
0.8
0.8
0.8
0.8
0.8
0.8
0.8
0.8
0.8
0.8
0.8
0.8
0.8
0.8
0.8
0.8
0.8
0.8
0.8
0.8
0.8
0.8
0.8
0.8
0.8
0.8
0.8
0.8
0.8
0.8
0.8
0.8
0.8
0.8
0.8
0.8
0.8
0.8
0.8
0.8
0.8
0.8
0.8
0.8
0.8
0.8
0.8
0.8
0.8
0.8
0.8
0.8
0.8
0.8
0.8
0.8
0.8
0.8
0.8
0.8
0.8
0.8
0.8
0.8
0.8
0.8
0.8
0.8
0.8
0.8
0.8
0.8
0.8
0.8
0.8
0.8
0.8
0.8
0.8
0.8
0.8
0.8
0.8
0.8
0.8
0.8
0.8
0.8
0.8
0.8
0.8
0.8
0.8
0.8
0.8
0.8
0.8
0.8
0.8
0.8
0.8
0.8
0.8
0.8
0.8
0.8
0.8
0.8
0.8
0.8
0.8
0.8
0.8
0.8
0.8
0.8
0.8
0.8
0.8
0.8
0.8
0.8
0.8
0.8
0.8
0.8
0.8
0.8
0.8
0.8
0.8
0.8
0.8
0.8
0.8
0.8
0.8
0.8
0.8
0.8
0.8
0.8
0.8
0.8
0.8
0.8
0.8
0.8
0.8
0.8
0.8
0.8
0.8
0.8
0.8
0.8
0.8
0.8
0.8
0.8
0.8
0.8
0.8
0.8
0.8
0.8
0.8
0.8
0.8
0.8
0.8
0.8
0.8
0.8
0.8
0.8
0.8
0.8
0.8
0.8
0.8
0.8
0.8
0.8
0.8
0.8
0.8
0.8
0.8
0.8
0.8
0.8
0.8
0.8
0.8
0.8
0.8
0.8
0.8
0.8
0.8
0.8
0.8
0.8
0.8
0.8
0.8
0.8
0.8
0.8
0.8
0.8
0.8
0.8
0.8
0.8
0.8
0.8
0.8
0.8
0.8
0.8
0.8
0.8
0.8
0.8
0.8
0.8
0.8
0.8
0.8
0.8
0.8
0.8
0.8
0.8
0.8
0.8
0.8
0.8
0.8
0.8
0.8
0.8
0.8
0.8
0.8
0.8
0.8
0.8
0.8
0.8
0.8
0.8
0.8
0.8
0.8
0.8
0.8
0.8
0.8
0.8
0.8
0.8
0.8
0.8
0.8
0.8
0.8
0.8
0.8
0.8
0.8
0.8
0.8
0.8
0.8
0.8
0.8
0.8
0.8
0.8
0.8
0.8
0.8
0.8
0.8
0.8
0.8
0.8
0.8
0.8
0.8
0.8
0.8
0.8
0.8
0.8
0.8
0.8
0.8
0.8
0.8
0.8
0.8
0.8
0.8
0.8
0.8
0.8
0.8
0.8
0.8
0.8
0.8
0.8
0.8
0.8
0.8
0.8
0.8
0.8
0.8
0.8
0.8
0.8
0.8
0.8
0.8
0.8
0.8
0.8
0.8
0.8
0.8
0.8
0.8
0.8
0.8
0.8
0.8
0.8
0.8
0.8
0.8
0.8
0.8
0.8
0.8
0.8
0.8
0.8
0.8
0.8
0.8
0.8
0.8
0.8
0.8
0.8
0.8
0.8
0.8
0.8
0.8
0.8
0.8
0.8
0.8
0.8
0.8
0.8
0.8
0.8
0.8
0.8
0.8
0.8
0.8
0.8
0.8
0.8
0.8
0.8
0.8
0.8
0.8
0.8
0.8
0.8
0.8
0.8
0.8
0.8
0.8
0.8
0.8
0.8
0.8
0.8
0.8
0.8
0.8
0.8
0.8
0.8
0.8
0.8
0.8
0.8
0.8
0.8
0.8
0.8
0.8
0.8
0.8
0.8
0.8
0.8
0.8
0.8
0.8
0.8
0.8
0.8
0.8
0.8
0.8
0.8
0.8
0.8
0.8
0.8
0.8
0.8
0.8
0.8
0.8
0.8
0.8
0.8
0.8
0.8
0.8
0.8
0.8
0.8
0.8
0.8
0.8
0.8
0.8
0.8
0.8
0.8
0.8
0.8
0.8
0.8
0.8
0.8
0.8
0.8
0.8
0.8
0.8
0.8
0.8
0.8
0.8
0.8
0.8
0.8
0.8
0.8
0.8
0.8
0.8
0.8
0.8
0.8
0.8
0.8
0.8
0.8
0.8
0.8
0.8
0.8
0.8
0.8
0.8
0.8
0.8
0.8
0.8
0.8
0.8
0.8
0.8
0.8
0.8
0.8
0.8
0.8
0.8
0.8
0.8
0.8
0.8
0.8
0.8
0.8
0.8
0.8
0.8
0.8
0.8
0.8
0.8
0.8
0.8
0.8
0.8
0.8
0.8
0.8
0.8
0.8
0.8
0.8
0.8
0.8
0.8
0.8
0.8
0.8
0.8
0.8
0.8
0.8
