# vtk DataFile Version 3.0
Hydrogen reservoir; coordinates in metres, z positive down
ASCII
DATASET RECTILINEAR_GRID
DIMENSIONS 22 22 6
X_COORDINATES 22 double
0 47.619047619 95.2380952381 142.857142857 190.476190476 238.095238095 285.714285714 333.333333333 380.952380952 428.571428571 476.19047619 523.80952381 571.428571429 619.047619048 666.666666667 714.285714286 761.904761905 809.523809524 857.142857143 904.761904762 952.380952381 1000
Y_COORDINATES 22 double
0 47.619047619 95.2380952381 142.857142857 190.476190476 238.095238095 285.714285714 333.333333333 380.952380952 428.571428571 476.19047619 523.80952381 571.428571429 619.047619048 666.666666667 714.285714286 761.904761905 809.523809524 857.142857143 904.761904762 952.380952381 1000
Z_COORDINATES 6 double
985 991 997 1003 1009 1015
CELL_DATA 2205
SCALARS pressure_bar double 1
LOOKUP_TABLE default
50.7637654735
50.7475635554
50.7162358609
50.6719192973
50.6178327697
50.5581984073
50.4980782901
50.4430414226
50.3986348562
50.3697289021
50.3596894579
50.3697289021
50.3986348562
50.4430414226
50.4980782901
50.5581984073
50.6178327697
50.6719192973
50.7162358609
50.7475635554
50.7637654735
50.7475635554
50.7302889326
50.6968110307
50.6492880111
50.5910080254
50.5263575158
50.4607194045
50.4001567549
50.3509426088
50.318717975
50.3074870792
50.318717975
50.3509426088
50.4001567549
50.4607194045
50.5263575158
50.5910080254
50.6492880111
50.6968110307
50.7302889326
50.7475635554
50.7162358609
50.6968110307
50.6590156935
50.6050172106
50.5381841251
50.4631808945
50.3859616306
50.3136640219
50.254060826
50.2145660371
50.2006997584
50.2145660371
50.254060826
50.3136640219
50.3859616306
50.4631808945
50.5381841251
50.6050172106
50.6590156935
50.6968110307
50.7162358609
50.6719192973
50.6492880111
50.6050172106
50.5411850687
50.461155879
50.3698178903
50.2739211565
50.1821597904
50.1048026854
50.0525192994
50.0339332571
50.0525192994
50.1048026854
50.1821597904
50.2739211565
50.3698178903
50.461155879
50.5411850687
50.6050172106
50.6492880111
50.6719192973
50.6178327697
50.5910080254
50.5381841251
50.461155879
50.3629809468
50.2485630298
50.1252929021
50.0037517067
49.8979993738
49.824347572
49.7975944253
49.824347572
49.8979993738
50.0037517067
50.1252929021
50.2485630298
50.3629809468
50.461155879
50.5381841251
50.5910080254
50.6178327697
50.5581984073
50.5263575158
50.4631808945
50.3698178903
50.2485630298
50.1035999904
49.9422714004
49.7768212359
49.6262698736
49.5164548298
49.4749592295
49.5164548298
49.6262698736
49.7768212359
49.9422714004
50.1035999904
50.2485630298
50.3698178903
50.4631808945
50.5263575158
50.5581984073
50.4980782901
50.4607194045
50.3859616306
50.2739211565
50.1252929021
49.9422714004
49.730388516
49.5018097801
49.2803570086
49.1067039618
49.0357655132
49.1067039618
49.2803570086
49.5018097801
49.730388516
49.9422714004
50.1252929021
50.2739211565
50.3859616306
50.4607194045
50.4980782901
50.4430414226
50.4001567549
50.3136640219
50.1821597904
50.0037517067
49.7768212359
49.5018097801
49.1857295864
48.8520622918
48.559179698
48.4196303262
48.559179698
48.8520622918
49.1857295864
49.5018097801
49.7768212359
50.0037517067
50.1821597904
50.3136640219
50.4001567549
50.4430414226
50.3986348562
50.3509426088
50.254060826
50.1048026854
49.8979993738
49.6262698736
49.2803570086
48.8520622918
48.3461955266
47.8199276369
47.4854068718
47.8199276369
48.3461955266
48.8520622918
49.2803570086
49.6262698736
49.8979993738
50.1048026854
50.254060826
50.3509426088
50.3986348562
50.3697289021
50.318717975
50.2145660371
50.0525192994
49.824347572
49.5164548298
49.1067039618
48.559179698
47.8199276369
46.8421267677
45.8298495378
46.8421267677
47.8199276369
48.559179698
49.1067039618
49.5164548298
49.824347572
50.0525192994
50.2145660371
50.318717975
50.3697289021
50.3596894579
50.3074870792
50.2006997584
50.0339332571
49.7975944253
49.4749592295
49.0357655132
48.4196303262
47.4854068718
45.8298495378
42.0196450646
45.8298495378
47.4854068718
48.4196303262
49.0357655132
49.4749592295
49.7975944253
50.0339332571
50.2006997584
50.3074870792
50.3596894579
50.3697289021
50.318717975
50.2145660371
50.0525192994
49.824347572
49.5164548298
49.1067039618
48.559179698
47.8199276369
46.8421267677
45.8298495378
46.8421267677
47.8199276369
48.559179698
49.1067039618
49.5164548298
49.824347572
50.0525192994
50.2145660371
50.318717975
50.3697289021
50.3986348562
50.3509426088
50.254060826
50.1048026854
49.8979993738
49.6262698736
49.2803570086
48.8520622918
48.3461955266
47.8199276369
47.4854068718
47.8199276369
48.3461955266
48.8520622918
49.2803570086
49.6262698736
49.8979993738
50.1048026854
50.254060826
50.3509426088
50.3986348562
50.4430414226
50.4001567549
50.3136640219
50.1821597904
50.0037517067
49.7768212359
49.5018097801
49.1857295864
48.8520622918
48.559179698
48.4196303262
48.559179698
48.8520622918
49.1857295864
49.5018097801
49.7768212359
50.0037517067
50.1821597904
50.3136640219
50.4001567549
50.4430414226
50.4980782901
50.4607194045
50.3859616306
50.2739211565
50.1252929021
49.9422714004
49.730388516
49.5018097801
49.2803570086
49.1067039618
49.0357655132
49.1067039618
49.2803570086
49.5018097801
49.730388516
49.9422714004
50.1252929021
50.2739211565
50.3859616306
50.4607194045
50.4980782901
50.5581984073
50.5263575158
50.4631808945
50.3698178903
50.2485630298
50.1035999904
49.9422714004
49.7768212359
49.6262698736
49.5164548298
49.4749592295
49.5164548298
49.6262698736
49.7768212359
49.9422714004
50.1035999904
50.2485630298
50.3698178903
50.4631808945
50.5263575158
50.5581984073
50.6178327697
50.5910080254
50.5381841251
50.461155879
50.3629809468
50.2485630298
50.1252929021
50.0037517067
49.8979993738
49.824347572
49.7975944253
49.824347572
49.8979993738
50.0037517067
50.1252929021
50.2485630298
50.3629809468
50.461155879
50.5381841251
50.5910080254
50.6178327697
50.6719192973
50.6492880111
50.6050172106
50.5411850687
50.461155879
50.3698178903
50.2739211565
50.1821597904
50.1048026854
50.0525192994
50.0339332571
50.0525192994
50.1048026854
50.1821597904
50.2739211565
50.3698178903
50.461155879
50.5411850687
50.6050172106
50.6492880111
50.6719192973
50.7162358609
50.6968110307
50.6590156935
50.6050172106
50.5381841251
50.4631808945
50.3859616306
50.3136640219
50.254060826
50.2145660371
50.2006997584
50.2145660371
50.254060826
50.3136640219
50.3859616306
50.4631808945
50.5381841251
50.6050172106
50.6590156935
50.6968110307
50.7162358609
50.7475635554
50.7302889326
50.6968110307
50.6492880111
50.5910080254
50.5263575158
50.4607194045
50.4001567549
50.3509426088
50.318717975
50.3074870792
50.318717975
50.3509426088
50.4001567549
50.4607194045
50.5263575158
50.5910080254
50.6492880111
50.6968110307
50.7302889326
50.7475635554
50.7637654735
50.7475635554
50.7162358609
50.6719192973
50.6178327697
50.5581984073
50.4980782901
50.4430414226
50.3986348562
50.3697289021
50.3596894579
50.3697289021
50.3986348562
50.4430414226
50.4980782901
50.5581984073
50.6178327697
50.6719192973
50.7162358609
50.7475635554
50.7637654735
50.7658995441
50.7496965981
50.7183677187
50.6740497029
50.6199610181
50.560324173
50.5002012007
50.4451625249
50.4007541242
50.3718470129
50.3618071667
50.3718470129
50.4007541242
50.4451625249
50.5002012007
50.560324173
50.6199610181
50.6740497029
50.7183677187
50.7496965981
50.7658995441
50.7496965981
50.7324213357
50.6989424343
50.6514175285
50.5931351801
50.5284819611
50.4628408884
50.4022760297
50.3530598865
50.3208339688
50.3096026497
50.3208339688
50.3530598865
50.4022760297
50.4628408884
50.5284819611
50.5931351801
50.6514175285
50.6989424343
50.7324213357
50.7496965981
50.7183677187
50.6989424343
50.6611455895
50.6071449185
50.5403090563
50.4653024997
50.3880803016
50.3157797793
50.2561737732
50.2166774683
50.2028109059
50.2166774683
50.2561737732
50.3157797793
50.3880803016
50.4653024997
50.5403090563
50.6071449185
50.6611455895
50.6989424343
50.7183677187
50.6740497029
50.6514175285
50.6071449185
50.543310116
50.4632773888
50.3719358323
50.2760353192
50.1842702213
50.1069099715
50.0546244019
50.0360375964
50.0546244019
50.1069099715
50.1842702213
50.2760353192
50.3719358323
50.4632773888
50.543310116
50.6071449185
50.6514175285
50.6740497029
50.6199610181
50.5931351801
50.5403090563
50.4632773888
50.3650985414
50.2506756995
50.1274009468
50.005854337
49.9000981979
49.8264433886
49.7996891142
49.8264433886
49.9000981979
50.005854337
50.1274009468
50.2506756995
50.3650985414
50.4632773888
50.5403090563
50.5931351801
50.6199610181
50.560324173
50.5284819611
50.4653024997
50.3719358323
50.2506756995
50.1057072246
49.9443720565
49.7789150342
49.6283575873
49.5185380184
49.4770403997
49.5185380184
49.6283575873
49.7789150342
49.9443720565
50.1057072246
50.2506756995
50.3719358323
50.4653024997
50.5284819611
50.560324173
50.5002012007
50.4628408884
50.3880803016
50.2760353192
50.1274009468
49.9443720565
49.7324798068
49.5038918075
49.2824306008
49.1087704434
49.0378291291
49.1087704434
49.2824306008
49.5038918075
49.7324798068
49.9443720565
50.1274009468
50.2760353192
50.3880803016
50.4628408884
50.5002012007
50.4451625249
50.4022760297
50.3157797793
50.1842702213
50.005854337
49.7789150342
49.5038918075
49.1877996463
48.8541183023
48.5612238648
48.4216690342
48.5612238648
48.8541183023
49.1877996463
49.5038918075
49.7789150342
50.005854337
50.1842702213
50.3157797793
50.4022760297
50.4451625249
50.4007541242
50.3530598865
50.2561737732
50.1069099715
49.9000981979
49.6283575873
49.2824306008
48.8541183023
48.3482309725
47.8219418231
47.4874072039
47.8219418231
48.3482309725
48.8541183023
49.2824306008
49.6283575873
49.9000981979
50.1069099715
50.2561737732
50.3530598865
50.4007541242
50.3718470129
50.3208339688
50.2166774683
50.0546244019
49.8264433886
49.5185380184
49.1087704434
48.5612238648
47.8219418231
46.8441028081
45.8317898419
46.8441028081
47.8219418231
48.5612238648
49.1087704434
49.5185380184
49.8264433886
50.0546244019
50.2166774683
50.3208339688
50.3718470129
50.3618071667
50.3096026497
50.2028109059
50.0360375964
49.7996891142
49.4770403997
49.0378291291
48.4216690342
47.4874072039
45.8317898419
42.0214785939
45.8317898419
47.4874072039
48.4216690342
49.0378291291
49.4770403997
49.7996891142
50.0360375964
50.2028109059
50.3096026497
50.3618071667
50.3718470129
50.3208339688
50.2166774683
50.0546244019
49.8264433886
49.5185380184
49.1087704434
48.5612238648
47.8219418231
46.8441028081
45.8317898419
46.8441028081
47.8219418231
48.5612238648
49.1087704434
49.5185380184
49.8264433886
50.0546244019
50.2166774683
50.3208339688
50.3718470129
50.4007541242
50.3530598865
50.2561737732
50.1069099715
49.9000981979
49.6283575873
49.2824306008
48.8541183023
48.3482309725
47.8219418231
47.4874072039
47.8219418231
48.3482309725
48.8541183023
49.2824306008
49.6283575873
49.9000981979
50.1069099715
50.2561737732
50.3530598865
50.4007541242
50.4451625249
50.4022760297
50.3157797793
50.1842702213
50.005854337
49.7789150342
49.5038918075
49.1877996463
48.8541183023
48.5612238648
48.4216690342
48.5612238648
48.8541183023
49.1877996463
49.5038918075
49.7789150342
50.005854337
50.1842702213
50.3157797793
50.4022760297
50.4451625249
50.5002012007
50.4628408884
50.3880803016
50.2760353192
50.1274009468
49.9443720565
49.7324798068
49.5038918075
49.2824306008
49.1087704434
49.0378291291
49.1087704434
49.2824306008
49.5038918075
49.7324798068
49.9443720565
50.1274009468
50.2760353192
50.3880803016
50.4628408884
50.5002012007
50.560324173
50.5284819611
50.4653024997
50.3719358323
50.2506756995
50.1057072246
49.9443720565
49.7789150342
49.6283575873
49.5185380184
49.4770403997
49.5185380184
49.6283575873
49.7789150342
49.9443720565
50.1057072246
50.2506756995
50.3719358323
50.4653024997
50.5284819611
50.560324173
50.6199610181
50.5931351801
50.5403090563
50.4632773888
50.3650985414
50.2506756995
50.1274009468
50.005854337
49.9000981979
49.8264433886
49.7996891142
49.8264433886
49.9000981979
50.005854337
50.1274009468
50.2506756995
50.3650985414
50.4632773888
50.5403090563
50.5931351801
50.6199610181
50.6740497029
50.6514175285
50.6071449185
50.543310116
50.4632773888
50.3719358323
50.2760353192
50.1842702213
50.1069099715
50.0546244019
50.0360375964
50.0546244019
50.1069099715
50.1842702213
50.2760353192
50.3719358323
50.4632773888
50.543310116
50.6071449185
50.6514175285
50.6740497029
50.7183677187
50.6989424343
50.6611455895
50.6071449185
50.5403090563
50.4653024997
50.3880803016
50.3157797793
50.2561737732
50.2166774683
50.2028109059
50.2166774683
50.2561737732
50.3157797793
50.3880803016
50.4653024997
50.5403090563
50.6071449185
50.6611455895
50.6989424343
50.7183677187
50.7496965981
50.7324213357
50.6989424343
50.6514175285
50.5931351801
50.5284819611
50.4628408884
50.4022760297
50.3530598865
50.3208339688
50.3096026497
50.3208339688
50.3530598865
50.4022760297
50.4628408884
50.5284819611
50.5931351801
50.6514175285
50.6989424343
50.7324213357
50.7496965981
50.7658995441
50.7496965981
50.7183677187
50.6740497029
50.6199610181
50.560324173
50.5002012007
50.4451625249
50.4007541242
50.3718470129
50.3618071667
50.3718470129
50.4007541242
50.4451625249
50.5002012007
50.560324173
50.6199610181
50.6740497029
50.7183677187
50.7496965981
50.7658995441
50.7680334358
50.7518293226
50.7204993044
50.676179983
50.6220891699
50.5624498174
50.5023238351
50.4472835191
50.4028732916
50.3739650326
50.363924789
50.3739650326
50.4028732916
50.4472835191
50.5023238351
50.5624498174
50.6220891699
50.676179983
50.7204993044
50.7518293226
50.7680334358
50.7518293226
50.7345534521
50.7010736926
50.6535469421
50.5952622396
50.5306062759
50.4649621378
50.4043951771
50.3551770432
50.3229498548
50.3117181286
50.3229498548
50.3551770432
50.4043951771
50.4649621378
50.5306062759
50.5952622396
50.6535469421
50.7010736926
50.7345534521
50.7518293226
50.7204993044
50.7010736926
50.6632753731
50.6092725217
50.5424338581
50.4674238819
50.3901988339
50.3178954216
50.2582864938
50.2187886749
50.2049219108
50.2187886749
50.2582864938
50.3178954216
50.3901988339
50.4674238819
50.5424338581
50.6092725217
50.6632753731
50.7010736926
50.7204993044
50.676179983
50.6535469421
50.6092725217
50.5454350301
50.4653986656
50.3740535995
50.2781493779
50.1863806165
50.1090171483
50.056729402
50.0381418362
50.056729402
50.1090171483
50.1863806165
50.2781493779
50.3740535995
50.4653986656
50.5454350301
50.6092725217
50.6535469421
50.676179983
50.6220891699
50.5952622396
50.5424338581
50.4653986656
50.3672159252
50.2527880824
50.1295088594
50.0079566673
49.9021969292
49.8285391255
49.8017837075
49.8285391255
49.9021969292
50.0079566673
50.1295088594
50.2527880824
50.3672159252
50.4653986656
50.5424338581
50.5952622396
50.6220891699
50.5624498174
50.5306062759
50.4674238819
50.3740535995
50.2527880824
50.1078143548
49.9464726036
49.7810087071
49.6304452244
49.520621116
49.4791213693
49.520621116
49.6304452244
49.7810087071
49.9464726036
50.1078143548
50.2527880824
50.3740535995
50.4674238819
50.5306062759
50.5624498174
50.5023238351
50.4649621378
50.3901988339
50.2781493779
50.1295088594
49.9464726036
49.7345707413
49.5059735269
49.2845041281
49.1108368728
49.0398927162
49.1108368728
49.2845041281
49.5059735269
49.7345707413
49.9464726036
50.1295088594
50.2781493779
50.3901988339
50.4649621378
50.5023238351
50.4472835191
50.4043951771
50.3178954216
50.1863806165
50.0079566673
49.7810087071
49.5059735269
49.1898697486
48.8561742694
48.5632680578
48.423707968
48.5632680578
48.8561742694
49.1898697486
49.5059735269
49.7810087071
50.0079566673
50.1863806165
50.3178954216
50.4043951771
50.4472835191
50.4028732916
50.3551770432
50.2582864938
50.1090171483
49.9021969292
49.6304452244
49.2845041281
48.8561742694
48.3502664485
47.8239562154
47.4894076553
47.8239562154
48.3502664485
48.8561742694
49.2845041281
49.6304452244
49.9021969292
50.1090171483
50.2582864938
50.3551770432
50.4028732916
50.3739650326
50.3229498548
50.2187886749
50.056729402
49.8285391255
49.520621116
49.1108368728
48.5632680578
47.8239562154
46.8460800536
45.8337333224
46.8460800536
47.8239562154
48.5632680578
49.1108368728
49.520621116
49.8285391255
50.056729402
50.2187886749
50.3229498548
50.3739650326
50.363924789
50.3117181286
50.2049219108
50.0381418362
49.8017837075
49.4791213693
49.0398927162
48.423707968
47.4894076553
45.8337333224
42.0233188854
45.8337333224
47.4894076553
48.423707968
49.0398927162
49.4791213693
49.8017837075
50.0381418362
50.2049219108
50.3117181286
50.363924789
50.3739650326
50.3229498548
50.2187886749
50.056729402
49.8285391255
49.520621116
49.1108368728
48.5632680578
47.8239562154
46.8460800536
45.8337333224
46.8460800536
47.8239562154
48.5632680578
49.1108368728
49.520621116
49.8285391255
50.056729402
50.2187886749
50.3229498548
50.3739650326
50.4028732916
50.3551770432
50.2582864938
50.1090171483
49.9021969292
49.6304452244
49.2845041281
48.8561742694
48.3502664485
47.8239562154
47.4894076553
47.8239562154
48.3502664485
48.8561742694
49.2845041281
49.6304452244
49.9021969292
50.1090171483
50.2582864938
50.3551770432
50.4028732916
50.4472835191
50.4043951771
50.3178954216
50.1863806165
50.0079566673
49.7810087071
49.5059735269
49.1898697486
48.8561742694
48.5632680578
48.423707968
48.5632680578
48.8561742694
49.1898697486
49.5059735269
49.7810087071
50.0079566673
50.1863806165
50.3178954216
50.4043951771
50.4472835191
50.5023238351
50.4649621378
50.3901988339
50.2781493779
50.1295088594
49.9464726036
49.7345707413
49.5059735269
49.2845041281
49.1108368728
49.0398927162
49.1108368728
49.2845041281
49.5059735269
49.7345707413
49.9464726036
50.1295088594
50.2781493779
50.3901988339
50.4649621378
50.5023238351
50.5624498174
50.5306062759
50.4674238819
50.3740535995
50.2527880824
50.1078143548
49.9464726036
49.7810087071
49.6304452244
49.520621116
49.4791213693
49.520621116
49.6304452244
49.7810087071
49.9464726036
50.1078143548
50.2527880824
50.3740535995
50.4674238819
50.5306062759
50.5624498174
50.6220891699
50.5952622396
50.5424338581
50.4653986656
50.3672159252
50.2527880824
50.1295088594
50.0079566673
49.9021969292
49.8285391255
49.8017837075
49.8285391255
49.9021969292
50.0079566673
50.1295088594
50.2527880824
50.3672159252
50.4653986656
50.5424338581
50.5952622396
50.6220891699
50.676179983
50.6535469421
50.6092725217
50.5454350301
50.4653986656
50.3740535995
50.2781493779
50.1863806165
50.1090171483
50.056729402
50.0381418362
50.056729402
50.1090171483
50.1863806165
50.2781493779
50.3740535995
50.4653986656
50.5454350301
50.6092725217
50.6535469421
50.676179983
50.7204993044
50.7010736926
50.6632753731
50.6092725217
50.5424338581
50.4674238819
50.3901988339
50.3178954216
50.2582864938
50.2187886749
50.2049219108
50.2187886749
50.2582864938
50.3178954216
50.3901988339
50.4674238819
50.5424338581
50.6092725217
50.6632753731
50.7010736926
50.7204993044
50.7518293226
50.7345534521
50.7010736926
50.6535469421
50.5952622396
50.5306062759
50.4649621378
50.4043951771
50.3551770432
50.3229498548
50.3117181286
50.3229498548
50.3551770432
50.4043951771
50.4649621378
50.5306062759
50.5952622396
50.6535469421
50.7010736926
50.7345534521
50.7518293226
50.7680334358
50.7518293226
50.7204993044
50.676179983
50.6220891699
50.5624498174
50.5023238351
50.4472835191
50.4028732916
50.3739650326
50.363924789
50.3739650326
50.4028732916
50.4472835191
50.5023238351
50.5624498174
50.6220891699
50.676179983
50.7204993044
50.7518293226
50.7680334358
50.7701674144
50.7539621326
50.7226309761
50.6783103513
50.6242174089
50.5645755484
50.5044465531
50.4494045993
50.4049925478
50.3760831392
50.3660424975
50.3760831392
50.4049925478
50.4494045993
50.5044465531
50.5645755484
50.6242174089
50.6783103513
50.7226309761
50.7539621326
50.7701674144
50.7539621326
50.7366856542
50.7032050371
50.6556764438
50.5973893852
50.5327306768
50.4670834715
50.4065144156
50.3572942956
50.3250658271
50.3138336887
50.3250658271
50.3572942956
50.4065144156
50.4670834715
50.5327306768
50.5973893852
50.6556764438
50.7032050371
50.7366856542
50.7539621326
50.7226309761
50.7032050371
50.6654052457
50.6114002123
50.5445587459
50.4695453465
50.3923174578
50.3200111622
50.2603993932
50.2208999622
50.2070329526
50.2208999622
50.2603993932
50.3200111622
50.3923174578
50.4695453465
50.5445587459
50.6114002123
50.6654052457
50.7032050371
50.7226309761
50.6783103513
50.6556764438
50.6114002123
50.5475600304
50.4675200243
50.376171458
50.2802635274
50.1884911185
50.1111244017
50.0588344908
50.0402461611
50.0588344908
50.1111244017
50.1884911185
50.2802635274
50.376171458
50.4675200243
50.5475600304
50.6114002123
50.6556764438
50.6783103513
50.6242174089
50.5973893852
50.5445587459
50.4675200243
50.3693333996
50.2549005463
50.1316168699
50.0100591499
49.9042957447
49.830634948
49.8038783856
49.830634948
49.9042957447
50.0100591499
50.1316168699
50.2549005463
50.3693333996
50.4675200243
50.5445587459
50.5973893852
50.6242174089
50.5645755484
50.5327306768
50.4695453465
50.376171458
50.2549005463
50.1099215766
49.9485732256
49.7831024605
49.6325329466
49.522704298
49.4812024153
49.522704298
49.6325329466
49.7831024605
49.9485732256
50.1099215766
50.2549005463
50.376171458
50.4695453465
50.5327306768
50.5645755484
50.5044465531
50.4670834715
50.3923174578
50.2802635274
50.1316168699
49.9485732256
49.7366617574
49.5080553282
49.2865777454
49.1129033862
49.0419563976
49.1129033862
49.2865777454
49.5080553282
49.7366617574
49.9485732256
50.1316168699
50.2802635274
50.3923174578
50.4670834715
50.5044465531
50.4494045993
50.4065144156
50.3200111622
50.1884911185
50.0100591499
49.7831024605
49.5080553282
49.1919399358
48.8582303282
48.5653123336
48.4257469894
48.5653123336
48.8582303282
49.1919399358
49.5080553282
49.7831024605
50.0100591499
50.1884911185
50.3200111622
50.4065144156
50.4494045993
50.4049925478
50.3572942956
50.2603993932
50.1111244017
49.9042957447
49.6325329466
49.2865777454
48.8582303282
48.3523020039
47.8259706572
47.4914080139
47.8259706572
48.3523020039
48.8582303282
49.2865777454
49.6325329466
49.9042957447
50.1111244017
50.2603993932
50.3572942956
50.4049925478
50.3760831392
50.3250658271
50.2208999622
50.0588344908
49.830634948
49.522704298
49.1129033862
48.5653123336
47.8259706572
46.8480571617
45.8356755869
46.8480571617
47.8259706572
48.5653123336
49.1129033862
49.522704298
49.830634948
50.0588344908
50.2208999622
50.3250658271
50.3760831392
50.3660424975
50.3138336887
50.2070329526
50.0402461611
49.8038783856
49.4812024153
49.0419563976
48.4257469894
47.4914080139
45.8356755869
42.0251444995
45.8356755869
47.4914080139
48.4257469894
49.0419563976
49.4812024153
49.8038783856
50.0402461611
50.2070329526
50.3138336887
50.3660424975
50.3760831392
50.3250658271
50.2208999622
50.0588344908
49.830634948
49.522704298
49.1129033862
48.5653123336
47.8259706572
46.8480571617
45.8356755869
46.8480571617
47.8259706572
48.5653123336
49.1129033862
49.522704298
49.830634948
50.0588344908
50.2208999622
50.3250658271
50.3760831392
50.4049925478
50.3572942956
50.2603993932
50.1111244017
49.9042957447
49.6325329466
49.2865777454
48.8582303282
48.3523020039
47.8259706572
47.4914080139
47.8259706572
48.3523020039
48.8582303282
49.2865777454
49.6325329466
49.9042957447
50.1111244017
50.2603993932
50.3572942956
50.4049925478
50.4494045993
50.4065144156
50.3200111622
50.1884911185
50.0100591499
49.7831024605
49.5080553282
49.1919399358
48.8582303282
48.5653123336
48.4257469894
48.5653123336
48.8582303282
49.1919399358
49.5080553282
49.7831024605
50.0100591499
50.1884911185
50.3200111622
50.4065144156
50.4494045993
50.5044465531
50.4670834715
50.3923174578
50.2802635274
50.1316168699
49.9485732256
49.7366617574
49.5080553282
49.2865777454
49.1129033862
49.0419563976
49.1129033862
49.2865777454
49.5080553282
49.7366617574
49.9485732256
50.1316168699
50.2802635274
50.3923174578
50.4670834715
50.5044465531
50.5645755484
50.5327306768
50.4695453465
50.376171458
50.2549005463
50.1099215766
49.9485732256
49.7831024605
49.6325329466
49.522704298
49.4812024153
49.522704298
49.6325329466
49.7831024605
49.9485732256
50.1099215766
50.2549005463
50.376171458
50.4695453465
50.5327306768
50.5645755484
50.6242174089
50.5973893852
50.5445587459
50.4675200243
50.3693333996
50.2549005463
50.1316168699
50.0100591499
49.9042957447
49.830634948
49.8038783856
49.830634948
49.9042957447
50.0100591499
50.1316168699
50.2549005463
50.3693333996
50.4675200243
50.5445587459
50.5973893852
50.6242174089
50.6783103513
50.6556764438
50.6114002123
50.5475600304
50.4675200243
50.376171458
50.2802635274
50.1884911185
50.1111244017
50.0588344908
50.0402461611
50.0588344908
50.1111244017
50.1884911185
50.2802635274
50.376171458
50.4675200243
50.5475600304
50.6114002123
50.6556764438
50.6783103513
50.7226309761
50.7032050371
50.6654052457
50.6114002123
50.5445587459
50.4695453465
50.3923174578
50.3200111622
50.2603993932
50.2208999622
50.2070329526
50.2208999622
50.2603993932
50.3200111622
50.3923174578
50.4695453465
50.5445587459
50.6114002123
50.6654052457
50.7032050371
50.7226309761
50.7539621326
50.7366856542
50.7032050371
50.6556764438
50.5973893852
50.5327306768
50.4670834715
50.4065144156
50.3572942956
50.3250658271
50.3138336887
50.3250658271
50.3572942956
50.4065144156
50.4670834715
50.5327306768
50.5973893852
50.6556764438
50.7032050371
50.7366856542
50.7539621326
50.7701674144
50.7539621326
50.7226309761
50.6783103513
50.6242174089
50.5645755484
50.5044465531
50.4494045993
50.4049925478
50.3760831392
50.3660424975
50.3760831392
50.4049925478
50.4494045993
50.5044465531
50.5645755484
50.6242174089
50.6783103513
50.7226309761
50.7539621326
50.7701674144
50.7723017462
50.7560954332
50.7247630931
50.6804410206
50.6263459186
50.5667015743
50.5065697173
50.4515259599
50.4071120801
50.3782015103
50.3681604654
50.3782015103
50.4071120801
50.4515259599
50.5065697173
50.5667015743
50.6263459186
50.6804410206
50.7247630931
50.7560954332
50.7723017462
50.7560954332
50.738818316
50.7053366999
50.6578062247
50.5995167988
50.5348553814
50.4692052104
50.4086339592
50.3594118516
50.3271820801
50.3159495066
50.3271820801
50.3594118516
50.4086339592
50.4692052104
50.5348553814
50.5995167988
50.6578062247
50.7053366999
50.738818316
50.7560954332
50.7247630931
50.7053366999
50.6675354069
50.6135281822
50.5466839361
50.4716672028
50.3944363994
50.3221272034
50.262512841
50.2230116362
50.2091441801
50.2230116362
50.262512841
50.3221272034
50.3944363994
50.4716672028
50.5466839361
50.6135281822
50.6675354069
50.7053366999
50.7247630931
50.6804410206
50.6578062247
50.6135281822
50.5496853372
50.4696417838
50.3782896698
50.2823779587
50.1906018846
50.1132319054
50.0609398569
50.0423507551
50.0609398569
50.1132319054
50.1906018846
50.2823779587
50.3782896698
50.4696417838
50.5496853372
50.6135281822
50.6578062247
50.6804410206
50.6263459186
50.5995167988
50.5466839361
50.4696417838
50.371451263
50.2570134632
50.133725199
50.0121622701
49.9063948091
49.8327310209
49.8059733302
49.8327310209
49.9063948091
50.0121622701
50.133725199
50.2570134632
50.371451263
50.4696417838
50.5466839361
50.5995167988
50.6263459186
50.5667015743
50.5348553814
50.4716672028
50.3782896698
50.2570134632
50.1120290819
49.9506741153
49.7851964756
49.6346209148
49.5247877409
49.483283827
49.5247877409
49.6346209148
49.7851964756
49.9506741153
50.1120290819
50.2570134632
50.3782896698
50.4716672028
50.5348553814
50.5667015743
50.5065697173
50.4692052104
50.3944363994
50.2823779587
50.133725199
49.9506741153
49.7387532975
49.5101376133
49.2886516013
49.11497012
49.044020285
49.11497012
49.2886516013
49.5101376133
49.7387532975
49.9506741153
50.133725199
50.2823779587
50.3944363994
50.4692052104
50.5065697173
50.4515259599
50.4086339592
50.3221272034
50.1906018846
50.0121622701
49.7851964756
49.5101376133
49.1940102453
48.8602866073
48.5673567524
48.4277860196
48.5673567524
48.8602866073
49.1940102453
49.5101376133
49.7851964756
50.0121622701
50.1906018846
50.3221272034
50.4086339592
50.4515259599
50.4071120801
50.3594118516
50.262512841
50.1132319054
49.9063948091
49.6346209148
49.2886516013
48.8602866073
48.3543376937
47.8279850333
47.4934082084
47.8279850333
48.3543376937
48.8602866073
49.2886516013
49.6346209148
49.9063948091
50.1132319054
50.262512841
50.3594118516
50.4071120801
50.3782015103
50.3271820801
50.2230116362
50.0609398569
49.8327310209
49.5247877409
49.11497012
48.5673567524
47.8279850333
46.8500330711
45.8376137605
46.8500330711
47.8279850333
48.5673567524
49.11497012
49.5247877409
49.8327310209
50.0609398569
50.2230116362
50.3271820801
50.3782015103
50.3681604654
50.3159495066
50.2091441801
50.0423507551
49.8059733302
49.483283827
49.044020285
48.4277860196
47.4934082084
45.8376137605
42.0269465388
45.8376137605
47.4934082084
48.4277860196
49.044020285
49.483283827
49.8059733302
50.0423507551
50.2091441801
50.3159495066
50.3681604654
50.3782015103
50.3271820801
50.2230116362
50.0609398569
49.8327310209
49.5247877409
49.11497012
48.5673567524
47.8279850333
46.8500330711
45.8376137605
46.8500330711
47.8279850333
48.5673567524
49.11497012
49.5247877409
49.8327310209
50.0609398569
50.2230116362
50.3271820801
50.3782015103
50.4071120801
50.3594118516
50.262512841
50.1132319054
49.9063948091
49.6346209148
49.2886516013
48.8602866073
48.3543376937
47.8279850333
47.4934082084
47.8279850333
48.3543376937
48.8602866073
49.2886516013
49.6346209148
49.9063948091
50.1132319054
50.262512841
50.3594118516
50.4071120801
50.4515259599
50.4086339592
50.3221272034
50.1906018846
50.0121622701
49.7851964756
49.5101376133
49.1940102453
48.8602866073
48.5673567524
48.4277860196
48.5673567524
48.8602866073
49.1940102453
49.5101376133
49.7851964756
50.0121622701
50.1906018846
50.3221272034
50.4086339592
50.4515259599
50.5065697173
50.4692052104
50.3944363994
50.2823779587
50.133725199
49.9506741153
49.7387532975
49.5101376133
49.2886516013
49.11497012
49.044020285
49.11497012
49.2886516013
49.5101376133
49.7387532975
49.9506741153
50.133725199
50.2823779587
50.3944363994
50.4692052104
50.5065697173
50.5667015743
50.5348553814
50.4716672028
50.3782896698
50.2570134632
50.1120290819
49.9506741153
49.7851964756
49.6346209148
49.5247877409
49.483283827
49.5247877409
49.6346209148
49.7851964756
49.9506741153
50.1120290819
50.2570134632
50.3782896698
50.4716672028
50.5348553814
50.5667015743
50.6263459186
50.5995167988
50.5466839361
50.4696417838
50.371451263
50.2570134632
50.133725199
50.0121622701
49.9063948091
49.8327310209
49.8059733302
49.8327310209
49.9063948091
50.0121622701
50.133725199
50.2570134632
50.371451263
50.4696417838
50.5466839361
50.5995167988
50.6263459186
50.6804410206
50.6578062247
50.6135281822
50.5496853372
50.4696417838
50.3782896698
50.2823779587
50.1906018846
50.1132319054
50.0609398569
50.0423507551
50.0609398569
50.1132319054
50.1906018846
50.2823779587
50.3782896698
50.4696417838
50.5496853372
50.6135281822
50.6578062247
50.6804410206
50.7247630931
50.7053366999
50.6675354069
50.6135281822
50.5466839361
50.4716672028
50.3944363994
50.3221272034
50.262512841
50.2230116362
50.2091441801
50.2230116362
50.262512841
50.3221272034
50.3944363994
50.4716672028
50.5466839361
50.6135281822
50.6675354069
50.7053366999
50.7247630931
50.7560954332
50.738818316
50.7053366999
50.6578062247
50.5995167988
50.5348553814
50.4692052104
50.4086339592
50.3594118516
50.3271820801
50.3159495066
50.3271820801
50.3594118516
50.4086339592
50.4692052104
50.5348553814
50.5995167988
50.6578062247
50.7053366999
50.738818316
50.7560954332
50.7723017462
50.7560954332
50.7247630931
50.6804410206
50.6263459186
50.5667015743
50.5065697173
50.4515259599
50.4071120801
50.3782015103
50.3681604654
50.3782015103
50.4071120801
50.4515259599
50.5065697173
50.5667015743
50.6263459186
50.6804410206
50.7247630931
50.7560954332
50.7723017462
SCALARS gas_saturation double 1
LOOKUP_TABLE default
0.799457265894
0.79945704459
0.799456632347
0.799456070491
0.799455459368
0.799454874557
0.799454294867
0.799453552588
0.799453026886
0.799452712401
0.799452609704
0.799452712401
0.799453026886
0.799453552588
0.799454294867
0.799454874557
0.799455459368
0.799456070491
0.799456632347
0.79945704459
0.799457265894
0.79945704459
0.799456813201
0.799456364752
0.799455794881
0.799455162058
0.799454596922
0.799453795753
0.799453045885
0.799452515731
0.799452205265
0.79945210536
0.799452205265
0.799452515731
0.799453045885
0.799453795753
0.799454596922
0.799455162058
0.799455794881
0.799456364752
0.799456813201
0.79945704459
0.799456632347
0.799456364752
0.799455917043
0.799455322191
0.799454676679
0.799453828253
0.799452866789
0.799452161163
0.799451625138
0.79945108125
0.799450898729
0.79945108125
0.799451625138
0.799452161163
0.799452866789
0.799453828253
0.799454676679
0.799455322191
0.799455917043
0.799456364752
0.799456632347
0.799456070491
0.799455794881
0.799455322191
0.799454705678
0.79945380154
0.799452713287
0.799451813034
0.799450645535
0.799449793734
0.799449296831
0.799449116187
0.799449296831
0.799449793734
0.799450645535
0.799451813034
0.799452713287
0.79945380154
0.799454705678
0.799455322191
0.799455794881
0.799456070491
0.799455459368
0.799455162058
0.799454676679
0.79945380154
0.799452643982
0.799451542962
0.799449998053
0.799448858882
0.79944749501
0.799446715769
0.799446489019
0.799446715769
0.79944749501
0.799448858882
0.799449998053
0.799451542962
0.799452643982
0.79945380154
0.799454676679
0.799455162058
0.799455459368
0.799454874557
0.799454596922
0.799453828253
0.799452713287
0.799451542962
0.799449781774
0.799448021824
0.799446296458
0.79944446778
0.799443463995
0.79944290683
0.799443463995
0.79944446778
0.799446296458
0.799448021824
0.799449781774
0.799451542962
0.799452713287
0.799453828253
0.799454596922
0.799454874557
0.799454294867
0.799453795753
0.799452866789
0.799451813034
0.799449998053
0.799448021824
0.799445744442
0.79944330546
0.79944080263
0.799438752443
0.799438093172
0.799438752443
0.79944080263
0.79944330546
0.799445744442
0.799448021824
0.799449998053
0.799451813034
0.799452866789
0.799453795753
0.799454294867
0.799453552588
0.799453045885
0.799452161163
0.799450645535
0.799448858882
0.799446296458
0.79944330546
0.799439646079
0.799435941901
0.799432763938
0.79943113572
0.799432763938
0.799435941901
0.799439646079
0.79944330546
0.799446296458
0.799448858882
0.799450645535
0.799452161163
0.799453045885
0.799453552588
0.799453026886
0.799452515731
0.799451625138
0.799449793734
0.79944749501
0.79944446778
0.79944080263
0.799435941901
0.799430353876
0.799424545425
0.799420958226
0.799424545425
0.799430353876
0.799435941901
0.79944080263
0.79944446778
0.79944749501
0.799449793734
0.799451625138
0.799452515731
0.799453026886
0.799452712401
0.799452205265
0.79945108125
0.799449296831
0.799446715769
0.799443463995
0.799438752443
0.799432763938
0.799424545425
0.799413719601
0.799402516543
0.799413719601
0.799424545425
0.799432763938
0.799438752443
0.799443463995
0.799446715769
0.799449296831
0.79945108125
0.799452205265
0.799452712401
0.799452609704
0.79945210536
0.799450898729
0.799449116187
0.799446489019
0.79944290683
0.799438093172
0.79943113572
0.799420958226
0.799402516543
0.799360543722
0.799402516543
0.799420958226
0.79943113572
0.799438093172
0.79944290683
0.799446489019
0.799449116187
0.799450898729
0.79945210536
0.799452609704
0.799452712401
0.799452205265
0.79945108125
0.799449296831
0.799446715769
0.799443463995
0.799438752443
0.799432763938
0.799424545425
0.799413719601
0.799402516543
0.799413719601
0.799424545425
0.799432763938
0.799438752443
0.799443463995
0.799446715769
0.799449296831
0.79945108125
0.799452205265
0.799452712401
0.799453026886
0.799452515731
0.799451625138
0.799449793734
0.79944749501
0.79944446778
0.79944080263
0.799435941901
0.799430353876
0.799424545425
0.799420958226
0.799424545425
0.799430353876
0.799435941901
0.79944080263
0.79944446778
0.79944749501
0.799449793734
0.799451625138
0.799452515731
0.799453026886
0.799453552588
0.799453045885
0.799452161163
0.799450645535
0.799448858882
0.799446296458
0.79944330546
0.799439646079
0.799435941901
0.799432763938
0.79943113572
0.799432763938
0.799435941901
0.799439646079
0.79944330546
0.799446296458
0.799448858882
0.799450645535
0.799452161163
0.799453045885
0.799453552588
0.799454294867
0.799453795753
0.799452866789
0.799451813034
0.799449998053
0.799448021824
0.799445744442
0.79944330546
0.79944080263
0.799438752443
0.799438093172
0.799438752443
0.79944080263
0.79944330546
0.799445744442
0.799448021824
0.799449998053
0.799451813034
0.799452866789
0.799453795753
0.799454294867
0.799454874557
0.799454596922
0.799453828253
0.799452713287
0.799451542962
0.799449781774
0.799448021824
0.799446296458
0.79944446778
0.799443463995
0.79944290683
0.799443463995
0.79944446778
0.799446296458
0.799448021824
0.799449781774
0.799451542962
0.799452713287
0.799453828253
0.799454596922
0.799454874557
0.799455459368
0.799455162058
0.799454676679
0.79945380154
0.799452643982
0.799451542962
0.799449998053
0.799448858882
0.79944749501
0.799446715769
0.799446489019
0.799446715769
0.79944749501
0.799448858882
0.799449998053
0.799451542962
0.799452643982
0.79945380154
0.799454676679
0.799455162058
0.799455459368
0.799456070491
0.799455794881
0.799455322191
0.799454705678
0.79945380154
0.799452713287
0.799451813034
0.799450645535
0.799449793734
0.799449296831
0.799449116187
0.799449296831
0.799449793734
0.799450645535
0.799451813034
0.799452713287
0.79945380154
0.799454705678
0.799455322191
0.799455794881
0.799456070491
0.799456632347
0.799456364752
0.799455917043
0.799455322191
0.799454676679
0.799453828253
0.799452866789
0.799452161163
0.799451625138
0.79945108125
0.799450898729
0.79945108125
0.799451625138
0.799452161163
0.799452866789
0.799453828253
0.799454676679
0.799455322191
0.799455917043
0.799456364752
0.799456632347
0.79945704459
0.799456813201
0.799456364752
0.799455794881
0.799455162058
0.799454596922
0.799453795753
0.799453045885
0.799452515731
0.799452205265
0.79945210536
0.799452205265
0.799452515731
0.799453045885
0.799453795753
0.799454596922
0.799455162058
0.799455794881
0.799456364752
0.799456813201
0.79945704459
0.799457265894
0.79945704459
0.799456632347
0.799456070491
0.799455459368
0.799454874557
0.799454294867
0.799453552588
0.799453026886
0.799452712401
0.799452609704
0.799452712401
0.799453026886
0.799453552588
0.799454294867
0.799454874557
0.799455459368
0.799456070491
0.799456632347
0.79945704459
0.799457265894
0.799457236345
0.799457031172
0.799456613694
0.7994560483
0.799455434624
0.799454847872
0.799454280677
0.799453535969
0.799453006615
0.799452686204
0.799452585152
0.799452686204
0.799453006615
0.799453535969
0.799454280677
0.799454847872
0.799455434624
0.7994560483
0.799456613694
0.799457031172
0.799457236345
0.799457031172
0.799456793062
0.799456348418
0.799455775782
0.799455140357
0.799454564585
0.799453777108
0.799453025438
0.799452492176
0.799452176645
0.799452078022
0.799452176645
0.799452492176
0.799453025438
0.799453777108
0.799454564585
0.799455140357
0.799455775782
0.799456348418
0.799456793062
0.799457031172
0.799456613694
0.799456348418
0.799455896318
0.799455298901
0.799454649852
0.799453809326
0.799452844928
0.79945213312
0.799451609463
0.799451061822
0.799450880499
0.799451061822
0.799451609463
0.79945213312
0.799452844928
0.799453809326
0.799454649852
0.799455298901
0.799455896318
0.799456348418
0.799456613694
0.7994560483
0.799455775782
0.799455298901
0.799454680926
0.799453782845
0.799452687495
0.79945178072
0.79945062156
0.799449769771
0.79944926939
0.799449090959
0.79944926939
0.799449769771
0.79945062156
0.79945178072
0.799452687495
0.799453782845
0.799454680926
0.799455298901
0.799455775782
0.7994560483
0.799455434624
0.799455140357
0.799454649852
0.799453782845
0.799452619051
0.799451528045
0.799449971016
0.799448842605
0.799447473528
0.799446685175
0.799446461523
0.799446685175
0.799447473528
0.799448842605
0.799449971016
0.799451528045
0.799452619051
0.799453782845
0.799454649852
0.799455140357
0.799455434624
0.799454847872
0.799454564585
0.799453809326
0.799452687495
0.799451528045
0.799449757236
0.799448004031
0.799446262535
0.799444440349
0.799443430695
0.79944288586
0.799443430695
0.799444440349
0.799446262535
0.799448004031
0.799449757236
0.799451528045
0.799452687495
0.799453809326
0.799454564585
0.799454847872
0.799454280677
0.799453777108
0.799452844928
0.79945178072
0.799449971016
0.799448004031
0.799445730486
0.799443288506
0.799440776259
0.799438725389
0.799438065547
0.799438725389
0.799440776259
0.799443288506
0.799445730486
0.799448004031
0.799449971016
0.79945178072
0.799452844928
0.799453777108
0.799454280677
0.799453535969
0.799453025438
0.79945213312
0.79945062156
0.799448842605
0.799446262535
0.799443288506
0.799439627577
0.799435915004
0.799432732811
0.799431113414
0.799432732811
0.799435915004
0.799439627577
0.799443288506
0.799446262535
0.799448842605
0.79945062156
0.79945213312
0.799453025438
0.799453535969
0.799453006615
0.799452492176
0.799451609463
0.799449769771
0.799447473528
0.799444440349
0.799440776259
0.799435915004
0.799430327081
0.799424520952
0.799420941467
0.799424520952
0.799430327081
0.799435915004
0.799440776259
0.799444440349
0.799447473528
0.799449769771
0.799451609463
0.799452492176
0.799453006615
0.799452686204
0.799452176645
0.799451061822
0.79944926939
0.799446685175
0.799443430695
0.799438725389
0.799432732811
0.799424520952
0.79941369306
0.799402483247
0.79941369306
0.799424520952
0.799432732811
0.799438725389
0.799443430695
0.799446685175
0.79944926939
0.799451061822
0.799452176645
0.799452686204
0.799452585152
0.799452078022
0.799450880499
0.799449090959
0.799446461523
0.79944288586
0.799438065547
0.799431113414
0.799420941467
0.799402483247
0.799360513785
0.799402483247
0.799420941467
0.799431113414
0.799438065547
0.79944288586
0.799446461523
0.799449090959
0.799450880499
0.799452078022
0.799452585152
0.799452686204
0.799452176645
0.799451061822
0.79944926939
0.799446685175
0.799443430695
0.799438725389
0.799432732811
0.799424520952
0.79941369306
0.799402483247
0.79941369306
0.799424520952
0.799432732811
0.799438725389
0.799443430695
0.799446685175
0.79944926939
0.799451061822
0.799452176645
0.799452686204
0.799453006615
0.799452492176
0.799451609463
0.799449769771
0.799447473528
0.799444440349
0.799440776259
0.799435915004
0.799430327081
0.799424520952
0.799420941467
0.799424520952
0.799430327081
0.799435915004
0.799440776259
0.799444440349
0.799447473528
0.799449769771
0.799451609463
0.799452492176
0.799453006615
0.799453535969
0.799453025438
0.79945213312
0.79945062156
0.799448842605
0.799446262535
0.799443288506
0.799439627577
0.799435915004
0.799432732811
0.799431113414
0.799432732811
0.799435915004
0.799439627577
0.799443288506
0.799446262535
0.799448842605
0.79945062156
0.79945213312
0.799453025438
0.799453535969
0.799454280677
0.799453777108
0.799452844928
0.79945178072
0.799449971016
0.799448004031
0.799445730486
0.799443288506
0.799440776259
0.799438725389
0.799438065547
0.799438725389
0.799440776259
0.799443288506
0.799445730486
0.799448004031
0.799449971016
0.79945178072
0.799452844928
0.799453777108
0.799454280677
0.799454847872
0.799454564585
0.799453809326
0.799452687495
0.799451528045
0.799449757236
0.799448004031
0.799446262535
0.799444440349
0.799443430695
0.79944288586
0.799443430695
0.799444440349
0.799446262535
0.799448004031
0.799449757236
0.799451528045
0.799452687495
0.799453809326
0.799454564585
0.799454847872
0.799455434624
0.799455140357
0.799454649852
0.799453782845
0.799452619051
0.799451528045
0.799449971016
0.799448842605
0.799447473528
0.799446685175
0.799446461523
0.799446685175
0.799447473528
0.799448842605
0.799449971016
0.799451528045
0.799452619051
0.799453782845
0.799454649852
0.799455140357
0.799455434624
0.7994560483
0.799455775782
0.799455298901
0.799454680926
0.799453782845
0.799452687495
0.79945178072
0.79945062156
0.799449769771
0.79944926939
0.799449090959
0.79944926939
0.799449769771
0.79945062156
0.79945178072
0.799452687495
0.799453782845
0.799454680926
0.799455298901
0.799455775782
0.7994560483
0.799456613694
0.799456348418
0.799455896318
0.799455298901
0.799454649852
0.799453809326
0.799452844928
0.79945213312
0.799451609463
0.799451061822
0.799450880499
0.799451061822
0.799451609463
0.79945213312
0.799452844928
0.799453809326
0.799454649852
0.799455298901
0.799455896318
0.799456348418
0.799456613694
0.799457031172
0.799456793062
0.799456348418
0.799455775782
0.799455140357
0.799454564585
0.799453777108
0.799453025438
0.799452492176
0.799452176645
0.799452078022
0.799452176645
0.799452492176
0.799453025438
0.799453777108
0.799454564585
0.799455140357
0.799455775782
0.799456348418
0.799456793062
0.799457031172
0.799457236345
0.799457031172
0.799456613694
0.7994560483
0.799455434624
0.799454847872
0.799454280677
0.799453535969
0.799453006615
0.799452686204
0.799452585152
0.799452686204
0.799453006615
0.799453535969
0.799454280677
0.799454847872
0.799455434624
0.7994560483
0.799456613694
0.799457031172
0.799457236345
0.799457205231
0.79945701618
0.799456593692
0.799456024543
0.799455408318
0.799454819632
0.799454264917
0.799453517791
0.79945298479
0.799452659443
0.79945255904
0.799452659443
0.79945298479
0.799453517791
0.799454264917
0.799454819632
0.799455408318
0.799456024543
0.799456593692
0.79945701618
0.799457205231
0.79945701618
0.799456771355
0.799456330522
0.799455754597
0.799455117095
0.799454531111
0.799453756901
0.799453003434
0.799452466977
0.799452146475
0.799452049134
0.799452146475
0.799452466977
0.799453003434
0.799453756901
0.799454531111
0.799455117095
0.799455754597
0.799456330522
0.799456771355
0.79945701618
0.799456593692
0.799456330522
0.799455874027
0.799455274048
0.799454623864
0.799453788838
0.799452824548
0.799452103525
0.79945159248
0.799451040502
0.799450860852
0.799451040502
0.79945159248
0.799452103525
0.799452824548
0.799453788838
0.799454623864
0.799455274048
0.799455874027
0.799456330522
0.799456593692
0.799456024543
0.799455754597
0.799455274048
0.799454654617
0.799453762588
0.799452660305
0.799451746987
0.799450603981
0.799449743544
0.799449240395
0.799449064102
0.799449240395
0.799449743544
0.799450603981
0.799451746987
0.799452660305
0.799453762588
0.799454654617
0.799455274048
0.799455754597
0.799456024543
0.799455408318
0.799455117095
0.799454623864
0.799453762588
0.799452592559
0.799451511569
0.799449942432
0.799448825067
0.799447450499
0.799446653038
0.799446432479
0.799446653038
0.799447450499
0.799448825067
0.799449942432
0.799451511569
0.799452592559
0.799453762588
0.799454623864
0.799455117095
0.799455408318
0.799454819632
0.799454531111
0.799453788838
0.799452660305
0.799451511569
0.799449731148
0.799447984684
0.799446233559
0.799444419762
0.799443395818
0.799442870521
0.799443395818
0.799444419762
0.799446233559
0.799447984684
0.799449731148
0.799451511569
0.799452660305
0.799453788838
0.799454531111
0.799454819632
0.799454264917
0.799453756901
0.799452824548
0.799451746987
0.799449942432
0.799447984684
0.799445714979
0.799443270002
0.79944074818
0.799438696808
0.799438036397
0.799438696808
0.79944074818
0.799443270002
0.799445714979
0.799447984684
0.799449942432
0.799451746987
0.799452824548
0.799453756901
0.799454264917
0.799453517791
0.799453003434
0.799452103525
0.799450603981
0.799448825067
0.799446233559
0.799443270002
0.799439607543
0.799435886587
0.799432700166
0.799431094405
0.799432700166
0.799435886587
0.799439607543
0.799443270002
0.799446233559
0.799448825067
0.799450603981
0.799452103525
0.799453003434
0.799453517791
0.79945298479
0.799452466977
0.79945159248
0.799449743544
0.799447450499
0.799444419762
0.79944074818
0.799435886587
0.799430298773
0.799424495531
0.799420923217
0.799424495531
0.799430298773
0.799435886587
0.79944074818
0.799444419762
0.799447450499
0.799449743544
0.79945159248
0.799452466977
0.79945298479
0.799452659443
0.799452146475
0.799451040502
0.799449240395
0.799446653038
0.799443395818
0.799438696808
0.799432700166
0.799424495531
0.799413665059
0.799402455744
0.799413665059
0.799424495531
0.799432700166
0.799438696808
0.799443395818
0.799446653038
0.799449240395
0.799451040502
0.799452146475
0.799452659443
0.79945255904
0.799452049134
0.799450860852
0.799449064102
0.799446432479
0.799442870521
0.799438036397
0.799431094405
0.799420923217
0.799402455744
0.799360482597
0.799402455744
0.799420923217
0.799431094405
0.799438036397
0.799442870521
0.799446432479
0.799449064102
0.799450860852
0.799452049134
0.79945255904
0.799452659443
0.799452146475
0.799451040502
0.799449240395
0.799446653038
0.799443395818
0.799438696808
0.799432700166
0.799424495531
0.799413665059
0.799402455744
0.799413665059
0.799424495531
0.799432700166
0.799438696808
0.799443395818
0.799446653038
0.799449240395
0.799451040502
0.799452146475
0.799452659443
0.79945298479
0.799452466977
0.79945159248
0.799449743544
0.799447450499
0.799444419762
0.79944074818
0.799435886587
0.799430298773
0.799424495531
0.799420923217
0.799424495531
0.799430298773
0.799435886587
0.79944074818
0.799444419762
0.799447450499
0.799449743544
0.79945159248
0.799452466977
0.79945298479
0.799453517791
0.799453003434
0.799452103525
0.799450603981
0.799448825067
0.799446233559
0.799443270002
0.799439607543
0.799435886587
0.799432700166
0.799431094405
0.799432700166
0.799435886587
0.799439607543
0.799443270002
0.799446233559
0.799448825067
0.799450603981
0.799452103525
0.799453003434
0.799453517791
0.799454264917
0.799453756901
0.799452824548
0.799451746987
0.799449942432
0.799447984684
0.799445714979
0.799443270002
0.79944074818
0.799438696808
0.799438036397
0.799438696808
0.79944074818
0.799443270002
0.799445714979
0.799447984684
0.799449942432
0.799451746987
0.799452824548
0.799453756901
0.799454264917
0.799454819632
0.799454531111
0.799453788838
0.799452660305
0.799451511569
0.799449731148
0.799447984684
0.799446233559
0.799444419762
0.799443395818
0.799442870521
0.799443395818
0.799444419762
0.799446233559
0.799447984684
0.799449731148
0.799451511569
0.799452660305
0.799453788838
0.799454531111
0.799454819632
0.799455408318
0.799455117095
0.799454623864
0.799453762588
0.799452592559
0.799451511569
0.799449942432
0.799448825067
0.799447450499
0.799446653038
0.799446432479
0.799446653038
0.799447450499
0.799448825067
0.799449942432
0.799451511569
0.799452592559
0.799453762588
0.799454623864
0.799455117095
0.799455408318
0.799456024543
0.799455754597
0.799455274048
0.799454654617
0.799453762588
0.799452660305
0.799451746987
0.799450603981
0.799449743544
0.799449240395
0.799449064102
0.799449240395
0.799449743544
0.799450603981
0.799451746987
0.799452660305
0.799453762588
0.799454654617
0.799455274048
0.799455754597
0.799456024543
0.799456593692
0.799456330522
0.799455874027
0.799455274048
0.799454623864
0.799453788838
0.799452824548
0.799452103525
0.79945159248
0.799451040502
0.799450860852
0.799451040502
0.79945159248
0.799452103525
0.799452824548
0.799453788838
0.799454623864
0.799455274048
0.799455874027
0.799456330522
0.799456593692
0.79945701618
0.799456771355
0.799456330522
0.799455754597
0.799455117095
0.799454531111
0.799453756901
0.799453003434
0.799452466977
0.799452146475
0.799452049134
0.799452146475
0.799452466977
0.799453003434
0.799453756901
0.799454531111
0.799455117095
0.799455754597
0.799456330522
0.799456771355
0.79945701618
0.799457205231
0.79945701618
0.799456593692
0.799456024543
0.799455408318
0.799454819632
0.799454264917
0.799453517791
0.79945298479
0.799452659443
0.79945255904
0.799452659443
0.79945298479
0.799453517791
0.799454264917
0.799454819632
0.799455408318
0.799456024543
0.799456593692
0.79945701618
0.799457205231
0.799457171147
0.799456998217
0.79945657061
0.799455997817
0.799455378162
0.799454788422
0.799454246183
0.799453496641
0.799452959984
0.799452629214
0.799452529956
0.799452629214
0.799452959984
0.799453496641
0.799454246183
0.799454788422
0.799455378162
0.799455997817
0.79945657061
0.799456998217
0.799457171147
0.799456998217
0.799456746678
0.799456309653
0.79945573044
0.799455090861
0.799454495522
0.799453733722
0.799452978019
0.799452438977
0.799452113333
0.799452017276
0.799452113333
0.799452438977
0.799452978019
0.799453733722
0.799454495522
0.799455090861
0.79945573044
0.799456309653
0.799456746678
0.799456998217
0.79945657061
0.799456309653
0.799455848765
0.799455246224
0.799454594942
0.799453765379
0.799452800545
0.799452070961
0.799451569673
0.79945101621
0.79945083816
0.79945101621
0.799451569673
0.799452070961
0.799452800545
0.799453765379
0.799454594942
0.799455246224
0.799455848765
0.799456309653
0.79945657061
0.799455997817
0.79945573044
0.799455246224
0.799454625184
0.799453739206
0.799452630064
0.799451710218
0.799450583429
0.799449714347
0.799449208428
0.799449034271
0.799449208428
0.799449714347
0.799450583429
0.799451710218
0.799452630064
0.799453739206
0.799454625184
0.799455246224
0.79945573044
0.799455997817
0.799455378162
0.799455090861
0.799454594942
0.799453739206
0.799452563097
0.799451492119
0.79944991088
0.799448804004
0.799447424497
0.799446620391
0.799446400464
0.799446620391
0.799447424497
0.799448804004
0.79944991088
0.799451492119
0.799452563097
0.799453739206
0.799454594942
0.799455090861
0.799455378162
0.799454788422
0.799454495522
0.799453765379
0.799452630064
0.799451492119
0.799449702088
0.799447962363
0.799446203947
0.799444395742
0.79944335804
0.799442852205
0.79944335804
0.799444395742
0.799446203947
0.799447962363
0.799449702088
0.799451492119
0.799452630064
0.799453765379
0.799454495522
0.799454788422
0.799454246183
0.799453733722
0.799452800545
0.799451710218
0.79944991088
0.799447962363
0.799445696496
0.799443248524
0.799440717126
0.799438665255
0.799438004274
0.799438665255
0.799440717126
0.799443248524
0.799445696496
0.799447962363
0.79944991088
0.799451710218
0.799452800545
0.799453733722
0.799454246183
0.799453496641
0.799452978019
0.799452070961
0.799450583429
0.799448804004
0.799446203947
0.799443248524
0.799439584532
0.799435855196
0.799432664547
0.79943107242
0.799432664547
0.799435855196
0.799439584532
0.799443248524
0.799446203947
0.799448804004
0.799450583429
0.799452070961
0.799452978019
0.799453496641
0.799452959984
0.799452438977
0.799451569673
0.799449714347
0.799447424497
0.799444395742
0.799440717126
0.799435855196
0.799430267495
0.799424467134
0.799420901989
0.799424467134
0.799430267495
0.799435855196
0.799440717126
0.799444395742
0.799447424497
0.799449714347
0.799451569673
0.799452438977
0.799452959984
0.799452629214
0.799452113333
0.79945101621
0.799449208428
0.799446620391
0.79944335804
0.799438665255
0.799432664547
0.799424467134
0.799413634078
0.799402427634
0.799413634078
0.799424467134
0.799432664547
0.799438665255
0.79944335804
0.799446620391
0.799449208428
0.79945101621
0.799452113333
0.799452629214
0.799452529956
0.799452017276
0.79945083816
0.799449034271
0.799446400464
0.799442852205
0.799438004274
0.79943107242
0.799420901989
0.799402427634
0.799360448277
0.799402427634
0.799420901989
0.79943107242
0.799438004274
0.799442852205
0.799446400464
0.799449034271
0.79945083816
0.799452017276
0.799452529956
0.799452629214
0.799452113333
0.79945101621
0.799449208428
0.799446620391
0.79944335804
0.799438665255
0.799432664547
0.799424467134
0.799413634078
0.799402427634
0.799413634078
0.799424467134
0.799432664547
0.799438665255
0.79944335804
0.799446620391
0.799449208428
0.79945101621
0.799452113333
0.799452629214
0.799452959984
0.799452438977
0.799451569673
0.799449714347
0.799447424497
0.799444395742
0.799440717126
0.799435855196
0.799430267495
0.799424467134
0.799420901989
0.799424467134
0.799430267495
0.799435855196
0.799440717126
0.799444395742
0.799447424497
0.799449714347
0.799451569673
0.799452438977
0.799452959984
0.799453496641
0.799452978019
0.799452070961
0.799450583429
0.799448804004
0.799446203947
0.799443248524
0.799439584532
0.799435855196
0.799432664547
0.79943107242
0.799432664547
0.799435855196
0.799439584532
0.799443248524
0.799446203947
0.799448804004
0.799450583429
0.799452070961
0.799452978019
0.799453496641
0.799454246183
0.799453733722
0.799452800545
0.799451710218
0.79944991088
0.799447962363
0.799445696496
0.799443248524
0.799440717126
0.799438665255
0.799438004274
0.799438665255
0.799440717126
0.799443248524
0.799445696496
0.799447962363
0.79944991088
0.799451710218
0.799452800545
0.799453733722
0.799454246183
0.799454788422
0.799454495522
0.799453765379
0.799452630064
0.799451492119
0.799449702088
0.799447962363
0.799446203947
0.799444395742
0.79944335804
0.799442852205
0.79944335804
0.799444395742
0.799446203947
0.799447962363
0.799449702088
0.799451492119
0.799452630064
0.799453765379
0.799454495522
0.799454788422
0.799455378162
0.799455090861
0.799454594942
0.799453739206
0.799452563097
0.799451492119
0.79944991088
0.799448804004
0.799447424497
0.799446620391
0.799446400464
0.799446620391
0.799447424497
0.799448804004
0.79944991088
0.799451492119
0.799452563097
0.799453739206
0.799454594942
0.799455090861
0.799455378162
0.799455997817
0.79945573044
0.799455246224
0.799454625184
0.799453739206
0.799452630064
0.799451710218
0.799450583429
0.799449714347
0.799449208428
0.799449034271
0.799449208428
0.799449714347
0.799450583429
0.799451710218
0.799452630064
0.799453739206
0.799454625184
0.799455246224
0.79945573044
0.799455997817
0.79945657061
0.799456309653
0.799455848765
0.799455246224
0.799454594942
0.799453765379
0.799452800545
0.799452070961
0.799451569673
0.79945101621
0.79945083816
0.79945101621
0.799451569673
0.799452070961
0.799452800545
0.799453765379
0.799454594942
0.799455246224
0.799455848765
0.799456309653
0.79945657061
0.799456998217
0.799456746678
0.799456309653
0.79945573044
0.799455090861
0.799454495522
0.799453733722
0.799452978019
0.799452438977
0.799452113333
0.799452017276
0.799452113333
0.799452438977
0.799452978019
0.799453733722
0.799454495522
0.799455090861
0.79945573044
0.799456309653
0.799456746678
0.799456998217
0.799457171147
0.799456998217
0.79945657061
0.799455997817
0.799455378162
0.799454788422
0.799454246183
0.799453496641
0.799452959984
0.799452629214
0.799452529956
0.799452629214
0.799452959984
0.799453496641
0.799454246183
0.799454788422
0.799455378162
0.799455997817
0.79945657061
0.799456998217
0.799457171147
0.799457136767
0.799456979958
0.799456547231
0.799455970788
0.799455349464
0.799454756621
0.799454227153
0.799453475181
0.799452934874
0.799452598682
0.799452500569
0.799452598682
0.799452934874
0.799453475181
0.799454227153
0.799454756621
0.799455349464
0.799455970788
0.799456547231
0.799456979958
0.799457136767
0.799456979958
0.799456721705
0.799456288481
0.799455705983
0.799455064326
0.799454458918
0.799453710241
0.799452952828
0.799452410587
0.799452079882
0.799451985104
0.799452079882
0.799452410587
0.799452952828
0.799453710241
0.799454458918
0.799455064326
0.799455705983
0.799456288481
0.799456721705
0.799456979958
0.799456547231
0.799456288481
0.799455822634
0.7994552181
0.799454565694
0.799453741618
0.799452777534
0.799452038085
0.799451534855
0.79945099161
0.799450815156
0.79945099161
0.799451534855
0.799452038085
0.799452777534
0.799453741618
0.799454565694
0.7994552181
0.799455822634
0.799456288481
0.799456547231
0.799455970788
0.799455705983
0.7994552181
0.799454595748
0.799453715829
0.799452599519
0.799451673139
0.799450562565
0.799449684831
0.7994491753
0.799449004128
0.7994491753
0.799449684831
0.799450562565
0.799451673139
0.799452599519
0.799453715829
0.799454595748
0.7994552181
0.799455705983
0.799455970788
0.799455349464
0.799455064326
0.799454565694
0.799453715829
0.799452533332
0.799451472359
0.799449879447
0.799448768534
0.799447398175
0.799446593271
0.79944636813
0.799446593271
0.799447398175
0.799448768534
0.799449879447
0.799451472359
0.799452533332
0.799453715829
0.799454565694
0.799455064326
0.799455349464
0.799454756621
0.799454458918
0.799453741618
0.799452599519
0.799451472359
0.799449672078
0.799447939727
0.799446174015
0.7994443714
0.799443319902
0.799442833564
0.799443319902
0.7994443714
0.799446174015
0.799447939727
0.799449672078
0.799451472359
0.799452599519
0.799453741618
0.799454458918
0.799454756621
0.799454227153
0.799453710241
0.799452777534
0.799451673139
0.799449879447
0.799447939727
0.799445677695
0.799443225758
0.799440685734
0.799438632662
0.799437971807
0.799438632662
0.799440685734
0.799443225758
0.799445677695
0.799447939727
0.799449879447
0.799451673139
0.799452777534
0.799453710241
0.799454227153
0.799453475181
0.799452952828
0.799452038085
0.799450562565
0.799448768534
0.799446174015
0.799443225758
0.79943956115
0.799435823456
0.799432628571
0.799431050075
0.799432628571
0.799435823456
0.79943956115
0.799443225758
0.799446174015
0.799448768534
0.799450562565
0.799452038085
0.799452952828
0.799453475181
0.799452934874
0.799452410587
0.799451534855
0.799449684831
0.799447398175
0.7994443714
0.799440685734
0.799435823456
0.799430235851
0.799424438355
0.799420880365
0.799424438355
0.799430235851
0.799435823456
0.799440685734
0.7994443714
0.799447398175
0.799449684831
0.799451534855
0.799452410587
0.799452934874
0.799452598682
0.799452079882
0.79945099161
0.7994491753
0.799446593271
0.799443319902
0.799438632662
0.799432628571
0.799424438355
0.79941360267
0.799402399035
0.79941360267
0.799424438355
0.799432628571
0.799438632662
0.799443319902
0.799446593271
0.7994491753
0.79945099161
0.799452079882
0.799452598682
0.799452500569
0.799451985104
0.799450815156
0.799449004128
0.79944636813
0.799442833564
0.799437971807
0.799431050075
0.799420880365
0.799402399035
0.799360413123
0.799402399035
0.799420880365
0.799431050075
0.799437971807
0.799442833564
0.79944636813
0.799449004128
0.799450815156
0.799451985104
0.799452500569
0.799452598682
0.799452079882
0.79945099161
0.7994491753
0.799446593271
0.799443319902
0.799438632662
0.799432628571
0.799424438355
0.79941360267
0.799402399035
0.79941360267
0.799424438355
0.799432628571
0.799438632662
0.799443319902
0.799446593271
0.7994491753
0.79945099161
0.799452079882
0.799452598682
0.799452934874
0.799452410587
0.799451534855
0.799449684831
0.799447398175
0.7994443714
0.799440685734
0.799435823456
0.799430235851
0.799424438355
0.799420880365
0.799424438355
0.799430235851
0.799435823456
0.799440685734
0.7994443714
0.799447398175
0.799449684831
0.799451534855
0.799452410587
0.799452934874
0.799453475181
0.799452952828
0.799452038085
0.799450562565
0.799448768534
0.799446174015
0.799443225758
0.79943956115
0.799435823456
0.799432628571
0.799431050075
0.799432628571
0.799435823456
0.79943956115
0.799443225758
0.799446174015
0.799448768534
0.799450562565
0.799452038085
0.799452952828
0.799453475181
0.799454227153
0.799453710241
0.799452777534
0.799451673139
0.799449879447
0.799447939727
0.799445677695
0.799443225758
0.799440685734
0.799438632662
0.799437971807
0.799438632662
0.799440685734
0.799443225758
0.799445677695
0.799447939727
0.799449879447
0.799451673139
0.799452777534
0.799453710241
0.799454227153
0.799454756621
0.799454458918
0.799453741618
0.799452599519
0.799451472359
0.799449672078
0.799447939727
0.799446174015
0.7994443714
0.799443319902
0.799442833564
0.799443319902
0.7994443714
0.799446174015
0.799447939727
0.799449672078
0.799451472359
0.799452599519
0.799453741618
0.799454458918
0.799454756621
0.799455349464
0.799455064326
0.799454565694
0.799453715829
0.799452533332
0.799451472359
0.799449879447
0.799448768534
0.799447398175
0.799446593271
0.79944636813
0.799446593271
0.799447398175
0.799448768534
0.799449879447
0.799451472359
0.799452533332
0.799453715829
0.799454565694
0.799455064326
0.799455349464
0.799455970788
0.799455705983
0.7994552181
0.799454595748
0.799453715829
0.799452599519
0.799451673139
0.799450562565
0.799449684831
0.7994491753
0.799449004128
0.7994491753
0.799449684831
0.799450562565
0.799451673139
0.799452599519
0.799453715829
0.799454595748
0.7994552181
0.799455705983
0.799455970788
0.799456547231
0.799456288481
0.799455822634
0.7994552181
0.799454565694
0.799453741618
0.799452777534
0.799452038085
0.799451534855
0.79945099161
0.799450815156
0.79945099161
0.799451534855
0.799452038085
0.799452777534
0.799453741618
0.799454565694
0.7994552181
0.799455822634
0.799456288481
0.799456547231
0.799456979958
0.799456721705
0.799456288481
0.799455705983
0.799455064326
0.799454458918
0.799453710241
0.799452952828
0.799452410587
0.799452079882
0.799451985104
0.799452079882
0.799452410587
0.799452952828
0.799453710241
0.799454458918
0.799455064326
0.799455705983
0.799456288481
0.799456721705
0.799456979958
0.799457136767
0.799456979958
0.799456547231
0.799455970788
0.799455349464
0.799454756621
0.799454227153
0.799453475181
0.799452934874
0.799452598682
0.799452500569
0.799452598682
0.799452934874
0.799453475181
0.799454227153
0.799454756621
0.799455349464
0.799455970788
0.799456547231
0.799456979958
0.799457136767
