# vtk DataFile Version 3.0
Hydrogen reservoir; coordinates in metres, z positive down
ASCII
DATASET RECTILINEAR_GRID
DIMENSIONS 22 22 6
X_COORDINATES 22 double
0 47.619047619 95.2380952381 142.857142857 190.476190476 238.095238095 285.714285714 333.333333333 380.952380952 428.571428571 476.19047619 523.80952381 571.428571429 619.047619048 666.666666667 714.285714286 761.904761905 809.523809524 857.142857143 904.761904762 952.380952381 1000
Y_COORDINATES 22 double
0 47.619047619 95.2380952381 142.857142857 190.476190476 238.095238095 285.714285714 333.333333333 380.952380952 428.571428571 476.19047619 523.80952381 571.428571429 619.047619048 666.666666667 714.285714286 761.904761905 809.523809524 857.142857143 904.761904762 952.380952381 1000
Z_COORDINATES 6 double
985 991 997 1003 1009 1015
CELL_DATA 2205
SCALARS pressure_bar double 1
LOOKUP_TABLE default
57.8346458465
57.8136616541
57.773090249
57.7157229731
57.6457004191
57.5684714482
57.4905832409
57.4192525956
57.3616875615
57.3242079583
57.311188826
57.3242079583
57.3616875615
57.4192525956
57.4905832409
57.5684714482
57.6457004191
57.7157229731
57.773090249
57.8136616541
57.8346458465
57.8136616541
57.7912901137
57.7479447039
57.6864311102
57.6109724434
57.5272394127
57.442191849
57.3636963445
57.2998925314
57.2581010903
57.243535
57.2581010903
57.2998925314
57.3636963445
57.442191849
57.5272394127
57.6109724434
57.6864311102
57.7479447039
57.7912901137
57.8136616541
57.773090249
57.7479447039
57.6990269325
57.6291212763
57.542577679
57.445418465
57.3453539395
57.2516320445
57.1743437399
57.1230940442
57.105096991
57.1230940442
57.1743437399
57.2516320445
57.3453539395
57.445418465
57.542577679
57.6291212763
57.6990269325
57.7479447039
57.773090249
57.7157229731
57.6864311102
57.6291212763
57.5464726578
57.4428189879
57.3244804579
57.2001903831
57.081178637
56.9808169975
56.9129579211
56.8888246049
56.9129579211
56.9808169975
57.081178637
57.2001903831
57.3244804579
57.4428189879
57.5464726578
57.6291212763
57.6864311102
57.7157229731
57.6457004191
57.6109724434
57.542577679
57.4428189879
57.3156386019
57.167360056
57.0075063463
56.8498241988
56.7125200922
56.6168356418
56.5820598078
56.6168356418
56.7125200922
56.8498241988
57.0075063463
57.167360056
57.3156386019
57.4428189879
57.542577679
57.6109724434
57.6457004191
57.5684714482
57.5272394127
57.445418465
57.3244804579
57.167360056
56.9794076257
56.7701020182
56.5553224043
56.3596836114
56.2168600399
56.1628258035
56.2168600399
56.3596836114
56.5553224043
56.7701020182
56.9794076257
57.167360056
57.3244804579
57.445418465
57.5272394127
57.5684714482
57.4905832409
57.442191849
57.3453539395
57.2001903831
57.0075063463
56.7701020182
56.4950713409
56.1980902267
55.9100153196
55.6838069976
55.5912584482
55.6838069976
55.9100153196
56.1980902267
56.4950713409
56.7701020182
57.0075063463
57.2001903831
57.3453539395
57.442191849
57.4905832409
57.4192525956
57.3636963445
57.2516320445
57.081178637
56.8498241988
56.5553224043
56.1980902267
55.7869806791
55.3523973363
54.9702042954
54.7876225075
54.9702042954
55.3523973363
55.7869806791
56.1980902267
56.5553224043
56.8498241988
57.081178637
57.2516320445
57.3636963445
57.4192525956
57.3616875615
57.2998925314
57.1743437399
56.9808169975
56.7125200922
56.3596836114
55.9100153196
55.3523973363
54.6925549083
54.0043223143
53.5651888739
54.0043223143
54.6925549083
55.3523973363
55.9100153196
56.3596836114
56.7125200922
56.9808169975
57.1743437399
57.2998925314
57.3616875615
57.3242079583
57.2581010903
57.1230940442
56.9129579211
56.6168356418
56.2168600399
55.6838069976
54.9702042954
54.0043223143
52.7224502177
51.3881951223
52.7224502177
54.0043223143
54.9702042954
55.6838069976
56.2168600399
56.6168356418
56.9129579211
57.1230940442
57.2581010903
57.3242079583
57.311188826
57.243535
57.105096991
56.8888246049
56.5820598078
56.1628258035
55.5912584482
54.7876225075
53.5651888739
51.3881951223
46.3334861067
51.3881951223
53.5651888739
54.7876225075
55.5912584482
56.1628258035
56.5820598078
56.8888246049
57.105096991
57.243535
57.311188826
57.3242079583
57.2581010903
57.1230940442
56.9129579211
56.6168356418
56.2168600399
55.6838069976
54.9702042954
54.0043223143
52.7224502177
51.3881951223
52.7224502177
54.0043223143
54.9702042954
55.6838069976
56.2168600399
56.6168356418
56.9129579211
57.1230940442
57.2581010903
57.3242079583
57.3616875615
57.2998925314
57.1743437399
56.9808169975
56.7125200922
56.3596836114
55.9100153196
55.3523973363
54.6925549083
54.0043223143
53.5651888739
54.0043223143
54.6925549083
55.3523973363
55.9100153196
56.3596836114
56.7125200922
56.9808169975
57.1743437399
57.2998925314
57.3616875615
57.4192525956
57.3636963445
57.2516320445
57.081178637
56.8498241988
56.5553224043
56.1980902267
55.7869806791
55.3523973363
54.9702042954
54.7876225075
54.9702042954
55.3523973363
55.7869806791
56.1980902267
56.5553224043
56.8498241988
57.081178637
57.2516320445
57.3636963445
57.4192525956
57.4905832409
57.442191849
57.3453539395
57.2001903831
57.0075063463
56.7701020182
56.4950713409
56.1980902267
55.9100153196
55.6838069976
55.5912584482
55.6838069976
55.9100153196
56.1980902267
56.4950713409
56.7701020182
57.0075063463
57.2001903831
57.3453539395
57.442191849
57.4905832409
57.5684714482
57.5272394127
57.445418465
57.3244804579
57.167360056
56.9794076257
56.7701020182
56.5553224043
56.3596836114
56.2168600399
56.1628258035
56.2168600399
56.3596836114
56.5553224043
56.7701020182
56.9794076257
57.167360056
57.3244804579
57.445418465
57.5272394127
57.5684714482
57.6457004191
57.6109724434
57.542577679
57.4428189879
57.3156386019
57.167360056
57.0075063463
56.8498241988
56.7125200922
56.6168356418
56.5820598078
56.6168356418
56.7125200922
56.8498241988
57.0075063463
57.167360056
57.3156386019
57.4428189879
57.542577679
57.6109724434
57.6457004191
57.7157229731
57.6864311102
57.6291212763
57.5464726578
57.4428189879
57.3244804579
57.2001903831
57.081178637
56.9808169975
56.9129579211
56.8888246049
56.9129579211
56.9808169975
57.081178637
57.2001903831
57.3244804579
57.4428189879
57.5464726578
57.6291212763
57.6864311102
57.7157229731
57.773090249
57.7479447039
57.6990269325
57.6291212763
57.542577679
57.445418465
57.3453539395
57.2516320445
57.1743437399
57.1230940442
57.105096991
57.1230940442
57.1743437399
57.2516320445
57.3453539395
57.445418465
57.542577679
57.6291212763
57.6990269325
57.7479447039
57.773090249
57.8136616541
57.7912901137
57.7479447039
57.6864311102
57.6109724434
57.5272394127
57.442191849
57.3636963445
57.2998925314
57.2581010903
57.243535
57.2581010903
57.2998925314
57.3636963445
57.442191849
57.5272394127
57.6109724434
57.6864311102
57.7479447039
57.7912901137
57.8136616541
57.8346458465
57.8136616541
57.773090249
57.7157229731
57.6457004191
57.5684714482
57.4905832409
57.4192525956
57.3616875615
57.3242079583
57.311188826
57.3242079583
57.3616875615
57.4192525956
57.4905832409
57.5684714482
57.6457004191
57.7157229731
57.773090249
57.8136616541
57.8346458465
57.856211921
57.8352193478
57.794631386
57.7372387502
57.6671909678
57.5899310144
57.5120100335
57.4406525895
57.3830651675
57.3455708441
57.33254651
57.3455708441
57.3830651675
57.4406525895
57.5120100335
57.5899310144
57.6671909678
57.7372387502
57.794631386
57.8352193478
57.856211921
57.8352193478
57.8128387014
57.7694746908
57.707936489
57.6324489475
57.548682431
57.4635997636
57.385074457
57.3212454732
57.2794374494
57.2648644334
57.2794374494
57.3212454732
57.385074457
57.4635997636
57.548682431
57.6324489475
57.707936489
57.7694746908
57.8128387014
57.8352193478
57.794631386
57.7694746908
57.7205365774
57.6506049133
57.564026673
57.4668272754
57.366724378
57.2729647632
57.1956463442
57.1443769437
57.1263730661
57.1443769437
57.1956463442
57.2729647632
57.366724378
57.4668272754
57.564026673
57.6506049133
57.7205365774
57.7694746908
57.794631386
57.7372387502
57.707936489
57.6506049133
57.567923148
57.4642269542
57.3458425276
57.2215012417
57.1024445562
57.0020396768
56.9341573435
56.9100141624
56.9341573435
57.0020396768
57.1024445562
57.2215012417
57.3458425276
57.4642269542
57.567923148
57.6506049133
57.707936489
57.7372387502
57.6671909678
57.6324489475
57.564026673
57.4642269542
57.3369973143
57.1886600332
57.0287424725
56.8709982841
56.7336371871
56.6379159915
56.6031270503
56.6379159915
56.7336371871
56.8709982841
57.0287424725
57.1886600332
57.3369973143
57.4642269542
57.564026673
57.6324489475
57.6671909678
57.5899310144
57.548682431
57.4668272754
57.3458425276
57.1886600332
57.0006295489
56.7912448143
56.5763794604
56.3806635311
56.237778624
56.1837275552
56.237778624
56.3806635311
56.5763794604
56.7912448143
57.0006295489
57.1886600332
57.3458425276
57.4668272754
57.548682431
57.5899310144
57.5120100335
57.4635997636
57.366724378
57.2215012417
57.0287424725
56.7912448143
56.5161016822
56.2190037801
55.9308172812
55.70451819
55.6119312772
55.70451819
55.9308172812
56.2190037801
56.5161016822
56.7912448143
57.0287424725
57.2215012417
57.366724378
57.4635997636
57.5120100335
57.4406525895
57.385074457
57.2729647632
57.1024445562
56.8709982841
56.5763794604
56.2190037801
55.8077329969
55.3729758745
54.9906272153
54.8079796535
54.9906272153
55.3729758745
55.8077329969
56.2190037801
56.5763794604
56.8709982841
57.1024445562
57.2729647632
57.385074457
57.4406525895
57.3830651675
57.3212454732
57.1956463442
57.0020396768
56.7336371871
56.3806635311
55.9308172812
55.3729758745
54.7128727646
54.024370285
53.5850689841
54.024370285
54.7128727646
55.3729758745
55.9308172812
56.3806635311
56.7336371871
57.0020396768
57.1956463442
57.3212454732
57.3830651675
57.3455708441
57.2794374494
57.1443769437
56.9341573435
56.6379159915
56.237778624
55.70451819
54.9906272153
54.024370285
52.7419944229
51.4072409289
52.7419944229
54.024370285
54.9906272153
55.70451819
56.237778624
56.6379159915
56.9341573435
57.1443769437
57.2794374494
57.3455708441
57.33254651
57.2648644334
57.1263730661
56.9100141624
56.6031270503
56.1837275552
55.6119312772
54.8079796535
53.5850689841
51.4072409289
46.3506360299
51.4072409289
53.5850689841
54.8079796535
55.6119312772
56.1837275552
56.6031270503
56.9100141624
57.1263730661
57.2648644334
57.33254651
57.3455708441
57.2794374494
57.1443769437
56.9341573435
56.6379159915
56.237778624
55.70451819
54.9906272153
54.024370285
52.7419944229
51.4072409289
52.7419944229
54.024370285
54.9906272153
55.70451819
56.237778624
56.6379159915
56.9341573435
57.1443769437
57.2794374494
57.3455708441
57.3830651675
57.3212454732
57.1956463442
57.0020396768
56.7336371871
56.3806635311
55.9308172812
55.3729758745
54.7128727646
54.024370285
53.5850689841
54.024370285
54.7128727646
55.3729758745
55.9308172812
56.3806635311
56.7336371871
57.0020396768
57.1956463442
57.3212454732
57.3830651675
57.4406525895
57.385074457
57.2729647632
57.1024445562
56.8709982841
56.5763794604
56.2190037801
55.8077329969
55.3729758745
54.9906272153
54.8079796535
54.9906272153
55.3729758745
55.8077329969
56.2190037801
56.5763794604
56.8709982841
57.1024445562
57.2729647632
57.385074457
57.4406525895
57.5120100335
57.4635997636
57.366724378
57.2215012417
57.0287424725
56.7912448143
56.5161016822
56.2190037801
55.9308172812
55.70451819
55.6119312772
55.70451819
55.9308172812
56.2190037801
56.5161016822
56.7912448143
57.0287424725
57.2215012417
57.366724378
57.4635997636
57.5120100335
57.5899310144
57.548682431
57.4668272754
57.3458425276
57.1886600332
57.0006295489
56.7912448143
56.5763794604
56.3806635311
56.237778624
56.1837275552
56.237778624
56.3806635311
56.5763794604
56.7912448143
57.0006295489
57.1886600332
57.3458425276
57.4668272754
57.548682431
57.5899310144
57.6671909678
57.6324489475
57.564026673
57.4642269542
57.3369973143
57.1886600332
57.0287424725
56.8709982841
56.7336371871
56.6379159915
56.6031270503
56.6379159915
56.7336371871
56.8709982841
57.0287424725
57.1886600332
57.3369973143
57.4642269542
57.564026673
57.6324489475
57.6671909678
57.7372387502
57.707936489
57.6506049133
57.567923148
57.4642269542
57.3458425276
57.2215012417
57.1024445562
57.0020396768
56.9341573435
56.9100141624
56.9341573435
57.0020396768
57.1024445562
57.2215012417
57.3458425276
57.4642269542
57.567923148
57.6506049133
57.707936489
57.7372387502
57.794631386
57.7694746908
57.7205365774
57.6506049133
57.564026673
57.4668272754
57.366724378
57.2729647632
57.1956463442
57.1443769437
57.1263730661
57.1443769437
57.1956463442
57.2729647632
57.366724378
57.4668272754
57.564026673
57.6506049133
57.7205365774
57.7694746908
57.794631386
57.8352193478
57.8128387014
57.7694746908
57.707936489
57.6324489475
57.548682431
57.4635997636
57.385074457
57.3212454732
57.2794374494
57.2648644334
57.2794374494
57.3212454732
57.385074457
57.4635997636
57.548682431
57.6324489475
57.707936489
57.7694746908
57.8128387014
57.8352193478
57.856211921
57.8352193478
57.794631386
57.7372387502
57.6671909678
57.5899310144
57.5120100335
57.4406525895
57.3830651675
57.3455708441
57.33254651
57.3455708441
57.3830651675
57.4406525895
57.5120100335
57.5899310144
57.6671909678
57.7372387502
57.794631386
57.8352193478
57.856211921
57.8777846753
57.8567836779
57.8161790506
57.7587603562
57.688687858
57.6113969042
57.5334440169
57.4620576538
57.4044492859
57.3669402716
57.3539108022
57.3669402716
57.4044492859
57.4620576538
57.5334440169
57.6113969042
57.688687858
57.7587603562
57.8161790506
57.8567836779
57.8777846753
57.8567836779
57.8343939176
57.791011599
57.7294467391
57.6539318897
57.5701315788
57.4850126339
57.4064591784
57.3426046155
57.3007804865
57.286201353
57.3007804865
57.3426046155
57.4064591784
57.4850126339
57.5701315788
57.6539318897
57.7294467391
57.791011599
57.8343939176
57.8567836779
57.8161790506
57.791011599
57.7420516662
57.6720951418
57.5854816243
57.488241072
57.3881013953
57.2943041977
57.2169535413
57.1656662055
57.1476556071
57.1656662055
57.2169535413
57.2943041977
57.3881013953
57.488241072
57.5854816243
57.6720951418
57.7420516662
57.791011599
57.8161790506
57.7587603562
57.7294467391
57.6720951418
57.5893794769
57.4856396874
57.36721102
57.2428171606
57.1237169846
57.0232692229
56.9553618705
56.9312102451
56.9553618705
57.0232692229
57.1237169846
57.2428171606
57.36721102
57.4856396874
57.5893794769
57.6720951418
57.7294467391
57.7587603562
57.688687858
57.6539318897
57.5854816243
57.4856396874
57.3583624571
57.2099652204
57.0499855626
56.8921787681
56.7547594679
56.6590033422
56.6241998449
56.6590033422
56.7547594679
56.8921787681
57.0499855626
57.2099652204
57.3583624571
57.4856396874
57.5854816243
57.6539318897
57.688687858
57.6113969042
57.5701315788
57.488241072
57.36721102
57.2099652204
57.0218583279
56.8123940081
56.5974427132
56.4016506269
56.2587012143
56.2046341165
56.2587012143
56.4016506269
56.5974427132
56.8123940081
57.0218583279
57.2099652204
57.36721102
57.488241072
57.5701315788
57.6113969042
57.5334440169
57.4850126339
57.3881013953
57.2428171606
57.0499855626
56.8123940081
56.5371394056
56.2399207925
55.9516243077
55.7252332008
55.63261108
55.7252332008
55.9516243077
56.2399207925
56.5371394056
56.8123940081
57.0499855626
57.2428171606
57.3881013953
57.4850126339
57.5334440169
57.4620576538
57.4064591784
57.2943041977
57.1237169846
56.8921787681
56.5974427132
56.2399207925
55.8284931257
55.3935610858
55.0110561573
54.8283438556
55.0110561573
55.3935610858
55.8284931257
56.2399207925
56.5974427132
56.8921787681
57.1237169846
57.2943041977
57.4064591784
57.4620576538
57.4044492859
57.3426046155
57.2169535413
57.0232692229
56.7547594679
56.4016506269
55.9516243077
55.3935610858
54.7331930894
54.0444294156
53.6049586845
54.0444294156
54.7331930894
55.3935610858
55.9516243077
56.4016506269
56.7547594679
57.0232692229
57.2169535413
57.3426046155
57.4044492859
57.3669402716
57.3007804865
57.1656662055
56.9553618705
56.6590033422
56.2587012143
55.7252332008
55.0110561573
54.0444294156
52.7615456769
51.4263111644
52.7615456769
54.0444294156
55.0110561573
55.7252332008
56.2587012143
56.6590033422
56.9553618705
57.1656662055
57.3007804865
57.3669402716
57.3539108022
57.286201353
57.1476556071
56.9312102451
56.6241998449
56.2046341165
55.63261108
54.8283438556
53.6049586845
51.4263111644
46.3677885546
51.4263111644
53.6049586845
54.8283438556
55.63261108
56.2046341165
56.6241998449
56.9312102451
57.1476556071
57.286201353
57.3539108022
57.3669402716
57.3007804865
57.1656662055
56.9553618705
56.6590033422
56.2587012143
55.7252332008
55.0110561573
54.0444294156
52.7615456769
51.4263111644
52.7615456769
54.0444294156
55.0110561573
55.7252332008
56.2587012143
56.6590033422
56.9553618705
57.1656662055
57.3007804865
57.3669402716
57.4044492859
57.3426046155
57.2169535413
57.0232692229
56.7547594679
56.4016506269
55.9516243077
55.3935610858
54.7331930894
54.0444294156
53.6049586845
54.0444294156
54.7331930894
55.3935610858
55.9516243077
56.4016506269
56.7547594679
57.0232692229
57.2169535413
57.3426046155
57.4044492859
57.4620576538
57.4064591784
57.2943041977
57.1237169846
56.8921787681
56.5974427132
56.2399207925
55.8284931257
55.3935610858
55.0110561573
54.8283438556
55.0110561573
55.3935610858
55.8284931257
56.2399207925
56.5974427132
56.8921787681
57.1237169846
57.2943041977
57.4064591784
57.4620576538
57.5334440169
57.4850126339
57.3881013953
57.2428171606
57.0499855626
56.8123940081
56.5371394056
56.2399207925
55.9516243077
55.7252332008
55.63261108
55.7252332008
55.9516243077
56.2399207925
56.5371394056
56.8123940081
57.0499855626
57.2428171606
57.3881013953
57.4850126339
57.5334440169
57.6113969042
57.5701315788
57.488241072
57.36721102
57.2099652204
57.0218583279
56.8123940081
56.5974427132
56.4016506269
56.2587012143
56.2046341165
56.2587012143
56.4016506269
56.5974427132
56.8123940081
57.0218583279
57.2099652204
57.36721102
57.488241072
57.5701315788
57.6113969042
57.688687858
57.6539318897
57.5854816243
57.4856396874
57.3583624571
57.2099652204
57.0499855626
56.8921787681
56.7547594679
56.6590033422
56.6241998449
56.6590033422
56.7547594679
56.8921787681
57.0499855626
57.2099652204
57.3583624571
57.4856396874
57.5854816243
57.6539318897
57.688687858
57.7587603562
57.7294467391
57.6720951418
57.5893794769
57.4856396874
57.36721102
57.2428171606
57.1237169846
57.0232692229
56.9553618705
56.9312102451
56.9553618705
57.0232692229
57.1237169846
57.2428171606
57.36721102
57.4856396874
57.5893794769
57.6720951418
57.7294467391
57.7587603562
57.8161790506
57.791011599
57.7420516662
57.6720951418
57.5854816243
57.488241072
57.3881013953
57.2943041977
57.2169535413
57.1656662055
57.1476556071
57.1656662055
57.2169535413
57.2943041977
57.3881013953
57.488241072
57.5854816243
57.6720951418
57.7420516662
57.791011599
57.8161790506
57.8567836779
57.8343939176
57.791011599
57.7294467391
57.6539318897
57.5701315788
57.4850126339
57.4064591784
57.3426046155
57.3007804865
57.286201353
57.3007804865
57.3426046155
57.4064591784
57.4850126339
57.5701315788
57.6539318897
57.7294467391
57.791011599
57.8343939176
57.8567836779
57.8777846753
57.8567836779
57.8161790506
57.7587603562
57.688687858
57.6113969042
57.5334440169
57.4620576538
57.4044492859
57.3669402716
57.3539108022
57.3669402716
57.4044492859
57.4620576538
57.5334440169
57.6113969042
57.688687858
57.7587603562
57.8161790506
57.8567836779
57.8777846753
57.8993660521
57.8783565899
57.8377354082
57.7802920793
57.7101922556
57.632871416
57.5548869089
57.4834700631
57.4258420327
57.3883181955
57.375283611
57.3883181955
57.4258420327
57.4834700631
57.5548869089
57.632871416
57.7101922556
57.7802920793
57.8377354082
57.8783565899
57.8993660521
57.8783565899
57.8559577362
57.8125573641
57.7509653106
57.675423747
57.5915891337
57.5064339321
57.4278526958
57.3639720699
57.3221320442
57.3075471278
57.3221320442
57.3639720699
57.4278526958
57.5064339321
57.5915891337
57.675423747
57.7509653106
57.8125573641
57.8559577362
57.8783565899
57.8377354082
57.8125573641
57.7635756839
57.6935939579
57.6069449496
57.5096633563
57.4094875992
57.3156521518
57.2382679981
57.1869638415
57.1689465097
57.1869638415
57.2382679981
57.3156521518
57.4094875992
57.5096633563
57.6069449496
57.6935939579
57.7635756839
57.8125573641
57.8377354082
57.7802920793
57.7509653106
57.6935939579
57.6108442204
57.5070606993
57.3885883962
57.2641417479
57.1449983021
57.0445088257
56.9765727635
56.9524138914
56.9765727635
57.0445088257
57.1449983021
57.2641417479
57.3885883962
57.5070606993
57.6108442204
57.6935939579
57.7509653106
57.7802920793
57.7101922556
57.675423747
57.6069449496
57.5070606993
57.3797362942
57.2312772773
57.0712376431
56.9133679335
56.7758915901
56.6800999411
56.6452812846
56.6800999411
56.7758915901
56.9133679335
57.0712376431
57.2312772773
57.3797362942
57.5070606993
57.6069449496
57.675423747
57.7101922556
57.632871416
57.5915891337
57.5096633563
57.3885883962
57.2312772773
57.0430977037
56.8335514448
56.6185140997
56.4226457099
56.2796341859
56.2255463672
56.2796341859
56.4226457099
56.6185140997
56.8335514448
57.0430977037
57.2312772773
57.3885883962
57.5096633563
57.5915891337
57.632871416
57.5548869089
57.5064339321
57.4094875992
57.2641417479
57.0712376431
56.8335514448
56.5581860011
56.2608452522
55.9724373748
55.7459539026
55.6533009714
55.7459539026
55.9724373748
56.2608452522
56.5581860011
56.8335514448
57.0712376431
57.2641417479
57.4094875992
57.5064339321
57.5548869089
57.4834700631
57.4278526958
57.3156521518
57.1449983021
56.9133679335
56.6185140997
56.2608452522
55.8492627304
55.4141557836
55.0314987922
54.8487153668
55.0314987922
55.4141557836
55.8492627304
56.2608452522
56.6185140997
56.9133679335
57.1449983021
57.3156521518
57.4278526958
57.4834700631
57.4258420327
57.3639720699
57.2382679981
57.0445088257
56.7758915901
56.4226457099
55.9724373748
55.4141557836
54.7535186619
54.0644963984
53.6248558714
54.0644963984
54.7535186619
55.4141557836
55.9724373748
56.4226457099
56.7758915901
57.0445088257
57.2382679981
57.3639720699
57.4258420327
57.3883181955
57.3221320442
57.1869638415
56.9765727635
56.6800999411
56.2796341859
55.7459539026
55.0314987922
54.0644963984
52.7811110927
51.4453847759
52.7811110927
54.0644963984
55.0314987922
55.7459539026
56.2796341859
56.6800999411
56.9765727635
57.1869638415
57.3221320442
57.3883181955
57.375283611
57.3075471278
57.1689465097
56.9524138914
56.6452812846
56.2255463672
55.6533009714
54.8487153668
53.6248558714
51.4453847759
46.3849076808
51.4453847759
53.6248558714
54.8487153668
55.6533009714
56.2255463672
56.6452812846
56.9524138914
57.1689465097
57.3075471278
57.375283611
57.3883181955
57.3221320442
57.1869638415
56.9765727635
56.6800999411
56.2796341859
55.7459539026
55.0314987922
54.0644963984
52.7811110927
51.4453847759
52.7811110927
54.0644963984
55.0314987922
55.7459539026
56.2796341859
56.6800999411
56.9765727635
57.1869638415
57.3221320442
57.3883181955
57.4258420327
57.3639720699
57.2382679981
57.0445088257
56.7758915901
56.4226457099
55.9724373748
55.4141557836
54.7535186619
54.0644963984
53.6248558714
54.0644963984
54.7535186619
55.4141557836
55.9724373748
56.4226457099
56.7758915901
57.0445088257
57.2382679981
57.3639720699
57.4258420327
57.4834700631
57.4278526958
57.3156521518
57.1449983021
56.9133679335
56.6185140997
56.2608452522
55.8492627304
55.4141557836
55.0314987922
54.8487153668
55.0314987922
55.4141557836
55.8492627304
56.2608452522
56.6185140997
56.9133679335
57.1449983021
57.3156521518
57.4278526958
57.4834700631
57.5548869089
57.5064339321
57.4094875992
57.2641417479
57.0712376431
56.8335514448
56.5581860011
56.2608452522
55.9724373748
55.7459539026
55.6533009714
55.7459539026
55.9724373748
56.2608452522
56.5581860011
56.8335514448
57.0712376431
57.2641417479
57.4094875992
57.5064339321
57.5548869089
57.632871416
57.5915891337
57.5096633563
57.3885883962
57.2312772773
57.0430977037
56.8335514448
56.6185140997
56.4226457099
56.2796341859
56.2255463672
56.2796341859
56.4226457099
56.6185140997
56.8335514448
57.0430977037
57.2312772773
57.3885883962
57.5096633563
57.5915891337
57.632871416
57.7101922556
57.675423747
57.6069449496
57.5070606993
57.3797362942
57.2312772773
57.0712376431
56.9133679335
56.7758915901
56.6800999411
56.6452812846
56.6800999411
56.7758915901
56.9133679335
57.0712376431
57.2312772773
57.3797362942
57.5070606993
57.6069449496
57.675423747
57.7101922556
57.7802920793
57.7509653106
57.6935939579
57.6108442204
57.5070606993
57.3885883962
57.2641417479
57.1449983021
57.0445088257
56.9765727635
56.9524138914
56.9765727635
57.0445088257
57.1449983021
57.2641417479
57.3885883962
57.5070606993
57.6108442204
57.6935939579
57.7509653106
57.7802920793
57.8377354082
57.8125573641
57.7635756839
57.6935939579
57.6069449496
57.5096633563
57.4094875992
57.3156521518
57.2382679981
57.1869638415
57.1689465097
57.1869638415
57.2382679981
57.3156521518
57.4094875992
57.5096633563
57.6069449496
57.6935939579
57.7635756839
57.8125573641
57.8377354082
57.8783565899
57.8559577362
57.8125573641
57.7509653106
57.675423747
57.5915891337
57.5064339321
57.4278526958
57.3639720699
57.3221320442
57.3075471278
57.3221320442
57.3639720699
57.4278526958
57.5064339321
57.5915891337
57.675423747
57.7509653106
57.8125573641
57.8559577362
57.8783565899
57.8993660521
57.8783565899
57.8377354082
57.7802920793
57.7101922556
57.632871416
57.5548869089
57.4834700631
57.4258420327
57.3883181955
57.375283611
57.3883181955
57.4258420327
57.4834700631
57.5548869089
57.632871416
57.7101922556
57.7802920793
57.8377354082
57.8783565899
57.8993660521
57.9209579354
57.8999400653
57.8593024421
57.8018354467
57.7317067111
57.65435672
57.576340844
57.504893424
57.447245347
57.4097066495
57.3966668295
57.4097066495
57.447245347
57.504893424
57.576340844
57.65435672
57.7317067111
57.8018354467
57.8593024421
57.8999400653
57.9209579354
57.8999400653
57.8775321336
57.8341141065
57.7724959149
57.6969263384
57.6130576578
57.5278676696
57.4492567809
57.3853501961
57.3434939931
57.3289034196
57.3434939931
57.3853501961
57.4492567809
57.5278676696
57.6130576578
57.6969263384
57.7724959149
57.8341141065
57.8775321336
57.8999400653
57.8593024421
57.8341141065
57.7851121347
57.7151027187
57.6284193987
57.5310985109
57.430884454
57.3370108844
57.259593324
57.2082717218
57.1902478222
57.2082717218
57.259593324
57.3370108844
57.430884454
57.5310985109
57.6284193987
57.7151027187
57.7851121347
57.8341141065
57.8593024421
57.8018354467
57.7724959149
57.7151027187
57.6323201632
57.5284944208
57.4099765984
57.2854790176
57.1662900984
57.0657599679
56.9977940144
56.9736267326
56.9977940144
57.0657599679
57.1662900984
57.2854790176
57.4099765984
57.5284944208
57.6323201632
57.7151027187
57.7724959149
57.8018354467
57.7317067111
57.6969263384
57.6284193987
57.5284944208
57.401120672
57.2525997149
57.0925001709
56.9345683295
56.7970353997
56.7012073347
56.6663741805
56.7012073347
56.7970353997
56.9345683295
57.0925001709
57.2525997149
57.401120672
57.5284944208
57.6284193987
57.6969263384
57.7317067111
57.65435672
57.6130576578
57.5310985109
57.4099765984
57.2525997149
57.0643488106
56.8547192189
56.6395954985
56.4436509689
56.3005794014
56.2464682409
56.3005794014
56.4436509689
56.6395954985
56.8547192189
57.0643488106
57.2525997149
57.4099765984
57.5310985109
57.6130576578
57.65435672
57.576340844
57.5278676696
57.430884454
57.2854790176
57.0925001709
56.8547192189
56.5792436742
56.2817833273
55.9932591002
55.7666857599
55.6740019667
55.7666857599
55.9932591002
56.2817833273
56.5792436742
56.8547192189
57.0925001709
57.2854790176
57.430884454
57.5278676696
57.576340844
57.504893424
57.4492567809
57.3370108844
57.1662900984
56.9345683295
56.6395954985
56.2817833273
55.8700409165
55.4347627619
55.0519525873
54.8690963091
55.0519525873
55.4347627619
55.8700409165
56.2817833273
56.6395954985
56.9345683295
57.1662900984
57.3370108844
57.4492567809
57.504893424
57.447245347
57.3853501961
57.259593324
57.0657599679
56.7970353997
56.4436509689
55.9932591002
55.4347627619
54.7738552825
54.0845705053
53.6447590832
54.0845705053
54.7738552825
55.4347627619
55.9932591002
56.4436509689
56.7970353997
57.0657599679
57.259593324
57.3853501961
57.447245347
57.4097066495
57.3434939931
57.2082717218
56.9977940144
56.7012073347
56.3005794014
55.7666857599
55.0519525873
54.0845705053
52.8006824868
51.4644468914
52.8006824868
54.0845705053
55.0519525873
55.7666857599
56.3005794014
56.7012073347
56.9977940144
57.2082717218
57.3434939931
57.4097066495
57.3966668295
57.3289034196
57.1902478222
56.9736267326
56.6663741805
56.2464682409
55.6740019667
54.8690963091
53.6447590832
51.4644468914
46.4020141764
51.4644468914
53.6447590832
54.8690963091
55.6740019667
56.2464682409
56.6663741805
56.9736267326
57.1902478222
57.3289034196
57.3966668295
57.4097066495
57.3434939931
57.2082717218
56.9977940144
56.7012073347
56.3005794014
55.7666857599
55.0519525873
54.0845705053
52.8006824868
51.4644468914
52.8006824868
54.0845705053
55.0519525873
55.7666857599
56.3005794014
56.7012073347
56.9977940144
57.2082717218
57.3434939931
57.4097066495
57.447245347
57.3853501961
57.259593324
57.0657599679
56.7970353997
56.4436509689
55.9932591002
55.4347627619
54.7738552825
54.0845705053
53.6447590832
54.0845705053
54.7738552825
55.4347627619
55.9932591002
56.4436509689
56.7970353997
57.0657599679
57.259593324
57.3853501961
57.447245347
57.504893424
57.4492567809
57.3370108844
57.1662900984
56.9345683295
56.6395954985
56.2817833273
55.8700409165
55.4347627619
55.0519525873
54.8690963091
55.0519525873
55.4347627619
55.8700409165
56.2817833273
56.6395954985
56.9345683295
57.1662900984
57.3370108844
57.4492567809
57.504893424
57.576340844
57.5278676696
57.430884454
57.2854790176
57.0925001709
56.8547192189
56.5792436742
56.2817833273
55.9932591002
55.7666857599
55.6740019667
55.7666857599
55.9932591002
56.2817833273
56.5792436742
56.8547192189
57.0925001709
57.2854790176
57.430884454
57.5278676696
57.576340844
57.65435672
57.6130576578
57.5310985109
57.4099765984
57.2525997149
57.0643488106
56.8547192189
56.6395954985
56.4436509689
56.3005794014
56.2464682409
56.3005794014
56.4436509689
56.6395954985
56.8547192189
57.0643488106
57.2525997149
57.4099765984
57.5310985109
57.6130576578
57.65435672
57.7317067111
57.6969263384
57.6284193987
57.5284944208
57.401120672
57.2525997149
57.0925001709
56.9345683295
56.7970353997
56.7012073347
56.6663741805
56.7012073347
56.7970353997
56.9345683295
57.0925001709
57.2525997149
57.401120672
57.5284944208
57.6284193987
57.6969263384
57.7317067111
57.8018354467
57.7724959149
57.7151027187
57.6323201632
57.5284944208
57.4099765984
57.2854790176
57.1662900984
57.0657599679
56.9977940144
56.9736267326
56.9977940144
57.0657599679
57.1662900984
57.2854790176
57.4099765984
57.5284944208
57.6323201632
57.7151027187
57.7724959149
57.8018354467
57.8593024421
57.8341141065
57.7851121347
57.7151027187
57.6284193987
57.5310985109
57.430884454
57.3370108844
57.259593324
57.2082717218
57.1902478222
57.2082717218
57.259593324
57.3370108844
57.430884454
57.5310985109
57.6284193987
57.7151027187
57.7851121347
57.8341141065
57.8593024421
57.8999400653
57.8775321336
57.8341141065
57.7724959149
57.6969263384
57.6130576578
57.5278676696
57.4492567809
57.3853501961
57.3434939931
57.3289034196
57.3434939931
57.3853501961
57.4492567809
57.5278676696
57.6130576578
57.6969263384
57.7724959149
57.8341141065
57.8775321336
57.8999400653
57.9209579354
57.8999400653
57.8593024421
57.8018354467
57.7317067111
57.65435672
57.576340844
57.504893424
57.447245347
57.4097066495
57.3966668295
57.4097066495
57.447245347
57.504893424
57.576340844
57.65435672
57.7317067111
57.8018354467
57.8593024421
57.8999400653
57.9209579354
SCALARS gas_saturation double 1
LOOKUP_TABLE default
0.799536064454
0.799535865561
0.799535479165
0.799534790307
0.799533967904
0.799533141546
0.799532337294
0.799531476305
0.799530828377
0.799530445751
0.799530303839
0.799530445751
0.799530828377
0.799531476305
0.799532337294
0.799533141546
0.799533967904
0.799534790307
0.799535479165
0.799535865561
0.799536064454
0.799535865561
0.799535636087
0.799535189097
0.799534439895
0.799533580899
0.799532742178
0.799531730889
0.799530851659
0.799530202702
0.799529805309
0.799529624398
0.799529805309
0.799530202702
0.799530851659
0.799531730889
0.799532742178
0.799533580899
0.799534439895
0.799535189097
0.799535636087
0.799535865561
0.799535479165
0.799535189097
0.799534583086
0.799533781195
0.799532897265
0.799531774321
0.799530655885
0.79952972645
0.79952875991
0.799528190223
0.799528002034
0.799528190223
0.79952875991
0.79952972645
0.799530655885
0.799531774321
0.799532897265
0.799533781195
0.799534583086
0.799535189097
0.799535479165
0.799534790307
0.799534439895
0.799533781195
0.799532936402
0.799531739377
0.79953044862
0.799529082091
0.799527748391
0.799526700492
0.799525861818
0.79952560623
0.799525861818
0.799526700492
0.799527748391
0.799529082091
0.79953044862
0.799531739377
0.799532936402
0.799533781195
0.799534439895
0.799534790307
0.799533967904
0.799533580899
0.799532897265
0.799531739377
0.79953035342
0.799528686727
0.799527036304
0.799525185582
0.799523709684
0.799522600194
0.799522241049
0.799522600194
0.799523709684
0.799525185582
0.799527036304
0.799528686727
0.79953035342
0.799531739377
0.799532897265
0.799533580899
0.799533967904
0.799533141546
0.799532742178
0.799531774321
0.79953044862
0.799528686727
0.799526682784
0.799524402755
0.799521966148
0.799519764972
0.799518232118
0.799517577457
0.799518232118
0.799519764972
0.799521966148
0.799524402755
0.799526682784
0.799528686727
0.79953044862
0.799531774321
0.799532742178
0.799533141546
0.799532337294
0.799531730889
0.799530655885
0.799529082091
0.799527036304
0.799524402755
0.799521360488
0.799518004886
0.799514788925
0.799512295251
0.799511273997
0.799512295251
0.799514788925
0.799518004886
0.799521360488
0.799524402755
0.799527036304
0.799529082091
0.799530655885
0.799531730889
0.799532337294
0.799531476305
0.799530851659
0.79952972645
0.799527748391
0.799525185582
0.799521966148
0.799518004886
0.799513515633
0.799508638943
0.799504468865
0.799502475324
0.799504468865
0.799508638943
0.799513515633
0.799518004886
0.799521966148
0.799525185582
0.799527748391
0.79952972645
0.799530851659
0.799531476305
0.799530828377
0.799530202702
0.79952875991
0.799526700492
0.799523709684
0.799519764972
0.799514788925
0.799508638943
0.799501366633
0.79949386549
0.799488924842
0.79949386549
0.799501366633
0.799508638943
0.799514788925
0.799519764972
0.799523709684
0.799526700492
0.79952875991
0.799530202702
0.799530828377
0.799530445751
0.799529805309
0.799528190223
0.799525861818
0.799522600194
0.799518232118
0.799512295251
0.799504468865
0.79949386549
0.799479625306
0.799464808793
0.799479625306
0.79949386549
0.799504468865
0.799512295251
0.799518232118
0.799522600194
0.799525861818
0.799528190223
0.799529805309
0.799530445751
0.799530303839
0.799529624398
0.799528002034
0.79952560623
0.799522241049
0.799517577457
0.799511273997
0.799502475324
0.799488924842
0.799464808793
0.799408941718
0.799464808793
0.799488924842
0.799502475324
0.799511273997
0.799517577457
0.799522241049
0.79952560623
0.799528002034
0.799529624398
0.799530303839
0.799530445751
0.799529805309
0.799528190223
0.799525861818
0.799522600194
0.799518232118
0.799512295251
0.799504468865
0.79949386549
0.799479625306
0.799464808793
0.799479625306
0.79949386549
0.799504468865
0.799512295251
0.799518232118
0.799522600194
0.799525861818
0.799528190223
0.799529805309
0.799530445751
0.799530828377
0.799530202702
0.79952875991
0.799526700492
0.799523709684
0.799519764972
0.799514788925
0.799508638943
0.799501366633
0.79949386549
0.799488924842
0.79949386549
0.799501366633
0.799508638943
0.799514788925
0.799519764972
0.799523709684
0.799526700492
0.79952875991
0.799530202702
0.799530828377
0.799531476305
0.799530851659
0.79952972645
0.799527748391
0.799525185582
0.799521966148
0.799518004886
0.799513515633
0.799508638943
0.799504468865
0.799502475324
0.799504468865
0.799508638943
0.799513515633
0.799518004886
0.799521966148
0.799525185582
0.799527748391
0.79952972645
0.799530851659
0.799531476305
0.799532337294
0.799531730889
0.799530655885
0.799529082091
0.799527036304
0.799524402755
0.799521360488
0.799518004886
0.799514788925
0.799512295251
0.799511273997
0.799512295251
0.799514788925
0.799518004886
0.799521360488
0.799524402755
0.799527036304
0.799529082091
0.799530655885
0.799531730889
0.799532337294
0.799533141546
0.799532742178
0.799531774321
0.79953044862
0.799528686727
0.799526682784
0.799524402755
0.799521966148
0.799519764972
0.799518232118
0.799517577457
0.799518232118
0.799519764972
0.799521966148
0.799524402755
0.799526682784
0.799528686727
0.79953044862
0.799531774321
0.799532742178
0.799533141546
0.799533967904
0.799533580899
0.799532897265
0.799531739377
0.79953035342
0.799528686727
0.799527036304
0.799525185582
0.799523709684
0.799522600194
0.799522241049
0.799522600194
0.799523709684
0.799525185582
0.799527036304
0.799528686727
0.79953035342
0.799531739377
0.799532897265
0.799533580899
0.799533967904
0.799534790307
0.799534439895
0.799533781195
0.799532936402
0.799531739377
0.79953044862
0.799529082091
0.799527748391
0.799526700492
0.799525861818
0.79952560623
0.799525861818
0.799526700492
0.799527748391
0.799529082091
0.79953044862
0.799531739377
0.799532936402
0.799533781195
0.799534439895
0.799534790307
0.799535479165
0.799535189097
0.799534583086
0.799533781195
0.799532897265
0.799531774321
0.799530655885
0.79952972645
0.79952875991
0.799528190223
0.799528002034
0.799528190223
0.79952875991
0.79952972645
0.799530655885
0.799531774321
0.799532897265
0.799533781195
0.799534583086
0.799535189097
0.799535479165
0.799535865561
0.799535636087
0.799535189097
0.799534439895
0.799533580899
0.799532742178
0.799531730889
0.799530851659
0.799530202702
0.799529805309
0.799529624398
0.799529805309
0.799530202702
0.799530851659
0.799531730889
0.799532742178
0.799533580899
0.799534439895
0.799535189097
0.799535636087
0.799535865561
0.799536064454
0.799535865561
0.799535479165
0.799534790307
0.799533967904
0.799533141546
0.799532337294
0.799531476305
0.799530828377
0.799530445751
0.799530303839
0.799530445751
0.799530828377
0.799531476305
0.799532337294
0.799533141546
0.799533967904
0.799534790307
0.799535479165
0.799535865561
0.799536064454
0.799535851994
0.799535621798
0.79953521593
0.799534615166
0.799533755935
0.799532919779
0.79953216887
0.799531264449
0.799530616596
0.799530210092
0.799530083661
0.799530210092
0.799530616596
0.799531264449
0.79953216887
0.799532919779
0.799533755935
0.799534615166
0.79953521593
0.799535621798
0.799535851994
0.799535621798
0.799535409269
0.799534997826
0.799534237073
0.799533371859
0.799532510232
0.79953156011
0.799530637486
0.799529966214
0.79952956542
0.799529417019
0.79952956542
0.799529966214
0.799530637486
0.79953156011
0.799532510232
0.799533371859
0.799534237073
0.799534997826
0.799535409269
0.799535621798
0.79953521593
0.799534997826
0.799534405525
0.79953357235
0.799532654446
0.799531599695
0.799530438259
0.799529500558
0.799528578703
0.799527978217
0.799527774722
0.799527978217
0.799528578703
0.799529500558
0.799530438259
0.799531599695
0.799532654446
0.79953357235
0.799534405525
0.799534997826
0.79953521593
0.799534615166
0.799534237073
0.79953357235
0.799532688975
0.799531567849
0.799530212629
0.799528879602
0.799527524666
0.799526509285
0.799525679655
0.799525384139
0.799525679655
0.799526509285
0.799527524666
0.799528879602
0.799530212629
0.799531567849
0.799532688975
0.79953357235
0.799534237073
0.799534615166
0.799533755935
0.799533371859
0.799532654446
0.799531567849
0.799530127941
0.799528491206
0.799526798713
0.799524948184
0.799523513949
0.799522381662
0.79952199527
0.799522381662
0.799523513949
0.799524948184
0.799526798713
0.799528491206
0.799530127941
0.799531567849
0.799532654446
0.799533371859
0.799533755935
0.799532919779
0.799532510232
0.799531599695
0.799530212629
0.799528491206
0.799526489611
0.799524150277
0.7995217341
0.799519532472
0.799518055553
0.799517387796
0.799518055553
0.799519532472
0.7995217341
0.799524150277
0.799526489611
0.799528491206
0.799530212629
0.799531599695
0.799532510232
0.799532919779
0.79953216887
0.79953156011
0.799530438259
0.799528879602
0.799526798713
0.799524150277
0.799521145616
0.799517812965
0.799514590047
0.799512115442
0.799511052948
0.799512115442
0.799514590047
0.799517812965
0.799521145616
0.799524150277
0.799526798713
0.799528879602
0.799530438259
0.79953156011
0.79953216887
0.799531264449
0.799530637486
0.799529500558
0.799527524666
0.799524948184
0.7995217341
0.799517812965
0.799513257381
0.799508397272
0.799504277262
0.799502200802
0.799504277262
0.799508397272
0.799513257381
0.799517812965
0.7995217341
0.799524948184
0.799527524666
0.799529500558
0.799530637486
0.799531264449
0.799530616596
0.799529966214
0.799528578703
0.799526509285
0.799523513949
0.799519532472
0.799514590047
0.799508397272
0.799501162181
0.799493603593
0.799488657581
0.799493603593
0.799501162181
0.799508397272
0.799514590047
0.799519532472
0.799523513949
0.799526509285
0.799528578703
0.799529966214
0.799530616596
0.799530210092
0.79952956542
0.799527978217
0.799525679655
0.799522381662
0.799518055553
0.799512115442
0.799504277262
0.799493603593
0.799479443961
0.79946457674
0.799479443961
0.799493603593
0.799504277262
0.799512115442
0.799518055553
0.799522381662
0.799525679655
0.799527978217
0.79952956542
0.799530210092
0.799530083661
0.799529417019
0.799527774722
0.799525384139
0.79952199527
0.799517387796
0.799511052948
0.799502200802
0.799488657581
0.79946457674
0.79940866591
0.79946457674
0.799488657581
0.799502200802
0.799511052948
0.799517387796
0.79952199527
0.799525384139
0.799527774722
0.799529417019
0.799530083661
0.799530210092
0.79952956542
0.799527978217
0.799525679655
0.799522381662
0.799518055553
0.799512115442
0.799504277262
0.799493603593
0.799479443961
0.79946457674
0.799479443961
0.799493603593
0.799504277262
0.799512115442
0.799518055553
0.799522381662
0.799525679655
0.799527978217
0.79952956542
0.799530210092
0.799530616596
0.799529966214
0.799528578703
0.799526509285
0.799523513949
0.799519532472
0.799514590047
0.799508397272
0.799501162181
0.799493603593
0.799488657581
0.799493603593
0.799501162181
0.799508397272
0.799514590047
0.799519532472
0.799523513949
0.799526509285
0.799528578703
0.799529966214
0.799530616596
0.799531264449
0.799530637486
0.799529500558
0.799527524666
0.799524948184
0.7995217341
0.799517812965
0.799513257381
0.799508397272
0.799504277262
0.799502200802
0.799504277262
0.799508397272
0.799513257381
0.799517812965
0.7995217341
0.799524948184
0.799527524666
0.799529500558
0.799530637486
0.799531264449
0.79953216887
0.79953156011
0.799530438259
0.799528879602
0.799526798713
0.799524150277
0.799521145616
0.799517812965
0.799514590047
0.799512115442
0.799511052948
0.799512115442
0.799514590047
0.799517812965
0.799521145616
0.799524150277
0.799526798713
0.799528879602
0.799530438259
0.79953156011
0.79953216887
0.799532919779
0.799532510232
0.799531599695
0.799530212629
0.799528491206
0.799526489611
0.799524150277
0.7995217341
0.799519532472
0.799518055553
0.799517387796
0.799518055553
0.799519532472
0.7995217341
0.799524150277
0.799526489611
0.799528491206
0.799530212629
0.799531599695
0.799532510232
0.799532919779
0.799533755935
0.799533371859
0.799532654446
0.799531567849
0.799530127941
0.799528491206
0.799526798713
0.799524948184
0.799523513949
0.799522381662
0.79952199527
0.799522381662
0.799523513949
0.799524948184
0.799526798713
0.799528491206
0.799530127941
0.799531567849
0.799532654446
0.799533371859
0.799533755935
0.799534615166
0.799534237073
0.79953357235
0.799532688975
0.799531567849
0.799530212629
0.799528879602
0.799527524666
0.799526509285
0.799525679655
0.799525384139
0.799525679655
0.799526509285
0.799527524666
0.799528879602
0.799530212629
0.799531567849
0.799532688975
0.79953357235
0.799534237073
0.799534615166
0.79953521593
0.799534997826
0.799534405525
0.79953357235
0.799532654446
0.799531599695
0.799530438259
0.799529500558
0.799528578703
0.799527978217
0.799527774722
0.799527978217
0.799528578703
0.799529500558
0.799530438259
0.799531599695
0.799532654446
0.79953357235
0.799534405525
0.799534997826
0.79953521593
0.799535621798
0.799535409269
0.799534997826
0.799534237073
0.799533371859
0.799532510232
0.79953156011
0.799530637486
0.799529966214
0.79952956542
0.799529417019
0.79952956542
0.799529966214
0.799530637486
0.79953156011
0.799532510232
0.799533371859
0.799534237073
0.799534997826
0.799535409269
0.799535621798
0.799535851994
0.799535621798
0.79953521593
0.799534615166
0.799533755935
0.799532919779
0.79953216887
0.799531264449
0.799530616596
0.799530210092
0.799530083661
0.799530210092
0.799530616596
0.799531264449
0.79953216887
0.799532919779
0.799533755935
0.799534615166
0.79953521593
0.799535621798
0.799535851994
0.799535619677
0.799535403598
0.799534988172
0.799534434761
0.799533563766
0.799532682751
0.799531899217
0.799531086392
0.799530395161
0.799529986036
0.799529833065
0.799529986036
0.799530395161
0.799531086392
0.799531899217
0.799532682751
0.799533563766
0.799534434761
0.799534988172
0.799535403598
0.799535619677
0.799535403598
0.799535160077
0.799534731704
0.799534064738
0.799533152674
0.799532253796
0.799531357433
0.799530420133
0.79952972768
0.799529308125
0.799529176078
0.799529308125
0.79952972768
0.799530420133
0.799531357433
0.799532253796
0.799533152674
0.799534064738
0.799534731704
0.799535160077
0.799535403598
0.799534988172
0.799534731704
0.799534218269
0.799533363351
0.79953241681
0.799531401285
0.799530214085
0.799529250946
0.799528374035
0.799527766228
0.799527562568
0.799527766228
0.799528374035
0.799529250946
0.799530214085
0.799531401285
0.79953241681
0.799533363351
0.799534218269
0.799534731704
0.799534988172
0.799534434761
0.799534064738
0.799533363351
0.799532459204
0.799531364421
0.799529989113
0.799528712605
0.799527294123
0.799526295043
0.799525465615
0.799525189576
0.799525465615
0.799526295043
0.799527294123
0.799528712605
0.799529989113
0.799531364421
0.799532459204
0.799533363351
0.799534064738
0.799534434761
0.799533563766
0.799533152674
0.79953241681
0.799531364421
0.799529886406
0.799528294896
0.79952653467
0.799524741115
0.799523344598
0.799522163856
0.799521780577
0.799522163856
0.799523344598
0.799524741115
0.79952653467
0.799528294896
0.799529886406
0.799531364421
0.79953241681
0.799533152674
0.799533563766
0.799532682751
0.799532253796
0.799531401285
0.799529989113
0.799528294896
0.799526282098
0.799523901049
0.799521488797
0.799519322087
0.799517863893
0.79951717562
0.799517863893
0.799519322087
0.799521488797
0.799523901049
0.799526282098
0.799528294896
0.799529989113
0.799531401285
0.799532253796
0.799532682751
0.799531899217
0.799531357433
0.799530214085
0.799528712605
0.79952653467
0.799523901049
0.799520900481
0.79951762739
0.799514376585
0.79951190373
0.799510814775
0.79951190373
0.799514376585
0.79951762739
0.799520900481
0.799523901049
0.79952653467
0.799528712605
0.799530214085
0.799531357433
0.799531899217
0.799531086392
0.799530420133
0.799529250946
0.799527294123
0.799524741115
0.799521488797
0.79951762739
0.799513013369
0.799508181357
0.79950409321
0.799501964957
0.79950409321
0.799508181357
0.799513013369
0.79951762739
0.799521488797
0.799524741115
0.799527294123
0.799529250946
0.799530420133
0.799531086392
0.799530395161
0.79952972768
0.799528374035
0.799526295043
0.799523344598
0.799519322087
0.799514376585
0.799508181357
0.799500969056
0.799493349431
0.799488422695
0.799493349431
0.799500969056
0.799508181357
0.799514376585
0.799519322087
0.799523344598
0.799526295043
0.799528374035
0.79952972768
0.799530395161
0.799529986036
0.799529308125
0.799527766228
0.799525465615
0.799522163856
0.799517863893
0.79951190373
0.79950409321
0.799493349431
0.799479223086
0.799464338765
0.799479223086
0.799493349431
0.79950409321
0.79951190373
0.799517863893
0.799522163856
0.799525465615
0.799527766228
0.799529308125
0.799529986036
0.799529833065
0.799529176078
0.799527562568
0.799525189576
0.799521780577
0.79951717562
0.799510814775
0.799501964957
0.799488422695
0.799464338765
0.799408374433
0.799464338765
0.799488422695
0.799501964957
0.799510814775
0.79951717562
0.799521780577
0.799525189576
0.799527562568
0.799529176078
0.799529833065
0.799529986036
0.799529308125
0.799527766228
0.799525465615
0.799522163856
0.799517863893
0.79951190373
0.79950409321
0.799493349431
0.799479223086
0.799464338765
0.799479223086
0.799493349431
0.79950409321
0.79951190373
0.799517863893
0.799522163856
0.799525465615
0.799527766228
0.799529308125
0.799529986036
0.799530395161
0.79952972768
0.799528374035
0.799526295043
0.799523344598
0.799519322087
0.799514376585
0.799508181357
0.799500969056
0.799493349431
0.799488422695
0.799493349431
0.799500969056
0.799508181357
0.799514376585
0.799519322087
0.799523344598
0.799526295043
0.799528374035
0.79952972768
0.799530395161
0.799531086392
0.799530420133
0.799529250946
0.799527294123
0.799524741115
0.799521488797
0.79951762739
0.799513013369
0.799508181357
0.79950409321
0.799501964957
0.79950409321
0.799508181357
0.799513013369
0.79951762739
0.799521488797
0.799524741115
0.799527294123
0.799529250946
0.799530420133
0.799531086392
0.799531899217
0.799531357433
0.799530214085
0.799528712605
0.79952653467
0.799523901049
0.799520900481
0.79951762739
0.799514376585
0.79951190373
0.799510814775
0.79951190373
0.799514376585
0.79951762739
0.799520900481
0.799523901049
0.79952653467
0.799528712605
0.799530214085
0.799531357433
0.799531899217
0.799532682751
0.799532253796
0.799531401285
0.799529989113
0.799528294896
0.799526282098
0.799523901049
0.799521488797
0.799519322087
0.799517863893
0.79951717562
0.799517863893
0.799519322087
0.799521488797
0.799523901049
0.799526282098
0.799528294896
0.799529989113
0.799531401285
0.799532253796
0.799532682751
0.799533563766
0.799533152674
0.79953241681
0.799531364421
0.799529886406
0.799528294896
0.79952653467
0.799524741115
0.799523344598
0.799522163856
0.799521780577
0.799522163856
0.799523344598
0.799524741115
0.79952653467
0.799528294896
0.799529886406
0.799531364421
0.79953241681
0.799533152674
0.799533563766
0.799534434761
0.799534064738
0.799533363351
0.799532459204
0.799531364421
0.799529989113
0.799528712605
0.799527294123
0.799526295043
0.799525465615
0.799525189576
0.799525465615
0.799526295043
0.799527294123
0.799528712605
0.799529989113
0.799531364421
0.799532459204
0.799533363351
0.799534064738
0.799534434761
0.799534988172
0.799534731704
0.799534218269
0.799533363351
0.79953241681
0.799531401285
0.799530214085
0.799529250946
0.799528374035
0.799527766228
0.799527562568
0.799527766228
0.799528374035
0.799529250946
0.799530214085
0.799531401285
0.79953241681
0.799533363351
0.799534218269
0.799534731704
0.799534988172
0.799535403598
0.799535160077
0.799534731704
0.799534064738
0.799533152674
0.799532253796
0.799531357433
0.799530420133
0.79952972768
0.799529308125
0.799529176078
0.799529308125
0.79952972768
0.799530420133
0.799531357433
0.799532253796
0.799533152674
0.799534064738
0.799534731704
0.799535160077
0.799535403598
0.799535619677
0.799535403598
0.799534988172
0.799534434761
0.799533563766
0.799532682751
0.799531899217
0.799531086392
0.799530395161
0.799529986036
0.799529833065
0.799529986036
0.799530395161
0.799531086392
0.799531899217
0.799532682751
0.799533563766
0.799534434761
0.799534988172
0.799535403598
0.799535619677
0.799535456073
0.799535212927
0.799534777365
0.799534228704
0.799533400453
0.799532509531
0.799531703139
0.799530927871
0.799530236858
0.79952980394
0.79952966648
0.79952980394
0.799530236858
0.799530927871
0.799531703139
0.799532509531
0.799533400453
0.799534228704
0.799534777365
0.799535212927
0.799535456073
0.799535212927
0.799534982084
0.799534539295
0.799533910607
0.799532992226
0.79953207034
0.799531237689
0.799530259437
0.799529539433
0.79952910832
0.799528953066
0.79952910832
0.799529539433
0.799530259437
0.799531237689
0.79953207034
0.799532992226
0.799533910607
0.799534539295
0.799534982084
0.799535212927
0.799534777365
0.799534539295
0.799534074559
0.799533207704
0.799532227367
0.799531279954
0.799530044749
0.799529038022
0.799528240812
0.79952760221
0.79952738899
0.79952760221
0.799528240812
0.799529038022
0.799530044749
0.799531279954
0.799532227367
0.799533207704
0.799534074559
0.799534539295
0.799534777365
0.799534228704
0.799533910607
0.799533207704
0.799532265145
0.799531245938
0.799529806689
0.799528545014
0.799527118368
0.79952606396
0.799525331679
0.7995250214
0.799525331679
0.79952606396
0.799527118368
0.799528545014
0.799529806689
0.799531245938
0.799532265145
0.799533207704
0.799533910607
0.799534228704
0.799533400453
0.799532992226
0.799532227367
0.799531245938
0.799529714514
0.799528147385
0.799526340436
0.799524551429
0.79952313491
0.799521999576
0.799521589032
0.799521999576
0.79952313491
0.799524551429
0.799526340436
0.799528147385
0.799529714514
0.799531245938
0.799532227367
0.799532992226
0.799533400453
0.799532509531
0.79953207034
0.799531279954
0.799529806689
0.799528147385
0.799526052704
0.799523696153
0.799521304018
0.799519144088
0.799517656379
0.799517032614
0.799517656379
0.799519144088
0.799521304018
0.799523696153
0.799526052704
0.799528147385
0.799529806689
0.799531279954
0.79953207034
0.799532509531
0.799531703139
0.799531237689
0.799530044749
0.799528545014
0.799526340436
0.799523696153
0.799520675596
0.799517478488
0.799514232585
0.799511772035
0.799510639681
0.799511772035
0.799514232585
0.799517478488
0.799520675596
0.799523696153
0.799526340436
0.799528545014
0.799530044749
0.799531237689
0.799531703139
0.799530927871
0.799530259437
0.799529038022
0.799527118368
0.799524551429
0.799521304018
0.799517478488
0.799512810327
0.799507995218
0.799503853649
0.799501746708
0.799503853649
0.799507995218
0.799512810327
0.799517478488
0.799521304018
0.799524551429
0.799527118368
0.799529038022
0.799530259437
0.799530927871
0.799530236858
0.799529539433
0.799528240812
0.79952606396
0.79952313491
0.799519144088
0.799514232585
0.799507995218
0.799500820734
0.799493111952
0.799488213098
0.799493111952
0.799500820734
0.799507995218
0.799514232585
0.799519144088
0.79952313491
0.79952606396
0.799528240812
0.799529539433
0.799530236858
0.79952980394
0.79952910832
0.79952760221
0.799525331679
0.799521999576
0.799517656379
0.799511772035
0.799503853649
0.799493111952
0.79947900232
0.79946416701
0.79947900232
0.799493111952
0.799503853649
0.799511772035
0.799517656379
0.799521999576
0.799525331679
0.79952760221
0.79952910832
0.79952980394
0.79952966648
0.799528953066
0.79952738899
0.7995250214
0.799521589032
0.799517032614
0.799510639681
0.799501746708
0.799488213098
0.79946416701
0.79940816561
0.79946416701
0.799488213098
0.799501746708
0.799510639681
0.799517032614
0.799521589032
0.7995250214
0.79952738899
0.799528953066
0.79952966648
0.79952980394
0.79952910832
0.79952760221
0.799525331679
0.799521999576
0.799517656379
0.799511772035
0.799503853649
0.799493111952
0.79947900232
0.79946416701
0.79947900232
0.799493111952
0.799503853649
0.799511772035
0.799517656379
0.799521999576
0.799525331679
0.79952760221
0.79952910832
0.79952980394
0.799530236858
0.799529539433
0.799528240812
0.79952606396
0.79952313491
0.799519144088
0.799514232585
0.799507995218
0.799500820734
0.799493111952
0.799488213098
0.799493111952
0.799500820734
0.799507995218
0.799514232585
0.799519144088
0.79952313491
0.79952606396
0.799528240812
0.799529539433
0.799530236858
0.799530927871
0.799530259437
0.799529038022
0.799527118368
0.799524551429
0.799521304018
0.799517478488
0.799512810327
0.799507995218
0.799503853649
0.799501746708
0.799503853649
0.799507995218
0.799512810327
0.799517478488
0.799521304018
0.799524551429
0.799527118368
0.799529038022
0.799530259437
0.799530927871
0.799531703139
0.799531237689
0.799530044749
0.799528545014
0.799526340436
0.799523696153
0.799520675596
0.799517478488
0.799514232585
0.799511772035
0.799510639681
0.799511772035
0.799514232585
0.799517478488
0.799520675596
0.799523696153
0.799526340436
0.799528545014
0.799530044749
0.799531237689
0.799531703139
0.799532509531
0.79953207034
0.799531279954
0.799529806689
0.799528147385
0.799526052704
0.799523696153
0.799521304018
0.799519144088
0.799517656379
0.799517032614
0.799517656379
0.799519144088
0.799521304018
0.799523696153
0.799526052704
0.799528147385
0.799529806689
0.799531279954
0.79953207034
0.799532509531
0.799533400453
0.799532992226
0.799532227367
0.799531245938
0.799529714514
0.799528147385
0.799526340436
0.799524551429
0.79952313491
0.799521999576
0.799521589032
0.799521999576
0.79952313491
0.799524551429
0.799526340436
0.799528147385
0.799529714514
0.799531245938
0.799532227367
0.799532992226
0.799533400453
0.799534228704
0.799533910607
0.799533207704
0.799532265145
0.799531245938
0.799529806689
0.799528545014
0.799527118368
0.79952606396
0.799525331679
0.7995250214
0.799525331679
0.79952606396
0.799527118368
0.799528545014
0.799529806689
0.799531245938
0.799532265145
0.799533207704
0.799533910607
0.799534228704
0.799534777365
0.799534539295
0.799534074559
0.799533207704
0.799532227367
0.799531279954
0.799530044749
0.799529038022
0.799528240812
0.79952760221
0.79952738899
0.79952760221
0.799528240812
0.799529038022
0.799530044749
0.799531279954
0.799532227367
0.799533207704
0.799534074559
0.799534539295
0.799534777365
0.799535212927
0.799534982084
0.799534539295
0.799533910607
0.799532992226
0.79953207034
0.799531237689
0.799530259437
0.799529539433
0.79952910832
0.799528953066
0.79952910832
0.799529539433
0.799530259437
0.799531237689
0.79953207034
0.799532992226
0.799533910607
0.799534539295
0.799534982084
0.799535212927
0.799535456073
0.799535212927
0.799534777365
0.799534228704
0.799533400453
0.799532509531
0.799531703139
0.799530927871
0.799530236858
0.79952980394
0.79952966648
0.79952980394
0.799530236858
0.799530927871
0.799531703139
0.799532509531
0.799533400453
0.799534228704
0.799534777365
0.799535212927
0.799535456073
0.799535291134
0.799535058007
0.799534613581
0.799534022397
0.799533275324
0.799532340147
0.799531496468
0.799530812555
0.7995300782
0.799529642585
0.799529482428
0.799529642585
0.7995300782
0.799530812555
0.799531496468
0.799532340147
0.799533275324
0.799534022397
0.799534613581
0.799535058007
0.799535291134
0.799535058007
0.799534800365
0.79953434073
0.799533754011
0.799532840622
0.799531881651
0.799531028165
0.799530104855
0.79952936884
0.799528919142
0.7995287747
0.799528919142
0.79952936884
0.799530104855
0.799531028165
0.799531881651
0.799532840622
0.799533754011
0.79953434073
0.799534800365
0.799535058007
0.799534613581
0.79953434073
0.799533865676
0.799533061789
0.799532052722
0.799531056365
0.799529888426
0.799528856442
0.799528104077
0.799527458252
0.799527239233
0.799527458252
0.799528104077
0.799528856442
0.799529888426
0.799531056365
0.799532052722
0.799533061789
0.799533865676
0.79953434073
0.799534613581
0.799534022397
0.799533754011
0.799533061789
0.799532098348
0.799531033052
0.799529645878
0.799528351962
0.79952695594
0.799525881829
0.799525185817
0.799524888918
0.799525185817
0.799525881829
0.79952695594
0.799528351962
0.799529645878
0.799531033052
0.799532098348
0.799533061789
0.799533754011
0.799534022397
0.799533275324
0.799532840622
0.799532052722
0.799531033052
0.799529535715
0.799528018918
0.799526138755
0.799524412704
0.799522936995
0.799521843574
0.799521436124
0.799521843574
0.799522936995
0.799524412704
0.799526138755
0.799528018918
0.799529535715
0.799531033052
0.799532052722
0.799532840622
0.799533275324
0.799532340147
0.799531881651
0.799531056365
0.799529645878
0.799528018918
0.799525867668
0.799523515408
0.799521127377
0.799518995113
0.799517434829
0.799516889351
0.799517434829
0.799518995113
0.799521127377
0.799523515408
0.799525867668
0.799528018918
0.799529645878
0.799531056365
0.799531881651
0.799532340147
0.799531496468
0.799531028165
0.799529888426
0.799528351962
0.799526138755
0.799523515408
0.799520492052
0.799517270689
0.799514079892
0.799511600106
0.799510471133
0.799511600106
0.799514079892
0.799517270689
0.799520492052
0.799523515408
0.799526138755
0.799528351962
0.799529888426
0.799531028165
0.799531496468
0.799530812555
0.799530104855
0.799528856442
0.79952695594
0.799524412704
0.799521127377
0.799517270689
0.799512626959
0.799507839377
0.799503651782
0.799501569942
0.799503651782
0.799507839377
0.799512626959
0.799517270689
0.799521127377
0.799524412704
0.79952695594
0.799528856442
0.799530104855
0.799530812555
0.7995300782
0.79952936884
0.799528104077
0.799525881829
0.799522936995
0.799518995113
0.799514079892
0.799507839377
0.799500622872
0.7994929216
0.799488035301
0.7994929216
0.799500622872
0.799507839377
0.799514079892
0.799518995113
0.799522936995
0.799525881829
0.799528104077
0.79952936884
0.7995300782
0.799529642585
0.799528919142
0.799527458252
0.799525185817
0.799521843574
0.799517434829
0.799511600106
0.799503651782
0.7994929216
0.799478765288
0.799463981932
0.799478765288
0.7994929216
0.799503651782
0.799511600106
0.799517434829
0.799521843574
0.799525185817
0.799527458252
0.799528919142
0.799529642585
0.799529482428
0.7995287747
0.799527239233
0.799524888918
0.799521436124
0.799516889351
0.799510471133
0.799501569942
0.799488035301
0.799463981932
0.799407938523
0.799463981932
0.799488035301
0.799501569942
0.799510471133
0.799516889351
0.799521436124
0.799524888918
0.799527239233
0.7995287747
0.799529482428
0.799529642585
0.799528919142
0.799527458252
0.799525185817
0.799521843574
0.799517434829
0.799511600106
0.799503651782
0.7994929216
0.799478765288
0.799463981932
0.799478765288
0.7994929216
0.799503651782
0.799511600106
0.799517434829
0.799521843574
0.799525185817
0.799527458252
0.799528919142
0.799529642585
0.7995300782
0.79952936884
0.799528104077
0.799525881829
0.799522936995
0.799518995113
0.799514079892
0.799507839377
0.799500622872
0.7994929216
0.799488035301
0.7994929216
0.799500622872
0.799507839377
0.799514079892
0.799518995113
0.799522936995
0.799525881829
0.799528104077
0.79952936884
0.7995300782
0.799530812555
0.799530104855
0.799528856442
0.79952695594
0.799524412704
0.799521127377
0.799517270689
0.799512626959
0.799507839377
0.799503651782
0.799501569942
0.799503651782
0.799507839377
0.799512626959
0.799517270689
0.799521127377
0.799524412704
0.79952695594
0.799528856442
0.799530104855
0.799530812555
0.799531496468
0.799531028165
0.799529888426
0.799528351962
0.799526138755
0.799523515408
0.799520492052
0.799517270689
0.799514079892
0.799511600106
0.799510471133
0.799511600106
0.799514079892
0.799517270689
0.799520492052
0.799523515408
0.799526138755
0.799528351962
0.799529888426
0.799531028165
0.799531496468
0.799532340147
0.799531881651
0.799531056365
0.799529645878
0.799528018918
0.799525867668
0.799523515408
0.799521127377
0.799518995113
0.799517434829
0.799516889351
0.799517434829
0.799518995113
0.799521127377
0.799523515408
0.799525867668
0.799528018918
0.799529645878
0.799531056365
0.799531881651
0.799532340147
0.799533275324
0.799532840622
0.799532052722
0.799531033052
0.799529535715
0.799528018918
0.799526138755
0.799524412704
0.799522936995
0.799521843574
0.799521436124
0.799521843574
0.799522936995
0.799524412704
0.799526138755
0.799528018918
0.799529535715
0.799531033052
0.799532052722
0.799532840622
0.799533275324
0.799534022397
0.799533754011
0.799533061789
0.799532098348
0.799531033052
0.799529645878
0.799528351962
0.79952695594
0.799525881829
0.799525185817
0.799524888918
0.799525185817
0.799525881829
0.79952695594
0.799528351962
0.799529645878
0.799531033052
0.799532098348
0.799533061789
0.799533754011
0.799534022397
0.799534613581
0.79953434073
0.799533865676
0.799533061789
0.799532052722
0.799531056365
0.799529888426
0.799528856442
0.799528104077
0.799527458252
0.799527239233
0.799527458252
0.799528104077
0.799528856442
0.799529888426
0.799531056365
0.799532052722
0.799533061789
0.799533865676
0.79953434073
0.799534613581
0.799535058007
0.799534800365
0.79953434073
0.799533754011
0.799532840622
0.799531881651
0.799531028165
0.799530104855
0.79952936884
0.799528919142
0.7995287747
0.799528919142
0.79952936884
0.799530104855
0.799531028165
0.799531881651
0.799532840622
0.799533754011
0.79953434073
0.799534800365
0.799535058007
0.799535291134
0.799535058007
0.799534613581
0.799534022397
0.799533275324
0.799532340147
0.799531496468
0.799530812555
0.7995300782
0.799529642585
0.799529482428
0.799529642585
0.7995300782
0.799530812555
0.799531496468
0.799532340147
0.799533275324
0.799534022397
0.799534613581
0.799535058007
0.799535291134
